<mxfile host="app.diagrams.net" modified="2021-04-23T09:11:33.452Z" agent="5.0 (Windows NT 6.1; Win64; x64) AppleWebKit/537.36 (KHTML, like Gecko) Chrome/90.0.4430.72 Safari/537.36 Edg/90.0.818.42" etag="pvmLBbVtKX97UVRONAT-" version="14.6.6" type="github">
  <diagram id="y46dzzzKhAHgh4iQpHSj" name="第 1 页">
    <mxGraphModel dx="336" dy="698" grid="1" gridSize="10" guides="1" tooltips="1" connect="1" arrows="1" fold="1" page="1" pageScale="1" pageWidth="3300" pageHeight="2339" math="0" shadow="0">
      <root>
        <mxCell id="0" />
        <mxCell id="1" parent="0" />
        <mxCell id="LZa3TWfJk8D44VAh4uWb-3" value="" style="edgeStyle=orthogonalEdgeStyle;rounded=0;orthogonalLoop=1;jettySize=auto;html=1;" edge="1" parent="1" source="LZa3TWfJk8D44VAh4uWb-1" target="LZa3TWfJk8D44VAh4uWb-2">
          <mxGeometry relative="1" as="geometry">
            <Array as="points">
              <mxPoint x="250" y="310" />
              <mxPoint x="250" y="205" />
            </Array>
          </mxGeometry>
        </mxCell>
        <mxCell id="LZa3TWfJk8D44VAh4uWb-9" value="" style="edgeStyle=orthogonalEdgeStyle;rounded=0;orthogonalLoop=1;jettySize=auto;html=1;" edge="1" parent="1" source="LZa3TWfJk8D44VAh4uWb-1">
          <mxGeometry relative="1" as="geometry">
            <mxPoint x="300" y="560" as="targetPoint" />
            <Array as="points">
              <mxPoint x="250" y="310" />
              <mxPoint x="250" y="560" />
            </Array>
          </mxGeometry>
        </mxCell>
        <mxCell id="LZa3TWfJk8D44VAh4uWb-1" value="反激变换器电路" style="rounded=1;whiteSpace=wrap;html=1;" vertex="1" parent="1">
          <mxGeometry x="100" y="280" width="120" height="60" as="geometry" />
        </mxCell>
        <mxCell id="LZa3TWfJk8D44VAh4uWb-2" value="" style="rounded=1;whiteSpace=wrap;html=1;" vertex="1" parent="1">
          <mxGeometry x="300" y="70" width="390" height="230" as="geometry" />
        </mxCell>
        <mxCell id="LZa3TWfJk8D44VAh4uWb-4" value="" style="edgeStyle=orthogonalEdgeStyle;rounded=0;orthogonalLoop=1;jettySize=auto;html=1;" edge="1" parent="1" source="LZa3TWfJk8D44VAh4uWb-1">
          <mxGeometry relative="1" as="geometry">
            <mxPoint x="230" y="320" as="sourcePoint" />
            <mxPoint x="300" y="380" as="targetPoint" />
            <Array as="points">
              <mxPoint x="250" y="310" />
              <mxPoint x="250" y="380" />
              <mxPoint x="260" y="380" />
            </Array>
          </mxGeometry>
        </mxCell>
        <mxCell id="LZa3TWfJk8D44VAh4uWb-5" value="&lt;font style=&quot;font-size: 16px&quot;&gt;主要作用：&lt;span style=&quot;line-height: 150%&quot;&gt;电路具备一路有效的主输出&lt;/span&gt;&lt;span lang=&quot;EN-US&quot; style=&quot;line-height: 150%&quot;&gt;Vom&lt;/span&gt;&lt;span style=&quot;line-height: 150%&quot;&gt;以及一路有效辅输出&lt;/span&gt;&lt;span lang=&quot;EN-US&quot; style=&quot;line-height: 150%&quot;&gt;Vo1&lt;/span&gt;&lt;span style=&quot;line-height: 150%&quot;&gt;，&lt;/span&gt;&lt;span lang=&quot;EN-US&quot; style=&quot;line-height: 150%&quot;&gt;Vom&lt;/span&gt;&lt;span style=&quot;line-height: 150%&quot;&gt;与反馈回路之间连接，采样电压与参考电压之间对比之后，误差信号通过系统控制芯片五年陈&lt;/span&gt;&lt;span lang=&quot;EN-US&quot; style=&quot;line-height: 150%&quot;&gt;Q1&lt;/span&gt;&lt;span style=&quot;line-height: 150%&quot;&gt;相应导通时间的调整，进而保证输出电压处于输入电压发生变化以及负载发生变化的情况下可以稳定完成输出&lt;/span&gt;&lt;/font&gt;" style="rounded=0;whiteSpace=wrap;html=1;align=left;" vertex="1" parent="1">
          <mxGeometry x="300" y="350" width="360" height="150" as="geometry" />
        </mxCell>
        <mxCell id="LZa3TWfJk8D44VAh4uWb-7" value="" style="shape=image;verticalLabelPosition=bottom;labelBackgroundColor=#ffffff;verticalAlign=top;aspect=fixed;imageAspect=0;image=data:image/png,iVBORw0KGgoAAAANSUhEUgAAAXcAAAEiCAYAAAACg5K6AAAgAElEQVR4Aey9BXhVx9r+vb/znvM/53176rSlheKFAsVdi1O0aCkBgnux4pZSpEgp7hbcIUAMJ7gHCA4BGiEkgQhx/33X7J2dvZPsEFvbklnXNdeaNfY8c8/KvSezZp5HhbwkAhIBiYBEIM8hoMpzPZIdkghIBCQCEgEkucuXQCIgEZAI5EEEJLnnwUGVXZIISAQkApLc5TsgEZAISATyIAKS3PPgoMouSQQkAhIBSe7yHZAISAQkAnkQAUnueXBQZZckAhIBiYAkd/kOSAQkAhKBPIiAJPc8OKiySxIBiYBEQJK7fAckAhIBiUAeRECSex4cVNkliYBEQCIgyV2+AxIBiYBEIA8iIMk9Dw6q7JJEIK8gcGE/zNxguDentsLijZCUnJ0UBnvXQF8b6DkY9hyHBL2qUX4wfza4v9RLzMNRSe55eHBl1yQC1o7A1U3w0cdw522ankRDm++g90pN+qs70LwiVGoAtj2hV0+o8S3U7wreYZoywbegSAHYcjNNW3n0UZJ7Hh1Y2S2JQJ5AIATqfQOTd6buje8ZKFkKbocCsdCtClTvCW9ideVCPaFuQehop0kLvweVSsPuO7oyeTkmyT0vj67sm0QgDyCwoh9U/Tn1EsuaYdBggKZzPi5Q/As4E5C+s9c3wv+WBs9YiH0syT09QjJFIiARkAiYCQGvk1CoMFz2T1YgDJpXgj+cNM8Oc6FQCQg2oF/YAyjxH3D0hIRnktwNQCSTJAISAWMikBgXR8zbtAvLxpRoRW3HQNtKMHSdRuenzlC2MjyJ1jxvnwWflgZD6EU9gSr/hn33Jblb0YhLVY2JwKP78MjAv7nGlKlk2689Yd0SWLAK3sQp2bJx2np56RLb69cnNiz5659xxFhtq9tGQaU2mp0xy2zhh9G6rlxbDyUKgWe8Lk0b8zkN730GV4Mh3lPO3LW4yHs+RCDqNexdB5UrwxZ36wTg/HaoVB7q14cGreB5hOX3w+v0aVYULEj0mzeWr6wZNAxxh5Il4PgVaFUT1p7TKRHjDZULwuhtujRtbFpbKNMJooDI+1CpDBx6qs3N23f5QTVvj2+2e+d/AyqWgA++BIeH2a5u9gqRz6FFbdh83eyqZEsBbzc3VhctSnRQ0Dvr+V64wK4ffuD+9u3vLJfnMhNheEsoXwVqNQHfNLN0l0Xw6Scwej5cugyXzsKkXvDfz2B/8iQl9C6ULQQztsDly7pw81Hqj7V5BTtJ7nllJBXux7hhsPWGwo2aoLmrm6Fec5gzAzp2gMW7INEEcnMrIjNyj3r9mtMTJrDg//6PKSoV56ZNy61Iq6t/fiN88gkMW2NY9csO0LUlFCoAnxeDzr3B7b6ubMRzaF4OPisABfRChR6G1+t1Na0zJsndOsfN6FqPHZpDck+EJO2RQQW1jI6GhCywtMt0KFcTxv4KQ4ZA3bIwdaXuFKOCKina1LvI/f6uXawtV44ZKhWzVSpmqVRcmjNHUfnW0lhERObvV0QYhEem71FSIkRFQngYiE8b2hAeZfnvR/reZJ4iyT1zjPJlickjYf+j7HU99DFM+QVe6h0kyV4L6Uuf3gZtGsAXX8Dvrunz06acXAHdxulSPbZB404Qo0uyyFgKueutuQfcvs2BTp3UhD5TpWKeSsXcfE7uFjl4FqqUJHcLHRhzqRUdBK5O0LoJjPgLruj9W/sunY7PhIIfQZG6EPiugtnIu7gFypWFjYfh2lV4loVvjaGP4PvqYLcaHI+ATUsYtsTyZ2Zqci9WjKTERPWWyHN2diz88EP1bP2PZGI3O7knJvJm/Xqe9+yJ3+zZJISEZGM0ZVFTIyDJ3dSIW7i8ty+gWk2oUBvKVYNBGaxvpu2G1xVYOxcadgQ/JbYeRsPgH2C+A3g9B79s8MhzD+jaDkrXhHEbwMB/6GnVN/tzoIcHa0uW5O6WLdhXq8bvKhVz9EhdELs+uV9fssTkOr+y+40rKhVXVSr1/WnbttbxQcPkSFmGQMXJPTAykHGnx9HHuQ8DXQfKYGYMBhwdSJ/DvVg7xgZXGxuOZBa623C4e3I5/bhePRcbG2b27MmRQ4dSv8U+0N4GvJIPl4hMf39/VqxYwdssHNBxdnbm8OHD6jYTfaBmeWjSBL4sAF+WhCkbNeIi3oYyfeRIdtrY4KSnl7ZvJwbYcLSXDYdtbDg50AbXXu/ut2NyG+PW2GDjYoPNkRwEZxv677Zhd3/DOml1y+i+p0ULFvzzn2pC1y7BaAk97V3M5DdVqpT5WBrAxtnGhsnLstlPJxuG7OyG2/v/5JZKxQ2VipsqFe4qFVP+bJ1zzHKCszHqONgw7dw04hKVmJWk/pMw55MkdzOTr7F/AAW593Xsw/oJthyztcUps9DbFte+uuDSJ32do7a2jG7blv+89x4nT55MeX/D7kObn8FHb839+vXrlCxZEk9Pz5RyGUUGDRpE79691dmxnlCvPjjfgddv4PEZqF4PTnrH8VPntnxTrBh7bW1xyaA/Qm/RD+fe6fVPi4FzchsT1ttie9QWW6ccBFdbBu+1Ze/gjHVKK1f/eW+rVsz/xz/UH0sNzdj1CV6Qu32VKpmPpQFsBF5TV2Wzny62DN9lg9v7/0pH7tMXtss5ZjnB2Rh1Dtsy/fx0Se4Z/WHK9PyHwKyZM3n//fe5du2auvNxz6B9D3itB4W7uztVqlTh2bNneqmGo6NGjWLo0KGazHDo0xxWuWkek15Cl7ZQsnEPKn1XCt+Xecso92sPD9aUKMGl2bNZ+tln6mUZfULXxrUfVM2yLDPdTr0kc1el4rpKxdM2bfLmBnHDr6fVpSo+c7c6BKTCuUJg+PDhlK1UlB2j/alcElT/A9+Ug83HNM3eyim5A1cPQtWyULEC1K0LHxSZSdGiBXjmmfeOGIoPqmuKF4fERMT6+7aGDQ2uu2vJ3SxbIRMT8Vq5hGU13ufmxKHyg2qu/nKMX1mSu/ExztMSEhISaN7ye2p9/TP262HLFlizGm4nr8LkeOaejJr3HVi/FqbMu8Cnn7+P25lTeRLPlK2QySdU48LDOTt5MvP++U/01+DNSu6InVARVNpVC7c3V/PkOOSlTklyz0ujaaa+eD59xjfliuJ+S7f+rlUlt+SuaSeWTh2aMW7sWG2z77zfu3eP/fv3I+7WcqUld63eL06cYH3FivymUiHW2s1N7gGRAVTfWgM37+T1Mq2i8m5xCEhyt7ghsU6FGjRooN4Vk1Z7Jcg9PDycSmJ3yJEjaZtP92xnZ8dXX31F/fr1KVy4MDNmzEhXxhITgm9cytC2THzwa1z69085zKQ+ofrHH2bphiD3Gltq4OYlyd0sA5ANoZLcswGWLGoYAbF9sXjx4nh7e6croAS5i0Z//fVXmjZtmq59/YQtW7ZQtGhRLl68iPhBuHTpEl9//TXbthkwF6hf0Ujx2NAQLl/yQm9nKGJj+DMPb575hXL/ylP27vZg58572M/YxNrixSBc+I3TXUEvXvE62aql2AO/7KuvzGpbRpK7bmwsPSbJ3dJHyML1E7tgBKHa29sb1FQpcg8ODqaiWJ747TeDckRimzZtmJbGoNakSZPo0KFDhnWMmRHr/5R2jZbg8lSP3t/60KPLGlzdn9O35h806rSJ0b/uZUTLMUz814ecveOTrFIinmcv0rD0nxy4qbPxHvzkCbtateLW2rXGVD3DtiW5ZwiNxWVIcre4IbEehV6/fk2FChUYMWJEhkorRe5CwJ07dyhQoADr1iW75EkjtX379ggy17/GjRtH165d9ZNMGE/AfuomRiz2SJF5/6ArPcacJi4xiN71VuL8SHN+NuzeTWYVKEJzWwe1HZz7x0/yY6tF1Kq1ioO3wlPqmzsiyd3cI5B1+ZLcs46VLKmHgJ+fH82aNaNbt24kJmZsrlFJchfiXV1dKVSoELt27Uon98CBA3z++eccOnSIiIgIxPMnn3yCg4ODnuamjQZevkjHnnsJSBByY1k0egNLXYQz0Df0qrcChzvJxJ2URPSjG/zYegMXA2LwffiUp69e8cfYrWy9aMiBnGn7oZUmyV2LhOXfJbknj1HkW4jS++9ZJEcEgo/WKW8GY5mo/qPNIDMPJw8ZMoQPP/ww0x4qTe5C4Jw5c1CpVDx//jyd/MWLF1OuXDn1UpG4i2ezXgkhjOuzht0esfDmKb17bcNTuAWK81OT+8HbuiUXYgOx7bIWJ0/tTD2KaUPt2XZJkrtZx9BKhStC7gHP4fhREGZBDjvC+WsQlsZTij4+iaFw/qSm/IWbYj6T9evBFXjolb68+wVNe9ce6PKCvODkVTBkMSLCDy6d07jfEjU2zIW953V1RczeDkYueLdFQZ9bIFYJ7vydum5ef/Lw8FCvgY8fP/6dXVWa3MXSTKlSpZg/fz4xMYYN+b58+ZLLly8j/ruwhOvshkNMXHWTm/uOMXa+5jQvkS/V5H7knmD65OvFbVo128idUO0fT7gkdy028p5tBBQh9+0TQfX/QaHCULgIlK8I1WvCfAOewFzXQs3qUK40FC4M5StobIasO5u57rcOwH9UMHSprmyUN4xsDWXKaNorVRp6TYeoRPBxgy8+hOMGfgzWj4HvWsPbKHj5FMZNgRN34d4NCImDIA+YOhPOXYErt3TyDMU8PWDRQvDIZwQv7MUUKVJETbSGcBFpSpK72I1TokQJq9neqMUkxucxvw7ZQNf+9jjdTZ6pR72ke83FbD7nS0TEW/y9XjKzzyp+nn4R3T+D4UwauIHNF+TMXYulvGcdAUXI3X4UVPsJopI0XlIihJPlRfDF+zBhi06Zc+vh44/gt+0QFqMp+9YXlsyGqbt15QzFhEnZH5pClTIwdpWuxKJB8PX38CxY096zS/DNe7DwKOopd+dq0OtPXXl1LAZ+/A7sDkB8CLhsgQkz4dIVcDwITzxh4yq4lWy+ZOciWL0T/IMgPoPl5dv2MM4ujZx88Hjjxg0KFizI8ePHDfZWKXIXJ2HFVsgBAwYYlGPZiQmsHruWZt2dddsiYwMZ/sMSajdeSZfOa2jdaimDJ57CJ1zfjVUEf4zbyd5reks3Zu6oXHM38wBkQ7wy5D4aavycfvnj3Ep4vyTcEROPWGhaFnotzEC7DEhTlH7zCJrXh20XYK4NDFuka2NsJ6g2XPcsYj3LwPQ9mrSDU6BUQwjR+5vxPQ7fVIQ7wZoy5/bBsVOwb6fm2f0s3HoBYj392X1wOgIrZsHkP+BVmnV5TQ3YvgDK/wivtf9RazPywX316tVq42AhBpw3KEXuixYtonr16kRGWoN19vSDnhgVR2Skbk4uZh6R4dG88gvH2zsc/zd6yzMp1ZOIjoolNl7v5U3JM09Ekrt5cM+JVMXIvXo3dLMSrSZvoM5/YdUFiLgN5T+AYwaWSLTFDd3jX0OXmvDrBk3u5HYwVI/c/74OjatCm77g4Ag7V0PvEeCTfPBDmKEt9RU4PNS1/ldfaKSxLIvwiD58JBxzgAk2sG4XnLkIjx7CSSe446kxfCc+rl71yMAIXiT8PhbmLQPH6zo5+SlWq1YtNmxIHiS9jitB7mLnS9WqVdmzJ/kXW699GTUtApLcTYt3bqQZl9wjoMuHMNcFAs5AqffhWhZcpWk7FBcGv/eBiau1KWDXEUbreQcSZSb2h596Q5fW8PnHMHp9agcxwxrBj9qzL6HQsgLMTzaDEvQMzp4Dj9MwtT/cvAfLxsCNx7DuLzh9DnYfBVdn+P2ATg/92GNnmLAYAp/CnMUGfuT0C+fBuCBfccBo37596XqnBLmLD6f16tUzaN4gnUCZYFQEJLkbFV5FGzcuuYuZ+/uw7jJEuEPZ97M3c/e7AB+roG4LaNkcmjWDYgWgcGn4aYpmjX9WF+ir5wj+7kmo9jVM1ZvknVwEJWqA8NT2tyOUqgLP0y6vvIRV0yAmEXb+AqcuwKpV4H4LNm6HY8dhThrHQ+qRiIGFk+DsE824zB0Hu/OZwbwJEyaoydfQ7hUlyF0gK0wIFCtWDLETRl7mQ0CSu/mwz65kxcjd0Jr75XXw4bdwXyyTRsL330CfbGw7jnwFqxfAlEkwYYIm1CwJlRvDrE0QFQwN/wMrTqfu9lxbKKm3Dh/nBeW/BgcPWD4QOk7WlY8JBfdLsHsl/NIXnvjDlmFw4BDMm6+ZyR/ZDycyIPfLu+DPjbrtkj4XoLMt+KT98dCJzFMxQbrCUNeDB3p7UPV6qBS5iyb79++vNggWFWVofVpPqIwaDQFJ7kaDVvGGlSH3USDW3LW7jqOD4dBy+LoAjNus0/n4IvjPf2H2DohI/vAY9grWLoC5+3Xl3hX7rROM0ZrViIPh9aFsS3ia7P7H+zZULQwjk/1tatua3gka94QmdWHTFW0qBDyCXXvgxkmYN0GT7jQJnvjC3u1w/apmp8zxk+ln7r4eMHs5+Kch8m3ToO0QCLac72C6DisYc3Fx4eOPP1afCM2oWSXJPTo6Wk3unTp1Ij4+H365zghkE6ZLcjch2LkUpQi5b5+g2ecu9rgXKarZu161GsxNa4wvCfYugO++gzLfQJEi8F0lqFkP1mdhn7vo66gm0Heertev70PnulCqpKa98uXBZhK8TXNy6e4BUKmgYFPDpBv9FJZOAkEZB8dDcAIc3QfXPeBVCFw8BXZ6P0D+T2HdJniSvONGp5FmZ9C4n6BKG3C6kL1DWqnaseCHgwcPqk3q7t797j2sSpK7gEMYEGvYsCE//fRTlpxuWzCEVqmaJHfrGTZFyN3/Gbg4wYEDmnD6IoS849hpZCCcdNGUPXste+T3+CbcT3tYKB6unta0p39CVX8YkqLBzQWuPtZP1cWDbsHvUzUfYrf9piHzQSPgXjD4eUDfnrBULP8kwevncOw0BL5r+3EkTB8JKx2y1z+dRpYdE+vsH3zwAUHJnoMy0lZpchdyxKnYjz76yKCJ4Yz0kOnKICDJXRkcTdGKIuRuCkWNLSMmGB680EgRp9ajwuDJE83Ol4R4eHwPIsQPVhIE+uW/HTFp8Y+Li2Pw4MFUrlwZYR0yo0tpcl+yZInaRvvt27czEinTjYiAJHcjgqtw05LcFQY0vzXXpUsXfvjhhwzXwJUkd7EU9Nlnn6ntxuQ3nC2lv5LcLWUkMtdDknvmGMkS70BAnBitVq0aM2fONFhKKXL38vJSb4XcuTP5GLFBaTLR2AhIcjc2wsq1L8ldOSzzbUuCwIWlRmEpMu2lBLkLuzK2trb069cvbfPy2cQISHI3MeC5ECfJPRfgyao6BMQOluXLl+sSkmNKkLvwhyo8Pjk5OaVrXyaYFgFJ7qbFOzfSJLnnBj1ZV42AcEgt/KgaOsikBLkLIeIAk9j+KC/zIiDJ3bz4Z0e6JPfsoCXLpkMgMDBQ7fnojz/+SJcnEpQidx8fH7Ut9zVr9AwLGZQoE42JgCR3Y6KrbNuS3JXFM1+1JswANGjQgA4dOmTYb6XIXQg4ceIE77//PkeOHMlQnswwLgKS3I2Lr5KtS3JXEs181JZYB+/YsSM1atRQO6POqOtKkruQsXbtWgoUKMCpU6cyEinTjYiAJHcjgqtw05LcFQY0vzQ3bNgw3nvvPUJDQ9/ZZaXJXQgbN24c//znP3n27Nk7ZctM5RGQ5K48psZqUZK7sZDN4+2KA0XC/MDKlSvf2VOlyV2svYudM8J4WGY/LO9UTGbmCAFJ7jmCzSyVJLmbBfa8IfTw4cP8v//3/9i1a1eGHVKS3IVTEOFqr3Xr1oi97/IyPQKS3E2PeU4lSnLPKXKynhoBe3t7tRGvW7duGURESXLv0aOHeo1fmP6Vl3kQkORuHtxzIlWSe05Qk3VSISDW3+vWrWvQvoxS5C7+O/jiiy94/vx5KtnywbQIBEQFUnNbLdy8s2ij27TqSWl6CEhy1wNDRnOGQFhYmNqHqnDekfZSgtxjY2Np2rQpixdnw41XWkXksyII+AZ78c3qkhwTjoPlZdEISHK36OGxDuUSExPVyyVbt25Np7AS5C6WYcSWS0PtpxMoE4yKwBs/L2x7leT6JUnuRgVagcYluSsAYn5v4q+//qJSpUoGd68oQe4C36VLl1K+fPl37qnP7+Ngiv5HBwSyu0ptfM+cM4U4KSMXCEhyzwV4siq4urqqDxWdPWt4DVYpck9KSqJNmzbqg1MiLi/zIBAZEMCWGjXwcnMzjwJSapYRkOSeZahkwbQIXLlyRb1TZtWqVWmzUp6VInfR4Js3b/jmm2/UHqBSBMiISRGQ5G5SuHMlTJJ7ruDLm5XFB8zz589z6dIlgztgRK9FfsmSJcnIYJgWGSXJXbQpTqWK5ZlRo0Yht0RqUTbdXZK76bDOrSRJ7rlFMI/VF2Z7a9WqpSbQsmXLUq9ePTw9PdP1cujQoXz44YfExMSky9NPUJrcRdu///47//jHP3jxItnprb5AGTcqApLcjQqvoo1LclcUTutuTLjMq1mzJiNHDyQ6OoC3Ia/o1bMnwhGHmM3rXyEhIbRr146WLVu+cwatNLnv2bNHvd/d2Vnu1tAfD1PFJbmbCuncy5HknnsM80wLly5fpFiRYly/EIH4Xvb8NYRHvKFY0aJqu+xpO6r9MXiX+zslyf3q1atqB9l79+5Nq4p8NhECktxNBLQCYiS5KwBiXmnixvVLvP+/xahZJZIiRaB8VZixMYhvyxXjdgbmBV69eqX2n5qREw2lyF18TBVr7QsXLswrcFtlP9TkXrOm3C1jBaMnyd0KBslUKkZFRFKtSi2at/2Z169D2D3nNSpVe1q2bURsbMZr6ydPnlQT78uXL9OpqgS5i62PEyZMUFuCTCdAJpgUgUh/fzZXr47XmTMmlSuFZR8BSe7ZxyxP17h77y7fN6xDufJfU+TLr/m2akOePHmcaZ8bNWrI3n0b0pVTgty11iClB6Z08Jo84e3z56wpVAjPQ4dMLlsKzB4Cktyzh1c+KR3H7j9v0Ki5Ox6vMjet+/DRfb4uVJTfp1xj+254EaSDSQlyF+Z9O3fuLPe362A1WyzKz4+DlSrhd/Kk2XSQgrOGgCT3rOGUr0rdOAYTJsPDN5l3Oz4+juZN6lLgk1FUrQKlSkHZWuD2UFP3lrs7VapUyZLXJLF3XWyxNHTdu3ePL7/8UvpPNQSOCdOiAwNxrlmTgAxOJJtQFSkqEwQkuWcCUH7LPrAEmv8MR93B3x+8fCAmMWMUfu7+M7Wr1+X27Si0c/wJrWHIn5o6t28pQ+6itS1btvDxxx9z/fr1jBWSOUZFIDogAKcaNfCX5geMirMSjUtyVwJFS28jG6ZYBreHjwpC4a+hQEH4shxc8TfQwaQk9Sy7SJGi+Ph4pypgNxBWH9ckKTVz1wqYMmUKhQoVQszk5WV6BCS5mx7znEqU5J5T5ExY79CTQ3Te15mOBztmO3Q41Il2G5uwdnhXjvXqjVOvXu8M21r3YnWjXqxokBwa9WJ/99R1TvXvT/8GDfj400+5e/duKiS2zocxf0FUcqoSa+6pBAADBgzg008/xds79Y9K2nLyWXkEJLkrj6mxWpTkbixkFWzX1smWwisKY3fejqlnp2YrTDk/jfEHh3FwznguTZvOuWnT3hkuz5zGtTl6YfY0LkxPXefS9Oks++UXzut9VEsIhw2zYW6aDTNKk3tUVBTNmjWjatWqBAYGKoiybCorCEhyzwpKllFGkrtljMM7tejj3EdN7O8sZMbM+AAY0gp+GglXPODOLfDwBLEadEvBNXfhFKRFixZqYhfmD+RlegQSY2NxrlOHoJs3sy48KYbT+04xYexehgzdxbItt4lQf6BJwvumO+MG7aD/kH043zK0/pd1MbJkagQkuafGwyKf+jr3ZZLbJIvUTSgV9QAa/he+KgyffQqffAIVe6L+wHrvjnIfVEeOHEnhwoXx8/OzWCysXbFgDw+ujx/PDREmTEgVbk6cyJVhw9jx3//i1rUr4jltGfF8dcwYfFNcLsazc/Y2OvU9yOmrz7h95S7jbZbRd951oiPfMKDDMpYfeciV0+f48YdNXPHL+LCctWNrav0luZsa8RzIs3RyT0qAiFAQk+ngYE0IDdd0VKllGXGA6aOPPjJo4yYHkMoqGSAQePkypzt35nSnTunCmc6dOdOlC/p3Q+VOdOjA8x071BLCH96iTYt13Et+H9SJb3zY5ehBaJA/I4fYc9ozmsiAZwzsvJXTXtEZaCaTs4uAJPfsImaG8pZO7u+CRAlyj4uLU6+zC1O/8rIuBG7tPkpnmyPEG1Q7lsMLt9OwwWo6NllEv98vEmewnEzMCQKS3HOCmonr5HdyF+YHxAfUffv2mRh5KS63CNx1OE7nHofTkHYsPt6v8bxylX69d3HNO4gAH2/GDNiA/Vm57p5bzLX1jULu4Z4wZiBcfqUVo7uHPoT+48ArBm7sh47toXEjaNQMeg+HPUfB0D9m8eGwbx381A4aNYKhk+DENYhIbWZcJygPxfI7uYuh/O2336hduzbCFIG8jIdAVEAAPi4u+Dg5GQxiLd378GF8nJ01wUA5b0dHwpIdvMS8uM+PzVdz6ZVu7h5y/SKde+/k8EZHBv16MaUz26dvZMTyBynPMpI7BIxC7olvoUFR6LsovXK7JkKpBhCVBBuHwXvFYMIkmDQZxv4C1YpD9fbwRG8zRPhTaFMZyjWG8ZNh0iT4pQ98XRQWH00vI6+lSHIHre34ESNG5LXhtaj++B49ikP58upw6LvvSBUqVMDh22/Z+q9/sb9YMQ5VqJA6P7n8/tKlub94cXK/Ejm8eA+tO21lp4M7TrvP8nPrlSw49ILoYG8GdlnJnE2XObzrJF07beL44zCLwsOalTEKuQtA9k6Eko3hrf7pyHjoXgdGbtZAtnow1B+QGr4Ib2hfAeoOAfV38wT4pSl82w4CdD/+6kp/34drmRssTC3ACp8kuWsG7cmTJ2pnHZn5bbXCIbYYlZMSEogPDyfOQBDp4c+fc6RyZfVumIzKxb19i+rLlnYAACAASURBVNgyqbsSuXn8Ar9POMKEyU44nPNJyQp5/ph5Uw4zfooL5x5kwZhRSk0ZyQwBo5F76G0o+RkceaJT4dVF+PZbuJFsNXDNUKjVk3QfW15f1GypO+UHkR5Q6mPY90jXTn6LSXLXjbibm5va/MDixYvlEo0OFpPFYoODcRKGwy5cMJlMKShnCBiN3EmEPg2g2yydYutHQN3k/c8iNSNyJwR+eA/WnIO7B+DjAvAiH39Gl+Sue4dEbM6cOahUKp4/f546Qz4ZHQF5QtXoECsmwHjkDhybC8Vqg/qQeAx0qA6z9Gz8Z0juodD2v7DKDdz3wX8/A680SzKKIWAFDUly1w3S2bNn+frrr1m9ejXixKq8TIuAJHfT4p0baUYl96hnUKYgHHwKby5C6XLwQO8wQ0bkHnUPin4KR70h+CIU/wBOpvfglpt+W1VdSe6a4Xr06BEFCxZELMnIyzwISHI3D+45kWpUchcKjWsF3WbDhjHwQ5qNDquHQL1+adSOh0k/QpkuoP5uHgntSkOjkRpbJfql4yPAKx9si5XkrtktU6NGDX799Vf9V0DGTYyAJHcTA54LcUYn96ubofhH8FkxWHs2taZit0zhWrD3ABw4AFvXwI814euqcFZvOfWeExQvAE1sYcd+Tdm1C6BaFfjTOXWbefGpj2s/Jp6bbJVdU+KEquj4rFmzaNy4sVVikJeUVntiqlVLemKygkE1OrknBUOnalC5DQSkWSJ1WgrfloEiRaBIUajbDKb9CS+C0yP38i5MHgYVS2vKt+gMS7fBy7fpy+aplCTovr0jox2GWGW3lCB3scddHGA6ePCgVWKQl5QOe/GCvUWK4HXkSF7qVp7si9HJPU+iZuJObZgxjH1L7UwsVRlxSpB7bGws33//PfPnz1dGKdlKjhEI9/Vla9myvDh2LMdtyIqmQUCSu2lwzpWU0+Mnc2X+X7lqw1yVlSB3ofvhw4fV+9ufPn1qrq5IuUBkYCBbatXCSzrItvj3QZK7xQ8RHJ04kfN/JnuctgJ99VVUitxFm6NGjaJChQpIRx36CJs2HhkQwJYaNfCSDrJNC3wOpElyzwFopq4iyV2DeHx8vNoTk1iiiY42ZF7O1COT/+RJcreeMZfkbgVjJcldN0jh4eG0bNlSvQYfLDyDyMukCEhyNyncuRImyT1X8JmmsiT31DgPHz5c7W7v5ct8fLItNSQme5LkbjKocy1IknuuITR+A5LcdRhPmzaNkiVL8vhxPjAHquu2xcQkuVvMUGSqiCT3TCEyfwFJ7poxsLe3V5v8vX37tvkHJZ9qIMndegZekrsVjNXxyZO5sHChFWiaXkWldsvcv39fbTDM1dU1vRCZYjIEhKemnVVr4n0mzXFzk2kgBWUVAUnuWUVK4XJxUVGEenlBUhJJiYmE/P03CakcHGgERoQHsWvgQM7OW6CwBqZpTglyF9Yfu3fvzpgxY0yjtJSSIQLhr16xsEllnp47lWEZmWEZCEhyN9M4+F67xs7OnYmPiiIiMJAdHTsS+PBhOm2e+P7Npi492D55bLo8a0hQgtyFg+wqVaqoDzJZQ5/zso6+Ac/4bnYhjt/Rs92dlztsxX2T5G6mwfO+fJktrVsTFxlJuL8/W1q14s0TPbdVyXo983/MvNHdsF8200ya5k6sEuSelJTEL7/8QqtWrXKnjKydawT8I/2puqUaZ7zO5Lot2YBxEZDkblx8M2zd58oVtrVrpyb3MD8/7Fu0wPPUKd76+hLq46MOIn5r72amVynKikb1+fvcuVT5wS9eqJ8zFGIBGUqQu+hGYGAg33zzDXPnzrWAXuVfFQIiA6ixtSZuXm75FwQr6bkkdzMNlJbc42NiCHr2jKXlyrGpWTN2dOrE9h9/ZHuHDuplm2XlK7CwYGHmfVGQFVWqqNNEvii3vmFDdnbqhJjZWuqlFLmL/l24cIGPPvqIrVu3Wmp387xeanLfUkOSuxWMtCR3Mw2SltzFh9W3L1+yoXFjHhw6RMD9+/jfvasOgQ8e4G5vz/KKFVlTp446X6SJfHG/tGwZ6+rVU3+QNVM3MhWrJLkLYXv37uXDDz/kgHAAIC+TIyDJ3eSQ51igJPccQ5e7ilpyj42IUH9QFbNxMYM3dAU/f85bH590WU+OHmVDo0b5itwFCJMnT1Y7yH5i4BtFOpBkgqIISHJXFE6jNibJ3ajwZty4ltyjgoNJSkhQf0wVSzTZuR45OqrJPTt1TF1W6Zm7MPlbunRp+vTpg9hFIy/TIiDJ3bR450aaJPfcoJeLuink/uZNjlt57OzMhu+/z3F9U1RUktxfv35NiRIl1HveTaG7lJEeAUnu6TGx1BRJ7iYemaSEOKLjExD73MVumZi3b4kJD+fsvHmEZdEQlufx4+zp1o2trVurP8Tu69mTfb164TBgAGGvXpm4R+8WpxS5JyQk0KxZM7U1SOGZSV7mQUCSu3lwz4lUSe45QS2HdeJjgnj60pM3MYl43bzFjg4dEB9UxT73jU2a8CbZy9CpGTM4PnUqz8+eJfrt23QnV70vXWJewYLM/fxzFhQpwpKyZVnw9ddqco8ODc2hdsapphS5L1myhOLFi/MmF//pGKeH+atVSe7WM95WQe4xCTEsvLaQgc4D6e/S33LD0QH02vsTa+cM4/T4KRybODElnJg8mf1D+rJ9yGCOTZrMHltb9ZJKbHg4od7erKpWjUODBnFi2jQWlynDzA8+4M9ixVhavrx6Xd1j9+5Ub9WJ6dOZ8+mnLPn2W1bXrMnun39W75lPVcgCHpQgd+GYo1atWmzcuNECepS/VZDkbj3jbxXkHhgZyBfLv6Dl7pZqYu/n0g+LDK796LG/G+v+GsWFGXM4PXOmXpiF28wZOE4ez6FJE9k/aBAbv/8eQe4hXl5qcncaOZIzs2ezpFw55nzyCQuLFVOfYl1WoQLOo0aleqvEwaeVVauqZ+xix8wbT89U+ZbyoAS5R0VFUadOHdasWWMp3cq3ekhyt56htwpyFy9U6XWlue533XqQzURTfw8Ptrdvr16WEevkm5o2RZw4FdfJ6dO5tHQpr27fJi46mhN2dlz4S+cgW+yFv7hokXrm/8fnn6sPNl1esQL3zZuJtzD3c0qQu8BEzNrFx9SAgIBMkJXZxkTAEsj9+n7o1B8M+eE6uQaGTADphBGsitzz0pFn7W4Z8UFVrLvf2LiRyAzWk9PacxcfY13GjkV8SBUHnMRSjvPo0Won2sJWjSVdSpG76FPXrl1p0qQJwpeqvMyDgCWQe+BV+Ppj2HYnDQbx0KMW2CwEyz2znUZnIz5KcjciuO9qWkvuURkQun7dtOSuzXvs4qI+2ap9tsS7kuQeGhpKzZo16datmyV2NV/oZAnkLpi7fz3oMCk15EHu8G1JOOurSQ/3g5WzYcgw2HZUr2wSOO6EC3fg/AEYMgTm24PYgxXiCQvsYOhYuPhUr44VRiW5m2nQtOQeHRJCYnw8vjduIE6rGrrEzpmLixeny8qPh5jEskzt2rWxtbVFOMuWl2kRsAhyB84tg8LVISBR1/9dv0KtLiD+r3tzDxqWgSatoUMHqFgcekzWELioMaAxfFIQ2nXU5Ff+Bhq1heZNoNvP0KYRFK8AN/x07VtbTJK7mUZMS+5iGUXYc9/apg3CzICh6/DQoZyys0uX9fTYsXxpfmDKlCm8//77eAlnJ/IyKQKWQu7RXlCtMKy6lNz9aGhfA8bv1Dz/3goa9wUt97+6CsUKwa5bmvwhrcHGDrTTqXs74fPS4KznUuHnhjBqu0nhVVSYJHdF4cx6YynkrjUc1qgRt3fsUB9u8rp0CRH83N25smoVf5Uood7LfmvLFl7evKnOe3njBmfnz082HGa5K4xKLssIdMWOmSJFinDlypWsgy1LKoaApZC76NCkH6HZME3X/Nyg3LdwR3xyCofaRWFFGpPzv5SCUUs15Ye2g8V6Hhu9TkGNH0H/c/2IftB6mWLQmbwhSe4mh1wjUEvuWpO/Yr+62PK4slq1lLCqenUWlijB/K++Ym7Bgiz65htEmigj7ku/+079UVW0GPr0PHZTJ2NnZ8eUqX9xLzDKTD1LLVZJchf+Uz/99FNOnz6dWoj+UwJsGQ/dukCnTpqwTnqE00coV3FLIvfbW+GriuCfCNvHQMNByV0LgoolYc3F1F39tTSMSN50NqwdzHPQ5T8/BlXbgJeeeafhfaD9Cl0Za4tJcjfTiGnJXe2J6dUrtScm3+vX1fvexd53EWLCwhDlBJmv//57tZlfbZ72Ln4cIl5dZkCvDux1u8OLFy+4eGgJPfoM528LOKyqFLn//fffFC5cOPODTOHQsQS0sIFBg2DgQNhxwUyDnAfFWhK5EwT1i8OS3dCtAfylnYknwrBq0HOWbgCS/KHSl7DshCZNzNwluevwMVtMvFBin3te2gopTAhsbtmSuIgIhNNh4YnJkA9VAbrr+Amcnz8/Q/xdlv9C/yX7U+WvGdqNP/d7pEozx4MS5C6ckfTr1y9rBsOCoHsHMH/PzYG28WVaFLkDy3+BfxaA0g3BU7uADtx1hGIFYNRvsHIldK4FVX+E18kQ9WkCv+/V4eXpDKUbwQu9mXu/n6DpIl0Za4vJmbuZRszv1i3229qqDx1FvH6tNvyltS2TViWHgf1xnTQ5bXLK87YRfVmWhshd1o9j0DrHlDLmiihD7hHUrl0ZFxfnzLsRBV2/hC9LQNka8Ns6CE/IvJoskTUELI3cX16CRnXg17Xp9b9zAnq1gQqVYPgM8AtLLpMEiybDzvO6On7XYOAk8I/TpS2ZB1P0lm50OdYRk+RupnFKiItTz9hJSlI72xCz98SE9CwUE+LDht7dOfXHggw13TGuN3YbtNsGNMV2zR3EL+uT/wfNsKbxM3JD7uHB8PABeHgk0qSJLd26d8+Swu7OsMUeNq6AmuVh0rYsVZOFsoBAQHQg1bbXxM3nXBZKyyLmRECSuznRz4Ls6Lcv2NDPhkMz52VY+pHrIhp0HEygdt9X+G26NWrGwVtBGdYxVUZuyH33Avjf9+CTT+DTT5+j+mcxtu3Y/E7VE9P8Pm4dC13HvrOKzMwGAq8Jp+amapx7dTkbtWRRcyAgyd0cqGdDZmT4K3YOHcDhmRmvuYu9X5vmdqfToHEsWbyYIT+3Ydaagyl7fLMhTvGiuSH39XYwcgWIf2hio+DwIWc+/eTjd+6WeXMX+g+CGTPAbjxUqA47byrerXzZYMLbtzwbO4rtJf/DzW7tiZFuDi36PZDkbtHDo1Hu+OTJXFz4Z6aa3nO/zLGtdtRqbYvmYJ3597/nitynQ5NesHMnXHmg6f6K5cv4/PPP8bh7N0M8tq+Cdq2gXR9wzrhYhvVlhmEEvPr244pKxV2VimsqFQ+qVoVwaaLLMFrmT5Xkbv4xyFSDjGzLGK4YxdHNdgwfN4nNB82/ZyQ35H5iO1SuAKVLQ+kyMC35o9n0aVP58v33WV6pEpsrVWKTfqhSib31K3Hw+0ocbFiJPbUrYa+fbyCuzf9xeiUqbatEpU0ypMJgSyUaL6nAiX+ruKNScUOl4qZKxS2Viu4TSuVNzDZUoop9FTwCzf83ZPjvPPNUSe6ZY2T2Etkjd426cTHRxMWlWYA2Q09yQ+766nofg7J14amYKCYmsG/LFs4vW4b7smXcSBuWL+NmckiXl7bssmXcTE7benIZy24tY9mNnIfl7ivZ/HQ9a24t12tnORserWP9vdXYe25g54sNbH++gR3PN7Dp/mpW3NSUXXFrFfZPNHn2D9ekpOdGH0Xqui9j/dlFXP7iEzWpC3IXwV2lYsfOabnGTBEdczFmBuVfX8bym8vxi7Be4zKS3PUZxELjOSF3S+lKjsk9Aa6dhqd+IOypuS6GOm3Az9LdpyaA866nhGk/bicPxPPTXty9G8Hlrff5c8Y1Fv5+jb/mXOfmw9Tmi8/tusWS2dc4fcXyjKIFrV3H9X/9i6sqlTp4DR1qKa+Z1MMAApLcDYBiaUn5ktyTYOMUKF0MChSAynXAIfVuT0sbJrU+SbEhDG/7Fwsd/XX6Rb6iX4c1OJ7z4Kda8+k6/jCb1p9gwYwDNG68lGXOwkZtLItHr6f3OBcO7Hajd+fVrHby1rVhIbGwkyd5aWdH0K5diG288rJcBCS5W+7YpGgm/LFeWaDzxJSSYQWRHM/cRd/i4MldEDbCAixvIpsh+te3HuHnX46iXRR7evQYP486SWJ8IF1ar2HfM91HSK8Tp2nUegd/BwWx5M+jeCb7Wrlhv5ceo6XdhAxBlhmZIiDJPVOIzFwgCWbP6sG6lePNrEjOxOeK3HMm0uy1EgI96dllI1cCBL3Hs2LkZhYefgX40bHlarZ66Bn9CffCtv06jnvqHY1MCGGC7UrmHDBsAtrsHZQKWAUCktwtfZiS4IdtzRjpOMTSNTWoX34kd+Hkbf24Tczb5wthXtjabuWu4PMY7/TkHiHIfS2uj5ONmkQHMmf4WgbPOi8s18pLIpBjBCS55xg601XsfKgLk89OMZ1ABSXlT3IH3wsXGDDpGKd2uzBmdrLt+XAvOvywht1PdOaYo+5dp/EPG3gijF4F+fHb8PVMXHlbwRGQTeVXBCS5W8HId3bozGS3jA2HWXIX8iu5ExPErMEradhsDa73kpdhIv6mda2FTN56kzvujzntfJNe7Zby69r7kBTB9K4LaNJnH+53n3Pj6gOe+ugt31jyIEvdLBIBSe4WOSyplZLknhoPa3m6uMeVbsNOkPyNFOJfM3fAdtp2sMfm58381G0TC7d7ID6vxr3yZGDz9XTqtgObn7fSpfM6lu/ztJauSj0tEAFJ7hY4KGlVkuSeFhH5LBGQCGSGgCT3zBCygHxJ7hYwCFIFiYCVISDJ3QoGTJK7FQxSLlVMjI8nJiQkl63I6hIBHQKS3HVYWGxMknvOhubVEzhxFbOaPk5KTGOHIIOuvLxyhe0NGhDz9m0GJWSyRCB7CEhyzx5eZiktyT37sEf7QteKULGrONhvvuvooEEc6tmTqDdv3qmE1+nTLP/iC6IzKffORmSmREAPAUnuemBYalSSe/ZGJvEVzPgF5k+Ewb8IVybmu3Z8/z2TVCrWlS3LMxeXDBXxdnNjddGiRAeZ33tWhkrKDKtCQJK7FQyXJPdsDFIErJ0Nx+5D4j0YPDwbdY1QdG/r1sxQqZipUjHvn//EbepU4qN0h5i0IiW5a5GQd6UQkOSuFJJGbEeSe9bBXTMOStWEBYtgcj+oWh02HSHFiFfWW1KmpJbc56lUzFGp1ES/rVEj/N3dUwmQ5J4KDvmgAAKS3BUA0dhN5Hdy97kCrRvABa/MkV4zE5o0htq1oFIZKPAZDLBTG5jMvLIRSuiTuyD4uckE/9cHH3B9yRK0H1wluRsB/HzepCR3K3gB8jO5v3kEIwZAuYpwJJv+UAPdoPdAYcbLfFdachcEL8Ls5KWaA507E/HqFQG3b2vW3IODs61szPPn+EyYwPOePQnZvz/b9XNb4e2xY7zo0wevESOIum0ZdnFCHR15bmuL9+jRRN2/n9suWmV9Se5WMGz5ldxjfWHscDjtDlMHgUM23Vn634BxM4TRXfNd+9u357dkQtcSu/auncWvLVWKU+PGsf7bbxH73bNzJYWGcq9sWbXjauG8WjiuDrHfkp0mclU20vko1//97xT5tz77DJ6Z18lI2N4DXP3HP1J0uv3VV+Blve7ycjpAktxzipwJ6+VHco8LhBl9YeNR1FPvYV1hZ7JxxajICGaNGcPePn042r8/LhkE5z79ceiZcb62nms/TZkJq2zo49Kb/q796e/Sn/5HB9D7SA8W/96LE/0HZChH207a+7EhQ1hVuLB6rV1L6IbuYhY/S6Vi0fvv49irF0cHDsySLOchQzj7/fdqf6Zav6bCafXpMoWYdGYSE89OYpKb8cLEc5NwqVdG7ShbX/7Ofo2YeMF4cjPqk7a/rjVLqv276uu0bUhTJl40vU76uk50m8ikU5N4JP4dNcElyd0EIOdWRH4k94eH4D8q+PJr+Pxz+N9/w6dfwIUXSQwY2INyxYqx5+efcbKx4UhGoYcNzr3ekZ9cz7G7DUe62zBqaUe6OnbD5oiNJjja0MWhM3OndMa1W+btGNJjxVdfvZPcxexd7KT5Q5D7f/+LQ5cuGfcnTT8dbGw4XbduOnI/XvoLhh4bypDjQ9V3EVc6iLYHnxzGoToluJ3sMFuQqYhvsq3NwDPDFJeZWR+0/T1SvWiKTjdVKvWPz/oB9RjgNtzkOunrPOToEER4FCTJPYUTAyIDKL2uNG5ebilp+SmSH8k9MgiuXgS3M3DmJHRpDvN3Qr/Bw6hcuQIBgYFW8Qrs//HHDJdlxGxdBFHm6p9/sq5Mmez7JQ0N5X6lSggSu5vsuDp44yaTYRPhcpRr//oXHskkeufrr8Hzb5PJNyQo/LAj1/7nf9Sz9+sqFR7FioG3XJYxhJXZ0yS5S3vuU/tCm6GLqVqhBD4+wqG0dVyGPqhqt0SuKlGC2+vWqTvif/Nmjg8xxXp5cXJgB5Y2LMCbfXtMDkz4yVOsaV6U/d3qEf3QNLPSzDoZfvIkJ774gpstWhDz+HFmxfNkvlyWsYJhzY8z97TDsmzuTd57rxBXLluX02h9chdLML+rVCz49785OXo04b66H6ncboVc+2Qr1XbXMdt+/qYOrfn1kmV5C9tcuzaXFy1K+yrlm2dJ7lYw1Pmd3GNjY+nWvS12dlOzNFoeHh7s3r2bu3ezuXcyS61nr5CW3LVLMLubN1e74EvbSm7JfaX7KiruqEZcop6j7bRCjPjc6GALRp791YgSst/0lpo1uTxvXvYr5pEaktytYCDzO7lHRERQqVIlHBwcMh2tqVOnUqJECerVq6e+T5kyhaQk8+1039Gokdq2zJpvvsHD3j7l0FLajuSW3Hc5/EWX8d8RH5fsaDutAGM+J0Gved8zZ/tIY0rJdttqcp87N9v18koFSe5WMJL5ndzFEAmSbtiw4TtHa8uWLRQvXpwrV64QExPDxYsXKVq0KJs3b35nPWNmiu2QzoMGEenv/04xuSV39+Ur2Fm73jtlGDNzT8uWnB47zpgist22JPdsQ2b6CvKDqvygKmbv1apV49dfM/7Xv3Xr1kybNi3VCyp+FH788cdUaZb4oDb5W7Bgjk3+uq9YwfY6dc3Wtb0tWnJGkrvZ8DckWM7cDaFiYWly5q4ZkEePHlGgQAEWZfCRrH379owbl3r2OHbsWLp06WJhI5peHb8rV9jRsCGxYWHpM7OQcnPFCrbVNR+5q2fuabDPgtpGLbKlVi2uLFhgVBmW3Lgkd0senWTdJLnrBunUqVN8/vnnrF27lsQ0Xo7EmnyhQoU4cOAAQUFB7Nu3j4IFC2ZprV4nwTwxYXYgp8QuNM7P5J4YF0fMmzdEBwamhNjgYDZVrsy5KVOICw3VpAcEEP36NbHCnaEZv8OY6g2T5G4qpHMhR5J7avDs7OxQqVQ8NrB/ecWKFZQvX57vvvtOHZYtW5a6ch59ys/kHh0QwLGmTXGoUIHDycGpShWW/fvfbPr8c5yrVtWkV6zIgXLluDpqlCR3S/k7kGvucs1d+y5evXqVL774ArErRnw0NXT5+flx/vx5Xr16ZSg7T6blZ3KP9PFRk/eT9esJvHQpJfidO8erCxdSngMvX+bSkCGc7tgxT74DaTslZ+5pEbHAZzlz1wyKt7c3hQsXZsyYMRY4SuZVKb+Tu1P16gRlwdzwvUWLONO5s3kHy0TSrYLcA6MC1bZlznqdNREsliVGkjvqWXr9+vXp2rWrZQ2OhWhjEeQ+frxZ0BAzd0HuYmae2eUxbx5nrOADe2b9yEq+VZD729i3lFlfhsu+mQ9eVjptbWV+OvyT2oSrtekt9HV3d6dKlSo8e/YsU/VHjRrF0KFDDZZbvHgxpUuXJjQ01GB+fk+8uXIl2+qZb5/73latODNpklmGQZK7YdgVJ/eg6CB6O/Wm+a7m/LD3h1yHVntb0WRXE9776z1qbqlJ672tc92mEnqZqo3W+1rzyeJPmHYu9f5tw8NpealKkHt0dLT6xOnWrVstr4MWopGwKrmpYkWSsunsI7vqi50mV0eO5ETbtpxs00YdTrVrx9L/+z82fPUVZ9q3T0k/3rYt9xYuNPrHS0nuhkdRcXKPjItk6Y2lTD87nd/O/5br8PuF3xl3ehyfLv1U/aMx6+KsXLephF6mbGPuxbl4BGbTDZHh8TZ5qhLkLmzLNGjQgCVLlphcf2sReGfRIvZXrUpSQoJRVRbbDR2+/ZZLw4Zxf9Ei7i5YwL0//+TGvHncWrCA+3/+qU67v3Qpx1q35sQPPxhVH9G4JHfDECtO7obF5C41Mj6Sb9d/yzW/a7lrSNY2OQJKkLtQev/+/RQpUoS//zavrXCTA5hFgY9WruSoCZZlxLZDp5o1CbpxI1PNHq1ejZjVG/vKOblHsG/RScZPcGHy5GNMmujIgjWXeR2tb4soEdcT7lz3i0ruRhIP3K4ycZwDS7bdItLYnctF+1ZB7oGR+fuDai7G1+xVlSJ30ZHhw4er1+/lunv6YX24YgUuJjihqib3GjXwd8vccc79xYstm9zjXtK/4SJmrLuB25n7nDx6jYl9V9Bz0jligcTIEHbM3MoHRRew83G4GvSXl6/SuetGtu+7hN3AVUxf5WFWB+zp3wRdilWQe37f564bLuuLKUnuCQkJNG3alBYtWhAVpZ1JWR8mxtBYknsOdstE+zK6mz1X3+hGJPbeTZo02UwwcGmNIwN676D7kG3sV5N7Epsn2TNz6wt1hQRPD34esIe/Y/Rn+rq2zB2T5G7uEcjj8pUkdwGVMCDWrFkz2rRpQ4g4Ri4vNQKS3HNA7nGvGNlmNbPX3cfF1ZPTZ54wffBahs29RjwQ+jqURCKZOXMXO+4Jmz9xzBi2ng2nk9+7t/707riOs77mX5vy8gAAIABJREFUsaGf2asvyT0zhGR+rhBQmtyFMmLLpDAg5qvnyShXSuaBypLcc0DuCQGMbLaE7sMOMXXMDsoVn0G/BTfUxK57JSKYMnUHO+8Lco/lt2Eb2OiWTO5hAfRptxY3b0nuOryyGZPLMtkEzIKKK03uf/zxh9pG+4MHDyyol+ZX5cmGDbg2aJA9RWJCcNxxmt/tXJm39DyewWKlWVwJ3HS9yNQpzmw8eJ/o5FRxy/Gae0IE21adYuq049jZnWT6NBdW7rxNeKKm8djXvqyZ54zd3NPcfPFWT2Lm0Rx/UI15yeium3Dz1uwwenL0FK3bb8U9UIuDkB2uIfd7QqdE1o7dxIK9LzVK+T6mS78dPI6UyzKZj1IGJSS5ZwCMFSQrSe579+5VW4S8kYWdGlYATbZUfHPjBt6HD+Pj5JQu+Lq6cnHAAA4UL54uL6W8oyO+Li7EhWmIMy7Ih3G2a/jl92M4uV5n5axdNP9xMx7+ETw5fIo2rdezYcdF5k+wZ8b6Wymz2RyTe5gv7erP5/f1N3F1vYPjwfMM67CYEYvuEB8Vip3NSob8doLd248zcNAOrvoZthtkCLQck3u0D4NarcbpgfbnK4lNE9dQr/thAlPW0cMY86s9m2+LVXh4cuwM7X/ezplLj1g5YT2//HHVbH5rDWGhnyaXZfTRkHHFEVCK3J88eUKxYsWswnyv4iACV375hUNVq6q3IYqtiPrBuU4dDlesyMHSpVOl65dxrF5dvZsm9OFDtXoOC7fRdVxqcx5OG49z6tbf/DlqPYtcNGRGhC99be25+UasQudi5h7iQ5+fNnJPy6NA8OmTNOrmzLNbl/mx+8GUHxCXFXsZs9w9yzDmmNzjglg/9zg3ffVm6m9fMnXEfk490f73EM3WrW6c/TtCo09SHKd2Hqd/321MXuCGf7RxzxVkGQQDBSW5GwBFJimHgBLkLuy29+vXT70VUjnNrKulhKgohI1ycUI0XQgNVdszj/L3JzY0NH1+ch1h11xzvWV01zX8ddqQ1cwk7Kfa02faJUIiwvE8e54GpVZwxltDgDmfub+kR9uVLN39jNNnvLh81ZPJvVYybsVDIl8+puMP6zj5MJiwoDfM/mklPUZczPIA5ZjcsyzBOgtKcrfOcbMarZUgd7FDpmrVqhw5csRq+m3ZigYzstM6lpwLSKVmUnwMYRGxxIW8Zv6YTfzUextLFh+ic9uNuP2dS3KP9Kdbsz/pPvwQvw7eTMmvZjF+5W2Sl9y5c9SNbh3XMsbuMNOGbmDIjCupdHvXgyR3w+hIcjeMi0xVCAElyD0pKYkhQ4Yg3Ojl1yvu7VsiX70i6h0h0tf3nfliZi88PkESm6fbM2jhrVRw7pu3nRk77+B17wl3noYQ9jaehFee9O69jXtvNTSc45l7qC99uqxP3lOexMUdTrTtuR8fccQz6g3n3R4TFBFPZAIcXLib8euzbm5DknuqYUx5kOSeAoWMGAMBJchd6OXv70+pUqUQ1iHz4yU+mG778EN2f/ZZhmFXgQIZ5u385BP2FipE8J07aviCHt6hQ6Pl/LnTA8/nPrhuc6bZDxu47B3FAwdnWtnu5e6D5yz7dQMjZl9P+WiYY3IP8abrDys546XdWRLDn30X027UOeJigxn58zIWOjzi9oWrdGm3gQvPTfBBNY+/SJLc8/gAm7t7SpG76MfZs2f54IMP1L5Rzd0vU8sPe/oU/3PndF6F9DwOCe9DV0ePxqFMmQzzAy5c4PWVK8RH6qyh+N+/j92EHQwavJNhvx7kwpNk59yxURxafQRb2y1MXniBN9HaxZNcfFCNeM38Gc54BOraSvB7zi+D9+Dul0jQs4dMHLKV3gN3c/iqf7bg1c7cX1/L3PaUx/z50p57ttA1cmG5FdLIABuxeSXJXahpb2/Pp59+ypkzZ4yotfU1LVzMZXufew66meOZew5kZbWKltzFj5xwlp0YG6u+x0dEEB8VpUuLj0ftrEN6YsoqtMYvJ8nd+BgbS4LS5C70nDFjBv/5z38QbvfkpUEgX59Q9fXlUPnyONaty7FmzTjapAnHmzdnZ/XqHKhblxMtWqSkCQfZbt26Gd3GvCW8l3JZxhJGIQ/roDS5v379Wm3bvVu3boSFJS8j5GH8stq1/EzuYounOODluXUrnps347llC8+3b2fll19ypEMHXuzYoU5T523fzis3N6Pbvc/quBmznCR3Y6Ir21bMzZ6AUjjtaNKkCR06dJDIpkEgP5N7GihSHrfWqcO1RYtSnvNbRJJ7fhtxE/dXyZm78K9at25dhNs9eaVGQJJ7ajzE05aaNbk8d276jHySIsk9nwy0ubqpFLkfOnRIvRVSWoI0PJIPV67E1YSemIJvpd4jb0irx+vXc6ptW0NZJkmT5G4SmHMnRH5QzR1+5qytBLnHxMTQvHlzVq9ebc6uWLTse3/9xZHKlUk0sg/VmMBA9hcvzolWrbgyYoQ6XB0xggvjx3Np3DiujRyZkn64UiWON2tmNtwkuZsN+qwLluSedawsraQS5C6WYWrVqsXGjRstrXsWo4/7woXsrlQp+QSq8dRKiIzkzuzZnLWx4VyPHilh6XvvsaloUc737JmSdrZXL56accwkuRvvPVCsZUnuikFp8oaUIHeh9Jo1ayhdujTBwcnWCk3eE8sWeHPlSraaYFkmIxT2tW3L2enTM8o2S7p9nTpclh9UzYJ9loVKcs8yVBZXUClyF/ZlOnbsSOvWrRFWIuWVGoGbK1awzQQOslNL1T3tadmS0+PG6RLMHIt/8waHcuW4PnQoSWp7OmZWyAzi5QdVM4Cen0QqRe4CMzFrL1u2LH369MlPEGapr5LcdTBFP3jAve++44ZKxXWVimc2NhCjsUevK5X3Y/ma3K9fv46TkxOOjo56wQlnl1McP3EMJ3W6Jt/JyVHv+Qgurg44O+vXO47r0TMcP3YYR0ddndRta8sLGSc5cfwUTsll05dzwsnpiFqG0FEtX+iQEpxwcj7C0aMOODvp2nV0OsqJ42dxdnJJ1kOUc+XYsUN65bTlde0JfY4ePW1An2Q8jp5M6ZfQ1cXFBeFAI7NLSXIXsjw9PSlTpgyDBw8mUs9OSmZ65PV8Se66EX5ha8tllSqF3AXJn/9rAg5/O3H4yWFFw6Enh3B86sjjoMc6BSwklq/JvXr16pT59lsaNa5Po0Z11KFxk1rUrbaMrwsupV6jOjRuVJvGTerQrHkd6terQ506tahTpzHfle1EnQb1aFi/Dg2/r0PTpl2oWGYfX5fqSJOmNWncuA7Nm9WhgbqOqFeHOnU193r1a1KtwmIKFt5Anfq1qFunDnXraoK6nChbpzZ16jSlTu0G1KxRmxo16qQJtahRtSlFinSmao06yW3Uom6NPnxV5CRVaragXt3a1K9fi5pVxlCoUH+q68kR8oSsuvUaUL9+HapV/IsSpVZTp14t6iXrXLdeHerVq0mV75ZSqNRf1K1XU12nQYMGFCpUiPnz52f6GitN7kLglClTUKlUWfpxyVTBPFJAknvyQCYl8ahePa4mk/tNlQoPlYoprT+mwp7qVN5UWdFQfXN1CiwqQIs9LSzuTcrX5F627Lfs3r6TZw/DuHwlhGtXQ7hxMxiHRfEM6g6Xb4Rw82YIl46H8MfcEB74hhASEkxoSCS3XWD0uFCe+oRwzz2E6zfe4LgGfhmWwFX3IK6cDWHl6hCevBR1QggJDSEqJoTwsBDCwoPwcIzHdmQib8ODCXsbQnhkCJFhyWVF+ZAQAp5GsXxmGLsPh3AkORw9FoKrUwhOzsHss4+iXx846h5CaGgIb8OCCXsewcApcMM3hPBwITeYkDfxrPod5u8LISwshIioEN6GamT43grjj1UhPLoRx4ZtcQSGBRP8JoTQkBBCg0OIigjismscozbHE/o2SJ0ujv3/9NNPTM/CBzSlyX3Lli1qy5C7du2yuD8mcyokyV2Hvt+MGVxRqbijUiHI/eY//oHfsSMERL8hMDJQ0RAUHcTCqwupvbU2iUmW9S0oX5N7+e/Kc8zZleBX8OgJvPIFYYtq9zoYvxq8fcDXB57dB6cjEByne4FEbONieBoA3p7w/BmsngPLdsEzL3j+CJyPg55DeVzXwalLcP0aOKyAjrZw9TrcuA57NsHag6nbj38FG1eC1pujyL17A15qvaWlLs7zu3DJBboPh/lr4O5dcHEG91vgdgz2OoGHO6xYAo63NZU9jsGsZXDuMMxfAk6HYdkWTd7Vk+B4H3w84Dfn1MJ69OiBnZ1d6kQDT0qSu7AE+a9//eudWyKTYmH/WmjXHOq1gNUOpPjmNKBenkmS5K4bysTwcLxHjODE5//HpWJf8nrDBl2mEWI7H+yk4Y6Gktxzgq2xdsuUF5bkHB3VKkW/giNHweM2rFoB8/bAvbtw5iBs1vPulpQEb/XI1feFpkcRXrBnPwj+TwwFv6DUPU18A/N6wsNQiIuFx8dh0HiIjYO4ODi6DUaleQejfGDDStBvatlgcLiUum31U5Km3WhfGD4ThD/fE1tg/xk4fQDOPOD/b+88oKo61r6ftb71vut+66678t58b24Sk9zk5sYkxmi80agpV01iSbmmJxqT2A0aa6yJJcauWJBIU1F6EZSOiI3eBEEp0kRABMSCShMQ+H1rzj54CiAQOmf2WsOZPXtm9n7+s/mfOc888zwU5cDFXDjmDznFUFcNsdFQUg3lWXDIDyproEYdT8HJGaziofAcrPLSveekSZM6ldxFsI6nn36atWvX6j6I3ll5NsyYDWs3wqZ18MrLYG4A3oHj95jhNPxNPTQ679R9zDiClnQfaxkh+X8OvoNZxI4OB8EuyU6S+x9FuTPIPSMEpmyEggIoLICiQrhaCEEO8LOJCEymPuog3AOM7aCkCpLOw/lwWL8KTkZBQhwkhMPS6eB/tr4R1N4EkxlwoRiEa5TUYzBrqZIX54GHYM0hTX2RE+S+3xxuaRXbLIawB63dlMCSbZByDW7dhsuRsNAIUgqhJB82LAWnUKXDimsQdwbS0iDaH3aaQ3IaBLrCqWhw8wW7JChI6Hpynz9/PqNbsNuxVi8Y/dJvwfKEFoC9NCtm7rZvv9Fl0rl8MI5T3cgUUgDx5uF32ZrQ8Y7DJLm34bXrDHK/FAHfrYK4sxAvUhzEx4O7GWzQ2xgpZubOTnAhBZJyIeYIbNgKyZmKaic9CbyswT9YI3TdHdjyFbgEQlQkuO2GT76DsCiIioCdm2CVPrlfAVsryL6ufImkJMFv34L1YUhLhcMO4KE3K72ZAp9+D9bHoTAXPB0gW2vqfyMevvgQRNCdmrtwPhL8fcHTBlatg+PHYfcuiLgAHj5g2y3IvYw3hr+Gl5e3BtBmcs4b4fH/BwvMuB+EuZkmPfry/qPbGL2hP3VVSiDrzhbmy90jWee6oLNv+8D7jTN7g93BWx9Ypz0uSnJvA4qdQe4Xw2HmZsjOgZxsJeXmwkkH2KSnLqkX5aQn3KiBKBs4fkqZsTtEQUYo2B2vr6V8CrWM6WzIV/8EyA+Huas1daJ8YbWr5lzkVDN3M8i9ARczIOsibJoC9r7KekBCNJxNVbepA8ddsGAB/GcB5FZCpvjiOAdCjoJCyMuGkEA45KxZCwgzBedDkBkDFjaQewl2mELGbfDx7mJyr4X0eAg8do9/DR/PypWLdQF6wNmVDAj0g1kT4YABzNx3x5kyxGEoYrNXVxzvuo9hUXDLx6czntHsvdcJMul4r5CS3Nswmp1B7lkRMH0DZGRCZgYIE+6LFyHgIGzUI3fx73M9CazVZOy/EQJPg+9RsIiH/AjYd0xX4Npi2P49RF5U1D3R7jB5nkK6Qv0jFnGXO+m2uZ0M5iugQqv44GJlVp2dBKlFWhdqITkeCrJh2Xa4JLziVsHFNEhMgJ8XgncYHPWGlCuadiHb4GS4EAg81F9IQo7CcnBzh70JXaRzrwO3nfDay/BUH+jz1Bn+/OfHiYzQ+jmkEeN+rqpcdwHVZCJ8u/7+5V6bMYs3503Ht7pMvnGHxrH0dPfSuTu9NpSYTZLcu+ylaMmNO4PchVpm8hpIOAfnEpQkAsV7WMAGPXIvy4Gpk2CvWndtYwmh6XA8AA4kwpUIRS0iFPVisVQcQpWzeQJ4hihqH28L+HwKxMYrKiBbC7A6AdrWVGkhsMVKF6H9iyAkFcryYdYsOK5e0L1fqxgWbIIsTRxk1aXFM+HMjfu17meCNsPRU1BdCO7+cLsQ9uyDS6XKl0X8dciO7QKdex0kxcAltUop2hb+7//8zjN9Hydd6KSaOHIi4Juv4IeZMON76Ps6eCY3UbkXFZudNeNNh65bUO2O5N5ZjsPkzL0N/0gdR+4vczRAMYW5HANzTaG0DMpK1akMzvqAsa3uw9dWwsZFEJgFlMPunXCtEvy9FXK/HAbOIhB7JVxSk29NJaQlavoRapl5en6WykogPUVTx8cGfBOhslJJVZVgMh18oqG6FhIi4WQ05BRo2oh7/rQFMkpF5CJ1uzIwmgSnspSya4VwXW1fGWkLUQlQcRncvZWF3RXboETLZDc7AVa2wVpm0KBBZGUJsB58LFy4kNmzZ+tUqi0Esy2w5BfwiYKflvzIc8/9g+xs/W81TTM/F5g1GWYshcimq2ka9IKcJPeGgyjJvSEm3a6kY8i9jgED/oWDdaBKDeNnC1+vUtQxGemQnq7kj1rDkk3g66gsZKo0muUw6zM4kQrnT4C/egbv5gaW5+BGLCxeDXs3wy6Hxhf0sk7Adwt0rwm79j1roLAKyvLA3V0xVQwOhrBQiAwD89/A8TBEhCv267bGYGKvWPPUlMExa/h4EVwphrgwCAmByCDYsBpcj0JMJFhuA7fTyjDfrYSaWiiMhb02us8jfnlcz4aNy2Gpu+5r0VJTyLi4OJW7AOE2oLlDEPv06dN1qt06B1+8CW+MB78o5ZKo849HHsF1wgT8vvkG74kT7yefSRM5OWsi4fMmEv7jRE5OnYiP1nXtuvV5n4nf4DVxAkYbR/Od9ySmBUxnmv+0Nqep/lOZFzCP+KvxOjJ1xIkk94aoSnJviEm3K+lochcbkJIT4cw5hdDT00CkzItwIRHiz0H4CTgdozaJrAah+o2OgeQsjZlkynlIuq7M2E/7gPsRuKCl39YGtuoWbFoMy1bACnVaPh/mLYXrVZCbAoXau5e0GzeRrymHI1Zw0K+JCg8ovpEFQaEaWeqr3sqH3Vsg+lJ9ifLZUnIXO23d3d0pLS3V7aCRs8jISMLDxQJAw+NaCAwYCzfqhOqqBrN16whYuZKItWsJa2MKX7sWkfbYLmNzxEa2n9mBcbRxm9L26O3sjt3NwzseZlt0824aGkrcuhJJ7g3xkuTeEJNuV9Ix5A79+2vUMu0idK2izmlJX/U+r6oqQORVqR1Dg96rUmbkjT1LZRW01aiipeTe2P1bUlZbBX42EJOoWDBZL4chn8NNPTv2lvTVlXWG2g9lS2THL+qZZFjzqtfILhP13/7/YX7sqi67f2M3luTeGCrdrKzjyF2zQ7WyEIzXwjUtz6DRDmBiBQ34pAYiTkJkDLhbQ5R6wa6mFI7Zw/YDUNqMRdrlM7BLz7WAPuyl1yA1R1Mq9PYlJVBRqexGFZPhm9fgptbiqXB1fq8abB0hTlsXX99NNdhtgEytmBep8RASAdGhcCpC0eefC4HgCAgPgpAzeuoaoKPJXYB+YD68/Dz89a/w1vsQnFQvRM/5FI6ltkZ1rK11XXkFXluM+OWbv1OeeL7TwanMzGTdtH4cWPExNTe1XqxOfxLdG0py18WjW57Vk3tcYVy7Pt/AFwbi46W4H8iJhH3uarfPamLe8RMY6+maVQ9QAltmQloROM9XTAjFzsh7NVCdD3v2w9VKvUetgpBgxQon+QJkxMPipXA4DFKTITERwk9BnJYX3eoyMF0PjkLXXAKbLSA4EgLdwd4VkhJg63I4GKK516FdEJsB9gcg7hKU3YGKGsUKR7W/pRL2/wCZJZo2JnvBPQVupcDGTXCnGg7ugaBsKIwA459U68aaBoLcv57E5l8365R1xMn1qyDWTiu0Fng74j4d1edgm8Eq9UxH9U9VHRkffEjCQw+R/NBDxP/v/1J28lSH3U6/46r4c5x/5hmSHnqIcw89RMqQ1+GGln8O/QadeG7/xhucMTHp8DtKa5k2QCzIvY9ZH34L/Q2PdI92S0+//zSnwv057QSm5nAiGCw3gqmniAwBC4wUs0OxgSg8GBIvq4UogT0LVHxL+DYIjoLcCxAaAhabwEVNtsLmukxtChnrDhsPQF4eJMbAmfNQdFVxBBabBPm54GoKfmG6QN1Ih8CzUHcN5u6FywUQaAc790JUPBy2ggj1F4L49bF+NRw7BVvWgLM77NkBEblQlQvW6+BOFTguguwyzX12WYFVCFwMga3q/wVrU/A+Byk+YCJ84GiqqxTzkxZN4uu1Xzc7Fl5pXkTlR3U7p0ra4nRkXriYneAxoVmc/tB7nelB0J6VKs+Hwme58ICoClDx5mvK/TLa73+l0efL8CD609GqgBj19xb3D11thEdm4/f2SvciPC+c6lo9L3xtGIR75eVc9vUl086OzIMHybSx4ZKTE+aPP473J5+Q4+qqlItrjo4URUS062YvSe5tGLyy6jKMjhkxwnEEI51Gtj05j2Sk80j+e+5/E5ISgMsySMhXHtDFFsxCITkQTA5AqrCcSYVVn4Nt/YSoArZOBa8gMDWCIC0fMs47YbvwoFgNW1eAi9rJV9Ah8AuFa0VwyAIs/aD4OuwzhR2+cP0KuDpAmvo5ym9B3mUQljviC6KmEBYfgItX4KQTWDgoJozCA2K4mtzz0iHzqiKHhzNkqPOiRFidWC5TZuAOC3XJ3c4VnMIhLRL2HoCrd8DHDtyOQWwIHAvQG7w6+Hbntzy+9nFGuYxSOU0SXvH00zvO7/BPi3+qvpgLSwv1OjGM063RWxnp0A7vbCPv/VtHRrHy+3+oZsz15Crc3Ho/+SfV/8gIl465r/gfHOE8kn8fGoVD/7+o/KULUhdJ+E7f8p8+vHV4VIP/01HOoxh0YBB/+/1vXClpwtLgD7wWFfn5HHnuOTwHDODoW2+pUsDbb+M6dChHhg/n2L//rZSLsief5PQXX/yBuzTdRJJ709h02ZX+L/fn5FFf3H+DRLV+2tMLTN2UrevamhXXRRBavxmmBEznw9UqCNoIDvYQegLMDoPtFjC2htBgOHwSytUTlOv5cD4BUtPAeieYecKlDNi0Hja6QXY6OAqb8zQFjut5EB8Os36CU+IXQzHM2QkRsXDUEfY7gI8r7NigsWRJjlXMI8/Hg/F6OBwIsRFg7gDJUWD/q7LbVUXuQk8vPFzehLwrcKcMqu6Bvyks2w0lZRDqChbOcOkiRJ7VXXuY9M0k1v76YA+NQpLz186rgiNcLG7eFLLLXoQefOOqtHQSHn1U5b9cBKgQEYgKmvGc2Z7i3ti///69hQ/1s3/6E+WRapvVRm6UUJTAP63+yaXbeuZXjdRtaVF5Xh5+Q4Zw/YzYXPLgI8nYmCBJ7g8GqTdcFS5/Twb44rYWojKgohxcnGCdM1y9DEkXNKaBTgshqH4TkiD3eZBfAcfXQ0AQFCUpm6D87GDtJohVk7Q+TrnJcNgR/EIgPRO8D4HjETjRmAVgHayzgUShQimCBVZwqUBxX1CYr6h43PZoZu63L4OfH5w6Ab+uAJvD4HkQ7L2g6AIcXK0h9xzh0+CeoiKKiISEBPA/CF9PgEM+4O8B3r7gGwBH7MHcBrSNeVpD7q/ZvEbWreY3MeljJc9bhkBJSAgZH37IhTfeQASqqK03xWpZ87bVqq2jyNSU1LffJn3MGG556e120+v97NWzPL/3ebJvt9/usvvkHhOjd7eGp4nbthH05ZcNL7ShRM7c2wBeRzUVwTpOB/rishKsD0FMOKxdD9ZiAlAHO1eAu1qtsn8uBNXP3CvAeDJ4BYPwrx6eDlcjwMkNQnzAyrIJ+/Y6cDCG4HS4kQm//wY5N+HiadiwveGipWDTtfvhvDARvwFLnSH6JLj5g7cNuJyA4w6K6wOB0d1smGsOV68qQT7OXIJwCzjkqGyKOrBKQ+7aOnfR9naW4pkyVa3KqboOh9wgvokJVkutZcRMTZJ7R73Buv3WCt/RXXTUiW3UwlSrmSO2MLbDyP1aVNO/GOofK3HrVknu9WD05k9B7mLmLtQySWqV8JHDYKVe1DzrBvZqB2AmsyGqfrJxB7YvUxZUQ7ZATDyEHQG/aIgWM15/sHdSeR/Qha8ODplBejncTYNPRoF7EpRmgK2dEuhDp4Eg94OQWgbFaWDpC2H+EJ0PhZHg7KOYXgq/NuIoy4KF9kre0xnyqqHAH4K9oSQHLJc01LlX3IAAJ5huBF4nIf0ilFYoEaiiT8P0j+HdsbDVXtfkUpK7grP82zoEJLm3Dq+21O4RYfbaIuCD2mqTe2I9ubuAuXprfp2ISiQ6qAOTORCrtpapKYCVtort9+ktEHIajjhD/j0ItYOodPDcBVaKlaXmEcTMfYdC7lHusNoYfvGAa0lgtR/KhQ5cy4pFmKj8JhZfveHUEQgMgrOBYO4CYuH2oBccd9TM3Msuwmy1kzNPJ8W6x3Oz4sZAWO6cC4OaGrBbCEItU3kHblyEpcthmxdkn4dvV0HsOVixGzKzIPYwzHgffGI1KiohkCR3zbDKXMsRkOTecqzaWlOSe4Avh9Yoi6UifJ7NBtjsqMCq/Stz0Qw4p96fcSUO3I+B2Ol5aivYmIFfhNImwhmChIVLDnz4Ntho2aCLGhnJkJUIe0wgOhJWqS1Rrl6De+VwWtsNSQ3MmwSbnSDutLLYmpsI57Oh6BIUFEOYC4So9fvlwtxR7bbX0U6xid/2K0RpbYQSzyDWD7LKNB4oHV3APg7uXocfTCDuHCw2h4q7UCgWYjcpsmn/leSujYYpVC1CAAASLElEQVTMtxSB7kXudVSU3CU/7w45OXfIzS2htKox1VIt1fWxJ+sFrbl3Pxyl1LnXg9KNPlU692O+OK2AA8JJVwz8OhM2qf2ql96ChDD4dQF8vhhui81NtYoVS8YlSAuDmZ+BxWEoLoOMCJj1FZxSq0kyzkJyriJwTTVUVkDKObA9AAm5UHkFpi0AMwvYtw9WLQQjvZB+wreNsLQ5EQgl4v7qDVZie36oP0ybCKFqvbjKXbC6zq8mEKVnfVhdCj5W8P0XinOy+qGwtoKVByD6GHy1Hs4nwdRVECaiNO2FjSIcYH1l9ackdz1A5GmLEOhW5F57nZ8/sWD8107MNnJn1jQbPp9gjU+sxjd2zbXLTJ/rhEe6ZtdffnQ0c6Z6kKfe/CHJvUVD37mVBLkH+vmTk6ZZzLySDmla2/bLi2DXeojXmv2KLf+qoxySUjW69esXwFrEVlUTsLY0BcKcMFqxkCnWYsq8VBC+skQS1wsb2b19u0ixPdfuT+iL0qNgzwG41chkIzwGCrSjfIjGdRAfCJ568S6Em+E8dd2LeXDnGpxKUN+tErIacZ8uyV1nNORJCxHoVuRemc+8T/bil3xHFS2+9l4FoXa+vPeZO8KGoSA6ganvbeWx/qYcUQVIqCXEPZCRr6zlxTeduaL2SyLJvYWD35nV+vXrh6+vvmK8M5+g595r8uTJrFmj55C+EXGktUwjoBhwUbci97tXWPS1DWHqjYNiWLL8TzB6vKvw9kHsoVDcjpxj1QZXXC+Ikru42p3Exy+CabMOc1Ht00mSezd8oYWd+4ABA/jwww8ZM2ZMk2ns2Kav6bcb20796Pfb1Hlrnq2pPhorf5AcH330EU888QTr1q1rdlQluTcLkUFV6FbkXlPE/Pd289kUTxbN82TytEN8M8Ue1zBtfWYlq1c74Zx0SzNONzOZNPmQJHcNIt0vFxAQgJWVFRYWFjK1EoN9+/Zx9qyW34UmhleSexPAGGhxtyL36kIWjrdgl2sKESfimPWf7cw01rZoEINUyspVuuReeyVVkruBvr9SbC0EJLlrgSGzdCtyr8xn0VcHOZ2jXrQqyubTt4zZeUzb740kd/naSgQaRUCSe6OwGGxh9yL3PIw+tMTvgsby4IJfAK8OsSBa+BZRHSUsXmKDXb0dtDCYu5zCp186kqHekyJ17gb7Ohu24JLcDXv89aXvVuRee5ek2FyKSrXD8VQTE5RGWmE9ud/jQmoeV0SQA/VRd7eUs/H5lElrmXpI5KchIiDJvXNGPSkpiaCgoM65WRvu0q3IvQ1yaDeVM3dtNGTeYBAwJHKvq62jVi84ba2qrH64aykurhT74Nr1MDMz4+GHH+bdd99t1347ojNJ7h2BauN9GrT7gcYhkaXtiYAhkbvrVg92OGRq4Cu5wvx5h4i7BiX52axeYMP3U2yYNt+LpAKtwLeaFq3Kpaamqsx4hw4dqvL1M27cuFa174rKktw7D3VJ7p2HtUHeyZDI3XLRAZaZakXxvpXNZ5/t58yVcn432sNPexK5dec2XludmLIkRDd0YSvfjt27d/P0008zZ84cSkpKcHR05J133mllL51fXZJ752Euyb3zsDbIOxkSue9fZsdK8xTNON/OYeIEa0KyqkiKyKLe7UTO0QC+mRpA/ZKdpkHzuQsXLjB69GheeOEF/P1FPEflsLS0NHhyvykizjRzJO/cKSMxNYORvCwRaBEChk7uE77az2mtgCd387OZ+rEZ+09oOTBqEZKwZ88ennzySWbMmMHNmzd1WonNeIY8c/cZOJC0vXu5GhJCYVAQhcHB5AYEkHf8OFeDg1VlV8PCiJwzh9Off66DXVtP5IJqWxGU7XskAoZE7laLbVmzVyu+YlkeE7/cx0l1hMFrqSlM/nQP21xaF09WzNY/+OADhLsMHx+fRt8DQyb3ioICTowbh/fgwfgOGYLv4MH4Dx3K73/+MzZPPknAsGGqMr/XX8dz0CBiFi0CvYXvRkFtYaEk9xYCJav1LgQMidw9N9sx4afQ+wNYlnKW0WP2kV4qImklMm3yPlzDi+5fb0nGxMRE5cfHyMiIW7e0/JvoNTZkcq+trqaquJjKa9e4q06VN25w8NVXCV25EpG/X379OlW3b0ty13t/5KlEoNUIGBK5l+dk8v3Hpnw7w4lfljny/igT1hy8ALVlGI1cxzPDzDHe4s3KFc6YuyeL+ORNHunp6SpHds8//zze3t7361XchlwtL4b1FwyZ3Osx0P+0GzaMaGNj/eJ2P5cz93aHVHbYExAwJHIX41FVXIiHXTTm5lEExqh9lFSVEOASz8EDZ7GwiMHcPAKPoLwm7d2F3frf//53lW79xg1N4AjRf7IvGK1qOPKC3EcZqJ17QzSUEruhQ4nasqWpy+1WLsm93aCUHfUkBAyN3NsyNkK3PnbsWF555ZUm4wzkh8LiRvjKytKS90aMoLq8vH1SWTnVZWVUVVZQXXtPnaqprm081YiAwy04OsIUsqnbSnJvChlZLhFoBwQkubcMRFNTU5VufebMmRQX64XjqgH/g7BjByybAW+NUfI7TCFFrcL33LmTBf/1X5g//jh72iFZ/e1xNvT9G6+t/zuDHV5niN3rDLEd0mgabDOY4bbDOZp1tFlhJbk3C1G7VZB27u0GpeyoMQQkuTeGiqYsMzMTEfykb9++eHl5aS5o56pg9ZcweDD0fx4efULJD34b/NXGObYWFnwycCDZAQFkHT3KRX//NqVL/v6kBvoRknGC0LxQQi+HKp8ir58uhzLMdhgrQ1ZqP3WjeUnujcLSIYWS3DsEVtlpPQKS3OuRaPgp7NafeeYZZs2ahb5uvWFtpSQnCH7a1PCqxd69jBg9uuGFTir52utrVoU0shigd39J7nqAdOCpJPcOBFd2DZLcG74FaWlpKkuYl156qUndesNWSkmiJ0xZ2vBqV1vLfO7xOatDVzd8ML2SenLPvZOrd6X9T+2HDpMLqu0Pq+xRIqAgIMld900Qs/U+ffowffr0Fs/WtXu4mgpex7VLlHxPIfczhWfou7cv+aWN2HM2FKtNJU6DhxKzcXOb+mhJY2kt0xKUZJ1eh4Akd2VIhd260K2L2bqnp2e7j3NPIfe4wjgeNnmY8e7jmeg9kQleEzokTfT/lkET/w9u7jvaHWv9DiW56yMizw0CAUnusHu3KS+8+DzLli6gsrK0Q8a9p5D7rcpbbIvexpKTS1hyugNT0BIWes0hLieqQ/DW7lSSuzYaMm8wCBgyuYvZ+thx4xjU7xm+ef9HZv3gx2wjT6ZOcWHyZDcOnb12/z3IiYjm28WBFGmiud2/1pJMTyH3lsjS0+pIcu9pIyaft10QMFRyt7Cw4KmnnmLajJmU3szn1+kH+HFLOKdPJXAiMJ6AYwmkF9TP4u9yYKklLz23HZuTrfcWKQZKknu7vK5/qBNJ7n8INtmopyMQXxSv2vhyo0J3G31Pl6up509NS1Pp1l9++WUt3Xo1yydbYhfZePSlu5eSmTTZhcN2/kyc48fdpjp/QHlXk/tnRz5jU1QjNpoPeObeculw+mFGOI2gtq69Ayi2DSFpCtk2/GTrZhA4V3SOJ82fxDjKGPsk++6RLtjjEWVPooM9Kfb2JLVDEv14b93KwH79mLdggd4u03J+/taEgcPN+exTaz4ev5fxXzoQnaPoYALNXPhxtwjycYtpn+7jWFbrw3h0Nbl/fPhj3nd+v3uMbye/Z9N8p/G63evUtaMb4Wb+rVp0WZJ7i2CSlf4oAmLG/pH7R7xo+aLKBE6YwXV5sunLu6v7YvlSX6z79mVvO6SDffuy/LHHeO7RR0nN1IqjqgKulOXfm7PVJZXcnCtcysojK7uA0so6qCtm+ns7mb01lhMnc5g2ejtTtpxvNdxdTe6mcaYMsBzQ9WPbBe9Xf4v+rAha0eox6+gGktw7GmHZv8EgcPP2bZYsXaqKbbpz506tmVwJyydbcTip4c/2ojORDP3XLpau8WPlKl+WGe3j1XfsyWnl5L2ryd1gBrkHCSrJvQcNlnzUnoFAYGAggwYNYtSoUZw7n6h66J++NGHKLyfwOBKJu1sErs4RxCddYddcS4yMlTqKdLeZMXILy+3V4ZtaKLIk9xYCZUDVJLkb0GBLUTsPgZKSEubOncvjT/Th9x2b8D54igUL/Jkz2wMjoyP88MMR7F3PcnBfGGfzK3Ue7Jx/BL87p+uUNXciyb05hAzvuiR3wxtzKXEnInD06FFefOklPhr/AQX5WpGy2/kZJLm3M6C9oDtJ7r1gEKUI3RsBEft03rx5quhKO3bsoLa2oe69rRJIctdCsBISzsDZFLjbshgiWo17T1aSe+8ZSylJN0fg+PHjqihLI0aMIDFRW8/e9gfvSeRekgXLVkPK9YZy30qHX5ZCTlnDay0pKcuGae/Co4/AM0MhRS/uSUv66C11JLn3lpGUcvQIBO7cucOcOXNUUZe2b9/ebs/ck8i9phiG/hWW2jUU320F9BkJt/7gjNvtV3jrOxDGRrVVUNP+P5IaPnQ3LZHk3k0HRj5W70ZA6OJFrNQxY8aQlJTUZmFV5N4DAmTXC7p/EfT9AHSWku/B54Nhua1SKyEcUgvh7lWwtQC3Y9wPKp4cBubm4OrP/R29OQkw4nV47Xuw3g9Brd8uUP94veJTknuvGEYpRE9EQMziFy5cqLKLNzY21rKLb700IhLTyPfea33D5lrUNVfhj10vDINnn4LjeZr2oqzfyxB9Uylb8SW8+QHM/A6GvAKTlgH3YM8KePU1eKU//GsgjJ4M1yshwg7++j/wlyegf39Ytk/TtyHmJLkb4qhLmbsVAkIXL3zRjBw5skWz+CArGDlSSb8fUUQ5amXFvL/8Bcfhw3EYPhz7YcPalFyGDmfX+68zzGoQQx2HMcy+9Wmw9WDWhq9tHOtq+HQgzNmjuXxgEQz7TjM7X/MNvPEFJGl9AUQehKHjIf+ept2McbDcXjlfNBM+M3BSr0dGkns9EvJTItCFCNy+fVulixdRmkxMTB74JEnHYOVKJflGKlXdrKz47tlnidywgYiNG9ucYtZv5PjODWw6/RsbojayMaL1aU3oGnwyfZqUxeNXePYdUK2d3oXx/4ItWtV/ngirnHSbb/gOXhgGRjNhyhSYNgOGPg8fqGNzz58KH5vrtjHUM0nuhjryUu5uiUBAQAADBw5stS7e3MqKf48d2y1lauqhbidAvz5w9CrcCIJ+AyC5RFP7l4mw3FpzLnJLPoQBb8N3k2CSOs34AZyClHrzBLmb6bYx1DNJ7oY68lLubouA0MXPnz9fZVHTUl18T7KW0QZ+xkiYvRP2/Qxj5mpfgcbIffsMGLtIt5722VxJ7vfhkOR+HwqZkQh0LwSERY2IuSp81KSkCJfATR89ldxD9sCzz0O/f8CBcF35ln4OP1nplhXEwAuPwaSVEBQMwcGwfye4nFDq/TAJ3t+t28ZQzyS5G+rIS7l7BAJid6uRkZHKouZBuvieSu41hTDmH9DvQ7iqZ5O+bR5sdm04TOkx8MOX8MwT0OdZ+HQynFJ/961ZAjMasZ9v2EvvL5Hk3vvHWErYCxCo18W/++67je5u7ankLoamthruNbJpqebegzchVd6FuzqG8nDvXuN99YJXoNUiSHJvNWSygUSgaxAQniZnz57NY489hvBRo330ZHLXlkPm2w8BSe7th6XsSSLQKQj4+fnx4osvqixqUlNTVfe0trZW6eY75QHkTXoEApLce8QwyYeUCOgiUFxczI8//qjyNLl3714sLCxUZK9bS54ZMgKS3A159KXsPR6BY8eOMXjwYB555BHeeeedHi+PFKD9EJDk3n5Yyp4kAl2CgLComTlzpiryU5c8gLxpt0RAknu3HBb5UBKB1iNQVVXV+kayRa9FQJJ7rx1aKZhEQCJgyAhIcjfk0ZeySwQkAr0WAUnuvXZopWASAYmAISMgyd2QR1/KLhGQCPRaBCS599qhlYJJBCQChoyAJHdDHn0pu0RAItBrEZDk3muHVgomEZAIGDICktwNefSl7BIBiUCvRUCSe68dWimYREAiYMgISHI35NGXsksEJAK9FgFJ7r12aKVgEgGJgCEjIMndkEdfyi4RkAj0WgQkuffaoZWCSQQkAoaMgCR3Qx59KbtEQCLQaxGQ5N5rh1YKJhGQCBgyApLcDXn0pewSAYlAr0VAknuvHVopmERAImDICPx/esqdjxN9YW4AAAAASUVORK5CYII=;" vertex="1" parent="1">
          <mxGeometry x="350" y="75" width="284.48" height="220" as="geometry" />
        </mxCell>
        <mxCell id="LZa3TWfJk8D44VAh4uWb-10" value="&lt;span style=&quot;font-size: 12pt ; line-height: 150%&quot;&gt;交流电进一步的转换成&lt;/span&gt;&lt;span lang=&quot;EN-US&quot; style=&quot;font-size: 12pt ; line-height: 150% ; font-family: &amp;#34;times new roman&amp;#34; , serif&quot;&gt;DC 48V&lt;/span&gt;&lt;span style=&quot;font-size: 12pt ; line-height: 150%&quot;&gt;的电源完成电压输入，而电源功率是&lt;/span&gt;&lt;span lang=&quot;EN-US&quot; style=&quot;font-size: 12pt ; line-height: 150% ; font-family: &amp;#34;times new roman&amp;#34; , serif&quot;&gt;(25W)&lt;/span&gt;&lt;span style=&quot;font-size: 12pt ; line-height: 150%&quot;&gt;，一共能够完成三路电压的输出（即&lt;/span&gt;&lt;span lang=&quot;EN-US&quot; style=&quot;font-size: 12pt ; line-height: 150% ; font-family: &amp;#34;times new roman&amp;#34; , serif&quot;&gt;5V&lt;/span&gt;&lt;span style=&quot;font-size: 12pt ; line-height: 150%&quot;&gt;、&lt;/span&gt;&lt;span lang=&quot;EN-US&quot; style=&quot;font-size: 12pt ; line-height: 150% ; font-family: &amp;#34;times new roman&amp;#34; , serif&quot;&gt;+15V&lt;/span&gt;&lt;span style=&quot;font-size: 12pt ; line-height: 150%&quot;&gt;、&lt;/span&gt;&lt;span lang=&quot;EN-US&quot; style=&quot;font-size: 12pt ; line-height: 150% ; font-family: &amp;#34;times new roman&amp;#34; , serif&quot;&gt;-15V&lt;/span&gt;&lt;span style=&quot;font-size: 12pt ; line-height: 150%&quot;&gt;）&lt;/span&gt;" style="rounded=0;whiteSpace=wrap;html=1;align=left;" vertex="1" parent="1">
          <mxGeometry x="300" y="530" width="380" height="80" as="geometry" />
        </mxCell>
        <mxCell id="LZa3TWfJk8D44VAh4uWb-13" value="" style="edgeStyle=orthogonalEdgeStyle;rounded=0;orthogonalLoop=1;jettySize=auto;html=1;" edge="1" parent="1" source="LZa3TWfJk8D44VAh4uWb-11" target="LZa3TWfJk8D44VAh4uWb-12">
          <mxGeometry relative="1" as="geometry">
            <Array as="points">
              <mxPoint x="250" y="795" />
              <mxPoint x="250" y="710" />
            </Array>
          </mxGeometry>
        </mxCell>
        <mxCell id="LZa3TWfJk8D44VAh4uWb-20" value="" style="edgeStyle=orthogonalEdgeStyle;rounded=0;orthogonalLoop=1;jettySize=auto;html=1;" edge="1" parent="1" source="LZa3TWfJk8D44VAh4uWb-11" target="LZa3TWfJk8D44VAh4uWb-19">
          <mxGeometry relative="1" as="geometry">
            <Array as="points">
              <mxPoint x="250" y="795" />
              <mxPoint x="250" y="880" />
            </Array>
          </mxGeometry>
        </mxCell>
        <mxCell id="LZa3TWfJk8D44VAh4uWb-11" value="主功率电路" style="rounded=1;whiteSpace=wrap;html=1;" vertex="1" parent="1">
          <mxGeometry x="90" y="770" width="90" height="50" as="geometry" />
        </mxCell>
        <mxCell id="LZa3TWfJk8D44VAh4uWb-12" value="" style="rounded=1;whiteSpace=wrap;html=1;" vertex="1" parent="1">
          <mxGeometry x="300" y="630" width="390" height="180" as="geometry" />
        </mxCell>
        <mxCell id="LZa3TWfJk8D44VAh4uWb-18" value="" style="shape=image;verticalLabelPosition=bottom;labelBackgroundColor=#ffffff;verticalAlign=top;aspect=fixed;imageAspect=0;image=data:image/png,iVBORw0KGgoAAAANSUhEUgAAAl0AAAEmCAYAAABYjyW0AAAgAElEQVR4Aey9B1RcyZk2jL3rY+/Z4z3rb73j355vvd86rNdje+0Z2zMjjTQaSTPSaCRQDgiUQBkQAomshHLOKCKRc845B5FzEDk1OaemaaCf/9RtuokN3dAJqDqn6HsrvvXUpfu5VW+9rwpooAhQBCgCFAGKAEWAIkARkDkCKjLvgXZAEaAIUAQoAhQBigBFgCIASrroQ0ARoAhQBCgCFAGKAEVADghQ0iUHkGkXFAGKAEWAIkARoAhQBCjpos8ARYAiQBGgCFAEKAIUATkgQEmXHECmXVAEKAIUAYoARYAiQBGgpIs+AxQBigBFgCJAEaAIUATkgAAlXXIAmXZBEaAIUAQoAhQBigBFgJIu+gxQBCgCFAGKAEWAIkARkAMClHTJAWTaBUWAIkARoAhQBCgCFAGZky4uewDtXYMAeGiubUN2Vj0KijsxRLGnCFAEKAIUAYoARYAisIQQkDnpKg6KxNHz6RgabIbxKVsYmofj3rMC9C8hkOlQKQIUAYoARYAiQBGgCMicdBX6h0HLIgVN73Nha51FEacIUAQoAhQBigBFgCKwJBGQOekqCojAycvvkBcchm8+fgtDA384hjdiZEnCTQdNEaAIUAQoAhQBisBSRUDmpKs4MAJHTRNRklMIG68KVJWWQP+EM2KriZ4XDRQBigBFgCJAEaAIUASWBgIyIl0jSH0bhej0buRFhuLIk1R0tHSgh8G0D49MnBBDSdfSeMLoKCkCFAGKAEWAIkARYBCQEekCuivyccUgALr6IUjp6Ed1YTYMzHxhoueJe7bvKfwUAYoARYAiQBGgCFAElhQCMiJdXGTH5+KKSQgMzkTAK7KeAbWzqQvl+VVwsEmF1ZNUZLM448DmoDChHI19JGkAIS7v8PhNIbqG2MiPLUZ+7YCwbH5SMTLLe4X39IIiQBGgCFAEKAIUAYqAsiMgG9LFbYfuSSucsy5AcHAhTHRscS+4HuAN4I2xKy49zYCPeyL093sitoJPpmpyEvHF7x4hu42HWJcg6F6Nx9uHATB0SMLbi/Y48iyfj2VvI3Q1XsEpt0vZsaXyUQSWNAIj/d1IiypHdFwtEhOrER5egerm0RctHgednWzwljRCdPAUAYrAUkNANqSL0w7jy46IaR5m8OSWZmK/YQiSouOgZxEj/KLNiylA8vs+oL8TDlfsse07e5S1DsH/tS9ue1ehJjkZVxxyUJ2ciEP7AxidsOa0OOiei8T4NbKlNml0vBSBhYDAcEcjHB8k4PSeV/h6tQtu3k5CWmkv+rra8ED3JSyeFAi/CxbCeKiMFAGKAEVgvgjIjnRdckBQ+agJ1PZS3NLyx70XATgTUDhF5oKEFETFZuDVKS/kNANlSVkwO+qJcxcjEFzcDAy0QOe0A2La+xD72AuPg2qntEETKAIUAeVEoMY/BLev544KN4BI7yjsWf8Id28VU9KlnFNGpaIIUARkhIDsSJelA0Kr+VuHvLoCnDzuD2+vUBg8SxcOZbirB6ycIlw29oZfWB70N72Be1QFHp9zRkA5gP5SGBz2RhOAgEdesHVOgeUlD7xjUSdCQhDpBUVAyRHIcwnE5QsZfNt8I0MYxgjeO4bgwdV8SrqUfO6oeBQBioB0EZAR6WqD3tlXsH3XiqambtjdcMbxpznobWHBXN0e3iktaGpqwa3zLrB2zYXzvSTcvB6Er353G7fsC/DishueBjSgMisNJ094o4Xwr/w0rPj9Bew9nwS2dDGgrVEEKAIyRGAC6RrtJ/9tAO5R0iVD1GnTFAGKgDIiIBvSxeuH/SN/HNUJhL5+AC7dS0PHKFNqKyqCsYEv9PWDYBtTN45A9SP0RSJYAwC7rgoXTnvg5NlIJNaNKswPteDCMTe8jmpURhypTBQBioAIBHIc/XDeLG2CF4qcV764eTGXrnSJwIwmUwQoAosTAdmQrsWJFR0VRYAiMAcE3gdE48mD/Amk671HFKytSijpmgOetApFgCKwcBGQmHTVZ2TgvX8wSgJCZomhKAkQxLGypcGhaC0uWriIUckpAhQBiRDg8XgYGZloHIKk8SalSdQoLUwRoAhQBBYgApKRLh7gtHEdXLZ8Dv8jG+F/5DsJoxqsl/0P4q9dX4BQUZEpAhQBigBFgCJAEaAIzB0BiUgXbxhw2/otWt8/ABAOIFDCGIs0K21Eml2cu8S0JkWAIiBVBLrpyRSp4kkbowhQBCgCohCQmHS579iIpvx7AIIB+EoYI5H6RBtRFpai5KHpFAGKgJwQKEgAjmsDlv5y6pB2QxGgCFAEljgCcyNdeZR0LfHnhg5/ESDQUAFcOgOYeiyCwdAhUAQoAhSBBYCAjElXwKQVMbrStQCeCSriEkIg3BUwp6RrCc04HSpFgCKgSARkR7p4fhjst0dc1lN0DAq2ISnpUuRk074pApMRiHADLIlqJg0UAYoARYAiIHMEZES6goDO17io+wX+e/tWVAyQFS8/AJFIe6KNuAtXZT4wUR0MFBWh9tQpsCwswK2vF1VMrun9GRmo0dUF68IFDLe0yrVvQWfdERGoOnoUjbdvg9c36jNTkCmnzw53d1RpaaH15UtgiO8sXaZdD3LR/OgRqrS10RVAntGlFRpqAHN9QM0UyKxZWmOno6UIUAQoAopAQEakyxfgBYNbex2HLPahuIcQLj7pSnx6GG6nzoJVVwcWizUl1jfVo6GvAaxeFlg9Uoy9dWiozEfhX/6MFBUVJpaobkJ9txT7kFReIlNFHgp+/WtGnlQVFZSp70F9Z610xz6TXL11qE+LQ86//ItQhkojQ/n1T2TrrQPL3x1Z3/seI0O6igpqHt/jp88k+zzzqq9ZIm30Wcj+4Q/BigkGq6dOvmOf5xim/I+M/t90tTSgr74ePSyWyJjqxcJVYxauG7Ng7zWxHKnb2dCA1ra2OX8v9fX1obu7e8Y4NET9qM4ZYFpRiREYQhuL/P90orW9nW8EeJiD1gYWWE1tED717FZUVFSguYv/kjnenl1nTSUqKuvAZUbJm2BceMaBD3MxwB0ZV2QYrQ2VqKioQS97EB2tzWjpbENzU+eoHENobWpAY30zOHJ41x0n2JK8lB3pQgjQfAdHzu8fR7qi4PbiOD791W+xecsWqKqpQVVVVRjVVNWwXmM9Vr1YhS2+W7DFS3pRLWg7dK6vRKKKCrJUVJCjooLIH6pgl4sa1Hy3SrUvceVWC96Ok9dXIkNFBZmjMoX8n+9jt+MmqPnJRybV0B0w0/8YuaMykE+PX/8zNntvwWYf6eE/Eyaq4Ttxa/dvUaCiwmBBZLBe9gHUArczcsxUdy55ZFxkzh3+9yfMc0Dwz1dRgeXhP0I1dKdCnoW5jGO6OmRsJFqcWAXPDd/CS00Nnqqq08aAXaqIOciPYbvGypA6Xt9+i8vffYfdmprYv38/nj9/jo6ODrG/JAcHB7F582b89Kc/xb//+79PiST9F7/4BaKiosRukxakCCwYBEY64Gm6D//zm5/B7GUwGC7TV4vr63dA65QNugGUpIfjpOFhGBkZ4db5Z3h63QqFPaRkNwJsr+KU5ikYWVzDnStPYWMbNUq+xiEwzEVbUz36xvErVr4TNn35Dd7EjbnLG2jPx9ObpjAxvoaskgaEulzFX/7tv7FH3x2Mkz1eF+5YHMRXx26hpm+iEeNxvdFLKSEgI9Llw7fj1fsIxy5roQ5hwpWu5KeH4XXaGB2dnWhvb58Sm1qaUNtSiw5OBzoGpBfbB7vQ3lSNouXLGYJBftgrjx5GO7sN7ZxOqfYlrtzt3C601VegaNky5I2SrkqdE+jok59M7UPdaC3IRP6vf80QD0JIa69flSseRIbm2Ajk/J9/Y2TI/ocfoN7+LciciYulpOXInNc9eYAsle8zfeZ9+CFa0pNAZJG0LWUs39RWi96WZgy0t4MtYSR1epub0dbYiNq6OkSEh+PYsWPYsGEDQkNDxfrqIaRr2bJlUFFRERm/973vITiYmJ6hgSKwCBEYqYHxrr/DJXPUfzCPjfTwGFQ2j2CkKR2716vi/ju+istQUyHunTJFVg8POc4WUNMwQR2Hj0m261tcM/DAFD401I+suHDUjSNdLZVxMFTVwNugCn7loV543r8Gt8wxEgb04OYWTdx0LhGCXvIuEvH1vcJ7eiE7BGREugKBnrd4dPFbfLrmY5y8oY/KHkLEohmdrngF6nQN1tTA9sRa+J3bDx5bOaxCcqqr8fLwFwi+fBQjfX2ym+0ZWu7Pz8eDAx8j+eklYHjcf/EMdaSd1RIXiZuaf8B7l9fSbnr69nhA9tt7uKX5B3Slp0xfhqYKEUhKSmKIV4AY+m+EdK1atUok4SJk7Ec/+pHYJE4oBL2gCCwgBFJcLkHD0pmReKivCZmZ+cyKVfxTXWzY83DCSIb6G9HSWYlTX63A3VDWuDwe2hvr0CtYhBrhormxHnXlRQjxdEZKRR3q6lrAGd2z9Dt3DXZ+o4RquBOBz+9DW0sT198EQaCty4p5iEP6l8HQrKE2pKflYmBI0MG4ruml1BGQEenyA7iueF/8FBVlz1BQ/AK9XEK6opTCOKpe9nncLbOWOpjzafBQ2hk8r+H/c86nnfnUVY0/gKD2hPk0Ma+6XeBideR25HEq59WOJJUTenKwJnIHBiWptITLFhUVYf369cjLy5sRBUq6ZoSHZi4RBHit2dDQ3Ido1gj6qjKRX8dfTXIz247NmtO8XHJysPP3q/AyvVk0QgONeHzrPAxO6UBj13YcPmUAgzPPUdpOSNMwXIwuws6/dGL9gRrcNDKFW1wtP32YBbOD38E1vx0DDWXIe18nvs7YxJbpnYQIyIh0EYIVBCAOQDzAbC8SsxHKYTLiXPBZPA66LCFUMiw+Aug5HsTbhKcy7GTmpocGBqDx7FuE5njPXFCGue1tDdjyaAXyqtJk2MvEppNLY7DtwUr0d3dOzKB3IhHw8fGBlpYWhodFa91S0iUSvlkz2B3dyEqtRUJCNVKzxx1kGGIjJbkKBTWKWQ2fVXBaYBoERuBhegjm992RkpKF1l6+WnzyS22sVDXHwPgag73o6quF/uoVMBu39UeK9Pe0YWDKvxsXhSlxmEjPhuFpehlOgeXjW2auy3094Ok59t0ab30eewxeIrcwFe8b+HJNqUQTpI6AjEhXIIa7XsHu+h5cvLAbnqkvR300Kgfpirh7HRn2NlIHcz4NhlieQ7aHy3yamF/dER7cNXehLCxkfu3MozanoxOO2zaiOX/mVZR5dDGlak1yIpy3q2KYPeHrb0o5mjARAXV19Rn1sSjpmoiXJHfez12x5qAXrl2Lhd5+e9xyISu/HNjedoOWQShOXA5AYi3Vv5mCKbsLfhG5YPUL1CN4aC4rw+3zwTj/IhcdCuIV3aVeWPcff8HtgCIMj+7gjbQX4+DWr7D/eTCam5vRXFsM6+BgvO/kojT0FpZvWI/A9GomryQrCD4x8eicLP9AN7ITIlE7bpmey27ERQ1tXLFPB9kt5A2x0dZC2n+PYM8XKBj33Iw0Z2Ljp3/H4eehU5X0p4BLE6SFgAxIF988RIqjNu7eNUJ6iik0DTchqs5LqNOlSDtdBLiEG7eQY+8gLQyl0k7MhUsocHWXSltzbSRg1x5UhYinKD3XPmaqx+nqgvdGVbTm589UTKp59YlJ8FbdjGHOqNaqVFtfvI2R04ympqYiB0hJl0hoZs2we+WOa0mjNgS76nDkkgeCwlJx40YM/xTcyABa+4VGB2Ztb8kUaK2GhqEtUppHl4SGB+HrFwe3+HLYXXLDOdsiBUHRDben1xFfOnGFkttdjBtnDXD27FmcuXYfsfWC76AR5EW8hoaWDvT19XHXwQ+dnGn0rXgjGBxgM+RKMLCypFfQ2KsBLbO7qOUAw40JsDTSh76eAeKLKvnPj6AwhhH64hk8kuqEKfRC9gjIgHSRbUQvdPW48bcXh1/ipMkGRNaQbasYpDzRRpCRBQY4HAwMDEyJff19aO9tR/dg9/SR040RnuBNZm4Axd28iWx7+7lVllGtqIsXke9GMFNc8NuzB5Vink6ThZSEdBHzBi1yJF2spCR4bqakS9L5TE9PZ0408njT/BgAoKRLUkTHyju+9sCFMIFeIxv3LrvgvJEX7p7wxRWzYBi/yEL/9LCPNbIUr9prcfy8CzJaJ+7DDXZ14s05N1gFKp5ckP+L/v5+5nePnFcaGeIy/yvEPhePOwg2m40hwXLYUpzDJTBmGZEuvv4WBmxx10AV1x3uj/pgjIL7yxP48//9f1j37bf45ptvJsR136zDV5u+wqo7q3A4/DC0grQmxmAt7PbdDaNoI3CGBW8Fks8SJV3TY0ZJ1/S40NSpCBBFek1NTeYHZGouJV3TYSJu2kTS1Y9b11xgaeaOM9rhqGvtwqOLDjjvOmoSQNxGl0I5EaSrNCELR48743V4ucKVxe/fv481a9Ywv3vr1q3DX//6VyxfvhzffrueSVu7du2M2/ZLYRoX+xhlRLoC0Vn/GLctNuCZ2yNmW1FgkT7W6gieaR1DWlratDE9Kx159Xko7SxFSXvJxNhRgsS6RKx2WY3m/onqg5JMFCVd06NFSdf0uNDUqQiQla6dO3eCy52saMIvS1e6pmImbortC1dciOL7ZeorzsHO016Ijk3BvYdJTBOhNl647C1YCRO31SVQjpCui67In07djZWDQ7s90Di/TZJ5g1hdXT3hd2/r1q0wNjaekNbaqhhXcPMeHG1ALARkQLqITlcgwu9vwJ9WfgJT8104e2Yv3pU6MduL6U+0kXTphljCTVeIbDsSS9yUdE2HzvzSFE26Bnt64KmmhpaCgvkNRILadHtRArDGFXV3d8fJkyfHpUy8VCTp6mwEwryAsHHnMUoDAD0D4MJ9oFvJz0zE+sZg45EgGBgG47CGB7zekR9hLoI9QqGt4wn9ZxloGac8PRH5JXzXXgP1Yy/hEF2PnJwGVLO64B+cBK+Eavi98IPWrWSlMw1jYGAAOzu7JTxpS2/oMiBdZGvRB1y2Ozrb7cGqs0ZdnQ36OESna/52ugjZ2uy1mZIuGTyriiZdnO5ueGzaREmXDOZW2k0eOXIEb968EdmsIklXTgSw82vgOnn/A9BRApjqAfl1gP8d4Bp5/1PiUOjggCy3ADS2c9E2Qfd6BPWsbmT6BKI9O1OJR6Ao0XjwcEqFxaV4mJuHwjmcBVZ5BW5eCMO5ZwVoUJRYM/Srq6uLV69ezVCCZi02BGREugjx8h81ExEIIAAAX88r9Yk2oiws54yjLEhXgacnKhTsA26yIn2WrS3KwsPnjJOkFYcHBuC5fj3KfIiNNfmEkcFBpJ0+jcQDB5CsrY04TU28/PnPEb51K5IPH0aStjYStbTQXVYmM4Hq4uLgvGIFOJ3UTpe4IJOtRWJtvqmpSWQVRZIuIlSCPfCYfAUByA0HtB3516xUYO9tYkJSeYPD8uV48bvfIOm8BQbbWqYIGnroADIeP56SvtgTeMPDICvTVWFh6Gsc79YGIHl1ScloS0kABolnw4mhNzcN9dGR6J+0dUcOgtQnJ6MyLAy99aMnRidWlekdJV0yhVcpG5ch6SIka3Kcv50uqZEuBwfwRkbQU1+P4DNnEHPlCnoaGjAypJij2AzpcncXyhSgp4fYa9fQ29goF5nIl1bE1q2oCSQkWT6B096OkC+/RLWHBxoiI1EfEYEqf3+wwsPREBWF+vBwRHz3HVqS+LosspCqKTERwevXg6sg90uyGJMs2yROr1euXDnrloiiSVfYK+DJ6KOcHQYcceWjwkoDNG4BivkvF2NmeDwEaGqi1McHkfr6sP/sM+S8eoXxp0TDTpxAzkti+3DphMaMDOZks8MXX8B17VoQYpppZcUA0JSZCfdvv4Xjl1/Cec0a2C9bhlxrvseRusREuK1fD6eVK+G8ejVI/Twbvo3Glrw8eG7aBMeVK+GyZg3sPvtM2Ka8kKWkS15IK08/S5Z05bm6gstmw/fYMbxcvhzWq1bB7/hxhngpYnoI6Sry8WGcExM5XixbhterViFAVxddtaOuG2QsWLy6OurDiHNy+QROWxuiNm8Gt6dHZIcJ+/ejJTlZZP58M5qTkhC9ZQuGB6mSzGxY1tXVQVVVFWZmZrMVVajJiJFhwPchcMsDGBoGmnMB/bNA2yCQ9BowFtMDGG9oCL0JCejPypp1vFIrwOPBd9cutI7qNVZFRDCEgug61iXwXXQRMpbz4oXUuiT+aLsjIjDUNs76vdRaF68hzvv36ImKmtb3bHdNDWz++lek3L6Nwd5e5iWUrHjZffopYs3MGAKWevcu8+I0wuWiJiYGtp98gjhzcziuWIGsFy/A7e8HySN42nzyCdLu3mXIVvLVqxPafPvnPyNrlMzNJvlgbS26w8MxNGn1bLZ64/Mp6RqPxtK4lpx0bf8OnVXkDYO4+CHbX5LEd8h8fQyRZhfnjK40V7qIEAOdnQg1MUH8rVvMtaJXukaGhxk5gk6fRsKdO2B3dGBIToY74/bsAUuOdroY0qWmBvakrQLBw0G+JOM1NWVOugjxo8ZRBahP/SQnrp49e8b4XHzw4MHUAtOkKHKlq+AdcOQYoKkLuI3ypQIfQO88YH4PYFzUTSPz5KTqI0eQ/k//hMyf/ARtVs8nZ8vs3l9TE43p6cL2yXcSIQJ2n3/OEIkADQ0UuY4u3QlLze2Cm5aJ3N/8Bun/8A8o+vxzoE70lvHcepi9Vl9AELJ/9jOk/+AHKNu4EeibeCI26+lTBB04MKUhQkItVVRAVv4mh6rISFxRUWHwmpxXFhDA5AVpaU3OYkiZ69dfT0mfnDCUkYO83/2Owa3w00+BqrnZADM8ZYiXS2zVcjKWS+1eItIFHmD/9Wq47fkCwXpqCNbbJGHcgjdffoTYy1fnjLM0SFf8nTvIdRrTpm0uKEB7+VRfVXMWcg4Voy0tUejpKazZlJuLjgr52uJRWtIlw+1FstJFSZfwsRNeEMfWhw8fxnfffYdf/OIX2LFjB0pKSoT5s13IinQRExXR0dG4efcubhgZIfjECUTo6iJcR0cYQ4/rIOSkDsJO6CD4uA7C9XQQY6iDoCM6CD2lg5jTOojQ0UWkjg4u2B7DyciT0A3XhU64Dj9G6+LSKw1kqqggQ0UFWSoqiP75v+CszzHoRI0rJygv4pO0eTLqJM7bHUOkji4ixsk4Xl7hta4uQnV08Pqjj8CaZnWXHDTx19DANRUVuK5bhwg9PeGYhW1M6iNaRxdO509CN+g4dCNPQS9Cj4nkWjfqFFy//QOyVVSQrqLCfL44uQq6sfrCcoLysvgk/Z8O00PAx//B9E2wJvH29c0wDNSD/yk+bm8+/hipd+5MeeQG2tvx+Kc/Rf40p/+IfpbVhx+i2H2ql4+uqirc++d/Rs7oFuT4hnsbGpiVsJBDWnA5dxIngo9BJ2LcnJPrKF04qv4ROeOej9day6ATrTuxrIjnQvCc6Ubq4vcbfg+rF/xt0vFy0OvFi4BkpAtATUIichzckOvgilzmk1yLG12R7+qJhnks14tDutjt7cyWXDeLhcmxt6mJWdlKevCA2Uok+aQ8UbAUlCXbeQNdXcJZZ1fU4a1VEqye56N53HHzrgoWykr4SpvD7S1wsEpCQMJUxVfSUF9Li0iZiC5ZkL4+Uqys0NPYyMgxnUzkS1cQ2HVEpmRY2eajYXDMPHVncwMyqsaUwvOLq1HXLZ4GSwJ5w44jK5izhI5WuFu9g5VVJkqb+W+lxe8KYGWVAP+EcW/KvH4UJdehX0Rz4q50taamAtxeBDtk4plVKqys3sEjpG6cocMhlL2rQQeZm5F+hHqlwcoqFdk14yZLhAxtWVmI3r5dRO7E5KbiMmaMNh5l/KPnvG5EOpC+0pBcxyadIz8iD1ZWSXBPm7sduYm9KuausbERVlZWuHbtGo4ePQpiT+j27dvoHvcMziSZLEhXSEgItmzZAg0NDdy6exeednZIe/kShfb2zA8v+fFlor0dCh34scB+NM1u4n2BnR0KbO3g6HsX1lmvYFdgD7t8OybaljjCI/wRsn78Y+aHlZCSd3/+HZzSrWFb5CAsJygv8rPAHtbZr+Dsew+FtpNkFMg66TPXxobZLmsgz/ykUOjiAg9VVTz9r/9CyJEjKHJxmTjuSW0RLArt7JHk8ArWcY/gUOwEhwIHJtoXOsC+2AkxR7czpDJvlHSF3jeEXZmrsJygvCw+7Ysc4Zhvj4SNXzKkK5cQ3O9/H/4uV2GX74AY64eM/PkODozu7SQ4mFuil0U8WUwORAeOuBMjZmgmB5LXnJMzbT3weKiNi0P+m7dIdniFF3H3JzwbdgV2sH3viCgDjTGZyWrbdR2Q54bki3weRp8vYX6hHV6EvEBRhaLcE01Ght7LAwGJSZc8hJqpj1lJF4+HlGfP4KauDm8trSnR9+hROKiqwnn7dvgcOTIln9Rx3bUL2Q5834zdVYU4e9wFr1zzYHvTHzomEWjnDKE2JxPb/vsOLr0kq1HDcH3oCaNrkTht4oXkavIDPDHE374Ndw2NafvzOXwYDps2iZTJ69AheGhqotiffxyLU/cehnpOeOGYD/vnwdC5EIJWzgjqcnKw5pvbOOlUAgyyEW3niw/XPENU7Zg8hOgQ5fHmaWLIypXIv317Sh4p3zmqYzLcW48rZ5xw/1kePN9E44RuAN5ll+HahRB4embi1H47eKX0oL+9HS8N3+DLzzwxPQ0FxCVd7ZmZGKgpxIGVNnjjWQhPzxwc134L94x2DLF7EWjljs/+6w2K2TwUx6bA/FoCvFwjoaXth5JR/tldUjLtuIutrBDw97+jITp62nEPNPOlr07KxPFT7nD0zMGLc664+iYTOZFpeHIlBZ420ThuFIp3qcV4ey4aHl5ZOKHljKD8qT8GE5+KhXNXWVkJIyMj7N69Gy0tomZ0bDzSJl3E1yMhXFFyPGXc7uaKyP/3b0j69H5R4/QAACAASURBVI/oT5TdYY4x1PhX/nv3TtheJErkPjt3wnvbNjRlZSHy9GkUSMuNWXMbitR3IuDDf0atmSnAHXuBmyyXrO6570uR9e1qBP/Hv6DpETGmvQBCTz9KDmgi6P/+GFWn9IBBZT4PuwDwXEIiLj7SBYDT28uc+utrbsaE2NLCrDj1NjczK1tk9YmJk8qR1TCisEnOOAXfdsdlN4H1Zw6SoovQ2NaDZO9wHN71Bpcc64ARFq6qezB2YOJuucPaZariO1k5I+1OkIf0O14GwTX5nCRTX1MTo/hPCF74fXfctBOYURhAmk8BWB2DiHWNhq6eNS4GVWGouwWu97ywTd8RUeNIYDv50t68mVEej966FeNj6KpViNy4EdHbtk1Ij1BTQ87lK8y/RZ5LCAzuZAj/RXITCpDP6hOuOsWed4SVfSMai4rw5JIT1DSCMG7tS1iPXEhCunrLC3FZL0pY/91TF1x9Uo7e5jo4PnTHJjU3ZLQNY5gr+PLrwoOtNoit5P+IFD18CDKO8eMl44zctIk5QRm1ZcvEvC1bEEkMtTLbPCO4c9EeD6JGyQa3E/5RhWjpE5i3ZsPAwhb+FWNGlVyeOMEilG9VXCj0Irh4+vQps9LUy/x/iB6QNEmXra3tBLJXW1sL4k7lwIED2LVrF+MUmKyCySKcjtDH82zpKa3PKiOPB2Ivr6OsjFmlSbhwgTmtl/f2rbBq2MmTUj29mNNRgK9d1qBfgWc6AyqDsc1ri3CMC+Gior8Wah6b0DYydTVtIchPZVQMAouSdEkPym4817JDSMr0G2QBDz1h8bYG4Fbi5uEgkEWVzEcBcLCpkp4IU1rqx9WjdngT0zElhyTEevjCxLWAqN8B6Ma5q04ILp9e/mkbmDFxGD5mjnjrOL2Zwf7699DaZY+oolE/HA0F0DzgA5aINiUhXZz6EhxZa4v7rzPxxiYdenquCM3vGB1nA07ud0Zyo4BwAXmBYdDUDkXjRJ1cEZLMktzfjOsX3ZDcIiBZE8vnuoZC+3QEmkZ3cXuL83BY3QlpddLofGJfynBnamrKbDXOJIu0SBfRLdu4cSNqavgE1svLC7/85S+hoqIyIf7jP/4jo3cmzircTHJPztOL0sfT7GeTk2V3z+MxK1oxxsbw2bYNcWZmU2xLhRw9iuzn0lPsz2rPxV/ffIyuvnbZjWuWlr2r/PGV4yrwRuS/0jaLaCKzi5oLsOzNp2hmU7c9IkGiGVMQWPSki6xY1SQlIfnRI4QaG4OcCiTbeT5HjyLY0BBhZmbIsLZGU14eY2BvIkIDcD7rBJvosS+jzq4utLH5P+5uN9xwzqYGGK7GTU0/hnQl3/LCG9vqic1MuiO6WdWJiUh6+BBhRCZ9fXgfPsyYryAyhZubI/PtWxAFf2JLbGIYhL2pI14Fja0f9XV2o7OfL1OgvRdM3Ar5VQbbYXTJESEVY6SL2OMa6u3FUF/flDjY2cmYb5icx+3txTCbbFHyEH/fE7dejx066O/rQevAMLitVThzwhYvI8aOnQ+UZmPvfl+IMjkoEelileDYOke8dcqD+ZbH0DIaZ5G7rwZHNZyR3MTH4H1sIjSPeyO9cUyXjRh/JeOYbmxk3NNi0tvLfya4vbC84AjPYsE2LQ8NdV3ggAdWWAoOHvRDShPfATu3sgwmmi6wTpx9C27ivC6cO2KrS01NDe/fvxcptDRIF9G9OXHiBOxHt9KCgoLwox/9aALZmky+iOJ/nxRtrp2KOAWrTPkqOhOvDE7E+GzmuGd8HNLEZMT4la9xWXO6rCrNwXn1v6G/c/oXuTk1KmGlzJRQ3Di7bZrvOwkbkmPx+qoSWOptQHcnJV1yhH3Bd7VoSRfZziNEy2nrVrju3s0YGs22t0dJUBC8Dh5kCFexnx/Sra0ZkuO4eTOjN0Xsd40PlYlxOHA6AIUNfWgqKMJhA3cktfB/YB0uOsDwGdnm68czUw94p1fh4QVX+KSOKbKPb4uYpyAK/EQmonMWe/06iEzvAwLgvncvwkxNwcj0+jXCzcxAZPLctw95bm7jm0FTSiIO6/shr64PLaUlOHvSDSlNfDtTPtYuOOUw6nRuoBW6Jm/hXza27dWWkQGyjRi2Zg3C1q7lx6+/Zj59PvoIwcuXI3z0XpAftHw5ci5fZmToqSqA9kkXJBb1orWeBRNTd3gk5ePaQWvcdK9Gd88g+jl88sMuzsDm7R4QdZhaEtLVU5YP4/1BfAV2diOuHrSDTVQzf1uztwqaW+yQ2gXUpyZCfYsjwvO60ds7iMFh/ptz4b17CP7ii7Exr13LjDNkxQr4/P73fDwmjZuUb4yNZcYd5xCMgxZRqG3tRUVMMk7rhSMu7h327XVGbGE3evsH0VNbCT0Na7wIZKG7dxD9i1jPw8LCYsbVLmmQrrKyMmzatAkDAwPo6enB73//eyHh+uEPf8hsLRoaGk5IJySMmLeQVlAE6eqpq5uRfHRWVKC/WXoHNZozsuC1ci2Gese+J6SFn7jtVIZFIOSIaF+e4rYjz3Jd1TUI1joGcoqSBoqAuAgsStJVk5zMEBYfbW1UxsYyhvHGA5Jw7x4mkytiDyvf3Z1RZifK9EITEjwu8jySYaDrB73jwYjKHXsbTPBIgH0Yf6utPi8XugfdcOFFHgTrIeP7rIqLg4OaGogif3VSEoaYlaOxEsQifpEvseA/Fogyep6LC5y2bYPfsWPorBasoA0hMygRp3X8cMooFGE5raPbbEBadBJsE0Z1ibg9eOscg4xGPkkkLZPVns78fH4sKGAU5Jn7ggKEff013j9/PjGvoAAdubnorxNQpxHUJWTD/Ig/TukGwCu+Bf2173FkrwsMjcOhrx8Mvwz+ahe3vgJ37qdA1FeSuKSrLT0dA021sH+cwawmknGUhyTDzPIdmPOcgy14ejcOtRwecrzDobHPF8Zng3H6fDyK2/irXeyGBnTk5U0cW34+yu3sELxiBcgpRgEO5NAAuSblBwUno4YHEeEaiZOnvGBsHouadg6y3aOwXcsbxmeCoX8jCUnR73BMwwMGxmHQ1w9DUP7Yqt/YrC6Oq4iICOjo6IgcjDRIV3BwME6fPs304efnJyRcP/jBD2AzalWcZBKjrcuWLRPmr1ixAsPDfOIvUkAxMxRBusQUTWrFiHK+y+rVzHeD1BqVsKHyiAjmO07CagotTr6Pya4JOWlOA0VAXAQWJenKdXFBgYeHSAzibt5kVpimK0DIUOrz5yiPjJwue85p5DRkoTdx+j19mOx7cXwpYk2ZyFQVHz8+WerX8RoaaIiJkXq7ohoUl3TJ0iI9WfkjCvU0SIZAXl4eDh06BI4Iw73SIF0vXrzAjRs3GMEuX74sJFWffPLJFGHd3NyE+f/5n/85o1/IKZVnSKCkawZwpJhFSZcUwaRNKTUCi5J0zYb4TKRrtrqyyp+JdMmqz8ntKq1x1GkMRU6Wfa731Djq3JDLyclhtvfYk1ZsBa1Jg3Q9fvwYly5dYpq0tLQUkqq//e1vgm6En97e3sJ8omjf0DD9YQ9hBTEvKOkSE6h5FqOka54A0uoLBgFKupRkqijpmjoR1A3QVEyUJYXYy9q3b59IcaRBujw9PXHyJF/PZzypIvpcLi4uwr6Jvtc333wjJF2fffYZRqYcQBEWl+iCki6J4JpzYUq65gwdrbjAEKCkS0kmTBlIV/zevWDJ0+F1aytjL4ycKBQVEg4cQIuM3QAR213U4bWoGZg+nWz3EWv1ooI0SFdxcTE2b97MOM/u7OzEr3/9ayGx+vGPf4wjR47A2NgYZOVr/CnGhw8fihJL4vSlQrpc165lHEZLDJCUKlDSJSUgaTNKjwAlXUoyRYomXcSpbpSaGmpHrd7LAxZiqiFo2TIUP32KCicnlDs4oMDaGmX29vx7e3uErFqFlnfvZCZOU3w8c4CAHDCgQTwEiCugtWvXIi0tTWQFaZCuoaEhxvaW06ifVPI5nlxNd03kEtdVkUjhx2UsCdKVnQ37v/8dnI6xQ0LjIJDL5WTS1d/WhvqMDIxI6UCELAYxWZGefIeSQ1ycaVwPyaJ/2ubCRICSLiWZN0WTrmEOBwEbNqBy0glKWcJDtg/zrl9Hmr4+0s+cQfLJk3j+s58hWlMTGWfPIt3QEBkmJuirnWrhX1pyNcTHw/vLL6f3wyatThZZOwYGBsJtP1FDkwbpIm2TbczPP/8c9fV8a2/EIv4HH3wwLfkiboJYLFGmeEVJOnP6UiBdrTk5cP3znzHQqjh7U5NJV2NuLmO3cObZUWzuZNI1zOUypoCI5xEaKAKiEKCkSxQyck5XNOkiw/VTV0dlaKicRz7W3dDAADw3b0ZbSclYooyvWElJ8NyyBYR00jA7Ag8ePMCqVavQ1jazOQxpkS4iEdnGJEZPyRYjCcRKPdneVFVVZVbcDh8+DA8PD5CVMWmHpUC6iGuw8DVrGAPB0sZP3PYY0nX8OFM8x9ERbnv34uXy5fA7cYIxbi1uO/Isx5CuI0cYl3HktLv/iRN4/umnIL5yi3x8QJxn00ARmIwAJV2TEVHQvVKQrj17FEq6iKV+T1VVtIw615bHVDCka/NmSrpmAbuqqopxeE1c8lRUECfvMwdpki7S08WLFxmSFSllUy4zjwJYKqQrbPVqpSFd1fHxiL5yBW+/+QaZNjZoKy2dbZoUki8gXZyuLrDS05H+6hVerVzJGOWuS02lpEshs6L8nVLSpSRzREkXmC0+hnTl58ttVijpmh5qspIVGhrKGCE9fvw4du7ciZs3b2I2R9eC1qRNuki7RB5iG2zv3r24e/cuiFsgsuoly0BJlyzRHWu7IjJygnHUzspKxN++PVZACa+6amr4xlFHdeGIy7aoS5eoTpcSzpUyiURJl5LMBiVdlHQpyaPIiJGfn8+sLBF9KqJDtX37dpRKsOIgC9JFBCNkixg//eijj5itRWmeVJwOf3FJ10g7C1bmoTA1jYCpaQhuvshFr9BPRA/C32ahgQ0M9rXi9YMImBiHIypvendh08khy7T27GwwK10znCLm989DSmAiTE0DcPV+OjqHAC67BU6XwmFqEgqXd40gyuQpgckwNgnAfd9KsXfYiOcQsj0nSeiq70J1TQ+m+B4YGhYi38TqREMr30WaJG2LU7anoYHxMDI4K25jrQ329KG6uhM93LE0/tUIRj2WjWbwMMidMrLJlej9AkSAki4lmTRKuijpUpJHUSgGsXVF/B42NzfjyZMn2LBhA6ysxHP+LG3SVVJSwqy26evrIysri1lx43Kn/HIJZZfWhbikqys7GUe/dUZcfjPy81m4qPcGb6OawelowXOTl/jDL9+gkM1DQ0YeHB3foyg5Fdq7PVChBKqExM0X8cc6MqNeIw+JjmHQMgtDbn4Dgp/4wORBCgpzi+DmVYyCtAJomrohKrcOdt6pyCqugcVxB7jk8IllQ04Owi0sEHnhAiIvXpwQY65ehefBg3jx+efMShFZLWKipSUiL11iyoabmzPbdsNDhIgMIcM7Bob7/XHWwBvmV5PQ0E9mfAgJr0NgejoZwxhBoXcUDmn7QnufB7yTJT8k0FVXB/K9HDGNzNGXLyPIwADPP/sMoSYmiB6VNcrSkpGdjDHi3DnE3bqF/nb+qdCa3CKcPeOGs2d9YGwcjvd1/Oe3Pi0TZiaBqBoQPLUjiLjpA93zGYIE+rmIEFiSpCvhxi3k2Dso1TTGXriEQld3hcoUuEsdVSGKU6QnuhE+G9XQKsftxfrEJHirUp0ucR68xsZG7N69G8RS/GxBmqSL2Osijq+9vLxm61bq+eKSro6sFFjqRAj7j7rniJuvKtHX3oRYv0ioq7sjrUWwcjGAVPdI6F6OQueIsIrML8revkXkli0gdukEMWbbNsbZu+sHHyBKVRXkXpBHPkn5RuIabIQDM3MH+JQIWCIHuSUNENwBXTAxsEHgKHOoLSqC6UlPvGPxDzd01tSAuELLcXZGrohI/OESF27T5ZO6xQEBGBkeQU9JAQ7puaOEsfLChcMdP4QW9aAoMh67v7wLVe14jGAE1Tl1IFysKiQIxw3jIekxi76WFkaWHCenaWViZBUhLxlDtqMjCry8MEgcife3QOewDdzyGG+xSHENw72ACnQWF+GoxlPs+tYdVaMLcpyWCpxYeRXb9UWbZJH5w0I7kBkCS5J0hd+7jnT7tzIDdS4N+101R7qn81yqSqUOb3gEjod2oiQiWCrtzaWRgfYOvN21AY0FuXOpPqc6tcmJcNy2CUNs4WvmnNpZKpWIrhcxWDqbQru0SFd/fz9D9MjpREUEcUkXuyQT+5a9wtnzUTA29Md+HT/k8pdfAF49jms6410zn3QNtTfg9XlvGF+MRaUcWVd3aSkaoqIYEkWIFIlNsbFMGiskBA3R0WgaTWfyo6PRGBWFgeZmoKsely56IpfPGaZMRcRrH+iax6GLObDHRahLPA4aeCK2UPrOoFOfe+PW3Ym6fESfqq+zG8VRMThwKhqCDcX6tDwc3v4ar+Napsgsz4T27AzoXA/DePh4GAGntxsN5YV4uN8XJWwi0SAi/CPx6JondC0p6ZLnHMmrryVJuq4EmMIhYva3dXlNAkYAHdcDeJ34VG5dTu6ImEzY/fpbhOT6TM6S231bewNUn61EbnW63PrMrU7DnqdfY6CvR259LvSOUlJSGL+LMynVS4t0kW1NIyMjhUEmLunqKUiD/jZPxGfUw87QBrom457h3moc0XBGyijpEgzm6UUbPE+VPikRtC/VT043LMzs4JrPMAMAbCTFV6OPN4y0kHjo3YrGZG+XWbZeOHUpQ6hfNVkeYs+q9t07lIaGotjfH+8DA/E+IACV0dFoKSpi9MMm1yH3SY89ce/e++myUBcbB02dKCHpYrd2INktFmZXY1HHmb8Jh4HOTrAyMlAWHo5iPz9GZrICR0xGNObkgNvP7HNOka01IxWnb0dgOhPMvJb3uK3hg8phoCkrFc9jy1AYHIujFilT2qEJCx+BJUm6jOJN4VQy5rtNGabxRKQOXudbK1SUXYHqCKlW3PZi12A3NvqqIa9VfqcX89rysSVgBwZHBO/GCp2CBdO5lpYWnJ1Fr8xKg3SRVTViokISBX5pAygu6WpPT4Shuv/oSkY37h56jcu2ZWC0dnoqsUfVBmldPNSnZeO5VTaSolNx5Lgnslsk3fSa+wjrAgORbmSETHNzZFpYMDHr3DlkmJkh7fRpZJqZCdOZfHNzZBgboy2D6BbxkO4ZjUNnAxCXXIXgZ0EwtXiH1JA4rNj6Cp6xtchIa0IbqwFWjrGITCiD8RkHPI3iG7UVSD3Y24t8Dw/G8Kmrujo89u9H4KlTcN6xA0/+8hfm2ufwYcbIqMe+fSC6U82TTqi2Z6VDy8APAhOkEV4xePOOT/mqo2Kw90QUuOChpXrUwn57KbTPuKOsf26kixwOKA8PZ2RzIzLv2wd/HR3GHtfjP/2JGQuxJ+amoQF3DQ1Gx4uQyfFhpJsFbW1bhNfwv2fq49Nw63k+ed/GcGMRbqr7gsXjIe6JLw4c9ofmpmf4n0/skVY5PYkb3za9XlgILEnSZRprCuci0T8YiphCnXAdWOcqlnTt8duD0EoFki5OF1Q9VZHfIkfS1ZKH7T7bMThMSZckz72joyMMDQ1FVpEG6UpISMDBgwfBU6CRSXFJ10AjC5G+pRB4EW3NLsaLN/mMThG4XfDzzANrABjmdMLpVRwsL0UgMmf8ZpNIKKWWUR8WhnRjY2SZmyPLwkIYEw8dgtsHHyDDyEiYxuSPkq72zEyhDHnR6bhkGYoHL/MZfa7aqBxYWkbhxtUYWFqmoLKDjaKELFy8FIYnfmXCerzhYWZ1yHHzZsbwaZadHdorKoSrWWR1S3h6kcfDQFcXyIlGoshus24do4Df09g42h4bIa8DYXg0FFeuBOO0aSgyWXztsuqYOOzTiwUPw8h0DMWJUyHQ1XbAA/caoSziXpDnjqxqee7fDyJ3qpUVmvLzQSzPk9DNYsH3yBEQ+4IkkFUuVloaEu7ehd1338Hv5Em0FhczeeRPblQadAw9cOVKBC6cDkBECt/AMLexGHf2+aK0HxjmDqOrk43YtwHYZ5AAztDciKKwU3qhdAhQ0qUkU0JJF9BFSZeSPI2zi5Gdnc04nB4W4RtPGqSLEDtieV6RQVzSpUgZ59t3b0UFIr75Zr7NzFifkBeXnTtR6OUlJFrjKzB2ukYt0o9PJ9ddtbUINjRkTgOO2aDgoTKjDsnJLHSOU8ccYrPR1CJYHRpETnoNUnNm9p4wuT/BPSFVZOUq7flzTGcWgsjlc+QIyJbj5MDu6EDczZuMSQkBKSNl2qobkZxcjeq2sRVO3vAgOpv6MDjuUAUZR2vH2DGFye3T+4WLwNIkXXGmcC5WspWuCB1Y5yl2pWu3v+JXujZ50ZWuhfB1kpeXB3V1dRBF9+mCNEgXcTlEXAApMiwF0kXcAMnaIj1xAj2efEye08m+Fyfnk3vGp6EcVz2JWzLieFtUmOx7cbpyfc3NID5maaAICBBYkqTLKOU8nKq9BRgoxeex+NN4VeaoUFl2hGoipClOYTJ0g4tvA7Ygv69cbjLkLfHtRXJ+oH8OvwlEmZ6Yj5DlSpetrS3OnDkjt2dhuo4o6ZoOFemniUO6pN/r/FoUh3TNrwdaezEisCBJ11bvrejkTF3SFWeCuPUNsD/5DSItj2NkdC9enHqyLMNl1ePV0ZUIuagNHltwOkiWPU5tm11YgIeaf8a7xxdA9C8UEVrjo3Fr93/jvfMruXVf3Fa8JHW6eAOA3y1ASwfQPA1EV0oGuY2NDQwMDERWksZKV2JiIrOathB0ukQCsQAymJUuZXB4fezYAkBrTERKusawoFfiI7AgSdcqp1XIbs5GU18TGvsaxYoN/Y1oritB8YoVyFJRQaaKCioOHUBTL6nfxLRF2pNnbOxvQlNNMd5//rlQpko9HTTLUaYGIkNBBgp+9SvkqKggQ0UFTXfuiP8ESalkb3Iysv/1XxkZsv7hB6h3sEFjv3hzK+4zMLkcmeuIqgh85/HdklOk53QAHq+BTh5QGAJsl9DN3Z49ezCT7SxpkK6uri7GCj6xQK+osFRWukK//BLcHsWZTaErXYp6wmm/8kZgwZEu9hAbGz02YrPXZmgFaeFg4EGx4t6owzC+uwGJKirIVlFhftyjfqSCo56a2B+qhYNBB+UeNaKPwOTuBqSpqDCki5Ce0H/9Pl+mMG25yKMefwxXznzB4EGIaKqKCoo/+0zezyEaLl1C8igZJjjYLfsFNCIP4wCZFzHnWNJyh4IOQc1TDWeizij0hJzcwWYMAIz1+uYqcDlw7H62K19fX6xbt25G59fSIF1Ejtu3bzOrXbPJJKv8JUG6cnPh8Yc/gE2MoCooUNKlIOBpt3JHYMGRLoJQz2APs7rV0NsAcWN9fxMaKwtQ8Of/xbtRclG6awcau+vR0Cd+O+L2J065enYTGiryUPinPzEypaiooGy/Jhq7WWjoaxR7bOL0JaoMkaE+PR55P/85ckdXuuovXJD7g9gTHY2sf/on5I0Sr5pnj0BW4UTJLc30fu70yuByB0EBHbrfBYxug29PSoz+i4qK8PHHHyMqKmrG0tIiXWw2G9999x3uKGD1lQxwKZCu5uxsuKxciUEFqltQ0jXjvxPNXEQILEjSNR/8BwoLUWtqioYrVzDUoljXEIJxDBQXo9bEhJFppF0xFqp7k5PwYuvvkWp5GiMK0itr9vfG402/QrGVhHtdAiDpp/gIcIBbpwGN00BONdDQDMZQ40wNxMXFYcWKFXj7dnYXWtIiXUSe2tparFmzBjdu3ABpV55hKZCupqwsuKxZA27vdPbS5YM2JV3ywZn2ongElhzpUjzkyivBzghNhLbGK0zAbgxhg/8WFLAl1OpWmMQLt2NeF3BNBzC6AJiZAg/fYpzzYv64iFnG1tZWxMTEwMTEhHE6HRgo3j6kNEkXkaa5uRnHjx/H3r174erqioqKCrkQsCVDulavpqRLwn9nqkgvIWC0OIMAJV30QWAQGBgYwLqX6+GT66swRIhx1E1easiXoxsghQ1Wxh1nPHoEt61b4bN9+/Rx53ZEam9H9KHtiDy4HWGa2+E7WtZ3xw74qanBdM0afPLXv+IHP/gB42uxcxojkKKGIW3SJejH2toaP/nJT/DLX/4Sq1evlvm242ykiziQjlRVRezu3ZLHPXsQtXUrkrS0wGltFQxR7p/MShclXRLjTkmXxJDRCgAo6aKPAYPAyPAIdhzcgdCIpeUGaLFOf2dlJeqTk9GQliZxbEpPR3VcHBICAhAQFAQrKytoaGgwFujF9YMoC9L19OlTbN26FRcvXoSbmxvCwsJQXi5bm26zka5Sa2skHjiAtsxMtKanSxSJT8P68HCEf/MNeioqFPYoUtI1N+i7mprgpaODgT6B86e5tUNrLS0EKOlaWvM942jVd6kjNISSrhlBWqKZZCX0xYsX+PLLL1FQUDArCtIkXcQAK/HzSMxUVFVVzdq3NAsQ0vUs+7nIJsvt7JBpaioyf7aMof5+xO7ahV45j2u8XK3ZuXD9SvHbiwHHjo8XS+mv2+LjEbJ6NXrz5ecrVulBoQLOigAlXbNCtHQKkB+10FBKupbOjEs+Ujs7O4Z4NTU1zVhZmqTr0qVL2Lx584wmKmYUZh6ZehF6eJr5VGQLZTY2jKNokQVmyeC0tyNm584ZV7pGBrngjYxzzDdLm5Jmk5Uu5y9XKVSnqyIsHP6Hj0gqusLK9yTEI/fDD5GuooKC3/0O7KIihclCO15YCFDStbDmS6bSUtIlU3gXTeMWFhY4ffr0jOORFulKSEgQi+TNKMxcM3nASb8j0Nb+GBF798NPXX1CDDx4EHZ//zuitLTm2gMGu7rg8Mc/wmPTJvhrak5o319dHYHqe2F0aSN2+G6Duv9eqPupSzVqBO3DZpt12Kv3AO1C8wAAIABJREFUB/R1KubkNAEvLzMG6wz/BweC+fYSDwQegFLGoIM4EKmNN+t/LTSxQ0z91FtazvkZoBWXFgKUdC2t+Z5xtJR0zQgPzRxFoK+vD2vXrsW7d+9EYiIN0sXlcrFjxw64uLiI7EfWGZWN75EV4Y/KwECUT4qV4eGI09dHsp7enMUY7OhAwJo1yHv9GhUhIVP7CApGXIIn/Ep9EFgRhMDyQKlH/1J/JFXFY3h4aM7jmG/FXnY3sliZjKeR7KZs/mezsn5mocDShPHeQQw5E+PW7Y6K9Zs7X/xpffkhQEmX/LBW+p7U1dUZ5WRFCUpOL6p6qiK/hepIKGoOxO2XmJAgCu2igjRIF9EdI/a5ehTonkbU+ATpVc7OyDQxEdxK/Mnp6EDc7t0YaGiQuC6toEAE+tgoPXMKnr/5MequXwVPzvbjFDhy2vU8EaCka54ALqbqhHSFh4crbEiUdCkMeok7JhbpDx8+LLKeNEiXv78/dHV1RfahDBlEpyvLzGzOohB/h7PpdM25cVpRpgiUs2uxw2cHOsGWaT+08cWFACVdi2s+RY5mZGSEMXC5e/dunD9/Hubm5jhz5gxzKuzs2bPQ19fHBx98ADU1NRgbGzPp5MQYub5w4QLz40fycnNzRfYx3wxKuuaLoPzq5+XlMWYkyKnG6YI0SBcxEXH16tXpmleatHIbGwQvX45UPT2k6OhIFnV1kXDwIFNfkacXlQbMBSZIWWc5dvjvQvtAxwKTnIqrSAQo6VIk+nLsm5AuJycnfPjhh/jtb38LR0dHJCYmMqcVQ0JCEBAQwNg+IqsL5J7E6OhoZuVLS0sLKioqOHDgAOrr62UmNSVdMoNW6g1nZWVh586d4HA407YtDdJF7IOdO3du2vaVJbGvthbVHh6ocnNDlbu7xLHS1RUNkZEYVpDrLWXBcSHKUdZRhp2+O9HOVtwBhIWI21KXmZKuJfYEtLS0MKtc69evh6/vzNbnic874nqFHNePjIyUOVKUdMkcYql1QNwBaWtri2xPGqSL9DHTFqaozhsLgOs3gJfOgHw9NYqSiKYvRgQo6VqMsyr7MVHSJXuMlbIHopOzbt06bNu2DTk5ORNk7O3txfXr1/G3v/0NlpaWcrOPREnXhGlQ6huyJf3w4UORMkqDdFVXV2Pjxo2M/0eRHU3K6K8CjugBHlGA9XnghgNAfEjSQBGQNgKUdEkb0aXRHiVdS2Oepx3l4CAXjx49wueff45Lly4yToWDg0Ow9uuvsWfPbuTL2dIyJV3TTpPSJdbU1DC2s0pKSkTKJg3SxePxcOjQIYn8K1bGAptvjorVCuy1BNpkZ1dU5PhpxuJHgJKuxT/HshghJV2yQFWJ2yQ6OIPDEwWsqKqFwSld/OpXv8KKL5bDwWHM5gxZJRgZ4jK6O0MyXjKgpGvivCjjHdENJLpcsym4S4N0kfEXFhYyK66ZmZliwcGuA4yOAhfvAY8vAutMgW5KusTCjhaSDAFKuiTDi5bmI0BJ1xJ5Ejitxbh3yQQ6urowvf0ENl7RaGhsgOtzc+zYtB3PYxpQmJ+DmuxA3Dh9HBrnX8PP2xrqGzdA4+Ax5vTivt3f4J5XMqY/rzZ/ICnpmj+GsmxhaGgIOjo6jA9EYrh0piAt0kX6cHZ2ZlZjxV15HewEkuKBSzrASdFuE2cSn+ZRBGZFgJKuWSGiBaZBgJKuaUBZdEndlTA/uBVXHRLBGRwEp6UED689xruKLgwPDcLnthb+v693I7uNP/KSVB/45nVheLgX1vu2wC2mBuRHtC7HA+u//COM7NNkAhElXTKBdd6NkrknByl27dqFEydOiGWsVJqkiwyAWKX/+uuv8fjxY5DDIDOF/CTgrhVw2R9onKkgzaMIzAOB8s5yqAeq09OL88BwKValpGsJzHqWnTk+23VxGhN+IwCnFxW5KbB7qgO1HefQzAE6S6OQVENcggzA6bgm/N81C1GqCr6I5csPonLmhQ5heUkuKOmSBC3ZliV6W3fv3mVsuX311VfMliIxKyJukDbpIv0WFxfj1KlTjJV6Yr7k8bVryHj8GJlPniBjXIy0eAIn3SeIfvAEBc8n5gnKkTrpT54gNPgNWjspNRN3Xmm5MQQKmwqx2mY12vpH31bHsugVRUAkApR0iYRm8WQ4Xt6DZfpWwgG9j7HB3p3bsc/gKurb2ShITUAfBmGlvRm77gSgvSYFSdXksD0bjsc04Jc89qPELnLC6i+XI3EsSdjufC8o6ZovgtKrTwgOMSvy2WefMbp+xB1PcHCw2B3IgnQJOicK/K+srWF+8iTcDh1CnKkpYoyNhTHewhjJ542RYDaWNj6fXMcamyDKyAirTP8TcaWyN4cikJ1+Lh4E8svy8anGp2jpmHnldfGMmI5EGghQ0iUNFJW8jbQ3Z/DJBgP0jso5MtSNK0dO47xTPkYwiOyECDCe37qLoLnpU5y99gTpzURrfgBOxzTg/65JOMK68CtY9pkGymVgAImSLiHMSnXR1dUFW1tbLF++nPFcQJTpZwuyJF2z9S1JvkbofiTWJ0lShZalCDAIlJeVQ3WD6qzb3RQuisB4BCjpGo/GIr0eaUrHwa9+hl233NHGnFwcxF29q3gQzALAQWZcGGpHtwvbsu3w9Z9+A/9isr04CLtDO+CTxCddbaUh2LzhYxi+TZaJ7SNKupT7ASTka8eOHTAwMAAx5zBTWAikawQ8aARoIIlFSddMc0nzpkegrKyMsSM3m47h9LVp6lJFgJKuJTLzPdVp0DuhAc0TetDT08EZCwfUtg2gyPMVDu7TgIV3shCJ/Ag3ZNdzUBD5Bju/Xo09+49BT08P+3fsxm2fJHp6UYjU0rvo7+9nth0dHBxmHPyCIF28EUq6ZpxFmjkTApR0zYQOzROFACVdopBZpOm9XZ3o7OwCd3ShYojdj97ePvQNTN0v5HL60T/IRV9vNzo7O9HLnnl1Y76Q0ZWu+SIon/rE6Tk5SdjUNLbtPLlnSromI0LvFxsClHQtthmVz3go6ZIPzrQXMRCgpEsMkJSkiKamJp49eyZSGkq6REJDMxYJApR0LZKJlPMwKOmSM+C0O9EIUNIlGhtly3FycmIMpYqSi5IuUcjQ9MWCQH19PdTU1EC23GmgCIiLACVd4iJFy8kcAUq6ZA6x1DrIzs7G/v37QazUTxco6ZoOFZq20BCora2Fv78/AgMDmRgUFAQSQ0JC8PLlS3z00UdwdHRkzKkI8gRliV07qmS/QGacN4TOjg509fRheGgI7D4OhrhD4HD4J8x43EH0D/Shnz1VDUfSEVLSJSlitLzMEKCkS2bQSr1hotdFLNSLesunpEvqkNMGFYBAbGwstmzZgq1bt0JDQ4N50SAvG8Q4L9liJ/8D+/btY+5JOol79+5lypN65P+EBuVCYLCvDe39E18WS+J9ceq0Piwe2aGupgy3dq7Ax5/+HfYx+YzwvSVxOPrVVli+jsPsBnNmHi8lXTPjQ3PliAAlXXIEe55dJSQkQF1dHaJsdlHSNU+AaXWlQ+DBgweMD9qzZ8/CxMQEpqamsLCwYD7JPUknvklfvXqldLJTgcYQaCkKQ1SZwGolMFifgmevXNDIHivTlvMW275di3xBMW49guwi0NDF2FwaKziHK0q65gAarSIbBCjpkg2usmj10aNHMDc3F9k0JV0ioaEZCxAB4uDdy8sLL168YPx/XrlyBYJ4+fJl5vrJkyfM4RKyvUiD8iEwNMhBX18fqjIDEJLbyFwPcofRVR4NS7NT2HfUCDFFHaOCD+GRhRau+b1n7rtZpcgqrpj3KhdpjJIu5Xs2lqxElHQtjKkfHh7Gpk2bEB4eLlJgSrpEQkMzFjgC5Lkn24oHDx6EtrY2s6VI7lNSUhb4yBa3+Dl+tsxKpbbGZmzddxS6uvpwiywVDroo8g3OGt5GHYefVBv7GhtPWqJ9CKguTEVV+3w3FvntUtIlhJxeKBoB5SBdfQi8EQ6DM6EwMgqGmVU6OoaJfTIOYh9Ew+BMACzupKG2T7Y2yxQ9FzP1//jxY8YBtiglelKXkq6ZEJw5b4g9gOryNhQVtaC8hn8yjsdmo6KoBUXFbaiq7kFntww8zs8sFs0dRYB4ZqioqICVlRWz2mtnZ8fc9/YK9qKWHlRDA4Pon6QnJUCByxkE8xUqSFDQJ/GiQdQhGgvCEFXSyVxPdKzBhpfdOSTUj363c+thtnUbbKNzkZ6QITWj4JR0KegBoN1ORUApSNdIA+6ovoVzTDsqKlrx6qozrj0twshwMy7ouSO5vAfNLf3gzH9rfyoACyCFnND65JNPQBxizxQo6ZoJnZnzAq09sWavG0xMwnB4jwPeRLIwWFONeyahMD8Xio1rrfA0sH7mRmiuzBF48ugh44vUwdlF5n0pewcZdgG4/6BgiphloVE4aBwGKS0STWl/LgnNReGILusRVh0ZHmJeEttq8vDS2x/t495nMu2NsOIPW+Ff2i0sP98LSrrmiyCtLzUElIN0NcLqgBvSiFtKACNVRTA7F4GqijJomDrDPbQCxU0DUhvzQmmI6LS8fv0aX3zxBciJrtkCJV2zISQ63+6lGy7H1zEFhuvLoXnGCRkd/LfvkYoCmF0LRSNn6a60ikZO2jkjKEgOZcxBlNbxdX24nHakxYQgNnVsW4rXUY+YiChEZeYgJz0B8QkxCAsJZurFpdZIWyilbC/lpReuXpt0UpPTDqu9D/HtqWClIl1cdhd6OGNbhRkRTjA0NMTpp7bI7xtLJ0DzWjNw2fgCijul9/9GSZdSPsJLUyilIV37XZFUNfpP1lqPE498ERmbiT0H7HH/fjT2GXghvrJvUU8Sh8MBi8VCVlYWnj9/jkOHDjH6K7OtcAlAoaRLgITkn46vPXAhrHK0Yj+unrWHfRp5M+fi5VUH2IS3St4orSEZAsMtsL5ughOmFiCnFl/cPg7LpzZo62XB++1lLPvjz2HqlsG02V6QjPMnduGMQyhCnC7j4//dBKMbD/DgwT3s//RrnLjyEmPrKpKJsVBK///svQdYXMe5Pk5y4yTOvTflJv7nl3uT2GmOE9uxHRdZLipWr6ijjiSDGhISakhCDRWEJNQAoUrvvfcOQvTeRO+9913a+39mll0W2IVl2QaceZ7hnDP1m3cOu+/OfPN98c/dcVM/g0/cAaQFRcHmhT+uG4SiRsF2BgYH+lFTUwNi4La8rBQlJSWobWhCY30t/dwj6cTN2YDkuBYPG4Z08aBgbuSNgKKQLpM9jkip56DRkRoHzRO+KO9gY0i/Ek73bHHWjvulKG/UpNN/UlIS3n33XfzqV7+CkpISVFRU0N4u+lcHQ7rEn5cxpOukFayTO4GWUtw44Yl87osofhdMzXERGECo4RmsVL8H3qZSXyVSs9J5nwFRlqcwb+kCuCa00paq0yJQThZJeouwX/Uxyrnt1yZi+5yPcc551CoQN3+GXEeTrsaSHNy3iUdVTjauXPdHFd+WnSIMmfygJPbUli9fjjVr1lBfsuTzbsmSJVi1ahVNV1NTQ2Njk8TFZUiXxCFlGhQXAUUhXfrLnsHAqhDBwXk4f8oSD90K0JSZC8d7KQgJTsHxw84IK575rj/y8vJAyJeDgwM19jhv3jwEBweLNL0M6RIJJoGFrJ474/rLof3tyhxsOmCN9I5B1ERH4tjZGIkcWxfYMZPIQWCwEhrz5+Gm29DW4CALmelpSE9JRXphDdiNzchMSUKylxEWLDiI7E6gJikEOUSPvjkde7bfQybf75OwWwfwrcptTN2WueJOUOwTVxjcG9bzLHkZjbWqTji2xwr//twExrG1CiU8OYHd2NiIuro6eo2Pj8d3332HnJwcXnpTU5NQO4RTGQxDuqaCHlNXoggoBOlCD2JtE3HrVhT09SPxNIyjWzPY14N420To64fDMWFoGUyio1ecxoj+VllZGSoqOGPnSubk5IRPP/2U6qpw04RdGdIlDJmJ030tPLHsoD8uXAzBoZ32eO7L+fKP8PDDKW+O3aCJW2FKiI3AYDHU5nyBu75cxc52uJlo419zP4GefzYG29sQFx5Nm7e+thMbjt9GZnI8CohxTQGkK9boGBas1sVM/pmWYe+DdUvtoKMTDJ0bL5FY04N+Vh+qU1JwXtcfZT0jdaXEnhspVSSfd8rKymhu5trpklJHjJ0u6QHLtDx5BBSDdE1e7plSgxgONDExwWeffYZf//rX+OUvf4k//vGP0NTUpDoPZJyRkZH4/PPPkZ2dPe6wGdI1LjzjZr66cRNuZw2QllGP/KrhL6uuzm609vQh3cwMZeHh47bBZE4FgT48Pvwdlu02Ac9ZDDsTV65ooozo+HS2IzUmBnTHrL8MF1YtwAaVaygied15UNttjEKeDlMHdNfPw9Y7AVMRaFrULa/sQkZ2I1Iz69HIR7Kmw254YWEh3WYkK1/SDsxKl7QRZtoXGQGGdIkMlcQLEse8K1asoPpbRIdrdHz77bd5pxaJmxPid44s0QsLDOkShszE6Q6LvoP5e39F6IHv0fZ67DF8v337kGJsPHFDTAmxEWgvjsKqf8/DnjP3QFxeRbga4tTVSyhjDaIiNgxGdwyQVsPR5+rNC8XmJQeR3MZGaZwlvpnzPcwCohEdHYlb32/Exm2HUdI2TJ7FFkqOFUtDQ/Hy2jVkWluD1coZN1eckqAgvLpxA4WujkAvny+dwUEUBwQgXu8Gcuzt0ds58vBRWVgYbTPD0hKslhZuc3K5MqRLLrAzncobAYZ0yW8GiGXt0URr9DNRNCWneoiRQaKA6ufnJ1RghnQJhWb8jMFBeG3fjsqYGKQ/fw7bb79FzLVrYPMZ3gw8dAhpT5+O3w6TO3UEukthcfcix93PDQOEFhOyMYAYR1Ncu34d/nnDp0hba8vR3N2OcId7PPdAxE2QvqkPprPJ1K66Onjt3AnbefMQevo03LdsgdXcuaiOj6dEyWPLFtgtWICw06fhtmkTfV9rEhNB6rlv2gS7hQtpnouyMm2jLj2dki9v0ua333LaVFGB9dy5KBPBFM3UJ1VwCwzpEowLkzrDEWBIl3wmmCiR/uQnP+GRrjlz5sDd3Z3+wj98+DB+9KMf8fIuX75MhdTX16dOf4VJPF1I106fnUioThA4jP7mZjRaWKDZ2RmDLNltknhs3Yq6tDQqU3tFBYKPHoXTypUo8PKiaSHHjlFCJlBoMRI7Xr5E/YsX6M7JEaO2BKoMDqItIAD1pqZgl/PO/UmgYSk3kZrEwS2D31SClPsc1XxbSAjFjVUsndPUAfv3w2Pz5hGrW2kvXsDqyy/hvHIlfPfuBZvvVDNZgbWbPx/Oq1Yh4OBB3urW4MAA4g0MYL9wIQjh8ty6dUSbqU+fwvzTT9FeOaRHN2qck3pksdDi7o5Gc3P0NTaKVLW0uBRr16ylivUiVZhCIWZ7cQrgMVUliwBDuiSLp6itXb9+nUeq3nnnHZ7+Frc+2Urkrnp98803NDkhIQH79u2jq17ccvzX6UK61rutR0BxANj9bPT09dDY3c9CV3M9CtasQZySEo1lJ7XQw+5Cdz+nDLfsRNdOdic6u9rQT1yhsFjjRzYb/T09cN+8GWS1gD+UR0aCrCpEaGvTfLLSNdDXN357pD82G6zuLrT3tKGnvwfdfd1DsYeOpd7RHkk//SlilZSQ8Yc/oC0tBd0DLL5y3PLSuHLkqb53FwlKSlSGnH//G53lxejq7wb5PCDyEoyH5ZaGHJNpk4NbU4AvUv77v6nMqb/5DVriYkDeG9nISfDoQZ3pcyT9x39QGTL/9je0F76esgwE6/buVrB6utBSWATLL75AR9VY7wfOq1fjzo9/jG4BiueEcBn99rfo6xlrRNp2/nxaT1Cb7hs30hXcgd4+dHW0opvdRf8vWf0siBQH2GD19qD89Gn6P0ve6fzly9Hd3ADWQK/QNtgDbGTnZVP1CmKbS9qBIV3SRphpX2QEGNIlMlQSLXjo0CEeqSKOe0cHc3NzXv6f//xnEJ+Lr1+/xrZt29DdzafDwVdxOpAuIu5Sx6V41+RdrHRaiSUOS2hc7L4cu/XnIFFJCclKSkhTUoLvz5Wg/GIhFrss45Xjlhd6dVmKtY/mwXD5l3BbsYquVpEVK2GRrBw4LF+Ox++8Q7cX+eDk3UacPQs9JSWYfvQRXJWVhbbF7cNl5SrYL1qAs4fnYVPADqh4bsVWz63Y4rUVm323wfTr3yFdSQlJSkr0emv3B9gQtBMqXpxypKy04hafbdjupgLHd39O+yZYk3jx7NdY7bcZ39h8AxVPFan1L864CG6b/Hfg6aI/IGNI3lQlJdzb/HdsJPjKAjfvbVDx2ga7D35FcUsZmj/do59hY+COKeG1KXA7TmnOg+2SBbD6+htYf/WVQPJEdLgcly7lvZf8NyTPc9s2gT/IInV06HYk+cEwOiQ9fIinf/87PNYqY7f251hsvxArXVbR/03y/zlRXOG+ChstlsDzNz+k/7MEl3glJajfmIvlnmuE1l/tsRrzHs7De9+9h4aG4S3j0fJJ6pkhXZJCkmmHg0A/kB4BuDoBDg6AdzDAb9S3qwEI9OHkOboArXz/ewzpks9LpK2tzSNVxCQEsUbPH86ePcvL//jjj+mHaUZGBghBI+YlBIXpQrpqOmuQWpOK+Op4us1IthoTahKQlhGCzD/+EeSDm8TsVcuQXBZL82gZUm6iWJOA1PJEVCcnoSY+nurBEF2Y8WJVfDwcly2jZfhxJUrIiffvw2f3blh+9hmir1wZtx3+PuoSElGak4LUhnSk1acjvS4daSTWpyH32nlKdLjEK8fpBVLr03jlSFlpRY4sacg+uJdHblPeeAO50d5IqU9Dal0q0urSpNa/OOMiMhPccvQvUaLKJV65FsYyxI1gkoZsje95ZJniFuhEZRBnXNw65B0pyUtFbUIiqhMT0VYm2I0ReR97BKxykXe2t6trxNbh6Pe4p0mwwVGyMlabmkr/V7JKkpBQl0D/L8n/pkixJh7JFXHIUl5J/2fJj6W03/6W/i8n1IzfRmJlIvLK8sY9HMQ/jqncM6RrKujN8rq9XcCoAylAHbDpI+DoDYDo+l44Dmw6AZQOHVyJtwA+/Bh48hS4cxr4/hxQMbQKzZAu+bxQHh4ePFJFthG1tLSoC4zW1lbY2dnxrNKTvAMHDlAhXV1dQVbIhIXpQrqEyU/SO6NfwnnZBwjZsQx9FRLQNRmvM748z+3bUZPEcTFDkgu8vamODFGgby0tRdjJk8i0sOCrMYXbbhZyL5/Bszm/QfWzx1NoSPyqg03NiD+8E+bf/B9a3NzEb0iWNXvYyL92AaZf/n+oeGQ48peljOQYbG5FyjE1WH79f2hycpJRr4rfTV9lFcJ3roT9or+jM3xiP7GyHhFDumSN+AzqL/UF8Oj+qAFVAXtWAvF8p4otTwObToHavIkzBTZ/P1xHQxm4O3QIThFIV09LC7JtbdHXJdiUYUd1NTLMzUHKzZTQ1dWFL7/8cgTx+v3vf4+///3vI9KIsj1RuidBXV0dpqamQiGYCaSLDE4z7DgeZT4XOk6JZwwO0q2Z5rw8kOi7Zw8lXIU+PryuJH16MbU9F986L0SXHG3de1YEYJWnMm+M0+GmkFWJZe4r0YCRphBkKXtUYwLWe20asZsgy/4Vta/nORZQC+L8QFQ0GRnSpWgzMo3kyTEFHt0bJXA1sGc5EFLKl14GbF8K5JKtR2tgo+pw3sWdwDVnzrMikK6m16/p0eZOAQqVOXZ2sPn6azz89a9HrEQMj2b63qWmpoIo0XMV5gVdieNfEohrIOISiDiMFRZmCuk6GnoMxqkmwoYplXS3DRvgpapKj9vH6unxToBxO/NXU0OKieRkKinIwOG9/0JLu/T1WbhjGH1NTAzEqfMr0D8o3Pbb6Dryfi4uy8bRkwvQ2ibaCTlpyBuS649VT+ajf5BfiUMaPU2vNp9mPIda4H6FFJohXQo5LQosVDfw6A5w5gyguhRYtIBzf/kBUEOci9ULIF3VwKZ5QHgnkOsALFUGcl4DEfbAFjUgfcirrCKQruaCArqy0FU/7OqHHN/33rEDrmvXojQkBD6qqqiKi1PgSRJPNGJlnrjCePPNN3nki5iL+Oijj2BtbU0bbWlpoYTLYoLtrZlCujSDNfEo+ZF4gIpZy2XtWjhv2IBGISYcIs+fR46trZitj61Wn5xKTQB0t8lv9bYkKATOqrsxIMfVtrHIjJ/SUFQI+x1b0S1ER2n82pLJzUuIwpPjOzA4jqFiyfQ0vVp5lvYM6v7qCik0Q7oUcloUWKgBoLIMKCwEPK8BF7Q598XlAJsYXa4ZS7p6soHtykD1IJDjAnz4AXDqDKClCaTy6WlKgnR1JSWhK0Gw3SVRUCWky2X1avSxWGC3teGlri7sv/uOriwMDH2wee3YodCka6C7G+0REWDl54sy5DFlkpOT6dYhcQkUGhpKTyuSQsQw6po1a3Du3LkxdUYnMKRrNCKiP4+23D26JlE4HhBygGF0WVGea1NS4PjdIvR1yG+brDA4GN4HhesIijIOWZdpLS2Dp/p+uZKu6oREBBzSZEjXqMlnSNcoQJjHmYFAyXPghcGosTQCasuBWO4BlU7AYB9wfUjPM8MC2LpvVB2+xw1uG1DWysfE+PImuq2+cgXJv/gFjTVXrkxUXGB+d0MD3JSVkWVjA7LNE3L8OIiBSm4YYLPhvWsXGibwPcgtL/NrVx/yV69G4k9/itTf/Q7t41iNF1W20tJSGBkZYenSpbh7965I1RjSJRJMClGIkC5itLKXz+q9rAUjpMtz6JCGrPsWt7+W0lK4q6nJlXRVJiTAS0ODIV2jJvFp+jOoMzpdo1BhHqcdAv7F/jjsfxgagRrQCNLAlvsa+OYW5548awRrQMP5Bd77VzuU1duhcaIdW7ek42c7NbAnXAMaYRrYeCYCf14eiYNhfPVI3SANuhw0AdCgAAAgAElEQVT8zuN3qJ0Z2t5Q+oT3oRo44/Q94n76Bj1CTWwOxbz5BnSsVHEo4hAMjA4gXEMDQSJEX1VVGPzqVyBG/LhWwfknilhWJm4vXDZuRNCRIxO2GaahgRfXD2K/vzoOBh7EgYAD0ovhB3FLdxW13UNsTJEY9/vfUxkDRRg7Pz5hhw7hwd692Lx5M+bPn0+dXpMVMFEDQ7pERUr+5RjSJd4cMKRLPNxkUYusdO2y2ySLribdB7O9OGnIZm8FYjfnWeozmKab0miZbwq7As49TcswhWmGC5ySYmEdGgvT4FhYxITCrdQUlpmmMM00hVV6AJzTAmBGnofaIVfzDHMYJxvjI7OPcDXmKiwyLUbk85cdc59jAetXj5H4+9+BGCokMeF3b8E+0hjGyUZwcbiDHFNzpJuajhvJMfz427dh8s47cFi8mB7LJxa9+QPRnXBasQLh584h09Jy3PZIf9mm5giwug/98Ku4n/wA9xLuSS0aZBrB5rkWHT/X7lL63LnIIOM2Mxsja66tKYocTVFkb4pMs2FsMs3NkUTcedy6BQ8vL5SL4ZqFIV38b41i3zOkS7z5YUiXeLjJolaUtw2eXzkoi64m3QdDuiYNGVNBWgj0DfSBuGUpaikSq4u2gEBEvvcHhL/7v2hxFc/eDzEJQRy11iQn0xUi13XrUMS3RUcsKRPfYfXp6WLJKPVKg0DN7dsI/MMvkbp4PlivXwvtsq4GiI4H4gqFFhE7gyFdYkMn84oM6RIPcoZ0iYebLGpl2Tki/NwFWXQ16T4Y0jVpyJgK0kJAEor0+q9u4nLUJbFF5J5eZA9ZfSX2kcjKlr+6OkgeCfT0Ymys2H3IouIez12Iro4R2lVfJ2B+DbiuD2idAx4LLyq0jfEyGNI1HjqKlUdIl8OiRWNMU8hSSqE6XQpsCoEhXbJ8QybXV4aDA4LOn59cJRmVZkiXjIBmupkYAUmQrutxejj/8uLEnQkp0ZyfT92wdNXV8UoQtxbEnxjR8yJXQsKqp3BCktewFG+2++5CeGWk0B4G+4DeoZ3TomBgyx2hRcXKYEiXWLDJpVJtWhrMP/kE3Y3yszc1mnS1lpcjx9MT3BPDcgFmgk5Hky6i70lk7mkbsoEzQX1JZI9WpGd3dHBwE+DbUBL9TZc2GNI1XWaKkVOuCEiCdN14dQMXosRfVm4pLIT7hg0Cv4CacnOptXCTP/4R9RkZcsVqos53eu9ERPnELjCC7wLrtwHmouvIT9Q1zWdIl0gwKUShxrQ0uH72GVhytDfFT7p6u7tRHBYGpx076MlASZrHkCTg/KSLmPkgRNFGWRl1OTkCnURLsm9uW/ykixCuquRk2K5fj47aWmr2hltutl0Z0jXbZpwZr1gIKALp6uvupkYpxzM22JCVRZ26ijVIGVWaiHQN8Bn+rk4ATl8ARrq5npqgDOmaGn6yrN2UkoLgRYvQN8aRquykoKTrIEfx+eW9e7BYtgwmn31GSUx+QIDsBJlET5R0qauDqCKk29pSsmP8ySewWrUKyeO4yJpEFxMWJaTL++hRkFW2Vw8fwmr1ajz697+pLDkeHhPWn6kFGNI1U2eWGZdEEVAE0iXRAcmxsYlIV2c98OAGYGcPGNwErpsCfDxsypIzpGvKEMqsAUK6AhcuRJ+C2Olqq6xEhr097DZuRHVqqlztYI03CdyVLuKHlVilL3v1CpYrVqAgKIiuNI1XV1J5vJWugQHa52sfH0r6SLo8LeVLanzitsOQLnGRY+rNKgQY0iW56Z6IdJGeEoMAc3PAyhfokVzXtCWGdEkYUCk2pwikqygkBJ5DK11kqK1lZUiS0WqRuNCS7UR3dXX0NDfzmiCrTV0y3KatSkqC15EjwNCBA1ZHB13xUmRdOB5YUrwZTboa8/NRGhUlxR5Fb5pRpBcdK6aklBFgSJfkABaFdEmut7EtMaRrLCaKmtKSmYmgRYtAvC1MFHKjU6GnFwxj82xK1Af7WuDzMBp6epEIyORTxGe3IsYnF/VcNj84SLfAyDaYoFgQGAgPdfUReUSW0WV58rXUw1YvgvYbmd5KSiLnZSpu6AXjqUMeumlBFgJto3FDLwZp5d2YtEvoCWRuLi6G27596Gpo4MhJiM/gIFX+55ebS4iAXgQ6EKxC4BJSTSVsySuA4Y0w3HiUjDLqhakLoY9e4YZeKJ4456NzAhkq4uLgeegQdQtF+qR9CZKBC1xfB5xeENzCEJQ4TBbR3YykhFJ0kXLdTXC/TeQMg3VAmURXwLliSPs6mnTlenrC9/hxaXcrUvsM6RIJJqaQLBBgSJfkUJ4M6cpKAirJ95YEA0O6JAimhJpit7aiq7IS3dXVw7G2FlUBAfD5/HO0FxSgu6ZmOK+6Gl1VVSB6jiSkekRi30lPhIQVwPqaIy4/TkFOWgaeP01CuE8Ctp12RFxtHy0b5+GJz99/hlz6LQ6Ux8bCff9+ShC8Dh8Gf/Q+cgR2mzbhyZw5nHQNDerahqRzy5EVpfBr1zAwMIhBdgOua1vjwYschAWl4Oj3DgiIzYeJQSgCwvJx/aAFnvrXIjcgCqduhCLENQ6O5rkcQjEJLJuKimj/ZAWOKwf3SmRzUVXF4y++oK6AiCsekkdlHron4/U/dQoddQ0A+mB9xx1aBtEIC8uFvqYNnvrm4uXTMDj6FMJO3w0nDdPRUvMaJ7c7I/hVKZKyG1GSlAT377+H16FDAmVw3LoVT+bO5eTx48aVQU0Nobq66O1hAf1deKDjgIsvkhAWlg6dgzZwTWlFR2UNLu0zxIbtPugA0JD0Ekd3eyP6VSnSC1qnkQvy4cklpCv4AudAVeiVK3TL9dk338Blzx5UJiYOF5TDHUO65AA606VgBBjSJRgXcVJFJV2xocDn/wRcX4nTi/A6DOkSjo28cvIeP4b/kiUIWraMF4NXroT/vHlw/ctfELhkCYKXL+flkXIBS5agOigYGOjDhXNWsE0fcord146IxGJ0Eif3NHTi7GkzeJWygaYaGJ4yxR4VFxS0D+XW16MiPh5E12hETExEZVISzSuNiaFfiORLcUSZhASUx8WhNjOTNlbsHYoTV2J4K1dVr0uQUzHsrDvN2B3GBrF4oOMO54hqlFZxSCNHEtH/ktOARI4xcvPL/PIlR1YBMpN65DRhH4sNVmU+dh53QtHQYmJnXRUis2p5wvTmJGHbrVDkJidg5+1gFJW2U7LT39JMxz4aD4oRwS0uDmVEBtK/ABkobhkZlKw2piViq7Yvj3zWlZYiqbQR1ZlZuHfDBdfUQ0BQzAgJwB6jVygpH8aUJ+g0uaErXTo6VFqCESHs9ps3gxzY6OAzBySP4TCkSx6oM30KRIAhXQJhEStRFNKVEgUY+gImx4DABLG6EVqJIV1CoZFbBlGU76mvR09d3YjIamxEb3u7wDxSvp+sdDVX4MplF6QJMUGV6OSPg1ohaEIvEkNiEJ+QgkdHPJE/tNIlyUFH3HXEw3v5ApvsqSqA2k5bxKSU4cIVC+zX9cfxfbYwsi2U6OlcgZ2Pk1jz6hXO3g/nEZ4RRXtbcWe/OUwCa5ETEIIvVpnhnJY7Dt+PRu3EO74jmhrvIcsrCJfMBNuG6c1Lgf73wXSlK+ipI77YZIuzGi7QNk9GuyRP2IwnoATzMhwdRxhHJQQ48dkzCfYgflMM6RIfO6amhBFgSJfkAJ2IdOWFA99sBmzcgDPKgI4x0NYruf4Z0iU5LBWipZ4WnD1nDc8CLgvoRU5WLSUyOZFxUNfxwevufrBfp0PriBsc7V9h53fP4JrYIlD8ntZWugqUbm8PYiIiTFcXoZcuIfLmTSQ8fUpXJMj2nqCQ6xCA8zeGt4g6mptQ2NSD3uZynNW0wosw0mcntLeawo14weqrxMGzDshsm7RW14ju+1gs1GRkINvNDa8MDRF27RpCLl5ExPXriH30COTkYH1uLtXvGlERQFdhFnZru6N6SITB7jZk5bcAfZ1wvuCKMyaZIBuzrPZONNLVQxa0j5nBKmkky2W1t6MqJQVkJSfm/n2KG5Xh5k3EP35MT042DXnOGC1DTdwr7LoSRPsheeQAQHYBR6+gJSUeet8HgWyEtrR0gLNA2YA9apaIqJDgB8NooaT0nOnkhKChlS6RuujvxivvHHh6FaKBf2G0twt1dBW1F8kx+fD0fA2/wEKEZdaD+58gUvt8hRjSxQcGcytfBBjSJTn8JyJdjYXAMxPgkRGw9Rvg4FWgUYKGuhjSJbm5lFRLRTY2iNixA1E7dw7HXbsQuW0bwjdvHk7jyyfla6OiqaJ6hKUf9ukEIye/HvH2wdA6GYXkqHis2GUK76Q6lJe0ob6wAvaP4mCo54n5793Fs+Bhzw5kHOQUWdjVq7DfsoVu9wScOYM4ExP4nTwJs0WLEG9igogbN6iCuu26dfREI/kCHeRzB9TfVoFTxyxh41+F/Pwy6JxygFl4Om7sfIwzj/JQXt6KupYOBBh6w9SjAMl+MbihH4kmMblDZ309JThOO3fCdsMGqpD96v59ShBNFy7Ey7t3EX3nDtW7slm/nuoNkVUVrisxOn+DXXh43h4XzdOQn98AJ11XXH+SAmsDO2w/Ho7c8lZU1HYgPyQdkUHVyI1LxTFNdyQ3c5aZiNJ+hJ4eHLZupfpvAadPI9bYGME6OjBfuhRxxsaI1NOjpymJDEQHjhBaqlzPfYG6G3HxiDXue+UjP78ajzXtYGBfQnObE2JwQcUPjRhErlcyXr1qQFrASxw544/Sbt4eMrcluV+LQkOp/pzfiRMYHQPPnaN2yl4sWAD/06fpu0V06whm3LJEBy/WyIgzjr4mvLjqBB2daDy85gMNLX8Udw2gs6UW+tue4tAJQvBZCHRLhKFxPE5te4Q1R6PEPvHNkC65vz6MAFwEJEG69GL1cCFafDdAXFmm+3WXzy7ENIq2Z+isAwRmS3bEDOmSLJ6SaI2Yhih2cECJszMvlrm5IUNPDy5vv41CS0uUurjw8kqcnFDs6IiOEs4XM7HkFuUeidPaXrh2JwEtrEEU+cTh6DEfXNIJhrZ2NF43cb+gWxFik4rmoZUdQkDiHj2iRk8Dz56lelLEvRY3EBtXPsT0wVAgZIFYVU82M4PDli1w2rUL1Skp3Gx0l5TggZY/tLUD4BpRj4HOauie9IDOxXCa5vSyHgP9nXA0CsTJMyHIrpz8Hhkxu5Dl6grLlSupYj+xv8Xic/FD7GARBXd+i/ndZPXI1RWue/eCkB9iCoMbBtjtsDIiMvvgmWMx+vq7YHPDD8fPB+OcdgBu2b9Ge0M17C4E44yWH5zjG9DH6qHbYhbLl1PSUP7q1QgyV5+TM/JU3uAgCElMsbSkBM1x+/YRiuO9LfUwvukDbW1f2PtV8k4mdpYVw88yh25/dhQX4fGJAJw6HYSwvCGlPO4gFOTaVFiIXC8v5Pn5jYn5fn40jxiHFZRP0khdsuVIQqFfGA7qcl2mDSLE+RXSKzuQ4hOK79c/xr6LSXyjbsP9S66IL+cey+XLEvGWIV0iAsUUkz4CkiBdl6Iv4XSktvSFVeAeyBfWOqc1sHG9i/KwMJRNEBNMw5DiMbJcZXg48l6+RGpaGppbBG8RjQcBQ7rGQ0ex8lpzcxG0eDHP1pM0pCOK4OQUIFcZfnQf/G6ARueRbT2ykkNOo41YuRldUMLPxEgrOYFIVlUEBa5xVGFGSAlh89HURLcY/z/c/mrT0+npSH7Cyc0jV4IrWbUR5EGjv7eXEjbi+LlPBHMg/O3Onvt++FyyxXOLCgFDHkSObzDUdWJ5edlO/tC+lcg7xMHLmMQNQ7omARZTVLoISIJ0Pba9gEd24vtelO4IZdP6YF8/7rlfgMnOtfDdogKPLVvGjX6qW+C7fbiM19atcF+3Dse++gpzv/0WCxYswNGjR5E5dHpMlFHMNtJVlZ6Nc2f8cP58CM6d8Yd5JMcOE8GKVVUOn6hCPh2QQaR7JyIqefJkVhTsJ1tGFsZR+bcHBck3HukSVF4WaRPJPBHp4so4UTvccoKuE9Udj3QJam+mpvWz2XTrmujbpVhY0K3XZHNzqhtYFhuL9upqDAh0Aj6AsFtOeGBazAdNPzrZHNMnKc7+UNOJG8rrgeF1O9i+bOIrO/lbhnRNHjOmhpQQkATpSjA2wat796Uk4TRqtp8YauRu9YgvN4vNRmJiIo4cOYKPP/4YJiYmIjU220hXqJ071l4LRWZmHVLCE6F20BEpHWzUpRThwJqbUD4fDq5KEaspH4vf08Vdh0qRsJR2IVmQronGoIikayKZRSVdE7UzlfzZTrrIYQtyoIDoCBKbZT7HjiHk0iU4btsG8yVLEHXrFlWoJ/bTSF7Sixdo5m2Xc5BvykrGnmOuyG8ZBPrbcVPXCZapHGKVZO+DXadjaMGBpipo33BGXBOHkIk7bwzpEhc5pp7EEZAI6Xr0CDF370lcttnUYFl5OcIiIhAQGIjXr8nxL04gK13ffPMNjI2NuUlCr7OOdLn44qR/3hAebJw7Zwm38ibUZRTC+p43LhlGUxtIxOFS+Atv7F/3FNZuw6thQoGUQQYlXd99pzC+F2UwZIl0wZAuicAoViPEhlr8kyf0EIHP0aPUxQ/RZeOGHHd3Sr64z0QXj9gxI4c0CCGLunOH6r5x8tlId4/CcVVPHD3khodW2WgdOpqYExiNiw/TaTFWSS4s9WLoCU9uu+JcGdIlDmpMHakgIAnSFf/oET2CLhUBZ3ijRUVFOHz4MH7zm99ASUmJxv/4j//AkiVLEDKkEFxSUoK5c+ciLCxsXDRmG+mKd/XBVxuscfFiCDT3WuPK3WQ093K0yMlxfJ07kXR7sTo3DcHJrxF6zwM2HsPGMccFU8qZTamp8P/6axCL9fIKzEqXeMjP1pWu/IAAuH3/PTU7Igi50W6A+Mu0lJWBnJqNefCAPxnsDhbaxrObQ07QTn3zAAzpGgE78yBPBBjSJT/0c3Nz8c9//pNHtriki3t98803YW1tTQX09/fHmjVr0Nkp3GL1bCNd0S6+2KofiaSkQqgrP8b9qGFTCZUxMbhw9yX6wcbzk5a4apyAM5tMsP9MHJokaKZD3LenKT0dTh98gG6+lQJx2xK3HkO6xENutpKu3s7OEWZERqM3HuniluU/icpNk8WVIV2yQJnpQyQEGNIlEkwSL9Tf348VK1aMIFy/+tWv8Lvf/W5EGlkB4yrTr1+/Hra2tkJlmW2kK9DWHXvtUikerMpcqG80RfCQ48HyiAhoXQtDN3qRGZAHO9sUHFxyD3u0XqFZXAuLQpGffEZtSgrsFi5EbwfxvCefwJAu8XCfraRrIrREIV0TtSGtfIZ0SQtZpt1JI8CQrklDJpEKgYGB+MEPfsAjWFu3bqXkqqqqCoaGhvj5z3/Oy9PU1KR9PnnyBMePHxfa/2wjXeVFZfAnFsaHQqJ/MtwTODaOuurrEZ5cw7OJRIpUpRQht0ICexXcDqdwJaTLniFdk0aQ0emaNGQyq8CQLplBzXQ0nRGQBukixgpJZIJwBHR0dHik6sMPP0QbnwFIUouQK+4242effUaX9dPS0rBnzx4MDAgmDrOFdPV1dlLjoazKCqCyDO1FRWgvKkZ/fTUGq0vpc2d5OQZqytFB80h+Edi1VeirLEFHcTE6SkvR3yO+sUXhMytaDkO6RMNpdCmGdI1GRHGeGdKlOHPBSKLACEiDdGU6O1NL2Ao8bLmLdujQIR6pUlFRGSOPhYUFL/9Pf/oT+vr66KlGsiLWxWdVnL/ibCFd5Z6e8CUHCzZsECuGrFqF0LVr0VlWxg+fTO8Z0iUe3AzpEg83WdRiSJcsUGb6mPYISIp0vXr4kFquJu4ePPbvh4OKCjIdHdFaIcjq8LSHbcoDuHTpEo9U/e1vf0P9KIVqNTU1Xv6cOXNofykpKSAEjeiDCQqzhXTlv3iBuMOH6ck/cvpvsrG9uBiha9bQ1S9BOMoijSFd4qHMkC7xcJNFLYZ0yQJlpo9pj4DESJehIYjftJf37sFq1SqYLlqEoHPnhLogmfbATXEAERERPFJFthHXrl2LmJgYkC1EQsjeeOMNXr62NsfFkqWlJbS0tIT2PFNI19FQTTzKeCp0nEXW1kgewkRooXEy2G1tiNiyBWQLUl6hKS0TDgu/k6sifVFQMLz3H5QXBGL121paCs/v1SHMDZBYjU6yUlVCInwOHxHoBmiSTc2o4gzpmlHTyQxGWghIinQRssUNqVZWiNTX5z4yVwEIkNWqjRs38ogVIV7EPtd//dd/jUh76623UFBQQFsgW4vOzs4CWuMkzRTSdcznMAyDb6K7oRHdDQ0jY2MjsgwNkXDypFAcJspgNTUhZN061CcmortRQB8NDeior0NTRz0auhvR0N0g2djTiNcxobD56muw2+Xn3LggJBiuB9Qmgkuh8ollc6fv98iVdJUnxMFN4yBDuka9GQzpGgUI88ggIAgBSZCupOfPqd8tbvs9LS3oamjgPgq89vb0gT1ql6ynZ5Srh/6BEafPBDY0jRPJScV58+aNIFlc5XlyJSYkPDw86Ai9vLywdOlStI/zJT1TSNfTW4dgMOcfcFdeD5e1a0dEtw0bYPreewjes0fsmSfbkdYffAC7efPgun5kH65rleG6Zi0MFnyEzUYLscZzPda6rJVoXO21HuvvfY1bqz5FR+vUfMqJDQKA0Cxf7NBfQFeop9KOLOvml2dgo+4cNHWM//kiTZmi0v2w4+YCDAyO+gCTZqfToG2GdE2DSWJElD8CopCu2owM5Hh4INfbe2T08QGxUux56BDc1NSQHxiI3KE0ej9UPtvDA7VZWZzBDrARYukPVQ03HDjoiYCkVvR2t8Pc2ANHjrjg2JlwlLf3g1WTh3N77LDvQhiquwWf1pM/elOXoLW1FWfPngXR6/rZz36GH//4x/jf//1fbNq0CfHx8bQDYkT1k08+QWho6LgdzhTS1VpXjYbcHDTnF6A5P39kLChAip4e4sbZZh0XJOIMu7kZgatWoTwkBM0FAvrIz0dVTgYKanOR31KA/OZ8yUbSZsNrVFcXyZXwuBd6YoXLSoBY/Z4mIa8pD4sdl6Cua9j9jKxFDy8LxxqXNegfYEgXP/YM6eJHg7lnEBCCgCikiyjE+2hqwv/UKfifPj0iEtcO3kePgvjiCtTWHpHHLUvqZjg6UQlee4VC40AAatj9aMvLxPH9vkgtqUNQfDF6+/phc8oKJo558LjtAgv/CgQ5eEPXnbO9JmQIMyK5oaEBL1++BNH1Ki0t5Y0pOjqa+l40NTXlpQm7mSmkS9j4uOnFtrZT0ukipIvodHVXVXGbnJVXz3xPKLutm1ZjL2guwGrX1aiXI+mKqozGZo/NDOka9eYwpGsUIMwjg4AgBEQhXYLqiZfWh/u3rPE4tpFXvaOtCz18C1kWV2xg55yKq5ecEVE5gNLgcJy+zFnx4VWa4TcsFgtRUVEgCvTE9Y+Pj49II54tpIucXkw8cUIkTAQVYre0IGzdOrmeXhQkl6zTKOlyVZZ1t1Pqj5CuVS6r5Eu6KqKwyX0TQ7pGzWSWnSPCzuqMSlWMR8YivWLMAyMFgKmSrt7ubnTU1KCjthbkftwwyIbubWu8yBbs5DfOwR/bTgSjqasZF267ILpxAFVBUbh5Ph7TZwNkXATGzSQmIb788ksQu1w//OEPsWPHjjFGU8drYLaQrlIXF3h9/DEiVFQQsXXrpCOx0RXw3XdytdM13jzKKo8hXeIhHcWQLoHAeYVb4PLdXQLz5J3IkC55zwDTPw+ByZKu9poaEOOnkbdu0e1Gsr1oS3wCrl+PwLNnaVrUrVu0THt1Na8fzs0gvI0dcckkdyi9B/6WsShq6EVWSAy0L4WilqpJdOGOmg2iyvuRHxqEww9TRrUzMx+bm5thZWUFExMTnDlzhirZq6qqorCwUKQBzxbSRbYHGxITUR8bK16Mi0NTWhqIZfvZHBjSJd7sM6RLMG6PM55iq+dWwZlyTmVIl5wngOl+GAFRSRc5qh1+9Sqcd+9G2NWryHZzQ8Pr12irqEDUzZsI1dWl9/WvXyPb1RXh167BhZTV1UVTURGvQ1Z5Ga4esMZl41d4dNcPp4xeoTI3Ews+1ofWrSRYmiUiIb8TuUEROH3ME5raLgjKF7wyxmt0ht40NTXh4sWLmDt3LrKzsyccpTxJV1sF8PQp8MwFaGb0iyecK0UowJAu8WaBIV2CcXuW9gyqvuKfKhbcqmRSGdIlGRyZViSAQCu7DWvclZHZOHS6UECbxMq8zbp1eHn3LloFGJRMePIEMQ8fjqlJrNG/evCA1s318uLl97fWw8khFY4+xaAbkp2tCAvMhbtLNhwcMpBRSnzisRHjmQXvuDpevdl68+LFC8yfPx91deNjIS/S1VsBHD0BWPgAhmeBc48xo019zJT3kCFd4s0kQ7oE40ZJl4+q4Ew5pzKkS84TwHQ/jEBjSzWWmc5DWkXicOKou6rkZBCzEcJC/KNH1BK9sPz6nBxUJgpvX1g9Jn0YAeIgezxr9KSkvEgXqxE4pAzYhAHZHsCNx8Aoi2vDA2HuFAYBhnSJNxUM6RKMG0O6BOPCpDIIjECgu6kRj3YsQ2VW2oj0yTxMRLom0xZTVjACHR0dWLRoEWJjYwUXkCPp6usCHl8A1qoAew8B1rEA34FUofIyGfJFwL3MDyt9NshXiEn2XtBZhqXea1Hf1zLJmpIrHlkfB2U/FeYdHwXpk1xzbA/+flSqYjwyK12KMQ+MFOSLurUNHivXoiFT+PbiREAxpGsihCSTT0xIXL58WWhj8lrpqooF1uoOiVUPrFYHqpilLqHzpCgZIVFWOHR7AQbZbKmJ1JWcjJ6cHIm1X1yYhP3636CxbtiWncQaF7Gh+ERPHDVYjL4uyRzEGOzvR1dKCnpevxZRAsUs5uhzG9oP1wIDiveTiyFdivnOzEqpWK2tcFmzBvWZmWKPnyFdYkM3qbzkkroAACAASURBVIrEIr2amnBfefIiXX2twI1zwBkD4PwV4HYAs9I1qYmVQ+E2N3ek/Pa3SFBSQtGWLUDHBOZeJitjP1Bx+jQSf/ADJL35JuofGk62hTHl2ZlZyPzHPxCvpIScTz9Ff6nsHZZ3hIQi7Q9/QMIPlJC/fDnQMkXfmew+lKiqIuEHP0DKL3+JJhubMeOeDgkNj58g+b//m46j7OhRDLJYCiU2Q7oUajpmtzAM6Zo+85+RkUFtd/X0kIMGY4O0SNfAwAA11vrQ0BDq+/bh6vr1CN6/H/7q6jQGHFKH33Z1XPqHOi5+qQ4/DXUEDOVxy5ArSQtWU8cl3fXY6r6FnnTa7bMb3Kjqo8q756ZJ4iqtdiUhm6zb2OWnij1eu+Dy4VtIV1JCqpISkpWUcOXyYuwM2cvDXxTMhJXZGbQXWo/XUUKXNNRH0Fs/xUH7bdgVsIfXh6hj3+WrCtLmizXvIUNJCSlDbRqp/pum7/YdfodEbXOy5QhuRA7HL/6PykBwI2PTOzMfO4OHcZtMu6Teudsr8WpoTGlKSvD//X9hn8cukP4m05a8ypL53O+0HX7/958g8hNMCJEnK5yKFBjSpUizMctlYUjX9HkBiPHUzZs3g1isFxSkQbr8/Pyoo+3PP/8cBw8exMOHD+Fvbo4sMzNkmJoifShmWZmi0MEUhXamyDIbTufmkyspn2lqCp9gM5hmmcI0nYkyxyDTFOZppoheNY9+QZJVI0K6PG11JTcnWaZwDHqAlP/8T0rqCEmK/+g92MQ9hWmmGHOeYUrrhR7ezPtSJ1/ugboHOO2RfGm/S0N9RCrPHyGD97Nz4uOWZQpXN30k/uynlLAQIhf72fuwTOWMV+pjkgRmmaawTnqB2C8+pHNNSfwbb4BVoFiu2xjSJegbg0mTCwIM6ZIt7GnhwO1bgL4+YO4ECKZPgmXy9fXFvn37BGdKQZHe2NgYhGw9e/YM/f2M8S2hwE/DjL68AuSvXInMjz9G9fXrUhlBk5k5Av/xv4j98iN0x8ZNvY+6JhTt2oXMDz4A2cJCV+/U25xkC/35RchfswaZ//oXqnS5ioyTbGRUcYKT/9/ewsu5BKfp6fKsJzEJr778CP7v/haNxGCfggWGdCnYhMxmcRjSJdvZv3wG0HoKxMcDaZmTM61w6tQpPHjwQKjAklzpIg62v/rqKxQNGbYlNsII+dq7dy9dbTt79iyIjhkTpi8CRIG7v7lZqgM47XUIdinmEu2jr3HYd6tEGxa1sYEB9DU1iVpapHL7nbbBRsI4idSxBAtZJD2DpofwH4US7GrSTTGka9KQMRWkhQBDuqSFrOB2n+gBKoeBc+eB122CywhKLS8vp26B8vLyBGXTNEmRrrS0NHz22WfIyuKcaHVwcMBf//pXKCkpjYnq6upoaGgQKhOTMbsR0Ag/DrNc69kNggij3x6oCvOc6Y3Tk6wXUHbeLMJoZV+EIV2yx5zpUQgCDOkSAoyUkgd7gaoyIMIeOKINdIjQD1Fk37JlC65duzZuaUmRrv379/NW1Dw9PfHGG2+MIVv8BGz9+vUQptw/rsBTzGwqLsUTw5e4fz8W9++9QkAOn7uozhYk51RRI60D7U1wfh6D+/djYB9XM8VemeqTQUAzWBMWmRaTqTIry+7y2QWLjOmN0zO3Z9h0epNCzh9DuhRyWmanUDOVdPXV16NPwVZg+thA+9DqVncWoKUOTGTisa+vDxoaGti6dSt6e8fXYZEE6SorK4OysjLa29tBDLK+//77PML1ox/9iOYRvbJ3332Xl04I2PPnz2X+DxRu545Fx73g55cPD4sQqB5yR15PP1oKa6Cz+z7WnQ+nBizLPMNwfp8/gkIKEVvIR8xkLvHs65AhXaLN+YwgXY+f4cC+A6INWMalGNIlY8CZ7sZHwH3jRuqsevxSwnOTDU2Qcf+J8AIyzmmytELG++8j88MP0eriKuPex+/u6Q3gym1AXQ/wqxVelhAsojOloqKCAwcOUBIkvDQnRxKky8vLC3v2cJzW+vj48IgVWe0yMjLiiVBdXY0vv/ySl//tt99icHCQly+Lm1AXX5wJ4Z6SGoSOjgWcyxpR8SoTt7UdcO5hDBUj2MITuo8z0djMWGyVxbzw98GQLn40hN/PCNL17BmIuoEiBoZ0KeKszBKZCr29EW9khKShmHj/Pkw//BDRly7x0hKMjJBlZYU+IfagRkPlaXETmtdXwyjJSL4xxQimoQaI+8XPkDhkMyb2/96CWfAtGKVKWbZkIxglGyLC3AipfPhycSbXZGMjBF8wgs1hIzhdNELWcyMk85VNNzKCu4EBTp48iQULF9ItRUKCRA2SIF3kxCLx80gC2c7kbiN+8sknY8Swt7fn5b/99tsTOuQe08AUE2JdffHdXicYGcXhwVVPnLschYouzinL1tREXLwbRXswu2mKr7c549g+Z9zzeM34hZwi7pOpzpAu0dBiSJdoOIlbiiFd4iLH1JsaAoODSH/xAoHHjiH0xAlEnDsH59WrcUNJCbbffouoCxdoetCxY4i9eZOSrkF2D7ITyxASXITg0BLUj/J80dLYCtc4Hxz108DJ8FM4EXpCblEr6hQuOx/Gy/98g9q9Icb6In75E1x2OgSt6NPSkyvsJE6En8Qh+11wPqeByBMnKY4E49Ex8uwJvDx3Ai+1TyCMLz/81CkEHDiAg99+i8/nzME7f/oTvvvuOwQEBIg855IgXYaGhtAdOgp/5coVHqmaM2fOGDk8PDx4+X/84x9BVr9kGWJcfbH6lB/c3JKweu4DPIobPolXGRMDHYNIEDvrtTVNHN25rkKc2GqH/C5ZSjm7+2JIl2jzz5Au0XAStxRDusRFjqkncQQCDh5ErL4+fPfuBbtjrFp3U1oyFm1+iuv60dDXccf+EwHIbxnyrdVaih0fGsMqdoquMCQ8KuJyJOE/30TCz/8LdXfvSbh12TRHDKCamZlRsw1aWlogyvQTBUmQLmdnZ3z/PcdpLbnnrnT99Kc/havr8FZtU1MTdcDNzSekbCKds4nkn2x+oJ0H1J0zaLXmnGSoqzogrZqj91YeGYkT18PQjV6kRmchtbAVGUFROKodgtaJoZysKEx5IQgwpEsIMKOSGdI1ChAJPzKkS8KAMs2JhwBZ9Qo6fJhWjrt9GxHa2mMaqklMwM5Hw/aYLB7Y4rxvMYB+ZHq5Y+4/H8I6diJ18DHNSj1B30kTt5yPS70fSXTQ29eH4OBgGBoZ4Y6BAQjZIXaxSCAK7Zs2bcKJEycm1JmSBOkiroYWLVpEjaESYvXOO+/wiNfPf/5zHD58GPr6+iAki0u4yNXAwEASUEyqjbysfFimD5urCLSIgMVLzg+HjqpKuIZzfPM1lpZBXzcUxy7FIG4SZjomJQxTWCACx0KOMacXBSIzMpGQLstMy5GJ0+zJ0tKSfj4ootgM6VLEWZllMrVXVMB51So05+fTkbPb2+GyejWqidVOvlCblIjt9wLB3ZFJdvHF4ZtpaGgpgbtXBK5qOcI8SrKGAvm6F/v2bNxlaMdeEru+rCpGRETQbUR+AkPu//KXv8DExISK0dXVhWXLlsFmAme4kiBd5LTkzp07QbYOSbC2th5BrkbLSZ6JQn1Li+yId3dNDco8PFDh5oo6dxeUODigxNEJNT4eqHZzos9lLi6o9XBFiYMjLVfr5YY6b3fUuDqj2MkJ1SEh6OsctVcuq0mfRf2o+avBNEeyxlFnInybfbfhceIjhR8a+bwi5Ip8Ltja2vKii4sLdu/ejblz58LR0ZGXTsqQzy1Sh5ifkYdpGQIqQ7oU/tWa+QKGamkh4d7Irbd8Dw94btuGAT7TBKNJV7yrHzRvhsDWOgihuZXQP2SFB97V9Gi+IqGmE6WD85HnFUmkMbKEhYXhf/7nf8YlNVevXqX10tPTsXjxYtTWCj/yKAnSRTqLjIykhli5q21PnjzBL37xC4FyLly4kGe1fswApZRQZGMD788/R4KWFuI1NScXjx/Hy/374ffVV+gsK5OShEyzXARuGx2C30s77iNzFYLAVaN9cPdSfNL16NEjqn5ATlQTUzZHjhyhUVNTE8S+n5qaGo4ePcpLJ2WIz1aSfunSJZFOYQuBaErJDOmaEnxM5akiQPRdXNevR6+AX/r+amrIMDPjdVGTEI/NdwM4J77623DxuAUM/FJgedYbJ05444t/3MQGzRi0ytZaAE8+YTeKTro6Ozvx73//ewSR+de//oWvv/4ab775Ji/9Jz/5CcLDw+kwyQrU48ePhQ0ZkiJdpIPLly9j5cqVPGvzxDq9trY2JX7z5s2jW57kV6ww59tChZRARoGZGVLOi0+o+7u7Eb55M9oLCyUgDdPEeAhE695ArvOwLuB4ZWdzXvCJ08h1cZ82EFRWVkJVVZWalyEEjKgdkCv3nhAt4jKMrH4FBQXJfVwM6ZL7FMxeAfrZbPjs3g1yuktQaCsrg/umTega0ilqy8uGyg5TaGr5QeuAC26apKKFZ6OThSdXPOCcoHgGJy++vIjzUeJ/MQvCRpJpZAmeu1X3wx/+EBcuXEBzczPVpfL398cf/vAHXj75cCOBmGggvxyFBUmSLmJzi5xiXLVqFciKnCKFEjs7JAvQPxRVRlZzMyJVVNBTw1inFxUzccuFXb2KbL4DGOK2M9PrBZw6haxphBP5rOJuL96+fZuamSErWSSSzzJiboZsKZIy47kuk9W8MqRLVkgz/YxBIE5fH0/+8heUBAWhwMsLBZ6eeO3sTK/kuSQ4GPaLFsFDRYVXl9XBQn1dJ+oaenhp3JuBgUHI2CYmt+txr1rBWjgbdXbcMvLMJM6ruaSLOJYefTqRbCty8z/88EOaT1abyC9HonclKEiSdHHb9/Pzo79oiZHWGzdu4OHDh4gfpffHLSvutbytHD4FPvAs8IJnoRdck22REeCBsoBAFAcEjIglISGIOn4cMUeOiNsd2M3N8F68GFlmZvT/YHQfxf4BCAu1hXeeJwJKAhFQHDBuDCwNgvdrT7yu5JykFFuwGViRIV2iTar/NCNd/KO6f/8+1q1bR7cdyTYicVlGthuFfU7x15XVPUO6ZIU0088YBGKuXoX1okVwW78ersrKcFqxAoZvvQW7hQvpM0l3WL0a3jt2YFAEMwVjOlCQBLWHajhteVpBpBkrBlmO55KqjRs3jilgamrKy//zn/9MP8Byc3PpBxpRrBcUpEG6SD/kQ5Vseb711lvUETYhX5IMxKzAHNM5WOuyFmvdlLHabjlM1NbAZ/0G+p6Sd5IbySqs2SefIHTfPrFFYLe2wvrDD2G/dCncNozsw339BnisX4/jusuh7LkWG9w3YL3b+nEjKTP/5ge491j4KqTYwk7zigzpEm0CpzPpamtrQ0FBAf1RRla6yMo4d9VetNFLvxRDuqSPMdODiAgQq/Mua9agKS9PxBrTo9iFsxdwXltxtxeJ2QUu6fp//+//IScnhwdsf38/1q5dy8tfsGABzYuLi8M2ctBBCBmWNOnKz8/HkiVLqCzEMr60jJ/u89sH70Jv3vgnuiGK9MlnzkxUTGg+q6kJEVu2oKuiQmiZyWak3XuI8GNak60248szpEu0KZ7OpIuOcLAfV69cwZkzZ5CZnSvaoGVYiiFdMgSb6Wp8BFhtbZR01WdljV9wmuUSVzbnp6BsLe3hpqSk4Mc//jGPWH388ccgq1tOTk50NYtLyMiV6EyQQHwfjjcmSZKuwsJCevybbCdKO+wP2A+PfI6JClH6KjA3R/K5c6IUFVimv6eHo0hfVCQwX5zEpPsPEHbypDhVZ3QdhnSJNr3TgXR1laTgqf5t3L79DPGpZejo7UFd9is80NeHZWAib6CvgpzpZ5azlwseGBrC4M4d+nxLXw++yfI5McyQLt70MDfyRoDV2sohXZmZ8hZFov0rOukigz1+/DiPdPGTLP77f/7zn6ivr6cK9qtXrx73JJCkSFdHRweWLl06wsG1RCdnVGOEdLnni35yK9/MDC9VVdGUmipWrAkPR/DKlWiXIOkiPkwZ0jVqYgGMJl1tVVXoYA4wjAFqNOnqrK9Hjwxt340RaFRCY5Ibdu/dDzOHIAQFReCZzjEYWIeitboYnk8v4uNffwyryCpaKy8+EFdPXENcegoenV2Hbccu0s8tfzsDLJizAEcevxrVuvQfGdIlfYyZHkREgCFdIgIlhWJEN2vfvn1Cidf777+PtLQ02jNZ5SKW6cdTTpUU6SIra0RhX1ZhsqSrMiAAocrKiNqxA5Hbt086kq3Fl3v3olOC24sM6RL8tlDS5eLCy4y5fx+Jz5/znpkbDgKUdPHj9OABctxF/yEiTRwHWWU4o7wId7xGrgyz+zjO5Zvby+Fx4zy+W7wHL+uIjy0WkiLTqUjZnhdxz3nYo0lt7FP846vv8LKSdwRemqLz2mZIFw8K5kbeCDCkS94zAHq0esWKFSAK87///e/ptt7Fixd5hlDJCUJi04tf70uQ1JIgXWSVS1lZGcQdkKzCZEnXYH8/+rq6phTJFqMkD4owpEvw20JIV46HB/rYbKTb28Nh61Y479qFdDs7dDcPOygXXHv2pBLSlevpCVZHB1IsLWG3aRPc1dWRZmOD3m7itl1+gZXrhgXvrUH4kMetgdYS2Jo/wZOnzxBW1ICqimy8zmpBqNkRLFC9jEb2ABJDOJ5NkhzP4qa1z7Dwg5XYs+Jf0KOu5IaTpX3HkC5pI8y0LzICM5V0kVM0hLhMp0AU1WtqakYoyj9//pwaTCXuNyYKkiBd0dHRVKeM2OmSVZgs6ZKVXJPph5KuU6cmU2VWlCWk67WXF1jt7Yi+cweWK1bAeu1aRNy8iSYJbu9OdzAp6fL2pluKYdeuwXz5ckq8ou7cAbuD409UXmNkF/pi6fuLEFzNkWCgqx5Ourux7BsVJNW2oboiHbHxhJG14v6e5dh+2gJxcRwd4TGkq78YOxe/j3vBlTIdDkO6ZAo309l4CExX0kUcQZOjyuRoMnGNwx8JcSF2Yog7CnLPn0fuSR1SV5jphfHwknYe8WGYnZ2Np0+fUovOZPuRmIoQJUiCdJmZmVFdM1H6k1SZmUC6Eu7eRcjx6eFgXVLzJko7o3W6Yo2MkGRqKkrVWVVmtE4XIaiZjo6KgcFAI86ofIEFWrbg/hRjx5rh9rH7VL6mxiJkZXJ8r/bXpGL5ws+x8YYbzcv3vYIHbsM/GGPtzuPPi7chq5lsQ8ouMKRLdlgzPU2AwHQlXcR46M9+9jO8++67IArmxC/h/PnzaST+AN9++22888471Jk0N52YPyBl//rXv9K6sjiZNwH8I7KTkpLw97//neePkRgkJeRS1CAJ0nXv3j1w/T2K2u9Uy80I0qWnh6A9e6YKxYyrH6Gnh9few+ZABvr6QLaHxw3cb/bxColSZrz6CpYXePYscvlw6mexJIOThMbZWhSBHUtWYPeeyyD+F6+fVMNzs0AM9FTDxEAbWscfo7SZY7Q5/+VznHnoiJbqHJxVXYAVO/bTOoZXDmLJJlVYJHAU7iUkmkjNMKRLJJiYQrJAYLqSLrJiRYx2fvLJJzh9+jR1NdHY2IiKigqUl5fT1SKyYkSeSSR5ZMVIS0sLxDwDIVxkFUyRAvFjSBTnY2NjYWdnR608Ez+HISEhIokpCdJlbm6OEydOiNSfpArNBNKV/eAB4rVmn52ugqAgpFhYIM3WdkzMcHCA3caN8Dl2DFnOzjQ/w9ERJJ1bnugv1QwdFsFAL4KtAqF21A2Hj/nh1WvuttoAAuxC4JnWgsHudrjp++HwUTdo3H6Jmi7B3hkk9W5Koh2yVV8UFiYUp0wnJ1iuXElxIqtbBJvROCWbmaGOa9aH1YUQw2AcOuoOdTU/vMzn/jBjwV0vCMGxRFduADmBcdA8YI8zBvGo65yA6IoyUHYjwj3d4OLiAo+QGHSSOqwGhAd4wNMzDDXtw330d7HR0VgCb29/+Hp70Tqubh6obJPtChd3WAzp4iLBXOWOACFdbqvWoH6amowoLi6mHu3JqlBo6PApmdHABgcH09N/xExDaWnp6GyFfSY+Gj/99FMQf4wTBUmQLuJcm6wGCjPAOpEM4uTPCNJFTuXNQp2upBcvEHT+PMJ0dcfGq1cRcukSQi5epKYjxpS5cgXBOjooDudsP2U4BUHjcBAqOliojImHxn5/VHe0wP+hH778Rg+Pohox2FKH0PACtHSwYWJggwteiu+0nBzYIAcHgs6dG4sRwe3qVQRfuIDQy5cF46Sri0BtbZRGR9N/r1gXb6hfikJtBwtFYa+gpROCprY2+D+2wwdvGcAkpAnorcDlfU4o6enBk/3PYOxeL86/5oypw5CuGTOV038g7JZWOKxbg7pM2Z1WkwZqHh4e1LYU0YEiltS5gZz4I2nLli0Dsao+HUNkZCQ+//xzmZxeJPpu5CQlWSWUVZgxpIsxjir+KzPQg5vXLGGd0spro6mhA13sZrxOr4KlgRNehPFvSw3C/rot9LyKeeVnxc1gM4zVbeCXy+YNt7O9G11tHSjPy8d1LTsY+tUBaIfvixAYmkfj2tUgJBWN9ZvLa2AW3DCkaxZM8nQZYktjDQ7cWIzKstfTRWShcrZ3dEJPTw/z530LAwMD3Lp1C998+y1u376lkErzQgciIIMo1u/cuXPcFShJrHSRro2NjUEc18oqTJl0dTXj9kVHHDziC01Nd1y5m4QuNtDb2YTHN91x6IAP/FKbeUrA0hhXNlnpYkgXD1ri6aKjthYtZWVoragAMfbZK8RnKK3U24HTN23gVCTYr6iPsQueBA2TrjS/UKge8kRZu3y2q3gDneJNT2srxam1vHwYp/FMRPRX485WG8SXCFJq64fJGRs88KvHQGc1zHQD8dwxAS8ehCA4pWmKkk7v6gzpmt7zN6Okb2O1YbPPVtR21k6zcfWhsaEBjS1cvQ9gsK8LrD4gIycfqrt2Ys+e3UiIeYW+vn50sXrQ0dGOzvZmNJB6zVw9iOkxbLLdR1agiM0uYUFSpIuc6iR93blzR1hXEk2fMumqLoXKWUtElXajqakZxhdtoOdfilBnD2i65KA1Ph7bNLxRL0X1n9cmJqK5JuppgvPNcFy5EgynQA6J6CgshOHFYFzSi0F2Gxvtqfm4dSUE165F4sqFSCQWCyYiEp0ECTRWnZaGeBMTuhXmd+IE3XY0X7YMjtu2IfjiRZA0stVIdMBaxmzx98FG3wZ37Llb/10ItktCSSMhVYPwMHTG0yCOzYKc+ARo3QlGiWzta0oAIU4TVUlJiDU2RsCZM/A/eZJuLZotXgwHFRW63eqrpYXQS5eQamUFQsZGBhZsLtnifjD387oHLv7JKKLkkw3DUzYwDm5BR1YM1m7jqCQUePlAxVj2VuBHyi3fJ4Z0yRd/pnc+BNrZ7djmvW1aka7e+nw80NXEAU1NaF86D7PnD5BY1Y2cMCPs2/w1tlx6Bs73awd8rxyFiuohPHW2htbmtViyVpWakzi0fSsOaNxHUduw8icfLAp5S1bxtLW1hcomKdJFOigqKqInP69fvz6uFXyhwkwiY8qkq6YM+/SckTPEv5tSY6GqG4rMlDTomITC/G4wbFzywRa0ODAJOQfYbOQaGiJdTw8ZN2/yYvbduwhauhQ+X3yBrDt3eOm0jJ4esgwMwG5rBwa78eCqNW4YZyM2Nh9nv7eCfWwZkq2j4OJVgqBn/jh4JRy1NS1IjKtAmGs4lLdbIblasdlFeWwsvA4fhvv+/Yg1NAR5JmShu6kJQTo6SLO2RldjI5pLSlAUEoLImzfhumcPyIm9hrw83gy0Zr/Gmb02uG+VhBeGftC8FYGaHjJpg3C+Y4fHEXUYqCjAkrn60HqYDGeHDCTlDG9H8hpS0JuSyEh4HjwIj4MHEWdigsrERLRVVlIjsT5HjyLFygpdDQ3UfllBYCDIyU9nVVWqF9fMZ9OsNisVJ9Wc8NgqCca6Hjh6KxoN9OVm4Y6GGW571mOgqwr6++xwxzQG1485wDlqyLKpgmIjbbEY0iVthJn2RUaAki6vaUS6eqtwfY8KNM0iQTcWBpvhb30FPpmc5fPqSGusXvonnDfjKJ0OVqYiLJ7jjNXL4AFOGCZRbAaby3BTZQ6WH3wAGZuMEXluRheMiYmh+mnCDJdKknSRvskJ0YMHD2LHjh30NCU5FUpOfPb0SFY/RCKk64YTMoe+fzuzkrDnkB8iQhJx/UEYzJ5FwdojCy39U2NdAywWMm/dQpKODlIuXBiOFy8i+exZutKVQlZy+PKSz59Hmq4uetvb0ZSUjBNaQeBYNALaq6qRVcxHGipysOW8K6qHfgf43XfBk4Ahi5SjXwYFeSarVrYbNiDL1RV9At6L8OvXqUX60eKS7UayKmazbh092cfN76iqgLlZPKzcCzmn42jGIKoLK1HWwsJAUyP8bTNga5UGM7MUxGdx0eS2oJjXhCdPqLFTYj6jnz2sj8WVlqx6Ecv9o0N7TQ1ePXgA2/XrURoTw8tuzy2HpVkCLB0LweKlDqAwoxwF1Zz/z84yDpZBiY28ErP1hiFds3XmFXDc0410lQTdx/z5R8E19jAwZPOnj81C3yBQEZ+OlCRbbPvi/2/vTKCiutI8Ts+cM2c6Z6ZnprunJ+lOd9KZSc90lo6ZSaImxkSNa9yiUdwX4hIVA0LEfYuKJhEBERcUxX1DZFVAZBMUkE0RFUVZZJFVdpDtP+c+oNiqoIp6taD/d847Ve8u33ff7z7gz333fnc0jiYWAE/TEBnftA+Y905HLHeKae2F/DB8/rfBOJsiLX5uTTfSb2JrnqlTp6JKxZwPuUVXCwYRRuKXv/ylFNtMbFO0du3alixZPrUWXTnpMPvxPFpeTCX5BGL2bl/sNzsKX2mqYhFmjnNF8GPDjhjdPuWNrTZN/wB0BlcGJ3M3bD58X/pnojYrBd+v8YCxv1l8cusWKvLExG3lR8fgqB1LwL2gYAAAHgZJREFUiaj0RanGvwKxY7s1vc69eVMa+VNVr2Nw1I7lxIhg51eyHUupf11blIqzZ07hQXNsLVGzIj0eTlu3Yuv+U8gpr0D4+b34YdNW7DoXBknG1RXhrMtW/LDnDHJblZ76Tg1YkqLLgPDpuj2B3ia6olyXYtBna9EyIysj3h+mXw3F4NmrkFzcgKzICGRUV+PeRSf0mzgfickpSExu2pKik+iqv4+57w/ArqDWCbrt6RjXlQieOnnyZNTWKhcPuhBdDg4O+PTTT6UNsMVkfrEd0YMHD2QFo7Xoys/A198446cjSTh7NgaLZx+DR0IxbngEwHxdIE66XIaZbTCya7Qb6RJL/wtjY5EbEoInYWGtZ3g4nohTpLV8NufnhoYiLzISYpQs/1oUvrcKUjy7z0qLkfj4KdBQDR9bT1g7JCpGLe55BGH7plj0npffyh+J7kSX8lovXmp3okteIo2I3rsKb7w9EJ6pzfs61lciPigQV6OicC3+Nsqe1SIt6ijeef1PWHY6oek5bKiG567vseFEEMp1OD9S3nttskbRpQuqtNkjAr1NdGWH70a/90chuc3glK+zGVafDJHuX8ybuJPXNH/h/M+zMPITM/jdagoh4WO/Cza7m14vSoUzLqL/u1/AO01/G8pWlgLu2wAbGyBQw6gM586dw6JFi1T2s9yiy8LCAiNGjIB4ranLQ2vRVV+NCL8E7N8Xg717Y3A1seWVXQ3CzsVgr+stZEhzg7S7CzGnK2bZMgSPG4fQSZMUZ9jUqfB6912cf+MNhE2ZgtDJkxV5IRMm4OqsWaguKATqK/HT+qPYceg+bt3KxPYVp7Aj8CH8nM5g9Fw/3LhXiPvppdJIl5vTSaw6n6Zdg42gNkWXep2gX9ElYqfmYcPWdXBPbvpZqc4MwLdz5mHLAQ/FPwWi5d6O8/CDW0tw5krcuBrf6wSXuA+KLvWeQ5bSA4HeJrpQl4M1477Ax2M3I+VJBaqqq+Hl9A12eccADfW47XcRMY/SmsMDFGDFJ4OxYGcIGurrcHqzLRZtD5VezxWnxsFm2Hsw23QSelsb9gw4vAXYdRq4nwpoOvCyYMECHDx4UOVTIafoEq8Qx48fj4qKNupWpWftMrQWXdq516h2o9jGpuNZXy9Nlo+xtJS2bumUX1cn5oJLR2NZHo6uv4xVq/xxxCtTLLmFz+4gfL8uCOtWB2Cz6y1ptCsyMgFhma0rczVqpBEVpuhSrzP0L7qeYN3mNQrR1VBXhfycVDhtX4ZFa/eipHmItfyeF8bPtYYI89VQ9BiJ9+43L1JS776MpRRFl7H0BNuBXie6ANRVPsGBjYswY94SKRr9gu1OyCipQFVaNFbMmYNvf3BAdvPgVVlaEq7eSkPWnUCYm5riK1Mzqc7CWWaw3e8Nff5ZK78HLBwNLFsHLJ4FnAiF2r/A4uLiILYE6mrrIrlEV2BgID7++GPk5+sninVvEl2qfmXccXRE7AsYkV4Vj5Z0iq4WEl1/6lZ01eJeTAC8vLwQfetxU0Pqc7Fu81qF6GptXQV22m3CuQctvxmrsH3mDGw4dweF6fFIymhJb63RG75RdPWGXnpB2tgbRZeiaxrq24czaGyUBhQaG5o+FeXEovPGliCKjVIdLReytTWt9vfMYODrOYCYkVV+B1g6HrivxkJAESVeCC43N7cufckhukQ8MLFa8fTp0136kjPzeRBdDI6q/InoHaKrAcGBUQi612YlZM1THN9+CVbL/bDuWLLOR8N1K7pqEOXnCicnJ/iEtgTBLsHmH9fhYkbH+aFVOHPhCCKyW2fKp/nvw4Txc+EecA1ttldU3uFGmkrRZaQd8yI2q1eLLj12WF1REcrDwlDXxUqt7ppTkQFYzwdiC4CqFMB6MpDejejKysrC2LFjsXLlyu7MQw7RJTYFF68VRYBUfR0UXfoirX8/vUN01cHO9hC2X24eBQJQlBiH7d/448GTMmQVVul8QYNuRVfnfr/rvRf9B7wF850B0uvs3IRQODo6YrvzfviFd5hsWpeB+SP6wOZEUmdDvSSFoquXdNSL0MzSZ6WY6j0VNfWt/9m8CPet0T2mZeFOv36I/cd/RFKfPmi83fLfokZWpML3bwLf2QCWFkBgF4sAxQrBXbt2SRPZxZZG6hxyiC4xWV+fWwCJ+3oeRNcdBwfELl+uTje9UGV6i+hytj8Bx9DWVcz3Q4IwaZEPgoLTUVCm3apXdTpc36LrcXwUoqNicDM5q6l5Tx8jMiICkS3X7RrdiJz0AhRWtLwtaJfZKy4ounpFN70Yjayuq8aIsyMwy3MWFgUs4tmWQeAiLLqyGAdn90W8iQlumJgg0cQEbhP74Nsri7FI5LeUv7wISy/Mh6f1YlwxN0egijPMyhz+C8zhs9Ac4d+b43KbcsGLF8PRzEwKCzHws8+kuWciTIS6hxyiS4SI2LBhg7ouZSn3PIium9u24aoe96uUBbwejPRW0RV93hdfzDqHHVsu4du1l3S+x6O+RZfoejFdYeUKayw1N4eF1fdYs2YNVq9YDoul5liypGm+bEqbHQP08LjozAVFl87Q0nBPCFxJv4Ifr/8Iu2g7nm0ZxNjh5wR7XFgxBXEmJrjZLLq8v5uAnxIcYBfTzCvGDjtu2MHWbw2u7nfErf0uSNi/X+V588B+iLNtmUQXF8Q4OOC4rS08PD2RkZGhcVfKIbr27NmDdevWaexbmwrPg+iK27EDV7oI56ENn95ct7eIrt0OJ7AvunXhSHVly8h/LeznHMLFRN2u4tW36Kqvr5cm1u/duxci/p6Liwtee+01LF26VFohvW/fPik9J8e4d0RQ92eDoktdUixHAsZAoKIaqWZz4f/7f8L9mdOAMv3Nd9Lk9uUQXWKFk5hIr8nRWA3EXAOCg4HQq8CtW02LBdS18TyIrhv29gjm6sVOXd47RFc9HH44gG9+ikJw8ENci81FbEgcTl1IRvC5cMxf4YtH0obSnW5PtgR9iy5lDRdzOa9fv64sq9enUXT1+i7kDbxoBArrSjD17ARkVrbO+zA2BnKILjGXbPDgwRArJtU9GkuAg06A7TZgsyUwaC5QrME0GG1FV2VeHvISE1U2t6a0FPm3bkFElNfVIYkua2tdme+1dq9u2oq75zyMvv13o25j+/Zw2NqGYPfhZBSWlMHvUDi22Ubiekv8GR3eRdAyG9xzv6BDD92bHj16NILFf07P4UHR9Rx2Km/p+SaQV52PiT6mSC/LNNoblUN0iZszNzeHeO3QkyPAFdhzSbOa2oquFA8P+M6erdTpw0uX4PbBBzj4zjuoVbFnpdKKGiZSdCkH5rxzKa6EnFKeqefU2vIuYkw1dLGvzTPVO1Y8K2vZkEy7m7H7eT4uee7XzoiWtSm6tATI6iRAAvIRyKvMwyTPSUgvadlWWT7bclmSS3QlJyfjo48+ws2bTRuFq9u+sruAlRWQ9kzdGk3lvgn6Fh4PvTSr1Kb03bNn4T1tWpsU4OnDh7g4bx7cx4zB9e3bcX78eMj1B7Kdo+aLG46OCObqxU5ozPzn4WDK0U7p+kpobGzEzYMH4S22apoxQ/q86eqqcB/v7AyvKVPgOWMGvKZORdKRI1JeY3094pyc4Glq2lRv+nTcOdUqHhMPHJCeOanelCmSD+Grp8fES1PhHOvc0+qy1KPokgUjjZAACchB4EUSXYKXWNnUv39/xMfHq41v9yrgeITaxRUFLT3nwSe556+g7rm7w2fWLMlefW0tbjg44OSgQYj68UfUP3uGitxceJmaoqakZU9GhWvZvsTt3IlQCwvZ7D0vhmx8luBUfNdBfXV5r2GrV+No374QI56V+fl46OeHIx9+iMjNmxGyYgWOf/opHgUESHkPvL2lvGtbtiDExgYnPvsM6UFBEK+vxWjqoffeQ/yePYjcsgVH+/eXbAmbqX5+ko/QVat6fCsL3WfgRPzhHteXoyJFlxwUaYMESEAWAkJ0TfaZgvRSzVcVytIANYzINdLV4kpEpR8yZAicnZ3R3Sqm1AhgyUa02yy3xY7Kz0Yge8MGhPzHrxD73tuojlNf4LW1Kf7oXZo3D5nh4bgwcSL8Fy5E8YPWIGhF9+5JIxxi9EIXR6m3D2J//3tE/8u/oODQIV246JU2Cw4eROjvfoXoN19HmY+v3u+hND0dR/r2hfhse5Q8eoQ9f/oT9r7xhiS22uWlp8Pp5Zfh9n//h+rCwrZZ0rzBfW+8gf3/9V8oy2w/zUBcC3FX0sFXOwMqLnK3bUPw7/4ZMW+/icoI3W4ur6IJUvL4MeM5p6srQMwjARLQH4EnlU8w5MhAPMhP0Z9TDT3V1NTg/fffh4mJSZent7e32pbFq0YRs2fo0KGYa2YGaysrHFm3DvEODhDzmFrOs7PtcWCJPeIdWtNa8tp+xtrZw/noSmyL/xnHXK0Usc9E/LPwD/8K+3hHbAlaCx/nzUi0d1TYb2uj7ffYXbtwaf58OL78MnxmzJCEV8ebK0hKkv6IXtu6VRoFa1tf2ffYnfY4eGgVfry+DfaxDrC/Ya/0tEtwhHPoj4j88ytSSBERViT2pV/CxWcj7BJ3Ka2jytbzlG53cxcOeG1A3D/8gxTXLsHEBBFvvgrn0J8gmOnyXnfG2WO75yqE7t4Bv1mzcfqLLzo+DtL10X79cGrIEKV5YkRLjIx2OhobceCtt6TRsU55AM59+SV8Zs5EjJMjdp5ZiZ9jfu7yXgUntxMrEf33reFowv/2n3CMssPOONXPnU74xdrj1T6vwueSj7Jb6/VpnEjf67uQN/CiESgqzIbFnPeRld7zaPS6ZlZXV4dDhw5h1apVUoBTEeS07Snib23cuBE9CXgo6uxycoK1jQ2cLCwQam2NYGtrXGk+r66xRtSa9mkteS2fonyIlTW2HbPAskgrONhNRawQKiYmUvDZK3/9A6xDrLEsxALHflqG8Db2W2x0/BQ2PSZOxI6XXpJGu5SNNAjR5frOOwgwN2/X5o62xLXURmtr2LlawCpsGayDrWF9RflpFWqNtV5LEf7Kv0qiSwTPjf27v8Pm4/NhFaa8jipbz1O6uPetR+dL/SqYCDEa+sdfS6wEM53ea6g1bPws4L3eSno2U86fV/pjlxYYiAwVK/XE68ZsFaETHl68iPQrV5TaFHlB1tYItLHGWg8LWIVadf38hFvjZ+dZiG77M/Dn32JFoJX0c6BTTm2fafGMB1vDxtEGd1PvKr233p5I0dXbe5Dtf+EIVGRlw3vQSJRntH+t8MKBkPOGG4GMJUsQ92//hsQ//xnl3j37Lzvt8mX4TJ+OJDc3nBk5EmJOTs3T1s2LxetFnw4T7eW8jWK3I0j4wx8Q/+//jmw9B5aV8z7ktvXYxgZxv/0tEl59FU9PtE5Cl9tPb7f3+PvliPvNb5Dwxz+i5KT+Nprv7dw0aT9Flya0WJYEjIBAeXY2zgwbhtIeRIo3guYbdRMqExLwrMMcGU0aLCbS+82ZI1UR83cuf/ed1Fd3Tzf9ASt7/BiekybpdCJ9zYMHqLp9W5NmvxBlq5KSUJOa+kLcqzY3WZWYiJpHj7QxwbpdEKDo6gIOs0jAGAlQdBljrzS1SVq9OHNmuwaK0S8xx8Zv7lzcO3cO3tOn61R0tXPOCxIgAaMiQNFlVN3BxpBA9wQourpnZKgSySdPwmPChE7u66qrISba7//LX7DntddQW6Hb/fM6NYAJJEACRkGAossouoGNIAH1CVB0qc9K3yVFeAgx+VnVUXD7NkQAVV1uA6TKN9NJgAQMT4Ciy/B9wBaQgEYEhOg6O3IkqjrE7tHICAuTAAmQAAnonQBFl96R0yEJaEegIicHxz/5BHfPnUNGaCgyO5wZYWHIiYmRIqBr54m1SYAESIAE5CRA0SUnTdoiAS0J5ERFQbyCyomOVmmpurhYilR9+MMPpQnaZ0aMQMspRsBODhmCnb/6FfISElTaYAYJkAAJkID+CVB06Z85PZKASgK+M2dCRCv3bd6/T1lBsW+fWA1XePcuxHYyDXV17U6xx5/n5MnSCJiy+kwjARIgARIwDAGKLsNwp1cSUEpAiK7rtrZw+e//xpnRo+E+dizcx4xpd54cNgynhwxBdZugmx2NCdEmXjvyIAESIAESMB4CFF3G0xdsCQnAd/ZsKYr5iYEDkeLpiVRfX6T6+LQ773t5If/WrS5pSXv/UXR1yYiZJEACJKBvAhRd+iZOfyTQBQGxhUzCvn2ItrProlT3WZLoCgvrviBLkAAJkAAJ6I0ARZfeUNMRCXRP4MLEiciNiem+YDclRPRzpZPxG2oRdDQQi7+7AOsNIbiRXQmgDrd9r8FyiTu+3xaJnPKGbqwzmwRIgARIoCcEKLp6Qo11SEBHBMRIV/Lx40jx8FB4KM3MxA0HB6RcuKBI6/jlWVkZIn/4AYGWlghZvhz733xTmkwfbGODQAsLPL52TaoScMAbZpZXkF5QgYdx8bBc4I6UvApEBNxEalEFfLYcx0/HuO9aR768JgESIAE5CFB0yUGRNkigCwI1paUoSUuD2ABZCKiilBQpjpYY0RKnGJESYSLEBtZi1aEQT2JOV/y+ffCeNg3HBwzArt/9TgoLUZyaKtXvGBhVbDMj5n7dO38eIStWYPsvfgG3Dz6QrpNPnUJJejpQXYalq93gnVaraO0p+zPYGpAlXefcvAvLecfhF1eiyOcXEiABEiAB+QhQdMnHkpZIQCkBMfH95Bdf4PTQoTgzfDiOf/opDr7zDlzF+e67OPj22zjaty9ODRsmrVoMW70aDr/+NdaamGCdiQn2vv46jvXvj92vvIITn38Ot48/hngNKUJHKDuEUEs8cEDaWDkzJKS1SHkhzLedQnBenSLN6+R5WJ9Olq5Tr93B2o0esPVIQb2iBL+QAAmQAAnIRYCiSy6StEMCKgiIUSgxMiWdBQWoLiqSBJMQTS2nCHgq8r2mTpVWL4ogpzddXeEzZw6O9uuHgx98II2CVRUVofj+fZwdNQpP09I6eRST8MUkenGIyPTnRo5sFWfPyrB6hStcIssAVOFRdjaO2Z7Hidhi1LVM47p3HWO/9UJ5J8tMIAESIAES0JYARZe2BFmfBGQkIEapxJyuVG9vhVXxSvLWiRN40JwmBNqFSZOaXhkqSkESbTteeglH+veH/8KFuLRgAbb+4hcIsbFRlHoYdgOLzM7C7XQMvuy7Ef/x9iEk5hYj4HAQXE7HY4vlSex0T1WU5xcSIAESIAH5CFB0yceSlkhAawIXvv4aWZGRXdqpzMuDKCfN02pT8llpKW4fO4YEFxe4/u1vCPruO8S5unay9+TufTg7R2P/vhvYszsKVx/koCozG27OEdjj/RDVbWzyKwmQAAmQgHwEKLrkY0lLJKA1AfFqMG73blzbtk2lrbqqKnhNmdJJdLWtcNHMDHnx8W2Tuvje2EUes0iABEiABOQiQNElF0naIQEZCIiI9BGbNuHkoEFIvXQJjwICOp13zpyR8p8+Uh3agRHpZegMmiABEiABmQlQdMkMlOZIQBsCkujauBEH33oLXtOnSxtf+8yciZZT5Ht8/TUO/M//oPjBA5WuKLpUomEGCZAACRiMAEWXwdDTMQl0JuBlairF6fI0Ne2c2ZxSXVgorWQsy2qKr6WsoFgFmREcrCyLaSRAAiRAAgYiQNFlIPB0SwLKCDyJi5MCqebGxSnLltJEyAmXv/wFxwcPhvvo0Tj35ZftzjOjRkkjYflJSSptMIMESIAESED/BCi69M+cHklAKwIVublS7K6kY8eQHhSEtMDAducjf38p4n1DXWsQVK0csjIJkAAJkIAsBCi6ZMFIIySgPwLl2dk4O2IEqgoK9OeUnkiABEiABLQmQNGlNUIaIAH9EhCi68ywYdJejfr1TG8kQAIkQALaEKDo0oYe65KAAQhQdBkAOl2SAAmQgAwEKLpkgEgTJKBPAhRd+qRNXyRAAiQgHwGKLvlY0hIJ6IWANKeLrxf1wppOSIAESEBOAhRdctKkLRLQA4HyrGyc/2I4yjIy9OCNLkiABEiABOQiQNElF0naIQE9ESgqyoG52XvISr+rJ490QwIkQAIkIAcBii45KNIGCeiRQHZFNj453A8PC1VvA6TH5tAVCZAACZCAmgQoutQExWIkYCwEssuzMdx9JDLKMo2lSWwHCZAACZCAGgQoutSAxCIkYEwEhOgadmYYMko5p8uY+oVtIQESIIHuCFB0dUeI+SRgZAQouoysQ9gcEiABElCTAEWXmqBYjASMhQBFl7H0BNtBAiRAApoRoOjSjBdLk4DBCVB0GbwL2AASIAES6BEBiq4eYWMlEjAcASG6RrqPRCYn0huuE+iZBEiABHpAgKKrB9BYhQQMSUCEjPjo0Ee4X3DfkM2gbxIgARIgAQ0JUHRpCIzFScDQBHIKc9BnTh/cZXBUQ3cF/ZMACZCARgQoujTCxcIkYHgC2VnZGD5kODIzGKfL8L3BFpAACZCA+gQoutRnxZIkYBQEsrOzMWzYMGRw70Wj6A82ggRIgATUJUDRpS4pliMBIyFA0WUkHcFmkAAJkICGBCi6NATG4iRgaAIUXYbuAfonARIggZ4RoOjqGTfWIgGDEaDoMhh6OiYBEiABrQhQdGmFj5VJQP8ESkpKMGrUKBQWFurfOT2SAAmQAAn0mABFV4/RsSIJ6IZAXV0dgoODERISgoCAAPj4+ChOX19fHD58GK+//jpcXFzg5+enyBPl/P39pXqBgYGoqqrSTQNplQRIgARIoEcEKLp6hI2VSEB3BJ4+fYoRI0bAxMQE/fv3x7Rp0zBhwgSMHTsW48aNw5gxYzB06FCMHj1auhbpX331FaZOnYoBAwZI9fr27YucnBzdNZKWSYAESIAENCZA0aUxMlYgAd0TEK8Ot2zZIomt06dPq+XQw8NDEl/r169HXl6eWnVYiARIgARIQH8EKLr0x5qeSEBjAjExMZgyZQomT56M69evK61/48YNaTTM1NQUERERSsswkQRIgARIwPAEKLoM3wdsAQl0SaCxsRGurq74/PPPsWzZMuTm5krl8/PzsXLlSgwcOBB79+6FmAvGgwRIgARIwHgJUHQZb9+wZSTQjkDukyewWrYMn3/2GWbNmoXBgwdj6dKlyMzkdkDtQPGCBEiABIyUAEWXkXYMm/WiE2hAbW1tGwiNiu+REeGS6AoMDFCkNdQ35TfW13aopyjCLyRAAiRAAgYmQNFl4A6gexLoSOBxSjA2mM2Hubk57OwOIyAoGsWlj7DPfAG+HG6KqKa3iyi4F45vps3ERud98HL8GeMmTMCcheZSva+mfQv3a3c6muY1CZAACZCAAQlQdBkQPl2TQEcChcm+mD5xGs7HpaG6uhoZsX7Yud0ZGXWNeFadCduJIzBsuA0eVgJoqEPoaV8kZ5ehruwOvrFejoDUCqlerLcjPn35f3HkanZHF7wmARIgARIwEAGKLgOBp1sS6EygBs7fDMfCbUGdswDUN+QhOiIGzkumYOT64xDT5pPCo5BTUg/UPITFhk2IyKlX1PX7wQwfzN2BZ4oUfiEBEiABEjAkAYouQ9KnbxJoRyAPln0/w+qzSc2plfA8sB6Tx03AsiPBqGzMQ3BIKlD1APPHfoSdF5LwIO4msotrgepUfLd+I8KzWueBPXLfij6DzMGxrnaQeUECJEACBiNA0WUw9HRMAh0JVGHn9AGYttlXkVGTfx0rho5FULoYr8qG/6VEKa/0jgdGDhgNmz0XUVbVoBBdV7NbRVfQjvnoM30rqhXW+IUESIAESMCQBCi6DEmfvkmgA4GHEfvwx79+jD0+95tyqm5jx9fTkPRUXLaKLnEVe3YtXhlkintCVdU+xOI163C1eZL9o8iTGP6Hz7Hv8sMOHnhJAiRAAiRgKAIUXYYiT78koIJAUthxzB74NSwsLWG5xAy7DvujrLYR/ic2Yfp0M3iEtQipUlz08kR2ZSnCdm/C0FFfYta3lrC0tMSYmQtx/HKyCg9MJgESIAESMAQBii5DUKdPEuiOQF0lioqKUFRcgobmslUVZSgtK0FldcfI8w2oLitHVWUlSouLpHrlHYt054/5JEACJEACOidA0aVzxHRAAiRAAiRAAiRAAgBFF58CEiABEiABEiABEtADAYouPUCmCxIgARIgARIgARKg6OIzQAIkQAIkQAIkQAJ6IEDRpQfIdEECJEACJEACJEACFF18BkiABEiABEiABEhADwQouvQAmS5IgARIgARIgARIgKKLzwAJkAAJkAAJkAAJ6IHA/wOD1lvVRFFJIwAAAABJRU5ErkJggg==;" vertex="1" parent="1">
          <mxGeometry x="320.08" y="635" width="349.83" height="170" as="geometry" />
        </mxCell>
        <mxCell id="LZa3TWfJk8D44VAh4uWb-19" value="&lt;span style=&quot;font-size: 12pt ; line-height: 150%&quot;&gt;主功率系统电路属于开关电源当中关键的组成，包括了&lt;/span&gt;&lt;span lang=&quot;EN-US&quot; style=&quot;font-size: 12pt ; line-height: 150% ; font-family: &amp;quot;times new roman&amp;quot; , serif&quot;&gt;AC-DC&lt;/span&gt;&lt;span style=&quot;font-size: 12pt ; line-height: 150%&quot;&gt;以及&lt;/span&gt;&lt;span lang=&quot;EN-US&quot; style=&quot;font-size: 12pt ; line-height: 150% ; font-family: &amp;quot;times new roman&amp;quot; , serif&quot;&gt;DC-DC&lt;/span&gt;&lt;span style=&quot;font-size: 12pt ; line-height: 150%&quot;&gt;形式变换器与输入输出的相应滤波电路等&lt;/span&gt;" style="rounded=1;whiteSpace=wrap;html=1;align=left;" vertex="1" parent="1">
          <mxGeometry x="300" y="840" width="390" height="80" as="geometry" />
        </mxCell>
        <mxCell id="LZa3TWfJk8D44VAh4uWb-25" value="" style="edgeStyle=orthogonalEdgeStyle;rounded=0;orthogonalLoop=1;jettySize=auto;html=1;" edge="1" parent="1" source="LZa3TWfJk8D44VAh4uWb-23" target="LZa3TWfJk8D44VAh4uWb-24">
          <mxGeometry relative="1" as="geometry" />
        </mxCell>
        <mxCell id="LZa3TWfJk8D44VAh4uWb-23" value="MOS管驱动电路" style="rounded=0;whiteSpace=wrap;html=1;align=center;" vertex="1" parent="1">
          <mxGeometry x="90" y="1037.5" width="115" height="40" as="geometry" />
        </mxCell>
        <mxCell id="LZa3TWfJk8D44VAh4uWb-24" value="" style="whiteSpace=wrap;html=1;rounded=0;" vertex="1" parent="1">
          <mxGeometry x="302.24" y="945" width="377.76" height="225" as="geometry" />
        </mxCell>
        <mxCell id="LZa3TWfJk8D44VAh4uWb-26" value="" style="shape=image;verticalLabelPosition=bottom;labelBackgroundColor=#ffffff;verticalAlign=top;aspect=fixed;imageAspect=0;image=data:image/png,iVBORw0KGgoAAAANSUhEUgAAAU4AAADfCAYAAACZHjo7AAAgAElEQVR4Ae2dB3gURf+AlxYL6l9AwIpS7QULXUHBXj8LolIEC4rgJxaET3oLPYXQCU1QpCO9iKBAqAk1CQQIofckBEhIe//P3OaSu9xlL8fepf7uedbs7fxmdvad43XL7IyGfISAEBACQsAtAppb0RIsBISAEBACiDjlRyAEhIAQcJOAiNNNYBIuBISAEBBxym9ACAgBIeAmARGnm8AkXAgIASEg4pTfgBAQAkLATQIiTjeBSbgQEAJCQMQpvwEhIASEgJsERJxuApNwISAEhICIU34DQkAICAE3CYg43QQm4UJACAgBEaf8BoSAEBACbhIQcboJTMKFgBAQAiJO+Q0IASEgBNwkIOJ0E5iECwEhIAREnPIbEAJCQAi4SUDE6SYwCRcCQkAIiDgdfgOXmTdgFW3bzqJNm1m0bqP+/kHb9vOY9dchh2hIZde/ofTs/AetP53Jl53ms+CfI07iZJMQEAJFhYCI06Elz9Pujl483Gw6I/xWMWzEKkb4raTXdzO4u0JvfpwWkZUj+QJ9Ph9Nzdoj+f6X5QzzX0nvrnOoX6sfrXtsJCkrUtaEgBAoQgREnA6NeYH2Nfrz0/jDDikzfh5P5RqTOZOuktKY1Xcy5WuOYfvxK3axZ0M3c88tv+C3+rTddvkiBIRA0SAg4nRoRyXOAfw4LtohZXa3idz14FRigfTYozS5rzddZh11iFOX7wt/W82CLaecpMkmISAECjsBEadDC16g04O+vNp2JbNn72X27HAWLo5ixqjF3Hd7b/r8dsCS48T6ddxTdjB/H052KEE2CAEhULQJiDgd2jeW7x8bwh01h/Pam2No1jiAMtoP1HpuEn/tPpMZvX/lSsrePIyQoymZ20KXraNOnVHUqTOe516YSK+RuzPTZEUICIGiQ0DE6dCWF/iq5gC+C4rKSEln17yV1LzTl6nrz2ZGx+/exsO3DGDW3suZ245HHmLkyI2MHBnCmw/1ocE7K7DcDs2MkBUhIASKAgERp0Mr6uL8NmC/XcqvXcah3eJHyJmMZ+XJsbRr1JdXOofYxVm/TGwdSP1Xl4k4rUDkrxAoQgREnA6NeYEvq/fnG7999ikJJ3ixWjee+WgVVzNSYtavp9bdvfmi7wZiziWRkppC4sU45k9cwkOVe/D1oDD7MuSbEBACRYKAiNOhGS/Qvnp/OmYXJxC1eCXXleiO//KsJ+mHN4fR9j9jaNzIj/qN/KjzzHCavjSegJl7uSrnmw50ZYMQKAoERJwOrZjK8f1nOHHOel5pG5BG1N7jRB29ZLsR1f3oxKETbNp0jB17T0nH92x05KsQKGoERJxFrUXleISAEPA6AREncPHAAQ5MnUrU5MnsnzSJKC8vmfuYMoWzW7Z4vZFlB0JACHiWgIgTOL5yJcGaxtQyZZhWpgxTS5f2+jLNx4fxmsaeYcM826JSmhAQAl4nIOLMEOeUEiWICg7mwq5dnA8L8+6yYwcn16zh1xtvZM+QIV5vZNmBEBACniUg4rSKU9M4sWqVZ+kalHbl5EmmizgNCEmSECi4BEScNuI8tmRJnrVUQnS0iDMXtFPOnyc9WcYDMEJlYZSS9eqvUaykeYaAiFPE6ZlfkodLiVuyhH1Nm7KzWjX2PvYYp4YOJT011cN7KdzFxS5YQGSTJjqjJ57gdEAApKUV7oMqJLUXcQKn161jqqaR12ecM268kQh//0LyU8m7asYvWcJWHx82aRpbNI3NmmZZP9qlS95VooDvKW7uPLaWLm1hY8voeK9eBbzmRaN6XhPnqUun2H9hPwdiD+TRcpCoC1GcPBJFXNRBYg8cyN1y8CCRU6ZYnqrntTin3XQTm7t0IfZg7uurju3M4QMcPHeAw/GHi9QSHX+YmLMH2N2wnkUI2zQN67JV0wi97jpitqzh0MWiddzutKOF0en97H7yCcv/VKx81F/FKOymm4jZsb5QMoqOiyY6PprElMQCb1eviPPi1Ys8PPFhtF4aWv88Wgbo+6n7rMYQTaO/m8tATSNy+vQ8a7BzO3fif8st9HWznsM0jbdraRa2JQaXoOSQkpQcXDQWbURJbvufxqKyGrttpKmkEKpp7NA0mnykoY0sVWSO2d22U4zu+Flj2XUau5wwUpzqty6cjLRB+r/haXum5dm/w2vdkVfEmZqWytTdU+mzvg8DNw7MmyVkIL3/7cX0Kb3Z0n8gIQMHsjEXi4pb/umnjNI0oufPv1aObueLj4pi4s03M++llwjx9c1VXdXxqGObP6Yv/f/uxdDNQ4vUMnjbUAL/9mVD1TvYnk0K6rtapo77Ft/QYUXquN1pR8UoaHV/Nt51mwMj9T+Y7SVKMHnKDwwqhIyGbB7CkE1DiDhnM6+X2/+y8iaDV8SZN1X33F7ObdrENE3j+NKlnivURUkJhw+j7nHuHzXKRWTxSz7Vuw8bMy49rQINUVcEDRuCPDy2/CBO/NwVxURdntsyUg/U5ON9AiJOearu/V+Zm3tIS0wkpn17tl93veWSPUzTiGjUiMR92Yb6c7PcohSedukS0W3bElrGx8JIXaJHvvACSYecTWFdlI68YByLiFPEWTB+iU5qEfn3fF7+pBQzx3Ym7Yr9TKJOwovlpl0rZ/LixyWYN6kbaUkyIXVe/QhEnDbiPL5sWV5x51JMjHSAd0E7IjEGLdCHgMiJLiKLb3LYpX1o/qUYf3BG8YWQD0cu4swQ59QSJfL0lcvLx44xo2xZeVfd4EevHhL4DPUhaHuQQVTxTgo7HUapwaUI3hVcvEHk8dGLODPEOVHT+PPJJ1nWuDHLGjXy7vLssyxt2NAyOtJuGeQjx5+8iDNHNJkJIs5MFHm6IuIEzm7axOo33mB506Ysb9Ikb5bnn2fFG28QPWtWnjZ4YdqZiNN1a4k4XTPyRoSIE0jLxwES8nPf3vhBebJMEadrmiJO14y8ESHi9AZVKdMjBOThkGuMIk7XjLwRIeL0BlUp0yMEIlfP4fUWJflj1H9R/Rbl40hAxOnIJC+2iDjzgrLswy0C6VeucPiLL9hu07k7okEDEiMj3SqnOASLOPOnlUWc+cNd9mpA4ESPHk5fJ4ysX5+0y5cNcha/JBFn/rS5iNMk991nd+O70Zeua7vSbW03WUww+HnDL/RZ9hPrqtxmGQ0p+5Bp6r3si2vWmGyxopVdxJk/7SniNMm9w8oOaN01yg4vSzn/ctzqd6ss18jg5qBbqdr7ZhaXdRwyTUlUDdh7Qbpv2f1iRZx2OPLsi4jTJOpPFn3CvaPutQyifCLhBMcTjstyrQwuneDEhRj2NGrgMJCxkub2664jce9eky1WtLKLOPOnPUWcJrm3WtSKByY8QBoy14tJlJnZ45ctt0ydoWS5J2MQYzWNxrFu3TJjZEUnIOLMn1+CiNMkdyXOWuNrcTlFHlqYRGmXPX75cnY1bcy8CiXY8OB9nPLzk8na7AjpX0ScTqDkwSYRp0nIIk6TAA2y74s/wK39yjBmmwz2nBMmEWdOZLy7XcRpkq+I0yRAg+wRF/ZRcoQPI3eMNogq3kkizvxpfxGnSe4iTpMADbLLu+oGcDKSRJyuGXkjQsRpkqqI0yRAg+wiTgM4GUkiTteMvBEh4jRJVcRpEqBBdhGnAZyMJBGna0beiBBxmqQq4jQJ0CC7iNMATkaSiNM1I29EiDhNUhVxmgRokF3EaQAnI0nE6ZqRNyJEnCapijhNAjTILuI0gJORJOJ0zcgbESJOk1RFnCYBGmQXcRrAyUgScbpm5I0IEadJqiJOkwANskeej8RnmA+jQqUDfE6Yws7soNSQUgTvnpRTiGz3AgERp0moIk6TAA2yb43ZSskhJem7pq9BVPFO2hy9AW2Qxsj1I4o3iDw+ehGnSeAiTpMADbKHhYdR6rVS+P7qaxBVvJMOhm+nSYtyLP5zfPEGkcdHL+I0CVzEaRKgQfbIiEh8NB9Gj5RXLnPCdC48glFVHyB81tycQmS7FwiIOE1CFXGaBGiQPSIiAh8fH4KCggyiinfSmfBwRtSqxe7Zs4s3iDw+ehGnSeAiTpMADbKLOA3gZCSJOF0z8kaEiNMkVRGnSYAG2UWcBnAykkScrhl5I0LEaZKqiNMkQIPsIk4DOBlJIk7XjLwRIeI0SVXEaRKgQXYRpwGcjCQRp2tG3ogQcZqkKuI0CdAgu4jTAE5GkojTNSNvRIg4TVIVcZoEaJBdxGkAJyNJxOmakTciRJwmqYo4TQI0yC7iNICTkSTidM3IGxEiTpNURZwmARpkF3EawMlIEnG6ZuSNCBGnSaoiTpMADbKLOA3gZCSJOF0z8kaEiNMk1VaLWlNrwv0yr7pJjs6yizidUbHflinOOXPsE+SbVwmIOE3i/XjRJ1QbV51LyQkmS5Ls2QmIOLMTcfx+es8ehteowa6ZMx0TZYvXCIg4zaBNg5aT3+KBgXdyOfaCmZIkrxMCIk4nULJtOrp5M0OqVGHz2LHZUuSrNwmIOE3SnfTl+/R/7gHSLieaLEmyZycg4sxOxPH76b17GV6zJjvljNMRjhe3iDhNwl38bnOm1niQ1KtJJkuS7NkJiDizE3H8Lvc4HZnkxRYRp0nKC5o3Z8KDD5KaJOI0idIhu4jTAYnDhkxxyrByDmy8uUHEaZKuiNMkQIPse48eRfPxYXhwsEFU8U4SceZP+4s4TXIXcZoEaJv91ClYtgymT4fRozn9ww+0K1WKJd98AyEhcPCgbbSsAyLO/PkZiDhNchdxmgC4dy+MHw+ffgpPPAHly4Om6UvJkqSXKQMlSmRtu/56eOgh+PxzmDULDh0ysfOikVXEmT/tKOI0yV3E6SbA5GRYsgTeeksXoo8PVK8O77wDw4fD3Lmwdi1ERHBw+XKe8fFhzn//C4sXW85CefXVLMHecAN89RXs2eNmJYpOeNyRI5apMyIVH/nkGQERp0nUIk43AC5YAI89pguzRg0YPBjCw3MsYG90tOUe54iJE+1jzp2D+fPhgw+yzkbVWeiJE/Zxhfhb5JIlbPD3Z2NgYI5LyMiRrOrenSH33sv8L75AfTeMDwwkJDAQ1YVJPuYIiDjN8UPEmQuAp09D27ZQqhSWM0YlPXXm6eKTq6fqu3bBt9+Cuoy/6y5dqC7KLQzJi7/9lv7lyhH4yCOGy8hHH2X0008z8vHHDeNUOX41azKgQgUi/vzTAUFa/BlmTVjFd98uoPP/lvH3jtN2McdCw+k9bisXUrM2x8UcYuTAxXz++Xz+23slG3afyUrMWLty6hiTRyzl888X8G3X5azactwhpjBuEHGabDURpwuAS5dC1ar6snKli2D75FyJ05olMhJeflk/A/3iCzh/3ppSKP8u6tSJ8Y0aceXCBY8tMevXM/juu9mn2sTmE7FuA02eHswHrWbStfsCOn8zg8fvH0CH4dux/u8tZPxstMeCiMrodXd4w3rqPNCP19+fziefzKXlR8HUuqcvHYaHkpJR9tndO3juif689PZUS0ybTybz6L19aPG/DVy22X9hXBVxmmw1EacBQHXPUj3sefddOON4NmKQ05Lkljithfn7Q8mSULs2HD1q3Vro/ipxDqhYkSmvvOKxRYm4f/nyRCxalMnj0oG9PHNXTzqNsb9lcmjtOm4t05XAlfrtj63TFnLLcxM5ZLHiRTrW60/zblszy1ErW6bNp8I9Q9h0UgVdpdtrw3j2w7/sYg4sW03l2/uxIKJwq1PEades7n8RcebAbMgQXZo//5xDgOvN1yROVey6tXDTTfDQgxAT43pHBTBix/TpLOrY0bNLp04s6dyZ49u3Zx7x9J4TuO3xX7mUucW6ksSMwfOYvkr/n49VnNGWS/U42j7Sh9c6bSDNGm75m05kxAlir6itV+j44iBqv7WUK3YxcPDACU7FW89lsyUWkq8iTpMN9WfLlkx85BGTpRSx7L6+ujR/+MHUge3bF46Pj8akScPcL+fgVqhaDh6oJd2WcqSXTLd3h/F8l/U5RlgTrOI8dFXfsnvJGmpW7k6Nh0fRtvNC/lgYzv6T9meRR9dv4pm7e3Df/f607DCP6XN3s+dwnLXIQv1XxOmi+VIuX2bbTz+xtkUL1jZvbres+/BDxlauzHAfH9a89x7rsqe3aMH6Tz/l0pEjLvZShJKtl+edO5k+qJCQaHx8JvHYY/t5+23cWt5vBT+9uI1LN9wGjzwEcUXjH6xpqHYFJPLTG0P5oF/WGahdss2X7OJUSacjDuLXfz5vN/Xjzkq9ue2u/vw8Ooxk0jNzXow5wthBi/jwtUDuuaMv5Sr3pkP/ECwnpZlRhW9FxOmizZLj4vi9fHmmlinDvJo1mVu9euYyv0YNptWowWS1rUaNzO0qZl716sysVImJmsb50FAXeykiyZs26WeaLVtw9hIcPKwfl7rVeC191devT0J187zlFrj3XqhSJXeLii1REkpXgv2/bYLrS8JnnxUqyLGHD3MiNJQTYWEeW05mlHVZdeeyfFLp98kIHvlslVM2aWlXSbqqP+qxijM6GdKuXuVivP3YDEmxZ5gbMJfy1/VkzMpTkJZM/Dn7i/TkhFhWTF3KHTd2p/uvB5zus7BsFHG6aKnk+Hh+r1CBzd98Q3pKCmk2i+V7UhKpiYlO0w5MnsykEiW4sHOni70UgeTERHj0UbjzTkg4T8eu+ks+6enw0UfQsCGk2d8Qc3nQ+/bBddeBet6jei+5s3TtCuUrwAn1737MCF3oTrrhuKxEPgWs7NaNwXfeyYgaNSyLGqzYzKLKGV6tmmXZv3x55lFtmjqXyveM4kDGJXhmAqkM6zCKdoM3WTZty3g4pO54JkXuoG7dEaw+atM3yRKVTPuHe/NV4EFIOMzLjw5m5k77y3cV1q2JL298tSFrV4VwTcTpotGs4tyi3l5x83Nw2jQmaVrxEGfPnrqcFi60UPr4I6hQAZQ433xTf6PSTXwcP47ljHPMGHdzQo8eUK4cnDir8qZB48ZQuTKcPOl+YfmQQ/XjHPXkkxxcs8YjS/S6dWyfNMkiY7vuSJfP0KpBX+p++CdRpzPGlE2/wp9Bc7j+hl6MXqXz2jptATc/OwHLw6Gk87R5tj+PvDCTzZH62Wt6WiLrpi3hntsH8UfoRUhP5MfmQ7m77kT+DjulX7ynJ7Nl8Tqq39Ufv2WF+2UFEaeLfxRWcW7u5P49uwNTphQPcapO6Oqd8latMmm2bg133KGfZb73nt6NUzlV9YTJ7TJ6tN5nXp1xuvv55ZcMcVr/fap+nqVL653l3S0sH+JVdyR1lrjBz09fRoxgQ7Zlvfru78/mMWMsbwxZvmeLsebZGBDAii5dLF2c1FtJtp/LRw/S4b0g6tfx47mmgTSoN5z6jYIYOT9rLIDNk+dRpu5YDmZcoV85dpCv3wrg0UcGUa2qH9UfGMYz9QLw+31/ZtGpscf5seUoHn3Ul+pV/ahWfTh16/nRa+yubE/jM7MUmhURp4umEnG6AKSS1VtBqu/ksWOZwUqc6qpdDVOqXkO3jt1xLX8HDcosNtcrDuJUOX/6Se+mdNZyGprrsvIj8N8hQxhbr57hMq5BA8tZqW/lygQ8/DDjGjY0jq9Xj4lNmnBIjQXg8Enl0N5oli+PYvW6aGKv2l+GJ5w5z6bdp0jMeu4DpBAdfphVK6JYtfYQpy45XO8D6RyLOsLqFVGsXHWA4xfs73s6VKOQbBBxumgoEacLQOp1StVn8uOP7QKzn3FWq6aP06FeWnFnUWeparQ5dz9OxanOOpW5R450t7g8j7+akEBiXJzhcvXiRY5t2WIZ5CN02jRc5UmKjycxNpYUdT9aPqYIiDhd4BNxugCkJKRklO0sxipOdY/zjTfg8cddlOPhZKfiVPt44QX9qVURGbH/3P79FnHunTfPwwSlOCMCIk4jOoCI0wCQko8a7Ugt2R6ZK3HefrueV936fO45/UGRQWkeTcpRnH/8oYt+Q+F+qmuFJeNxWknk7V8RpwvenhZnelo6V6+mculSir4kpHAl0f5+krMqpaVl3VxKS00jKSk1a7maSnJyGikpbvb3cbYjd7ZFROgSCgx0yKXEWamS3oVIXWrn9ZuPOYrz1DG44UYYOtShzlkb0rh8KYWk5NzxTE3NapusMvJmTcSZN5yz70XEmZ1Itu+eFWc6i7vPpWa1oZYnkHXqBlC3fgC1nxzBO61nsTnmYra9q6+X6NZpGkNXZw3H9WfQLO6+ezB33z3CstxXLZCqVXx5rfUqnN2ed1KoZzapwXPVZfo//ziUZxXnlXx6FmDtjmQdWyQ1FX79DWJUR8QHa0Dz5g51Jj2BhROW8f4rgTxZx496DUbyddfl7Dqa4Bhr2ZLEsK+Deb/nxhzSvb9ZxOl9xs72IOJ0RsVmm6fFOeGDIGo3/IPdkceIiDhGROQxdobup8PLg6n87AxOJdmevSQxvfsUNO0XetiI8+yx02zYEMOGDUfYGHKclVOWUunGXxj0x2Gbl91sDsJbqwMGwI03gpNXSq3ivHoVUlL0p+veqoZtuWp/6g5Cly5w6636ma6SZ5s2uuOX/wu0elu/z2l7eyHtEr6tR1Lt0dFMmr+fPeHHCNu6n96fBnHn/SNZsT/edjeW9V0LlqFpnaj7nbOn1A7hXtkg4vQKVpeFijhdIPK0OCe2GMXLzVc77PXyzhDuLNmPxfv0jnKXTxyl68djef3tsTz81DB6rMg647TPnMTP7w3ntR+VEfL48/77oB6X2wooowq29ziVxD75xPk9zsuXYc0a6NULoqPN1V/196xVS+8zqjrfq3GT1awct92mS7N7D0hW/18aNBDKloXDGe+EApunLuCuOwMIPZX9tslV+nwwnAdfmke8zZV74uF9fNzUj9p1B9L4BxGnuZYrfLlFnC7azBvifLXFmmx7TWfJsBnceudIdmcMsR21JgTffiHEJZ7jjTeG8cOfWX0kbTNvn76Q26sFsDvW5l+1bYA31595Cl5/xekeVNdO1QFePVV/5RV48MGsMHX5riatVN0qn3pKl5q64t+yJSvGnTW1D3XLUpVRvz6oEe2UQNX3du2gXz994szMMucv0BPXZ4wKlJ5Ih1cG8vwPzi+540JDqHjnQP6MsF6yJ9DtkwD6BO9g+I/jeLqD/ZiTmfvJgxU548wDyE52IeJ0AsV2k6fF+dvnwdxxjx+ffjaHdp/O5uNWC/hvp5k8/eQIhs3JGvgg84I95RxNmw7hx0VOxJl4lg8e600L3122VTZcj70Sy4nTJzh+/HiulhMnYi1T+ajpfNQrkLZL8mNPkfj6+3bbrOlqOiA1k4WSmhrHWE1iuXmzfmZZt26WLJXcrIu6ZWrNr/6qfao3JNXlt9FHnfC+9JI+epK6LbB/f9Z8bl9/7SSnenNG7fTvv/XEq6d4t3Y/Ok/PYfrhs/u4p1wvhs3XX0P6e8wsGr0zxzKG5aD2gTwl4nQCuWhvEnG6aF9Pi/PXthOpXms0viNWMnTQct6u60uZ/xvM6kPOHgwBiWdo1sy5OA+uWEWlO4az8Yw+go2LQyHhUgL1J9enzItl0DQtl0t/NC0ZTUvNFJxVdCFaXRZrrztst6arsz51KW7mzSF1CzUoyNWRQYL1ZBD9tXRrHdRbltlmitBn2VQB6h6B+lw9zbtP9uO/OY3YYxFnTwJWnOPSkQhef3kMmzNm5hjSIZC63zs+HHNdY89EHN28mSFVqrBl3DjPFCil5IqAiNMFJk+LU93jtLtUT7vAt019efT1BZx35r8cxZnCqDYjqfvJilw/EEpITKDahGrc3/t++vXpR98+fenbN+elX7+edO26lA4dztKlyyXLJW/fvtCnL/TsB0erNOBgtRfp1U/fptLUoi6N1djOang3dQaoboVWrKhfNqtLdqvUsv/98ks9r7WMjh31WMOeQ9nab9Ikx/KffBLsnu4vW6YH/WW9xE7iuzd9qf/1umyl6V/Pb1nPbXcO4Z+j5whsOZwqT0xg6Ij1+PqupdnTg7mr7kRGT9njZBR1p8V5dOOpXbsYXr06YdOne7RcKcyYgIjTmI+HO8CnE/zRaJq9uwLbRxAJh3ZyV6kfae2/27E2OYkz+TSvPtGf78ZHOebJYUtSahI1xtXgs5UeGpuycUNo1tjp3tR8aaoDvLpUV2eczzyjh8XGgpqzTU2Hfv/99pLbne3w1aW6Go9z1Cinu3DYqPqL3n23fZlWOauZiDM/qgIqwWbyuF1zlnBH+SGs2q8Pg5Z+8iDdOs5mxcYo+n40ksafrCKNqywas4SO3/zO519M54svp/PU/QMoV3M4XQesJS7z/krmnry+ciYiwvLm0J45c7y+L9lBFgERZxYLp2uePuMc+58AGr66xE6caseLh0xF0wawaFe2kcoTT9OwYX86zbefeCzpUDgPP9CPyWE216hOjyBrY2JKokWcLRe1zNpoZu211/RTSydlqKfq6uGQ+rz+umPvH7VdjbWhbjeqB0nqDNVmKhxLPtW/XokzN5fqKoMa+c8qyux/y5eHA9ZbyHPn6oF2bw8lE/zzJKo/EMCw4B2sXrqV9q+NQNM6o5Xow5h1Tu4xA33aDueRr7M/7LNUP0/+Iw+H8gSzw05EnA5I7Dd4Wpzzu86i/Q8bHcTJ1XN8/mogLXttypxe1VKTpAu0bz+FEevs57m+sGMnLV/6lVA3Jo/0uDi7d4ebb9af4thjQ4lTDX+pLtXV0/LMq+Jscdav6h5l9qnW3RHnqlU5S9MqUeV5y6A/PX/RO3k6jB6SwqZF/9L2vdHUe3YUb7wzhcFjQwjsO5s6dYbx69rso42kMbbPb3w88Bq7A1gP3sRfEacJeCayijhdwPOsOF3sTA3C5cXX9zwuTjWwprKS9SGLzeFZO8Db3Vu0Sc/NqjviVCePyuO9e4Pql6/ejb/hBlDzxal7rmqc5WHD4Yq6R/JyU7dHVj4YFkXUcce5IHNzHN6MEXF6k27OZYs4c2ZjSclrcbqojqlkj4tTzW2hxkm/q9MAABZnSURBVOF0MkybVZxmBiFyR5zZwfTpo3dJupi9s0LyVbj9DiynxNkzFcLvIs78aTQRpwvuIk4DQGpcR/XoXD02z/axXqqrh0Nq6gt11ufux4w4rYN8OMyU8e+/+llycLC71SmQ8SLO/GkWEacL7iJOF4DU43M1o5rqsW7zUeK0vjmkOqfXrGmTmMtV1ZHdnYdDtsVaxamezNt9Pv1UH3g5m1GPhB1g0qStrN8Xaxdu+ZIYx8ypW5izKMbh3vTh3fsIHrsef/8NLN0QncOUEFfYtCoUv+HrCRizie0HrbNMOu7K3S0iTneJeSZexOmCo4jTBaBt2/QzuGydLW3FaX1zyMkr7YaFqwHblTjV3EPufpyKUz0Muv56/TF+tgLndQtG09pz/wdLSM6WFr18NZr2JZUfn0PmYE9XYhnYfiJPN/TnreaT+KTFJF5qOpzn3viN7SeyZnZMjjtO53f9qV3fn0YNJ/Jck1E88eBAPu/nmbnFRZzZGiuPvoo4XYAWcboApK7FGzWCGjXsHosrcao5h9Trkm+/rfvqoYf0bkfqr6tFzTSsBuhQc8B5bM6hgABd8mr+92yfud2nU61cD6rUGUfISdt3PFMZ/91YKlTozqNNFqJPOpGI32cjqf7UJEKPZHUHS7t4jj4t/KlafypHruidOmcOmELF56ZxNCFLx+HL/+JWrRvj15qf+0jEma0h8+iriNMFaBGnC0AqeeZMXUg2sydazzhVd6T//Ed/wq26A6lpNFS/TleLilNPxpU4s53M5qJC4HDGqfo7qfuxahQQJ6e+v/8whRefn0abd4LoafPOevrZg7R5eywtW4/mofrzLJfisTu3UPX/+jFrj5On7JeP06BqT74O1l9M8PvSn9vfWeBQ5x2rwtkT4yS/Q6TxBhGnMR9vpYo4XZAVcboApJLVo3P1LuUDD2S+NK6my7BOnaEu1WvXzkU52UIOHvTApbq162Xnzrrc1zl/rfK37yfS7M0lzB4zh8YtFmderof+vpRPvlnM2MG/U+2p2ZYa/jN6JmVrj+eo0wGpUun9wQjqvr3c8irsyU2beeT2X6j97ES69F/F2s0xnI63PaPNdtBufhVxugnMQ+EiThcglTh/K1+ebWpQSTc/MXPnFqh51T3eHcmWx8aNupg6dbRsbd5C7xuvruTVwyF1Ja/W3flYHw5NmeJOLj1W9eUsdytYrrrXr9br1rVrjgUpcTZ8eRlnDkfw7DMBrD+trJhCn3ajGbowhnnDplOl9lxL/rn/m8Qtr/yOk8dIQBoTPh3J0y8syLish9PhkfT45nca1x9EpQp9qFzVlx/9t2XdL82xVq4TzoZHMOa+B9g7S165dE3LcxEiThcslThnVqrEknr12OvnZ7eE+/mxMyCAsMBA1Hr29HUffkiwpnFh504Xe8mbZK+KUx2C6n2uOsQvnc+CdTDCTz+uGTNADTLs7ic0NM3ycEidsQ4b5t7ywvNw8x0QvTsOalXVz4jVUE05fJQ46zZepE6f6fTqcHr+cQwuHeGtl8awLyGVmf2nUKW2fsb576iZ3Fw3GOvJrH2RqfT9wI96by+3XNbbnZSmJHIy5jgzAudx962/8N3ESPus1/Dt+N5dtGt2J5sX/n4NuSXLtRIQcbogdzU2lj+feIKp11/PFE2zW6aWKMFQTWOApjE5W5qKnebjw++33Ubs3r0u9pI3yV4Xp3pnskEDfXT1Hc4HBXbnSNeuPYWPTxyalpbjO+jW1ykd/vpAzWqXOPbwi7rM1cjJBh8lzjrPzrdE/DViBi99tZoNfyzhrc+XWrZN7TXJIk4lwvjd26hRvh/Td2Y9GMos+tIx6t3Xg47T1OjyZ2jz+iiC/3XsfjT625FUaaFEbe6z89BmtAEa/mt8zRUkud0iIOJ0gSs9JYWLBw4QHxVl+avWbZfZr73GuOrViQ0Pt9tuiYmKsuRLNfP6jIv6uZPsdXGqyhw6pF+Xq6kp/jU3TmVkZDjXX/84PXr8TlSUPkCxunx3tUQdht2hVzj86Ju6NKdMdonJKk41st+V/bt5uY4vjRoGMXyhPrhHcE9dnPpT9auM/2YMVR+fwJborLmIUuPO0LP5CKrXm8oRS2Aifd8Zyt0Np7H9UNbgLXFHDvH6U/1o42/+SiT8fAQlh5bGb9s1nNK7pCIBOREQceZEJpfbF370ERMffjiX0fkblifiVIeo5vJRwx2pPpPWUdav4dAjIiLw8dEYPz7jmj/XZSRDq//o0szlG0KTvxrF/Y//gX4xf4lvG/ZCu3UkUbopGf3TGG6pNiPrvmTSRfw7TebpBn68834wH743kWbPD6fJ278RdiqztyfJsUf4+i1/aj0yiAb1xlOn3jjqPjOQt75exrlEuwv5XB+dbWD4uXBKDylNwLYA282y7mUCIk6TgBc0b86EBx+koJxVGh1OnolTVUK9sqMmFCpTBn791ahaOabp4vQhKLfjyqmS1IxvapIjde0+dmyOZWdPOLQtiqXLj2SOTBW9bT8L1x7JDIvacYC5iw87vDl0LCKKqRNDCAoKYcWmrMnfMjNaVpLZE7KbcUEhBASF8Nd250PU2efJ3TcRZ+44eTpKxGmSqIjTAKCal1d12FQSU/2Tsr3maJDTkuS2OJWg1fSW6hXQXJ5puqpDQU8XceZPC4k4TXIXceYCoBo9SY3xpoZnV3LL5T3fXItTjSlnndhIvcUUFpaLShWNEBFn/rSjiNMkdxFnLgHu2JF1Ca1G/FAyPZ8x41kORURERlLGx4eRzubOuHRJf2OpSRP9jFZNoq5eMXLyVlAOxReJzSLO/GlGEadJ7iJONwGqQY/fzHjaXamSPiTdhAmwaxeoYepsPntjYtCuuw4/da9SSXbtWggM1OcbVi/Cq1sA6ixWjVasxqArhh8RZ/40uojTJHcR5zUCDA2FHj30WdzU03c1ILJ6l1z1UFATr7/xBvEvv8zS0qU5qSSp5uGwdtZUwm3WDH7/3eVZ6zXWrtBkE3HmT1OJOE1yF3GaBKiyq1nUpk7Vzxw//hjU5ff995N8xx0cKFGCM2qYJDUt5uTJoF7tPOfYodwDtSiURYg486fZRJwmuYs4TQI0yB6xbx+lfHwIdKNbkUFxRTJJxJk/zSriNMldxGkSoEF2qzidPhwyyFeckkSc+dPaIk6T3JU4Jz4gHeBNYnSaPdfdkZzmLh4bRZz5084iTpPcF7//IVNrPUxakufGWDRZpRyz5+mbQznWIvcJIk7XrEScrhl5I0LEaYZqOvzc/y3+81kVkuKyBnEwU6Q384o4vUk3f8oWceYPdxGnGe7p0HxhcyoGVSI2oeA/6RVxmmnsgplXxJk/7SLiNMm99ZLW3DvmPi4mOxmb0WTZns4u4vQ00fwvT8SZP20g4jTJvdWiVtw7+l4uXr1osiTvZxdxep9xXu9BxJnXxPX9iThNchdxmgRokF0eDhnAyUgScbpm5I0IEadJqiJOkwANsos4DeBkJIk4XTPyRoSI0yRVEadJgAbZRZwGcDKSRJyuGXkjQsRpkqqI0yRAg+wiTgM4GUkiTteMvBEh4jRJVcRpEqBBdhGnAZyMJBGna0beiBBxmqQq4jQJ0CC7iNMATkaSiNM1I29EiDhNUhVxmgRokF3EaQAnI0nE6ZqRNyJEnCapijhNAjTILuI0gJORJOJ0zcgbESJOk1RFnCYBGmQXcRrAyUgScbpm5I0IEadJqiJOkwANskdGROKj+TAqcJRBVPFOEnHmT/uLOE1yF3GaBGiQfW/4XkpXKY3/eH+DqOKdJOLMn/YXcZrkLuI0CdAge8i+ELTeGj0X9zSIKt5JIs78aX8Rp0nuIk6TAA2yKyn4DPPBf4ucceaEScSZExnvbhdxmuQr4jQJ0CB7xLkIfIb6MCpU7nHmhEnEmRMZ724XcZrkK+I0CdAgu1WcQduDDKKKd5KIM3/aX8RpkruI0yRAg+wiTgM4GUkiTteMvBEh4jRJVcRpEqBBdhGnAZyMJBGna0beiBBxmqQq4jQJ0CC7iNMATkaSiNM1I29EiDhNUhVxmgRokF3EaQAnI0nE6ZqRNyJEnCapijhNAjTILuI0gJORJOJ0zcgbESJOk1QLmzirj69By0UtTR513mRX4iwzzAd5qp4zbyXOUkNLE7AtIOcgSfE4ARGnSaSFSZxXgbun1OLDv9qaPOq8yR6ZfAwtwIfAfcF5s8NCuJeI5KNo/qUZETm+ENa+8FZZxGmy7QqTOM8uW8zPb5Zn5Gd1ubJjh8kj9272tMuXiZgUwFfPl2DhL624eviwd3dYCEtPvXiR8Akj+PL5Eizo3orko0cL4VEUziqLOE22W2EQZ3pyMkc6dWKLprFX09ilaWy/6SbOTZ5s8ui9kz3l7Fn2v/QSWzWNCE0jVNPYec89JKxf750dFsJSk0+cILJJEztGu6pV49KWLYXwaApflUWcJtus5Z8tqTq2qslSvJs9ftJUQjTN8o9sm6ahls3qr48P7Ir07s6vofSjX3VgY0Y9rfXdpGnsfuABSEi5hhKLXpaYNp9a2tTKR/1VjPY+8QSp8fFF74AL2BGJOE02iDrjLN2/tOWBS9slbSlQy7K2tF3alvl172NHNhFtV2dxmsb41nVot6qA1Ht5WzrOasXft99CmJP6qjPP/v1fKzj1zY/2Xt6W//7Wkn8qlHVgpM7Q1XLx779N/qoluysCIk5XhFykB+8MpmZQTSoGVixwy21BFbltZEXG1ChhuUS3PTtR4gzXNDo39aHcxEoFou4VxlSiZv8KLL5Zv51gW18lTSXTN9uVpdyEglHf/Gjz8mMq8VCf8qy4wZGRVZxxS5e6+NVKslkCIk6zBIGLyRdJuJpQ8JbkBBKSE4jp08tyGWcrIvWPTN3zPL14AfEplwpE3S+q+ibGs+/N1x3qq+oaduutxEaFczG5YNQ3P9rcwuhyLJHNmjpltLNyZdT9T/l4l4CI07t8C0TpqWfOEv7005Z7YureplrU/bDodu0KRP2yV+Lytu2EVaxoqaO1rhbJBwZmDy223y9vDCG0XDl7RiVLcnbcuGLLJC8PXMSZl7TzcV/qSfXxXr2IbNyYfS+9xJnRo1FP2wvq58qePcR88w0Rzz3HgffeI27BgoJa1Xyrl+pSdvijj4goUYIDDRoQt2RJvtWluO1YxFncWlyOt2gR2L8fSpWCGTOK1nEV8KMRcRbwBpLqCQFDAupFBiXOYHm7ypCThxNFnB4GKsUJgTwlEBYm4sxT4PrORJz5AF12KQQ8RkDE6TGU7hQk4nSHlsQKgYJGQMSZLy0i4swX7LJTIeAhAiJOD4F0rxgRp3u8JFoIFCwCIs58aQ8RZ75gl50KAQ8REHF6CKR7xYg43eMl0UKgYBHYs0d/qj51asGqVxGvjYiziDewHF4hIZCSAhcvZi1qaLjcLGqMUtWPMygod/GqTNv9JCYWEkAFq5oizoLVHlKb4kqga1coWxYqVoTKleHWW+GGG+D6642X0qVB0/TFVaxKv/lmvXy1n1tugWbNoAC/eltQfw4izoLaMlKv4kVADQVXs2aWBN97D3r1gi5d4PvvoXNnx8W6vWVL6NgRfvjBMcaa78cfoWdP+OorXchKthUqgBo4JTW1eLH2wNGKOD0AUYoQAh4hEBcHffroZ5tVqsCUKR4pNrOQf/6BBg3guuvgs88gOjozSVbcIyDidI+XRAsB7xPYvRvefFM/+3zmGVi50tw+w8Ph/ff18h5/HJYtM1ee5EbEKT8CIVBQCcyaBffdpwuvTRs4dMi9miYk6GewZcro90kHDYLLl90rQ6KdEhBxOsUiG4VAASFw7hyoB0fqnqR6sDN8OCQlua7c7NlQo4ae74MPILLgTcrn+iAKboSIs+C2jdRMCGQR2LYNXnxRF2Ht2rB8eVaa7dr27fD663rcI4/A4sW2qbLuIQIiTg+BlGKEQJ4QUAMW33uvLsYWLbLOJM+ehZ9/1rerbky+viB9NL3WJCJOr6GVgoWAlwjExmZdvt94I3z5ZdZlefPmoEaFl49XCYg4vYpXChcCXiSgLstfflk/y3zwQZB5mbwI275oEac9D/kmBAoXgfR0CAnRX7csXDUv1LUVcRbq5pPKFxkCZ6Phj2kwYpDehWhcMCxbB6Gb4XAcpJ4HP19o3xbadoIdTuZO3/E3dPsB2rWCn3vA2khYMRo6fwuffwEdOsEvPaF3LxgwAIKCIfxwkUGYlwci4sxL2rIvIeCMwNIgaNoMxs+B6CNw7BgciYLgQXBXJZiyFdJT4OQRmNhbvzSv8QKcuGJf2uV42Pgb1HwMVu2F+CsQdwp+y8jzzvcQHgWHD8KaxdC5Fdz8f/CNP8hYH/YsXXwTcboAJMlCwKsE/hwEZSvBsnDnu5k6CnyzdSl6s44uz8ZfgUN/9lPQcQzE2xQXux3Ka9DDyRTCM/rrZbUebJNBVl0REHG6IiTpQsBbBM7vgjtLQfOBOe8h8SLste28HgudOkCPzrrw2vrZ5716BL4KhLM2A3ec3Q4VNfh5kn2s9dsXdUG7DlYctG6Rvy4IiDhdAJJkIeA1AsHfglYC5uVwtul0x2fh8/ZwMhn8WuryHDYvK9IizgB7cZ7ZBrcZiHPVOL0cdckun1wREHHmCpMECQEvEPjsEShRAXZdcCw8Zi+s+gs2b4H1/8CmHZCuws5Du7awPxlIgpbPgVYa5obqZVyNga/cFGfUCrhOg3d+dKyHbHFKQMTpFItsFAJ5QKBVNSjxf7DllOPOIjbC9630M8FqDWDBWkhTYUqc7WBvnJ4n8Qy8+hCUrgph54AL8JW/e2ecMavheg3e+smxHrLFKQERp1MsslEI5AGBXq/oYpy21fnOEsLgJg2+GGSTfk4XZ7jN05/YCHj4Jrj3FTh6GH4YC2ds7nG6ulRXT+LVICIdAmz2I6tGBEScRnQkTQh4k0DI71BCXSL/z/lezmyCW5Q4B9ikOxGnSt2/BP5Pg4b/gc/HQKzl9FTPd2a78T3OXm+DVhKWH7DZj6waERBxGtGRNCHgVQIp8H3GgMWzdzjuKT5MF2ebXjZpcfBle9jv0A8JVozVzxzv+gxSbLJcCIUKGvxvms3GjNVdc8FHg4/7O6bJlhwJiDhzRCMJQiAPCKRfhO4fw23VIeAPOBWvT56WdAlWZoiw6zi9ImmpELcPnnsOVh6AVJuzSmtVAz6Dyu9ldWhPTYa1Y3ShfjEEriTr5Z8/DjP8oFpFaNM7K95ajvw1JCDiNMQjiUIgjwhsXQ2+/fTXLbt311+JHO4PS/6FuIzXesLWwo8doVlT+KwT/PmPk8pdhEkL4JKSairMHgKftoDGjeH9j6Frd1Dl9+8DAwbD6jAnZcgmVwREnK4ISboQyFMCafqsk87OJtPTMp6sqwqlQ5qTM87sdVVnqbYfNaOlWixdm2wTZN0dAiJOd2hJrBAQAkIAZLI2+RUIASEgBNwlIGec7hKTeCEgBIo9ARFnsf8JCAAhIATcJSDidJeYxAsBIVDsCYg4i/1PQAAIASHgLgERp7vEJF4ICIFiT0DEWex/AgJACAgBdwmION0lJvFCQAgUewIizmL/ExAAQkAIuEtAxOkuMYkXAkKg2BMQcRb7n4AAEAJCwF0CIk53iUm8EBACxZ6AiLPY/wQEgBAQAu4SEHG6S0zihYAQKPYE/h9ngGJ4UPbD7AAAAABJRU5ErkJggg==;" vertex="1" parent="1">
          <mxGeometry x="313" y="946" width="334" height="223" as="geometry" />
        </mxCell>
        <mxCell id="LZa3TWfJk8D44VAh4uWb-30" value="" style="edgeStyle=orthogonalEdgeStyle;rounded=0;orthogonalLoop=1;jettySize=auto;html=1;" edge="1" parent="1" source="LZa3TWfJk8D44VAh4uWb-28" target="LZa3TWfJk8D44VAh4uWb-29">
          <mxGeometry relative="1" as="geometry" />
        </mxCell>
        <mxCell id="LZa3TWfJk8D44VAh4uWb-28" value="RCD吸收电路" style="rounded=0;whiteSpace=wrap;html=1;align=center;" vertex="1" parent="1">
          <mxGeometry x="70" y="1480" width="120" height="60" as="geometry" />
        </mxCell>
        <mxCell id="LZa3TWfJk8D44VAh4uWb-29" value="" style="rounded=0;whiteSpace=wrap;html=1;align=center;" vertex="1" parent="1">
          <mxGeometry x="300" y="1220" width="280" height="310" as="geometry" />
        </mxCell>
        <mxCell id="LZa3TWfJk8D44VAh4uWb-31" value="" style="shape=image;verticalLabelPosition=bottom;labelBackgroundColor=#ffffff;verticalAlign=top;aspect=fixed;imageAspect=0;image=data:image/png,iVBORw0KGgoAAAANSUhEUgAAAPUAAAEkCAYAAAD3pHdbAAAgAElEQVR4Ae1dB1RURxdeu8auMcZuxF6xd1FRY+w1aqxoLNHE+scYO1YUFcGCgmBBUAQ1Ym8oNrCgYqEJAipSpPf+/ec+3cYuy9tlKbvMO+ednTdzZ97MN+/baXfuCKDFV3pmOvRs9TDcYbgWljIVnzyD8cAlEDduBODGzQA43/uAj1FJ0mXNSsX7tx9x5/ZXmZs338P1WSTSpKXYUxFEYMmSJahQoQIePXqkVO4ESklrmLB2kzoI//TcglK1N6G/3m7072eM7h02olU3M2w6+w7p3+oqK9QHI/qsQuMOOziZXj2MMOOvO4jWsLosbtk9fvw4BAIBjIyMlC46I7XSkBWRCFlBWD5wF3oZuiExMRaJCbGIDgvHNXN7/NTUGOZ3wrmMRt93wcDJx/EwklrwdCA9EcnJKcgsIsVg2ZBFwMnJCSVKlMC4ceOQkZEhK5CLDyN1LgAV2WAitf4u6O16ky2Lydg/Yyd6TnfhWmuvI/b4fcpF3HTxhIX5Mzz0i8kmzx6LEgL79u3jWuiuXbviw4cPKmWNkVol2IpApG+k7rfDQyYzzy2Po8OQCwjNzMDlDfvR+CcTrDI8gyXTzNCtmymMLwbJxGEehYuAu7s7fv31V66FnjJlCsLCwlTOECO1ytAVckQFpPa2PY3eAx3gnZiGm4ccsHLPC0Sl0ig7FQ8O2qBddyu4hbMOeGHUYGRkJN6+fQtPT0+8ePECtra2GDt2LCpWrIimTZvC0tJSpS63ZFkYqSXR0CS3AlLfMzuM5kPO4728Ke7wFxjTxhRGDyM0qbRakdeYmBhMmDAB3333HSpXrsy1yjQZ1rJlS5iamiIhIUEt5WSkVguMhZBIVhCW6e9C/z1vs708GobjtuOXVU+QjhgYr7DFvjuhIpmsdw8xpO1+HHubKPJjjoJBICkpCWvWrEG3bt3Qs2dPtG3bFjVq1ED9+vVBXW5ausrKyspzZhip8wxhISVALfWAnej8tzM+fviEjx8+wvu5L/avsEAD3QP4z5v+9VNh9dcuNO13Gm4fIhAf+glGM03Qd8pVhOT92ymkgmv+a9PS0pCeno7U1FR4eXlxy1atWrXiJshmzJiBT58+5amQjNR5gq8wI3/ERv2dqFh7Mzp12onOHY3QobUh+ow+jpOPxZMsaeFBMP5jH3r224shg3dj1LwLePIpuTAzzt4tB4Hw8HBs2bIF5cqV47rjyiqcSCbJSC2Jhka50xH5IRKer8Pg7h7K3R6eXxCXJlQ7kShMZiJ8PYLx5GUYYpVf9pRIiDlVRSA5OZlrgf38/ODv75/j7PadO3fQsGFDbszt7Oys0usYqVWCjUViCPBDgAi8d+9eTpGEJsRq1aqFH3/8EZ06dcKcOXNw6tQpJCZKz2+8e/eOa62J3D4+PvxeJCHFSC0BBnMyBNSFAGmCHTx4EM2aNePGyjTLndM9cOBAXLt2TerVtOz1/fffQ19fnxt/SwXm8sBInQtALJghoCwC8fHxMDAwyJHE8shNS1wWFhZSr7pw4QKXxrFjx6T8c3tgpM4NIRbOEFASgT///FMpQgtJTgoo9vb2Um8j/e/GjRsjIoK/XgEjtRSE7IEhkDcEzp8/j1KlSqlEaiK3jo4OgoODRZlwcXHh0rK2thb55eZgpM4NIRbOEOCJQGxsLPr16yeX0DVr1gStQe/cuRMbN27E0KFD5coRsVevXi16I02i9e7dG6NHjxb55eZgpM4NIRbOEOCJwM2bN1GmTBkZstJkGYVJXqSAQnul5cmTIopkd3vRokWoW7cub51wRmpJpJmbIZAHBDZt2iRDaFImOX36dI6pEmGFY2rhL42tb9y4IYpjZmbGkTokJETkp8jBSK0IHRbGEOCJAOlsT58+XYagHTp0AOl853SR5hgRX0ho4e/hw4dFUezs7Dj9cNrVxedipOaDEpNhCOSCQGZmJreFUkhK4e/gwYMVxiTlkh9++EGG1Hv27BHFu3TpEkfq27dvi/wUOQqP1JnA66vAWUfgzJmv9/mLwIPnwJccVJO/+AEXzgIODl/lHc4CLk8BaX0ccXG120aZuJzMVfgI5NRS6+rqIiUlJccMurq6onz58jKkPnTokCgOaZ3Vq1cPbm5uIj9FjsIjdSrwV1VAIJC+K9UGOukBa/YDX7Lt43feKS1LcctVB/qOA256yxaTkVoWE+aTfwgYGhrKkJOsgZ47dy7Hly5btkwmDu23zj6mrl27NgIDA3NMRzIgf0idAQT5AZ8VmaxMBf6sCrQaAjzwBDw9gbevgPuXgYUjge/KAT0WAJ9Sxdl13gFUrQVs+++rPMW5dhRoWwGo3Q94ESmWJRcjtTQe7Cl/EaAZ7pIlS8qQtHXr1nj48KHUy2mcbW5uzpkAFnbVhb/NmzfHly9fRPJkKpj0wGnGnM+VP6SOBMb3AJbZKMhCKrCoEtB5MiDP3sNtU6CyAJhtxtnA5BJyNgKq1QVOvZNO19MO+E4ArDkr7c9ILY0He8pfBKKjo9GrVy8ZUhNZSY974cKFoG71/v37MWbMGLl/ACS7cuVKUUZpnbpPnz7cJJzIMxdHvpJ6eW6krgx0nAB8NWYrm9MtQ4Fy7YGnUV/DOFLXAY69kpaNewo0EwDz90n7azOpo9+/x5U5c/D58WPpQit4ysrMxOsTJ/DA0BDkZpf6EaCZanlrz8JWOLffJk2a4P3796KM3b9/H6VLl1bYhRcJf3PkD6mjgV97Af+zzf46iWdqqXMh9dOjQEkBcPhbz+UOtdR1gOPZrOIGnQPKlwA2FKOW+uO9e9hTuTLe2tlJgJqzM9TdHQ7DhmGdQIDDOjpIifr2T5lzFBaiIgJLly6V21rnRmgiL02KSV5klJCITkYU+F75Q+oEYFIfYKW0brp0nniQ2tcB+FEAbL74NerdHV+73yclJsUCnwK/tAKq6gKuxWhM/enBA+yvWxdetHSg4EoIDcXtFSuwq3JlnNLXh42eHo60aYMkiTGbgugsSAUESF2U9krnRmLJcNqlRcYHJS8y6k8ykjPhkuE5udVCat/LQKfmQJMm3+7GQMXyQNUfJPyaAIP/AkKEhjl4kNr7DFBTABhd/Zr9+zTOLgXUqv81XZ2mQKN6QLW2gI30PAQXQZu737mROjM1FS+trWHeuDHMatXC4z17kJaYiEdbt8KyVSskKvHPn9PHw/xzRoCWscg4Qp06dRSSm07i6NGjh8x+ag8PD84o4ZAhQxQqr8jLgVpIHfQAmDYeGDPm2z0MqFcDaNpZwm8MsMgYiBCa0+FB6lvGgKAycPZby+yyB6hSHug04Gu6YycChgeBd9laaGFBiyupg11dcWrYMBhXrIhLM2ci2t9fCAlcVq9mpBahkf8OsmJC6qO0gaNFixYcycl6KGmaUdea7HzTBJvk9fHjR3Tp0oVTOOG7jCUZXy2klkyQc2cBU/sBa/6TCRF75EbqKGBqM6DxWODjt5l85+1AtXqAI88DJgqS1FkZGUhwc0PMpUtIDeKZQTEaSrvktdQJISG4uWgRdtWogeN9+yJQjgYSI7U01Mmenoh2ckKSh+xJJ9KSeXsijTOyT0aqnq9evcrRYigtfdEGkGrVquHevXsqvTR/SB0JTOwFrDipIE+pwMJKQNepkDmsLcwf2DQeKFkJOHhfnIZooizb7LdYQtqVkZlRIEfZpvj7w3fECDyvVg3uFSrgZZ06CD9wAMjIvxlmIan9Ll9GRmoqXhw+jAP16nH3U1NTpGezeyVERkTqYj6mzkxKwsfly/Hy++/hXr48ntesiQ+LFyNTTQb1hXjz/aV1abImSt1xmhhTldD0vvwhdSwwpQewStHEbBbwdw2gbktgzSZgG92GwOpFQNe6QPUGgOklaUge7QCq/wCcym6/XlpM6mmg3UCMchwl5afWhwzAf/x4uAoEePrtfiwQ4Nl33yHxuvR2O3W+l2azzRs1wt3Vq+E4ciR2limDa/PnIyYXrSOXNWu4ibLUQvp41YlBXtIK32sKqqcn3+qMfuk5xNAwL8kqHff58+fcBFnHjh25sfekSZOklrSUTjCvpD766ijmXZmHBdcX4I/rf3y9bxpgkeMu1O3gh5ar1mLh7TniMJHMHPxxyRyt6/tBIJC830FQ6y3Kj7dB932LsOTBfCzi4szFojv/YPjcZxDU9kbfw5vw5+3fZdMVpv/td/61+ai7vy4aHWyEhdcX5iovKkO2dHLyn3d7IdZaTcWTsmXgTkSWuD0EAtiN6oAF1//AgluLMMNhEv7dMR635v+B63/k7b6xaBHOjhmDXd99ByPa2qevj5AnT3jV/60lS7C7UiVcnjUL1xcuzFNebiz4A1cXLsDiPaMx8ew4TL88E9MvTi/S97TLMzDzwnRcb14bLyTqS1h3j2vVwq25c3Etj9jIq+Mbf/yBk+PH48+ff4begAHcCR1kWbRs2bIYPnw4VDUJnL3i89RSL765GO0t2kPXWld8H6XnbuhiqY/OVp2he7SDOEwox/n1QGdLfXSzkLiP6KPHsYHoY98Lfex10UkUtwN0j3ZCR6sB6Gapj07WXeSnK0zfWhcdj3ZEB+sOqLinIqqYVEGnY52ge1QinxKyUvlXwr+DbSeMNGzBtdLPs30gbwUCmPSsAt0TnaF7ohNaHdLBkGWNYdNBF0d1dWGdh/tYly6waNYMRqVKYatAwE1+pSvY3idZ6UTk7WXLwqptWxzt2DFv+dDVhUVXXej/0wStrVqivXUHtLdqX7TvYx3Q0aI9LvxQGvTHKyQz/VId3itTBjZt2sCqU6c8YSOvfo917Ij9OjqY0bo1evTsiQEDB3KTaHRKB4251XXlidQpGSmITI5EVHJUtjsS0WnhiE6VFyaUjUB0ejhist1cvJSIbOlRnEhEpX7h5KNTFKX7Nf3olGiEJ4Wjl00vDLEfgpjUGESlCN+tpt/0WHwJfY837dpyXTfhByLshgft24Oo9FhEpcYgLPITIoMDOaWP5Kgo5OVOjYtDwPXrOFi/PhxGjOCWrCw7doRnNqN18j6Se6tX43CzZojy9UVKTEye8kFlICWW6JBPiIgPB2EenVzE79QYRCdHwW/eHKk6o7pzEwjgN2kSksLCkMwDm5ToKGQkRgGp3+6EKKRG51y3qdHRiPz0CXRQXn5eeSJ1fmZMXWn3t+uPkY4j1ZWc3HRir1+HR4MG3D+/N/37lywJ/8mTkRUvT6tdbhJKe352c8OBBg3g6+SESB8fnBk5EjsqVYLj2LH48iabyp1E6txEWevWSM62jCIhUiycaQGB8O7blxs2+X5rpd+0bYukly+VKn96IvDeH/Dyy3nLsFIJqkFYq0ldkEtaiR4eOGcwCJv7V4P/IRPQ7Gp+XsLZb29HR9FrSK/7cJs23Fj73rp1crXGRLPfTPkEaSEheG64Aqv7lMXDVfORGsBva6MQcPeTwBBd8XbgJr2BozcBoSqGUK6gfxmp1Yj4xjcmqGvXGh+yctCGUeO7hKTOriaa8PkznP/+GztKloRFq1Z4S/axJMZrjNTSleAa/wYCi6o4H8bPqohk7BPrgT/XAmccAPpvXT0OqNwWeJj/1S+ZDRk3I7UMJKp7bHu0DS0sWiAotnCUTyRzHuzmBrv+/bGtTBk4jB6N8G/dStqhZdmyJVMT/QaWW7AbN5Hq9M5JEj5e7tRs25v9jwINdYDb4q3QvNJRtxAjtRoRLUqkpmKRltsra2sc0NGBcZUqcN22DVfnzoVVu3aM1N/qPS+kFn46N22BJX8CC/8AbG6J9/8Lwwv6l5FajYgXJKk/urhgb/XqvLZexn/6hOuLF2NnuXIwpK2XzZsjSYljXNQIUZFLKs+kzgJ2zQe+qwi06A+ceSGrIVnQhWakViPiBUnqsJcvYdOrF95L2IfOrSikC36iTx+cGzMmRzXS3NLQtvA8kxpAZgZAloZcrYCWLYGL2SzzFDRmjNRqRLwgSZ2ZlsbtvkpPzsH0ag7lIp1w2vjBrq8IqEzqLDkIfgT6VQV235ITVoBejNRqBLsgSa3GbBfrpFQmdTiweyuw1w5wdQPc7gOrxwKV2wD3xOfbFQq2jNRqhJ2RWo1gFlBSKpM6GTiwCmhaW7xO3aoXYOVcQBlX8BpGagXgKBvESK0sYoUvrzKpKetkCtsLuHsLuH0f+JS/2p+8wWKk5g1V7oKM1LljVNQk8kTqolaYb/lhpFZjxTBSqxHMAkqKkbqAgFbXawpS95vyzEitrporuHQYqQsOa7W8iZFaLTBqdSLqInV6CHDEDnhSBFYLWfdbjZ8sa6nVCGYBJaUWUqcAxmO+zoL/I2FTr4CKIPMaRmoZSFT3YKRWHbvCiplnUicB1n8Dv88FBrcDNjworJKI38tILcYizy5G6jxDWOAJ5JXU5zYBE5cBQSHAnC7AGpcCL4LMCxmpZSBR3YORWnXsCiumyqTOAu7ZADNWA8KdljM6AlteFFZJxO9lpBZjkWcXI3WeISzwBFQltfdVQKcxMGMzcMoOOHEA6NEAGLUGcFHChHV+FJiRWo2oMlKrEcwCSkpVUp/dIVYPFQik3cO3FVDmc3gNI3UOwKjizUitCmqFG0dVUifEAHREmb8f4Ef3U2BES2DhKSC0kNVFGanV+E0xUqsRzAJKSlVSy2SPjm9uDax1lQkpcA9GajVCvt11O1patkRQ3Ac1psqSyk8E3D4/RpW9VXEtJI/bqzKBP0cDu73yM7f80mak5ocTL6lNLhvR5EBjvI8UHx3LKyITKjQEHgTdR4XdFWBuuxbvnZzwTtX7ghM87Jzw+pziNPycnOB65Qqc79zBkydP8sWwPyO1Gj+nNWeXoIFhVfgF5O+xqGrMcrFP6qnPPdT6uyRmVBFgm0CADXm4NwsE2KQg/kaBACTTWSDgDsP77rvvuAPn//e//8HNzU1tdcFIrTYogVsWe2E0qjeiPua/iWA1ZrtYJ5WamgSfj68Q/PolZ0aZbL/l502mmj0ePsTlS5dgbm6OESNGoEaNGqhatSpmzZoFT0/PPNcHI3WeIRQn4H7wME4OGIK44M9iT+ZiCOSCQFhYGDZu3Ag6AbNKlSqwtbXNJYbiYEZqxfgoFfrY3BzWgwYhNriQjVQplWsmXFQQePv2LUaPHo0yZcpg3759KmeLkVpl6GQjMlLLYsJ8wE2GPX36FKdPn+bISt3uixcv4s2bN8jKkjZLmpqaiqVLl6J06dI4cOCASvAxUqsEm/xIjNTycSmuvnFxcbCwsIC+vj7KlSvHTY4Jvk2S0W+tWrUwZcoUXLlyRQYiInaJEiVw+fJlmbDcPBipc0NIiXBGaiXA0nJRmvAaPHiwDJElSS10V6xYETQDnkYnAny7kpOTMXz4cDRu3BgfPiin98BILURRDb+M1GoAUQuSoG51+/bteRFaSGz6nT59OuLj40UIBAYGolKlSlizZo1MN10kJMfBSC0HFFW9GKlVRU574n3+/Bk9e/ZUmtBCcq9cuRKZEkcPr1+/HtWqVcPHjx95g8RIzRuq3AUZqXPHSJslaNJrw4YNORKaxtUNGjRAnTp1cpQpWbIkbt0Sn9vj7e3NrWMfPXqUN3SM1Lyhyl2QkTp3jLRZIiAgAI0aNZJL2EGDBuHs2bN49+4dXr9+zc1st2rVSq7s2LFjRTDROJvG1kOGDBH55eZgpM4NISXCGamVAEsLRUlpRNiNlvwlksbGxsqU2MvLCy1btpSJU7t2bY78wgirVq3iZsoTEhKEXgp/GakVwqNcICO1cnhpm/SyZctkCPrDDz/AwyPnvQCHDh2SiUPKJw4ODiJ4TE1NQen40cZtHhcjNQ+Q+IooIvVLGxs8tbDgmxST0zAEaDz966+/yhC0d+/eCktCM+WVK1eWiWdmZiaKZ29vj7p16+Lhw4ciP0UORmpF6CgZpojUJ0aMgEUuFazk65h4EUKAZqzHjRsnQ86BAwcqzCVNhNWsWVMm3t69e0XxLly4gPr168PZmd+eb0ZqEXR5d2QndUZKCtISE5GRmorTkybh2NChyEhLQ1pSEpQ9LD7vuWMp5DcCCxYskCEnKY8EK9gL4OTkJBOHZsBtbGxE2bW2tka9evXw6tUrkZ8iByO1InSUDMtOat/r13Fy1CicHDMGZu3bw7RNG9iOHYvjv/yC50osUSiZDSZeSAiQrrbkBBm5iaDLly+Xm6OoqCjo6enJxKGtmO7u7qI4O3bs4MbUtJuLz8VIzQclnjLZSe138ybOTJ0Kh+nTsb9TJ5i1aweHmTO5VvvFiRM8U2VimoIATYiRoog8YpNSCU100Qx2TEwMHj9+zO3Iyi5LzzQOl1RAmTNnDlq0aMFbq4yRWo1fTHZSSyZtP3kyjv38s6QXc2sZArSmPG/ePBlSC4lLXfFffvkFAwYM4PZNC/2z/x4/flyETGhoKEfof/75R+SXm4OROjeElAhXRGqHadNgM2qUEqkxUU1EgBRLaPybnah8n0nRJCkpSVT0U6dOcbu1XF35myllpBbBl3dHTqTOyszEB1dXBPFcksh7TlgKhYkAaY6RBRO+RBbKdenSRWotmnZqtW7dGqSNlpiYyLtIjNS8ocpd8OmRIzg6eDASIyNzF2YSWo3AuXPnlGqxqUueXbnE0NCQm2i7c+eOUlgxUsuBKzMjA7GfPiHq/XtEBwTwuwMDcXfbNljq6eHj48eIDgyUjkfP2f2+pU3vSY6Rd6xDBsICPuOBSyAeuYcgJi0zW27TEfIuGC53g+DxXjZ+/OdQ3HcJwtsPcdnisceCQICWoH7//fccN3CUKlUKzZs3x9atW0Ez4ZIXdbupBV+9erWkNy83I7UcmGI+fIBl//7Y3aQJ9rZsye9u1QrGjRvDqG5dmDRvjr2tWvGL17IldjZsiIcmJlI5yYz+hMP/HsWYcSYYPeYwhg42wvAJdrjkEf1VLisW1/adwlD9XRgxcj/69NuFtVae+NpJS4fvtZuYONgYA4eYQG+QGfZcDIS04Ryp17GHfESAxtmkIfbHH3/gt99+w4wZM7hlrpMnTyIkJETmzZcuXeKsi06cOBHp6eky4bl5MFLLQSg1Ph5vHR3x/NgxvLCx4XW/PHmSk6cu+EtbW15xhGm7Hz2KEEnFgtQI7JlljK4jz+KORyiSMxIRE/wBVisOQqebJe5HJeGz8yV06GgCS9cQpKbHwefGLfTtbALLlzFArD9m6e/A4qNeiEmMxiv7s+jbzRy3ApT/QOTAw7zyCQFaxjp48CDIEgoRmswhqXIxUquCWj7HCXA6hw5tzXEtWGzehntlcjBMtzngkn80vJxuYtNhD4gl4rByuBGWnfTHx9tO+GWQI3xETfMXbPzNDH/as5ND8rnqVE6eTusYM2YMZ0l0xYoVyMjIUDktRmqVocu/iGdX7UefidfAb6Pd13zEP7uLgV3NYO8ZBTfLY+g/9TbEm/2yYP33AYz6xxXZR+X5VwqWck4IEGGjo6Ph4+MDMn5A425SWuncubOUemhO8XPzZ6TODSElw2mSLW9XMg5ON8OQ3+5KtMKKU0wJ9MDcgdsxfcczLs71XVYYOOcuxKudwLFF+zBsmgvvNBW/kYWqggBpk5EdMtpxRVsp6dgdmgwjYwm01VLS8KAq6QvjMFILkVDyN8LXF94XL4LGw24HD+LB7t24uW4dLi9dins7duCRmRmeWlri1enT3Bq1/NlteS/Nwtk1B9Fv0o1vk16SMil498Ibz3y+TZYBCH3uisl6Rpi85REivnW3b+w5Ar1ptyEekWXh6P/2Y9SKR8jrX45kbphbOQRozExG+mm8PHXqVJDxhLZt23K7tGbPns2pjiqXonxpRmr5uMj6ZmUh3MsLLtu34/Svv+Jwr14wbtQIO+rXh2mrVjDv1g2mrVtjZ4MGONilC/bp6mJXkybcbDjpfB/75RdcWryY+yNIzUWRwP+8IzroWsIlIhsFk/wxrfc6LDn+1Qhd4J27GN1rN/5n7iXVAnvbncaQIecg3lIfhY0zzDDT1le2XMynUBEgg4Lnz5/nzAlXr14dBgYGIOOFebkYqXNBj7ZI+ly9CvspU7CnWTNuU8aJYcNwd8sWbj06PjQUiV++ICkqiluWsho4kCM/KaAkhIUh0t8fNDN+dtYsmHfvzi13HerRA/d37UKUfw4TVwkhWDtqM3pNuoIXAdHIQioSQj7j0F/maDPABk8jgWRvd4zU3Yi5Zs8QmxSHxNgoREVGIyktE+kfPDG5/06sOhOAlIwE+F+5CL0u+/GfT2oupWXBhYUAncxB4+vvv/+e644/f/5c5awwUiuALujBA25HFbW+tuPHw9XMDCEKTNOQZRPrwYOREB4uN9XEiAi8PXsWV5Ytw7727bk/COqmJ0eLu9PCiPGBPlg3yxSD9Xfj1ylHMHKwEfqNOoWrnjT9lYzjS3ZDIFiDdr33oF9vY/ToboSunffC4jr9y6fjxZmL+LmvMX4ZZYaBA3Zj4ykfMEoL0S26v3SeVq9evTiFFZoRV+UqHqR2HKEUNtQ631q3Drt++gmW/frB5/Jl0Np1bldOut/y4lELfv3ffznFE6sBAxBw754csXj4PPGD03lvXLsXiMhU4dx1KvzeBuL27fe4eskPFy/S/Q6XLvnD55NweiwT4e8C4fSfN1y9IuSkzbyKKgI0M05H9ZC1k+yqo3zyrN2kzkhDX9t+GHpauS2PCV++wG7CBNz4918kKaHHrQyphZXjd+sWZxHF3cpK6MV+GQJ4//49mjRpwm3TVFYJRatJnRwbgx7muhi4r6vSnwmNkZW9VCE1vSMtIYEze6Ts+5i8diNw//59btulsqdfajWpM5NSsG1SL+yZpl8gta8qqQskc+wlGokA6YnTpo+ICP5DKO0mdUYG7Pv0x/lflBtTq1r7jNSqIsfi5YQATZZVqFCBW/bKSSa7v3aTOj0dtnp6cBg+PHu58+WZkTpfYC3WiZKhhP79+3PKKnyBYKTmixQPOUZqHiAxEaURoJM/yEQSEaWej+8AACAASURBVJzPxUjNByWeMozUPIFiYkohQMfu1KpVi/fyFiO1UvAqFmakVowPC1UNATp4jzaBuLm58UqAkZoXTPyEGKn54cSklEPg4sWLnCKK5LnVilJgpFaEjpJhjNRKAsbEeSFALTWNqZ89e8ZLnpGaF0z8hBip+eHEpJRDYNeuXdyYmnZ08bkYqfmgxFOGkZonUFoiFuIBmGwBNm4ANkjcL/lxjzcKdOzOjz/+yNuIAiM1b2hzF2Skzh0jbZJw3Q+UEQCCEkAJifsEv/ksXlCQ6WBdXV1MnjyZlzwJMVLzhip3QUbq3DHSJol7+4EeM4EPiQDZvUhIAMgAaFo22xZ5KbNQ/5vOqOZ7MVLzRYqHHCM1D5C0SIRI3WseJMxGqb9wZGG0Y8eO3GmZfFNnpOaLFA85RmoeIGmRyKP9QHkBUKMWUKshMG4J8CRQfQWko3vIMKG9vb1SiTJSKwWXYmFGasX4aFvoh0fA3/OBWTOBmTOBvi2AOp2Bp8rv2pWB5t27d5z1kyFDhiAlJUUmXJEHI7UidJQMY6RWEjAtE095DfT4Adh4MW8FCwwM5KyM0pZL/5zs2Cl4BSO1AnCUDSqOpE568QJRZ88i9to1ZMg95E9ZFDVEPh0ICSdrceIrxh3oUh8wU+6QSnECAMjgYIsWLdCgQQO4u7tLhfF90GpSZ2VlwbZ/fziMKLj91Mf0ByPhcyhf/DVaLsTICM+rVYObQICnAgF8+vdH0uvXGl0m3plPB1YtAob8BixbDixbCvRpCrSeAmQ/LYlPmtTFpnO0yMh/nz594OXlxSeaXBntJnVGRoHup35mbgHrQYMQF5w3u81ya6qIeUY6OuBZyZJ4IhDg2bebyO07fDiyVDipsdCKlwVkJiUDmaKDx3hnxe0SMEUfqFkRqN4QmL0W8M1lPE2mgJNSUrjTLOkg+YCAABw6dIg7cocUTNauXYuYPPZ4NJrUafHxcN22DU4zZuCygYHUfWXOHFz9/Xfsr1sXBxs2xPUFC3B59mwpGYrjNHMm3IyMkPfjcoATxzah57zvMc3hV8y59jsMLhto333FALPuLoDdAB28liA0EfuFQID7Fcvgn4MTYHCz6Jd/9tXZmHFxBqYcGgqrZVNxw0D2+8j+XUk+35xvgGuzDXBhmgEuzDDA9fkGcF5ggCvZvkVhnOu//w7b0aOxfPhwTJg4EfqDBnHqn926dcM///wDmhxTx6XRpE6OisK1+fNxrGdPnOzbV+o+NWgQLFu2xCaBAFsFAli1b49T+vpSMhTnWK9euLVkiVpIbXffAp1N26CPTR/0s+2Hvif7at9t1xe9HAfAomsNeGYj9UuBAHfLCzB1a2f0OdO/yJe9n10/9Lbpia6bG2PbmK5w6Ksn831k/64kn2379cWp/n1hP7Av7Af0xSm9vrDN9h0K5W379cOpfv2ws3FjDPn+e9SrXx9Vq1XjDAuSxtiRI0d4q4HmRnyNJjUVLiM1VWSNMy0xkbPKSb+psbGwGzgQ5k2awKRGDVycNk2uHFnyzJToLmalJMHn1QfcdwnC7dtBuO0chIcvPiMuQ2hzWxbS+JAwvP+YiIz0dMTERSAxLQGJ6YlITNPCOz0RCRnJCDl0kBtHU/fb/Ru5HwsEeNutGxLjo5GYnlT0y5+ehITUBMRFf0FqXBzSE5NE34/kt6QOd3piItKTkhDz5QtCQ0IQFh6O4OBgODs7Y/78+WjYsCFnYNDGxkb2A1PSR+NJnVN5X1lbw6h0aQTcuIE3NjbYUaoUgm7fzklc5J/q9woDdP6H2j8ZoXu3nejWZTtatN+A/uMccMdbfOScKEK0P+Z3NMRv61+JvIqDIys+AQEzZ+KZoATXDX8uEOB1s2aIl3soQXFAJG9lpJM5Zs6cySmb0NG2ytr6lny7VpI67uNH7PvxR5wfP54rK7WgNr16waptW9A/pqIr5Z0H9FtsgKHje0REhCMiPAy+r7xgOHE3WvezhUeU5IRKEq4YH0adsmswfdsbRclqZVhWSgr8HI9h+egasFszCSkqrKlqJTA5FIqOqqXJsaSkpBwPlaeWmo64HThwIEJCQnJISbG39pE6Kws3Fy/GrvLlEeHpKSp9kLMzjAQCblJM5CnHQaQe1GoT9j8QHl/zTSjyNcZ2McJih4BvHll4YXceBv844t8/zfHbxleQpLucpLXSKzA9DDpWLbD5ubFWli+vhSICX79+HevWrcPo0aO5c7L69euH3377DXv27JG7Fv3o0SPUqFEDw4cP521sUDKfWkfqz48fw6h8eTzYtEmynJybZiFNa9ZElIJZRiGp9zrTQXSSVyIOzt6LoYsfcJ6xrx5g4cTjeBoQg1MbLDBhnUexJHVATACaW7bAFtetkmAxN4A7d+7g559/RsmSJbluNelxZ7/plMtFixbJzHzfvXsXZcuWxV9//aU0llpFaprwoskxy3btQDPj2a/YoCCYVK3KLWtlDxM+50zqLNj8tQ9Df3uA5IwwmKw6ApsnMVy0M+vM8dt2b2ESxeqXSN3CogW2PmKkFlY8KT3t3r0bVatWlSFxdlILn0kl9ObNm8IkuF8LCwsuvjLbLimiVpH65ZEj2C4QwNvRUQocyYene/dim0CAwBwmzXImdRz2TDLF2NX34Gxmhx/bmmKtiRuMd97DBL1daD/IAYeP+ebrNjzJchQVNyO1bE3s27ePN5mFpKZfOuXy4cOHUgnq6emhd+/e3DhcKkDBg9aQmibHDjZoAMdRoxSuOdMS1vGuXXFUV5dbYsiOjZDUMmPqqNcY18kY62/4wvf8Q2z89yyWL3PEqv+dxqAu26HT9RA2mboje6c9e/ra9sxILV2jZMa3evXqKpGaiE1nU8fGir+iy5cvc2nR0hffS2tI7bxiBYwrVEAED51ZWuYyKlECT01MZHAiUuu33IBNZwMQFfUFUZHh8PXwxqZJe9BB/zTeivH+FjcJR/85gIkbPGTSKg4ejNTiWqbZ7XHjxsklNI2ru3Tpwk2QjR8/Hk2bNpUrR8Q2MzMTJUoqo506dcKSJUtEfrk5tILUIc+eYUfZsniwcWNu5RWFkzKKaa1aiAkQzmZ/DaJ16v5NVqC2jhF69jRGzx5G6NR+AwZOcITzuwRRfLEjGRZL92H0akZqMSbF00WtdMWKFWXISjPZ+/fvR3x8vAgYOn+aDApKdr+F7q5du0pZOpk7dy6nmJKRwc9OksaTmiYlSP3TulMnpc54TggJ4dayr86ZIwKaHKRR5vkiCHedA3HjRgB3P375GfLo/DViJsICQ+FDhqqK4SVsqbe5biuGpZcuMi1RCYkp/KUWmvzlXdSyk7kioazwlybYJMfWFL9mzZrcQfTy0snup/Gkfmlpyel2PzQ05FrdKF9fiG4/P1ArHvr8ObeMJfL39UXshw+4vnAhNgsEnNZZdmDYMz8EAmJpSas5Nj2QXULkl4L2SMlreWlWOzIyMsdC3rhxA6VLl5YidokSJXD06FFRHFJIqVOnTvE4diclNhY2vXtjo0CAQ02a4HDTptwvuYXPZj/8ALPatXFIR0cqzKJFC1DYOrIB9fPPIgCZQzkE3N+7o8b2GlhwZoFyEbVMOjMzE2PHjpUiJ7W8gwYNUlhSb29vbqeWsJUW/ppIzPfQsTt0Qkf2Ja+cEtboljozLQ3vLlzAg82bcX/9etxbt05007PLmjXc1kvzxo1xf+NG3JOUWbsWDwwN8XDrVrxzcsoJH+afCwJevl5oOKwhVu5ZmYukdgfTMJBscwtJKfzt0aMHKCyn68WLF6hcubJMvAMHDoiinDlzhiM1aZrxuTSa1HwKaDdgABxHjuQjymRUQCAwIBAtm7bEti1sTL1y5UoZctL4WBEZd+7cKROnXLly+O+//0S1QQQnAwp+fn4iP0UOrSY1GT6w1dODw/DhijBgYXlAgCx3kE2trVuZRpmjo6MMQanFpi54UFCQDMo0nq5du7ZMHNqGKSn/999/c0fZskPnAW6fNCO1zLekVg9GajGctKuqVatWMiQlYtNaM5ktunfvHqcTTmaLaEZb2E2X/J01a5YoUTJ/RH8KtP7N99Luljo9nbXUfL8EFeUYqaWBI51vSYJmd5cqVUphOGmjSVoRJTdtxTx58qT0ixQ8MVIrAIcF5Y4AI7U0RtRFHjFihELiZie65PPmzZulEiSDCWRh9NOnT1L+ih4YqRWhw8JyRYCRWhYimtDq2bOn0sReuHCh1P7pJ0+ecGls375d9iUKfBipFYDDgnJHgJFaPkZkf4xa2dy629RKk2IJzYJLHq/z5csXtGvXjjscj46zVeZipFYGLSYrgwAjtQwkIg9an6ZdVhMmTECzZs249WgiOWmQ0SQZkXbp0qV4ne0ABNLxnjJlCidP69jKXozUyiLG5KUQYKSWgiPHBzofi8wanT59Gg4ODqBzp+W1wLQra/r06ZzpYJJT5WKkVgU1FkeEACO1CIo8O8iiKO2npp1epEWm6sVIrSpyLB6HQFhYGLc2a2zMDA+q+kk8e/aMO6GjVq1a6N69Ox4/fqxqUlw8Ruo8waddkT98+ABSSaRDzs+fP49Tp07Bzs4ux5u6krTxgMaHtIWQ4imSpzDqUpLNLbK/ReNNvnuEtQFp2vRBmzNI8WT9+vVYsWIFRo4cicaNG3Oz5VZWVlL7qFUtMyO1qshpYTxJxQlSgiAtqLZt23JqoKQKmv1u2bIlNwFEyhGk7kjaVNllhM8k27lzZzRp0oSzkkmzvjRRRLPExeWKiIjgrIuSbneFChVES16kMSa5fzqveDBS5xVBLYr/8eNH0KYE6gbSDO3ixYtBWwPJnw4/9/X1lbrpQDe6qfVxdXXlNhzIk6FJos+fP8PW1hZt2rThPuahQ4dyLbaiHUxaBC1XFCorjZtv377NqYpSb4jsgQ8ePJjDfN68eXj1Ku8nvTBSa9uXo4by0IdFxubLly8PfX19kBJEXi46lcLQ0JBrzXV0dDgDAJJrsnlJWxvi0oz3iRMnuF4MrVkfO3YsT8VipM4TfNobmcZ/NANLXWqyxEGG72jMrex19uxZrkterVo1bk02NDRU2SSKjTxZSKHWmkwg/fvvv9wZ1qoUnpFaFdSKURxaS6VWtkqVKpzxOzKzw6fL/PLlS5FlzWHDhuHBg68nmxQj6FQuKq0k0JzD6tWrVUpDu0mdkYGzPfvDaQgzkqDS1yERydPTExMnTuTWUKlLTssw8i6yWb1p0ybO9jUZp6duJetqy0NKsZ+Q2ISfspdWk5rOG147owe2zR6gLC5MPgcEzp07x81i0zlPNKkm2Z0max00w00z5xRGa9jsUh2BadOmcRZPJA0m8ElNq0mdEBuFDlbtMcCiJx8smAxPBKhLTpZOKlWqxC150XZBUm2kibVRo0bleWKNZza0XoxWDIQH6ClTWK0mdWJ6Inra9MQox1HKYMJkeSLg4+ODX3/9lTsIjjYs2NrZFStlEp4w5UmMdAdo4ozmKPheWk3qpPQk9LLphdHnxvDFg8mpgACZ6ClOSiQqQKRyFNIDII09Ws/mexUPUp8dzRePYi0X5u2Gk6bbsGzBTEyePA1L1++Fw203eNxzhVdCFoIf22DRpNHo36cXxq/Yi89p0nClBt7F8t/HYfDA/hg6ZhpW7TmEXX9PxPBB/aE3QB9jJkzizOhOnjkXf63YgF2WDnj9WXwUjXRq7IkQIDVaUsGlc7j4XozUfJHSarlUPLVZC72+w2BofQ3+waH4/DkEoR99cH7fEnRpoAtrt0ikJ8cixPcRDGd05JZchv/rCMnDhrLSkhDufwfTDcZh+enn+BIVg6gv77F7cnUI6rSG7ZPPnGbZ59BgPLtmg3n67VClcXeYOMta2tRquJUsnJGREWdNNCEh58OfJJNkpJZEo5i6fS5vRJt6DbDxP+nDAr/CkYLb++bi0C1/ETrRzxwxp3cLCEo0wKLDTyBtqj4Cu+2tceStmO63d7RGTd3+uPdFlMRXR4wPVuo1gKBeT5zxjMkWyB6FCJB67U8//cSp6Ar9FP0yUitCpxiEZUa5Y3qX79FokmmOhwCmxXvD7WW4CI3Am+dw5uQp7F87CmW+awGjmxItbUYIdpy0wKGXYpJe29oKNTrowfmzKAmRI/7JQdQtIUCP+SdyfL9IuJg6nJycQLbAae6Cz8VIzQclLZYJuGCIRmUEmHOC/1G876+dwskzzsjMCMa2sQ1RskE/OPrEfUVJSVIjzRfzGpTD953G4bW4cddixJUvGq3/kyLPnTt3eEVmpOYFk/YKPTCeh0oCAbZdE3evhaV9dn4lJk0Yi+G/DMfw0eOwyeI8UgB8vHEKx447ce6MLw9g0LYCanScgacRFDNCqZYaCMHWZtVRqc0wuHLxhW9nv0IELC0tuTE17fDiczFS80FJi2WemC/kSP3bCXeZUiZEBuH+sYWoKhCg0UxTBIZFcuPngGtfSf2tbUachwN61yiFtmNNEJeSgH1nrHl3v5EVhL9/qoTqHUbDXZigTE6KtkdWLPDiEXDlCvDCH9nmGPKe9y1btnC2v+XZNJOXOiO1PFSKkV/sc2u0qSjAD7+aS81kCyFI8zqILjoCGJzwEnqBut/UUksuRr2/ZoQG5Sti3NJ9WHfqJI684jemzgq6gA4VS6HdBBNEi96gOY6Xl4DRfYFqpQCBAPh5OZBtpS9PhaHNM6TgQ2aO+F6M1HyR0la5jEgcntUJAkE9mDwQT4YJi5v85gC6NRXgD1sfoRcCbzrCzu5KtomtLLif+Rc/VSyDSgMMYP8+VSR/w6h1DhNlqTi1sA8EZZpir0v2qXFR9CLr+OQMtKgFdDcArj0EaI+L/wf1ttSk901nU+/YsYM3DozUvKHSYsHQZ/j35w74UWcQzC48RYzEGlXwrTVoVFmAmUfF47nA/0ywZccJiGkrxCYdt7YNQ4Vm3WHjJ26vLq3RQeW2/eEq0b1O+PQSh5aMRe1qTbDgoDOShEloym8asGkE0G06kJyPeTY1NUWZMmWUsojCSJ2PFaJRSad8wiXLLfhz9hz8vmghDAwM8PucxVixfBH+3W6GZ0GxAGJxc8u/GNmjKRrpdIDB/zbCK3ufOTUApgd246pvGhD9CqYrp6NPy+qoVLshhk024NI1+H0e5s+ejVkL/oH9XXEPQJPwyvwEjNAF5hoCW5cCI4YDc9cCT+Us26laLjqlg1REabNMWpr4TzK39Bipc0OomIVnJnyBn/cbbgOBh4cngkLFY2MgHV98vfDa6x38/HzwxtMH8fK+tawspKVnAWmxeO/5El7vAhEU8B5vPF5y6b70eIV3QWFyWnrNATvWA9CrAzTrAHTVBZo3B5o0AHT6Ag+VNxAjU3BSD505cya3E06ZzRyUECO1DJzMgyGQOwLxr4G+9QDTu2LZhPfAsObAbyZiP1VdZHqZrJ8cOXJE6SQYqZWGjEUoqghkURc1I6NAspcVBoxrD6w+J/26P4YAE/J4rgHZ/6a96atWrZJOnOcTIzVPoJhY0UUgPTISYfv2wW/CBLyfMQPRjo5AZma+Z9h+BVCtAbDpEECn5BgvBur/BNgpf6Ydl1caQ5OBf9o/Tb9k/FGVq1iQeuy5sapgw+JoAgKJyfAbOxZuAgEef7ufliqF0J078z/36cCR9cBPNb6uUf80ADgi0R3nmwFai6bTSzp27MgdfUunpOTl0mpSc5ZPTvTEcMfh+BT3CR/jPrJbizAISviEAKuDeCYQ4KlAwP2S+4lAgJe1auHjk7sIildU758QFBOE98FeCH//DjF+/oj253/HBvkjOdAfXrf98eiSP7xf+CMlxB+xCtL44u2NQB8fkCFHsrBKR/AQmWktesSIEXk+R4v+DLSa1GmZaRhyegjK7yiPWma1UNO0Jru1CIOqlj9gZZ9SeC0QwF2C1C8FAjwSCDBqRnlUPZxzvX9vVgtV91ZBlSUCLGxUAmalysG4bFml7l0VymJf1bI4WL0s9lUqi10K4lPYFoEAeiVLokLlytz50z179sTy5cu5o23z0jpLxtVqUlNBPcI9cNbrLM54nWG3tmHgaw+Xvw3wXILQ1FITwZ+WK4vrJ7fijE9u9X4aJ13M4XLEFM/NTPHMNH/v52ZmeODggGs3buCRq6vcM6olCaqKW+tJrQooLI4GIeAXCI9Gjbgx9QuBgCO4q0CAd0OHAqrNM2lQ4eVnlZFaPi7MV4MQiHdxgffgQXhYtgTcqlVEwNRpSPHz06ASqDerjNTqxZOlVkgIZMTG4pdNzfE/ywkFspxVSMXk9VpGal4wMSFNQKDFSV1Mc56rCVnN1zwyUucrvCzxgkSgvVV7GFwxKMhXFsl3MVIXyWphmVIFAUbqr6gxUqvy9bA4RRIBRmpG6iL5YbJMqY4AIzUjtepfD4tZJBFgpGakLpIfJsuU6ggwUjNSq/71sJhFEoH21h0w++rsIpm3gswUmygrSLTZu/INgazMTLQ60gZTL/yWb+/QlIQZqTWlplg+FSKQGh+PDtsbwcB8hEK54hDISF0carkYlDEtKQl72unAfsr4YlBaxUVkpFaMDwvVEATSk5Nx5KemuDBugobkOP+yyUidf9iylAsQASL14aZNcX4CIzUjdQF+eOxV+YcAI7UYW0ZqMRbMpcEIMFKLK4+RWowFc2kwAozU4spjpBZjwVwajAAjtbjyGKnFWDCXBiPASC2uPEZqMRbMpcEIMFKLK4+RWowFc2kwAozU4spjpBZjwVwajAAjtbjyGKnFWDCXBiNApD6kowOnKVM0uBTqyTojtXpwZKkUMgJEauv27bG7Vi2cGjiQ9203ZAiuzZuH2MDAQi6B+l7PSK0+LFlKeUAgKTIS7y5cAO22ivTywruLF5GlxFnTmRkZONalC3bVqAGr9u153wcaN8Y2gQB+ly/nIfdFKyojddGqj2KbG7+LF7GjZEl8efMG99atg1GJEshISVEKDyLz1bnK2f0O8/CASZUq8L1wQal3FWVhRuqiXDvFKG++//2HnWXKcKS+v3EjR/Cs9HSlECBSX541S6k4wY8fc6R+5+SkVLyiLMxIXZRrpxjljbrexuXKcaR+tHUrNgsEuLV4Me78/TduL1+u8Hb+3/9wa9ky7CxfHldmK2fOKNjNjZG6GH1nrKgFiIAkqV23b4ehQABbPT2c0teH3cCBud62AwbAccwYpcfGjNQFWMnsVcULAUlSPzA0xI7SpZEcFcWNq2lmm8+t7BicEGakLl7fGSttASIgIvXbt3BZswZbBQJkpqbmew4YqfMdYvaC4oqAkNSf3dwQ8uwZnpmZIVPJiTJVsGOkVgU1FochwAMBIamDnJ15SKtP5POTJ9xEmd+lS/wSzYrFqweesD35Cmcv+eJDbLJsvPRoPLr+GrYOnvAOS5INz2cfNvudzwCz5PkhUFikpl4BrVPzUT6J836F/00xw8AhJpg86yh+HWmMfvqHsPO8v7iQcZ9wYME+6P9yAJPG78GgUUdxxj1MHF4ALkbqAgCZvSJ3BISkDnV3h8/587g8cyYyso2p0xISEP7qFR5t346L06YhIUw5stCsukWLFjjSpg2s2rYVaZ3tLFkSR1q1grWu7lf/tm1xsEkT3N+wQZTxjDBPzO+5FcOW3YHPpzgA6UiLjcIdS0e0aboTe29TXjLx0NQKrfRO4HlEMpCRiHOrzNBn0jWEiFLKfwcjdf5jzN7AAwH/K1e+rlO/fYt7a9dyqpvCaMGurniyZw9s9fWxp1IlbC1RArsqVMAXT0+hCK/ftzY2+G/KFDhNncr9KVycPh27K1XCBoEAxqVL47/Jk+E0bRoX7jhpEl4cOvQt3Qzc32+DNoNsESCjD5OGC6v2o8P4y4hIT8XLy3dw2iX0W7w0/LfxIIbOuoVIXjlUjxAjtXpwLLap0HE3MYGB+PL2LSI8PcW3lxenSBL86BE+3L2LDy4u0vfduyCyRnp7I+b9e7jv3w/jsmXx5fVrPNqyBdtLlOBaSvuhQ2FSowanNuowahQ87exwa+lSmNaqhU8PHyI1Lk50pyUmgvLD96L37/vxR5weMYLrggfcuJFD1HDs/nUvRm55Ljc84qELurUzw7UPaaJw3ysumDrSFE16HISjd6zIvyAcjNQFgbIWvyPpyxfY9OqFHeXLc60otaTcXbkydn/3HdfibhEIuCUqWqYS3uS3XSDA7ooVYVKtGnaWK8ephtKfgNvOnVgvEGCjQMC1oiRn9sMPsGzZEtYdOmB/3brYWaoUTL//nnPTs1nt2pwM/TnwuejPwLpjR9j07o2UmBg4jBiBQ02acGvjsvE/YdOw3Zhn6isbBCDx7VP0b7odJ14KJ83SEfz6NWysr2DuGBOMW3Efwan8/2zkvkQJT0ZqJcBiorII0LjX68wZrnvsvm8fRPf+/Xi2dy8ebNrEtbikzy11b9iAh5s34+nevXA/cIDbiEG637TBgsa+m0uU4DTK6I/BqHRpjsB2Awbg8e7duL5wIfdH4LJ2LV5aWnL384MHYVK1Ki4bGMhmUo7P4127sL1MGQTducOFfn76lOspuKxeLUc6EnsnmmLQKjc5YUDo7Zvo1NEcLqEyfXNkBXpgQMsdMHH5IjdufngyUucHqixNpREIun2bG1NHSIypaSIs7MULuO7ciePduuGgjg7XspIxhD1VqiDaX2LWGcDRTp1wiceGjihfX+5PgfTFJS8i9J7KlbnJOEl/IAvPj9mjVUdLPI7+GpL0wQ82x+7hXXgYjv6xFz3m3EFSVjwct5+CyUXhmBpAfCAmdtqKrZck/KQTV/sTI7XaIWUJqoKAcPabWmqaoKJutuT4mBRRPj9+zG3wsO7eHSe6d5cxbMDt0sqlpSZV0guTJ3MTbYG3biHq3TtO2SXS1xcf79/nxtYOw4bJbvtMDsbWscboNs4R1x5/RHRcIE6sM0X9BmvwQ1NznHtHXe80OG+yRPNu1nD2DEd89GfYrrFA+xF2cA9Xbhupm4qhfwAAC8hJREFUKhgK4zBSC5Fgv4WKgJDUH+7d4ya+YoOCkJWVJTdPGcnJ3ORa9nA+pCYNMpo5p4k4WtqicTSN1+nXonlzGFeoABrvE8GzX5mRH3Fo7TEMHWyMISMOY/TofZg47QjGDj+ErcffIIaGzYlfYLPeAgP7muDnYXswapotLnt+a96zJ5hPz4zU+QQsS1Y5BISkDrx9W7mIEtJ8SJ0UEYEX5uZfx/fr1+PSzJkwEgi4g/VozE+bSWj5LD44WCJlSWcGvnwIh/uzELzyiUJqVhpi33viwLYLeBYsbI1T8ME7FM9ehiEyOUMycoG4GakLBGb2ktwQEJKaWsj4z59B6puS3e/c4lM4H1JnTyf0+XOuy+1/9Wr2IKWfc+hYKJ1OXiMwUucVQRZfLQgISU0aY09278aB+vWRnqSc3rQqpBZZPrl4US3lKAqJMFIXhVpgeeCMDnKWT77NftPatLIXzX7zXdISps12aQmRYL8MATUjIGypyfDgo23bsLlkSVz9/XdcX7CA972rZk1ujKxM1hiplUGLyTIElEBAktRuO3ZwmmS0e4oUSvjem0uVAulzK3MxUiuDFpNlCCiBwDsJa6IPyJpoqVJIi4/nJstowozPzY2plTU8yKyJKlFLTJQhoAQCZCKYlpZoQ8f99es5t7I2x4jUyloTFc5+MxPBSlQWE2UI8EEg0scHzn//DdogQtZPqLVWxpwRndBh1a4dLFq3hseRI9yuL9rcoeh+cfgwbvz1F9crYMb8+dQSk2EIFCACtO2SjByQNhjt+iLdcD437ae2atMGZJxBWy7l1w20peSsHFqFAJkQJqsmZCec9nXT/m4+d/jr14gJCFDq3K6iDhwjdVGvIZY/XggQqQ/r6HCbNXhF0GIhRmotrtziVDSO1E2bcjrcxanc8srKSC0PFeancQgwUourjJFajAVzaTACjNTiymOkFmPBXBqMACO1uPIYqcVYMJcGI8BILa48RmoxFsylwQgwUosrj5FajAVzaTACjNTiymOkFmPBXBqMACO1uPIYqcVYMJcGI0CktmzSFP+Nn6DBpVBP1hmp1YMjS6WQEaAdXYebNWPKJwAYqQv5Y2SvVw8CSTHRGL6gAVZsG6meBDU4FUZqDa48lnUxAglJcahn2Qgjzo0SexZTFyN1Ma14bSt2ckYKmlo0w4TzbEzNSK1tX3cxLU9yejKaHm7KSM3G1MWUAVpYbEZqcaWyllqMBXNpMAKM1OLKY6QWY8FcGowAI7W48hipxVgwlwYjwEgtrjxGajEWzKXBCDBSiyuPkVqMBXNpMAKM1OLKY6QWY8FcGowAI7W48hipxVgwlwYjwEgtrjxGajEWzKXBCDBSiyuPkVqMBXNpMAIcqS2bYtz5cRpcCvVknZFaPTiyVAoZgciYSNTbVQ8jbEYUck4K//WM1IVfBywHakAgMSERTQY0wdgFY9WQmmYnwUit2fXHcv8NgeTkZDRt3BQTxrJdWozUjBZagQBH6qZNMWECIzUjtVZ80qwQjNTib4CRWowFc2kwAozU4spjpBZjwVwajAAjtbjyGKnFWDCXBiPASC2uPEZqMRbMpcEIMFKLK4+RWowFc2kwAozU4spjpBZjwVwajAAjtbjyGKnFWDCXBiPASC2uPEZqMRbMpeEINGvWDJMmTdLwUuQ9+4zUeceQpaBmBAIDA7F+/Xrs3r0b5ubm2LVrF3bs2IGdO3fKvY2NjbF161ZUqlQJRGwTExO5csL4lBbJHDp0iItH6cfExKi5FIWXHCN14WHP3pwDAqdPn4ZAIODuUqVKoXv37ujTpw+6dOmCzp07y70prGHDhhypu3btKleG4lKYnp4e2rRpI3rH999/Dy8vrxxyo3nejNSaV2dan+PU1FQcP36cIzORe+TIkXj+/DkSEhIQFxeHiIgImTsyMhKvX7+Gn58foqKi5IZT/Pj4eFy8eBHt2rXjSD1u3DhcvXpVqzBlpNaq6tSuwhB5qatco0YN1K1bF5aWlkhPT1e5kET2f/75B9WrV0fz5s1x6tQp0B+Itl2M1NpWo1pYHmqBJ06cyLWsgwYNwt27d5UqZVZWFmxsbNC0aVOO0KtXr+ZacqUS0SBhRmoNqqzinlUnJyd06tQJlStXxp9//onPnz/nCsnjx4/x888/o2TJkqCu9osXL3KNo+kCjNSaXoPFLP80pqaZ7tq1a6NOnTo4duwYUlJSZFAIDQ0Ftchly5blutr29vZ56rrLvKAIezBSF+HKYVnLGQHqkk+dOpXrkg8dOhSPHj0SCROB27dvj6pVq2Ljxo2gSbTidDFSF6fa1sKyXrlyBbq6uqhZsyYMDAwwatQorntOY3AifnG8GKmLY61rWZmTkhKxfft2/PTTT+jQoQMcHBy0rITKFYeRWjm8mHSBIZCJxLhYREdHIyYuAVILWRmpiIuNQUJyCjIk8kNr1LQMRldKQgISkpORlBiPuNg4xMdHIz4pFRlpqUiIjebSjY6OQUISW9KSgJA5GQL5g0D4mzs4tNsQyxbO4QwJzl26BhbHz+LiNQfcexmPjA/3sPz30ejRthka9Z6BC35J0hlJeId9C6eiT6f26NhzOJYvXYWNaydgQPeWaNKyDfSGj+XSnfDbDCz8YyGW/muMy0/9pf4gpBPUrCfWUmtWfWl9bl/9tw39O/fFGvNL+Bibws1Yp6fG4dVNSwzt3hBTjj4GsjKRnhIFF/OlqF5CgFp9F+BVZJYENlnISI/E8bnLsW77XaSlZyAjIxWXN/SGoE4H7H8R8zXd9FSEvL2LrbP747vK9fD7oYfQhnabkVriU2DOwkUg7NER6Dasj1kWj+Vm5L3bSfxt5QIRfSMeYe2S4dApUxqdp+1AsFQfPRNuW0/jwnFvUVqvrGZC0EIPJ95JCQKIg9X8ThCUbYzt1wNF8prqYKTW1JrTtnynfcK6oc1Qq90i+EkOlCXLmZEK/1feovF1pv9l7D93Hs52u9GkfBmM+Pc/iDviaXhgeByO1m9EKTw/PBWC5v1wzEd2XRufr6JHaQGa/WKI0JzeL0qpaDsYqYt2/RSb3CW9PYa2P5ZEi2XnZcqclZmBlDRx65qWls611pl+Tthhew7RyMLDAwYoKaiBeVbu3+IrSWqEwbhvFZRuORg3Q0R9AZm8aIIHI7Um1FIxyOPn21vQ+DsBdI2dZUob6GqPiaN/RreO7dCxcz+M2myFgDQgK/ASjE6cwgduIBwH62XdUaJSc+y++4lLw3WTEi01EmA9qxYEOgNhH5ApkwdN8mCk1qTa0uK8Rj05gGYVBdCZfBzZO8eZ6amI9T6PNjVLonLnf+CVkAKiHbXURidOIyjxGzBJfjAc2gBlGw/E7dBYvN5lz7/7jXDs0quM0q2G4EYoa6m1+FNjRSswBOI9ML1tJZT+YSzcYuW8NcEDfXWboO1f9qJAGVIDSAt9gOmta6Cx/gyY/WWNiyfFxg8UjqlDb6J3mZJoNWILwtiYWoQxczAE8oBAFl6e/BNVBAL8sukK1xJLJZbogb4dm6Dt8jNi74ArMLE/h+BksRe5Er1vYHzrShCU7I1DFz6KAj2OzOAmyo77Zl+4SsLxRV0gqNAYpndDRPKa6mDdb02tOa3Mdwyu7JyKZvV/wnTDo3j9Me5bKbMQ+doRTetXRavFp0Ulj3M/gt9WbsSLKJGXyBHyeD9a1uiM9fbiJSrnbUMhaNAd1j5CUmchwvchds4bjDp1W+F/VveR7f9BlJ4mORipNam2ikle3z++hO3rl2LB7LmYMnEiJk6ZjEXLVmLzPhs8CfyqBvr8v38wanBPNGnZFoOmLYW9t6zhQNfjtrj06BOykj1h9u9EDOjaEvV0WqH/yAmc0YWJE6dh7uy5WLLWGLdfBWsNuozUWlOV2laQTMRHRyIsNBShYWGIipNuQ1MSIhEWEYX4uFhEfIlAfFpOM9ZZQFYqYiJDEREdz+mCR4aHgvZbh4aGISpWOMumPfgxUmtPXbKSMAQ4BBip2YfAENAyBBiptaxCWXEYAozU7BtgCGgZAv8HSMjiite5ezMAAAAASUVORK5CYII=;" vertex="1" parent="1">
          <mxGeometry x="302.24" y="1230" width="245" height="292" as="geometry" />
        </mxCell>
        <mxCell id="LZa3TWfJk8D44VAh4uWb-34" style="edgeStyle=orthogonalEdgeStyle;rounded=0;orthogonalLoop=1;jettySize=auto;html=1;exitX=1;exitY=0.5;exitDx=0;exitDy=0;" edge="1" parent="1" source="LZa3TWfJk8D44VAh4uWb-28">
          <mxGeometry relative="1" as="geometry">
            <mxPoint x="300" y="1690" as="targetPoint" />
            <mxPoint x="180" y="1610" as="sourcePoint" />
            <Array as="points">
              <mxPoint x="240" y="1510" />
              <mxPoint x="240" y="1690" />
            </Array>
          </mxGeometry>
        </mxCell>
        <mxCell id="LZa3TWfJk8D44VAh4uWb-32" value="&lt;span style=&quot;font-size: 12pt ; line-height: 150%&quot;&gt;反激形式的开关电源当中，因为开关管的应力相对较大导致其损坏，主要原因在于开关管处于关断状态下，通过变压器内部原边漏感造成了电压尖峰。采用在变压器内部原边完成RCD形式吸收电路来缓解开关管的应力&lt;/span&gt;" style="whiteSpace=wrap;html=1;rounded=0;align=left;" vertex="1" parent="1">
          <mxGeometry x="300" y="1630" width="330" height="150" as="geometry" />
        </mxCell>
        <mxCell id="LZa3TWfJk8D44VAh4uWb-38" value="" style="edgeStyle=orthogonalEdgeStyle;rounded=0;orthogonalLoop=1;jettySize=auto;html=1;" edge="1" parent="1" source="LZa3TWfJk8D44VAh4uWb-36" target="LZa3TWfJk8D44VAh4uWb-37">
          <mxGeometry relative="1" as="geometry" />
        </mxCell>
        <mxCell id="LZa3TWfJk8D44VAh4uWb-36" value="UC3842外围电路&lt;br&gt;" style="rounded=0;whiteSpace=wrap;html=1;align=left;" vertex="1" parent="1">
          <mxGeometry x="70" y="2120" width="120" height="60" as="geometry" />
        </mxCell>
        <mxCell id="LZa3TWfJk8D44VAh4uWb-37" value="" style="whiteSpace=wrap;html=1;rounded=0;align=left;" vertex="1" parent="1">
          <mxGeometry x="300" y="1930" width="340" height="190" as="geometry" />
        </mxCell>
        <mxCell id="LZa3TWfJk8D44VAh4uWb-39" value="" style="shape=image;verticalLabelPosition=bottom;labelBackgroundColor=#ffffff;verticalAlign=top;aspect=fixed;imageAspect=0;image=data:image/png,iVBORw0KGgoAAAANSUhEUgAAAW4AAAEKCAYAAAAyx7/DAAAgAElEQVR4Aey9B3AdyX2vS9+y7Hrv3rLqvut6LpclW5YtyU/JlryrDdoVd7lcgjlHMO2SXOa0zJkEMwnmtMwkiJxzzokAiJxzzoHIOX2v5swBcACeQwLgOSBA9FQNz0zHf/+650Ozp6d7AuIQCggFhAJCgTGlwIQxZa0wViggFBAKCAUQ4BaNQCggFBAKjDEFBLjHWIUJc4UCQgGhgAC3aANCAaGAUGCMKSDAPcYqTJgrFBAKCAUEuEUbEAoIBYQCY0wBAe4xVmHCXKGAUEAoIMAt2oBQQCggFBhjCghwj7EKE+YKBYQCQgEBbtEGhAJCAaHAGFNAgHuMVZgw9/UK1Nc0kJZSTmJiOZkFdX2BO1pJSSqjtrVL6dZNXno5FXXtfWHElVBgjCggwD1GKkqYORgFuri415h1u1y4dtWb7zcbccMslcbal1w4aM6hg7bsPuxCbkUDTg892L3XmoMHHHiRVjuYxEUYocCoUUCAe9RUhTDk7RVo5+w+C6LKlSlVZbF0pTVRUUkYW6cqHM1vOWJo9ByrZ2HUd3ZgYmjHHZvMt89apCAUGEEFBLhHUGyRla4V6OLs90bsOhXEnVvPOXPYnot3o+kZHGktL2H3JhPCcpoVhgTa+TF56l2C02p0bZhIXyigVQUEuLUqp0js3SrQybndz7jwJAbja85MmWtMaZtsUW1+AQe2meH+ogLooq6hVfGb6hnCxoO+dL9bw0XuQoEhKSDAPSS5RODRrUA7J3YY45fZoTDT/qYtG48GU1FQhP6cG9y1S6SouIraonz27LIgJrscXyN39p0NE+Ae3RUrrBuggAD3AEHE7VhWoBPrp0HE5LfIhWiv5+Zlb6zMQ1i2zIwDBxzZts2OiNwasmISObDPhrPXgqiol0E/lksubB9fCghwj6/6FqUVCggF3gMFBLjfg0oUReivQHt1Jc6h2fLwR1c7HpbBnDH0J7emHWqqcHBJp7N/FFJCU0jObpBd2xuJeZ5PfW0Nj254cuWHCGobW/FxiqewTh4Nt3sWgv0LefpKTlQGvs9LB6QoboUCulNAgFt32oqU34ECFanZrJp6iS92eytyD7f1Z/8ZXzwcAzlwxp/ChFS+3egKdJOeWkJTaxs+1t787hdnMQusVMSpSs/AyCKM+xftuWSShI+pFwZXA7l+ygarsBpor2H5nw1YdzRUEf7haQvuORW8g9KKLMerAgLcI1Dz3c31eLnEYWmbQFmdynhqdzup8cU0K+ardRMXnIyVcyryZLURMOw9zCIpKBGTB74cuh+iKN31I1Z4J0szSODcKQecnaM5dtoXH9dgTlwNpbGlCS+3F5w8ZotFgNyDDnEKwudFKc9dAjlhGMLNsy4YuWYR4xXCdcs0yhJTuHTdgwsXPSmvrePSUXtSXqrU63uoqyjS6FJAgFvH9dFUXsrhHabcfBTMk3serN1gQUKpjOZwWze+/tqIpm6I9wjl+4OO3Dhvy7k7ka/8V17HZr5XybcU5bDvVqCiTOeP2hCYIYP78hF7HBxjWPThBT6eb0K1SqmtbjvzzLsM6MT0njc5tW04Grlz9KIPV045cMMkmbrcHK79EIr5Ux98Ysqxe+iNqc0LLt7wR3w4ryKmuNS5AgLcOpbY9qotp+4n9eaS+CKF5NJWKjOzMTxpzon9nrR2d3P9oAXBOVLXu4n9e63JrBs4CtubhLh4gwJVGensvRmgCPXAwAq7CGnNknaOHHMgMCCBrSutOHnCjsfOub0pGV9zwiSgCporuPkwlM6WBjZtM0Wa9Q01fL/WmsqGFu6eMWXnDkfKOyAz9AWrF97hmVNWbzriQigwEgoIcOtYZcMdZtiFVfXPpb6Ks+dcSM4s5M5xT2qb2jh1yIa4UunFVwfHt5rzPE85pa1/THE3CAUq01LZecVXETInIp7tO604Y2DNhcexVKdnsOWAP611pWxe/YyEYlnnp5fsMQ95SWFkDM9s0xRxbe67suu4G4YnbbhwP0bxstPi2FO+Xuum8O8uy0fvM0NcUpUvNQdhmwgiFNCGAgLc2lDxNWmYXbDhsllfjyzMLZSrhi5s2mjNyeNOTP7kFuYuKVw5bseLQimhVvbttSKlWvS4XyPra73am5vJLavvDZOfkoeHXzaKjyhbmsnIlj9xL84upbBSHkYpL6qiqq6DuppayhVfVUrRO4kKTsM3tKD3A52XZS/JKOoBdScZmeU0iXGSXq3FxcgoIMCtY51fZmex6dunmNrF4GgZxDdrzIjJrae7s42GkmyOrrektLWdUGtf9p32xvKBK4cuBsmQ0bFtYzn57q6eFUg0l+J1YbraBW01Kyd8RrsCAtwjUEM1RYU8uxvEnXthZJWrzBnpaiEmNJdmxdTgDnzswrn96AVVLW+G0giYPWqz6GhqwvWzz6iKitJo44udO4k7dUqtf312Ns4ffkhTcbFaf+EoFBjtCghwv6Ma6hZsHrbyyVeuYPJ3f4cEZ3VHc1kZVv/0T3h8+SXdHa9O00s4dw6jv/kbUq5dUxdduAkFRr0CAtwjUEXttZVcOepFfp1E6zacnniydYsF962TFbkn+Uay+3sLDK4EUFijXM5uBOwai1nUZWTg/MEHVMfF4TFpEtUJCa8UI2r/fmKOHCF41SqKPT37+TcVFeExcSIlPj64/+UvtFbI80b6BRI3QoFRroAAt44rqLG8nOMbf+AP//2AvHbIj4hm51FPSsteYrDXiqCoTK6cdiT7ZSPWlyy5apGtY4vGdvL+CxeSdPmyohDSb8i33/YrUFNhIS5/+hPtdXXkmJkR8s03/fwlqEft26dwC9+6lTgDg37+am/Emq9qZRGO704BAW4da99YVU1GRi6XTjiR2QwhT915ZJ2vyNXxB2duWGXQ2dVNtFsEs+c8IDijbzaEjk17bfLnws4x33o+C+wXvJNzoeMiZllM48K2GbgvXoqTvj7mX3+N/cSJ9LxYbG9owPWTT/r1uiUoS3CWjrbaWkWvurFA/hxdGtOWoC71uqWjITsb148+orWqb7pmob8/llOn4rh0Ka5LlmK8aj7zHkxmgePCd6LDYPRfaL+QhTYLccuWpykqCif+ea8VEOAekert4PwBexncT9wxslHM+8PpB2euWshTBWtLyrC868GxKxG9O7aMiGkaMplsMZl7sfdwznR+N2eWM/ZptkQFO1Pg5UOejw9ZLi7UZPf/H0mySq+7B8zNJSW9pYrYsYPE8+cV99FSb3vv3l4/6UK11y39QXD9/HMiz54lz9eXfG8f0nw9cEyywSnrHekwCP1dslxYYLeAAwEH+pVN3Ly/Cghwj0jdNnNqjw0p9ZDu+5y950Po7u7kyjFb7DziuX3VnyagIDSS73a7j4rP3efbzaeiefSP/7bX1yt63Y35+Yphj55hkJ5qrYqMxHvaNCR/148/7u1t9/jXZ2UpeuFdbW0kX7tG4OLFPV5j6vd82HkOBx0eUzYLY4evgAD38LUbQswWbpx2JbmyC9rquX3Oli1bzDhzK5yO9nacH3qwY5cluw/ZEZE5OnYcl8CdU5szhDK+u6Cpt2/jOXkynl99pXaKX5C+Pk5/+ANxJ0+qNTJyzx6C16zBfeJEJJCPxcMgxIAjQUfGounC5mEoIMA9DNGGE6W9vVNlCKST0tLGfslUlNRR3zp65giOJXB3trZi9uMf97507CcskPnkCU9/9CNaKuVlWwf6S2PejydMQJomOFYPAe6xWnPDs1uAe3i6vfexxhK4pcooDw2luVT9ZgbSS8qK589fW2clnp6Kl5mvDTSKPQW4R3Hl6MA0AW4diKouybKgoN6pZ50tLYRv2aIRNOrij7TbWAP3SOsz2vIT4B5tNaJbewS4datvb+r5dnYELFmiuJfmGEvT0hpy+5YV7Q04Si4EuEdJRQzSDAHuQQr1ngQT4B6hiixwciJ49WpFbtJMCI8vvlDMdBih7IecjQD3kCV7pxEEuN+p/COeuQD3CEkuwD1CQo/TbAS4x1fFC3CPUH0LcI+Q0OM0GwHu8VXxAtwjVN8l3t4EK9fNkIZKPCdNovXlyxHKfejZiKGSoWv2LmMIcL9L9Uc+73EN7rzaPPxy/PDK9Rrcme9FVLQX+V5e5Ko5c7y8yPPyotjLixLlr3QtnbEnTxKor6+oYcUaGx99RJaJicKvJ0xPvEIvL6S01OUhuYUkeeGVP0ibc70IzAukqrlvPY7BNDMB7sGoNHrCCHCPnroYCUvGNbhn287mo4cfoWepN7jTQY/9h/Sw19PDUsNpo6eHl54e3gNO+z/+Eb/58xV1Km0EYP+rX+E6ceIr4Xz09HDRkLa1nh7SufaKHnr2g7TZUo9f3f4V0oM9lON9BHfje7zHmAD3UFr32A87rsE9x3YOiZWJI1KL6oZK2kZoqORRwiN2++0eUjnHJrg7eXjFnefSMoxAS3EeVy+F0NregvVtVzZvt+Da00jqOt6/dVoFuIfUvMd84HEN7nl284goiRiRSnyXLyfvxNxhn7+8BvVgCzs2wd3Bye9NcE+QN/Ntzk1j324P0lPSOHc1mNbmJo5teUpghryz+2C1GAvhBLjHQi1pz0YBbgFuta1prIL7/H4LvJLkdWCa8zLYv8uVWsXGwi08PWPL/HU2lL1/3FYMhYlFptQ25ffSUYBbgFttwx6r4D6z15yATHn7t66SbPbtdKFGOTJSVljG1aO2PHAevV+sqq2MQTiKHvcgRHqPgghwvytwT5w4Yl9Ojp+hki5uHjLltFE6LS0thNn4svl4IFlxyVy4EUE33Ridt+GSaep79AjLRRHgfu+q9LUFEuAeIXDn2driv2iRojKkedwuH344YmuVjB9ww8vcQg5sN2LtOiO+2WhNTE4DXW0N3D1rx9YdFpy6HkRFy+hZPve1T+cQPAW4hyDWexBUgHuEwC3te1geEqJoMt0dHYrdxzsa+6/Jrav2NJ7A3aNhdXWLyvrnsmtz6/s3m6SnvALcPUqMj18B7hEC97tsTuMH3N2kxhdQXi/3qLtbGomPLaFDIX43CeGpmJlG8SK5Z0u2Ll74JGDlmEqLkunF6XkYGUWSVijPTFFE7WghKbYYeeS8kxe+CZiYxVMlRepqw90hDiOjaIyeRmLmkE5dfSNhQTmK7eik+LWlL0nozVM3LUGAW7Outmm2fP70cz43+ZzPTd+PU4BbgFttix+rLydPbH+Ga7wM3aacVLZvcqSdTowNHThwwRtryxC2bXqClX8BITZ+7D7uybNbrpy5HUNVaR5bNlrwzOQ5O7Zak1DWqtDG94kdU2daKPYC9Xzqyo5jrjy678X+s4EUZuWxcPptHpqEYvosCAvHRGpL8vjg/znMwcfpivhxzqHsPOinVmdtOQpwa1Zyl+8uDvofJLI08r05BbgFuNW2+LEK7oHTAY8c9iE9JpV1GxyVPWZoLC/lRXQ+SZGZ5JY24mHqx8lbUdQU53HkiBvRMXkc22tHSnUXpclpXDxhxukjvjR1Q3RoKmWKrncTOzZbEhaVybb1NsSlVpGaWkVOfiNt5fnsX/WIJStMiC5qIz8omgMng9TqrC1HAW7NSkrfMJglm2kOMAZ9BLgFuNU227EMbp+UJkWZWgoyOXXcFy8bfw5djlJbzsaiXHZ/9wiDuzFUV5RxcKcJBw9ZsW2vG8nJBVww9CA1PY8bRz0o7d0TtIMn5625ZJJCe1Upc7++zu6D9hzcb8Xle5FUF+Zy5oQv0UHRbD7gQ2RAHMfPCHCrrYARcNzvv58nCU9GIKeRy0KAW4BbbWsbm+Du5OROY9yT5SGOroJ0duzzIj02hY07XXvLWZuZxe0HISQk5ivHoVvZs8mSE+ccuGorD2/4P3Zny3oLtm6z48Qhe7765AbPPAqgq4Vnlxy5aiwvlVCXlsXe/R69aUsXnUXZ7N3honCzvunI/HmPOHk1vF8Ybd+IHrdmRQW4NWszJn10+cl7d2cHhXk1pKVVkZ7xEtUJDRWFL8kvkXuFknAttfVkZNfoTMPx83ISfIy90V9vxTPjYPZuesrZx0nQ3cG1A+YcuRyIh1sUuzY+xcw7D9sHTuy9EIC1sQ+HzgQSFZbItl222Nq/4MAOc3zjqunuaqehIJ2jm+1o6OjkyVEjPta7j51DJK6e6ZSmZzN/+h2MrCKwtgzDyj6OvIREvt9oR61Uo221zPiP48zdGKyz+pUSFuDWLK8At2ZtxqSPLsGd5h/OzLlPuXDJjxOHbdi214WyxlbFC7E9u2zY870lDqHF5CamsmuXJXv3WnPx7gtaOrUv5XgCN3QT4R3FlSt+mLuk0TsBsKsZT9tw7twJJiCmRBa5uxU36zDuPY2islmeiZL6IpmbN4MITSzvq4j2JuIiChX3HjaR3P4hjJs3AnnwLJmGxkasnj7n2rVgrl8L4trdSHIKy4l6nofc74eCuBx8/Iv70tPBlQC3ZlEFuDVrMyZ9dAnuF3b+nLob26vL+W3PeOCcgtXDAApbobsog02HHLAzDsI7qhpoZf+3RsQUyZPXeiNq4WJ8gVsLgo3BJAS4NVeaALdmbcakjy7BneQZwjx9K54+ieLR3SB277InvqBvdSPbGw6cvhfTq1taUARbd7tS1dbbR+z1e9uL0Qju7u5u7OzsMDQ05Pz582P6/OGHH6irq3vbanqr+ALcmuUT4NaszZj00SW4EzxC0P/OFgebcBZOuc4j7yKlRp3Y3HHj6IWQ3v9KJwSEs3mHI5kV2u9tS5mORnC3t7fz+eefs3btWo4cOTKmz5/85CfEx8e/02dAgFuz/ALcmrUZkz66BHeEjS8HLr1Q6FKfk8Gi+Y9JLa7D1NCaFdscyS6qoqa2kUi3YGYteUBoQjGVlbW062AZjdEIbmkRqPnz51NYKI8dj8kGpDR6zpw5REWpn244UuUS4NastAC3Zm3GpI8uwZ0ZlsBTm7ReXfwtg7hvHM6h7RZs2OHArh1W3LGKxuiyGyvWWHFgjzV7T/pQ0Tw+hkpaW1uZN28eiYkjswNRb0Xo4GL69OlER0frIOXBJynArVkrAW7N2oxJH12CezQJMhp73ALc2m0hAtya9RTg1qzNmPTRKbg7mjG/7c+Zs54YPomhYcAQSE1uAZGx8pSz8MBkUgr7XlwqxOxoJNgjo3ccPDengKyKetKfJ3D2rBfBKZVUF5biFZqnCN5cVMKd+5HUKjrsrfi4JlKqzFSAW7fNU/S4davv26YuwP22Co6y+LoEd2V8ItvX2ODhncDz2HzaVMCdGhHP1384zb6r8jDB6b1GWL9opKmqhrySJhqry9m/8jafTbJExnknNo98cXONZtsOK0Kfp7N7iw3ubi/Ys9NZoWqUrSc///czBOe2QW0xG7ZaUq786keAW7cNT4Bbt/q+beoC3G+r4CiLr0twh9v5sXitMZcvumPvX6BS8i6CvCO5ct6BC0+SFe7Xz9ph5Z7B1WM2BCfXUpaejfljbw4e8pC/vmuoVHyiXVpYisEhO6xto9i324XcslrOH7Ynt7YJi3ueXL3mymOXbArCozh9PbI3TwHuXil0ciHArRNZtZaoALfWpBwdCekS3FkJGTj5Z1KYX8z274zwT1NZ3xlI83vOqbvyFLLbJ0351a/OctdVZS/EpkoO73dBilUYE4exfSqNxfkc3mPF9Zue7NzvQFZ1K073vLBzjOfS9QAKcvK4aOiHpYk/VkE90w9H53RAMcat3WdAjHFr1lOAW7M2Y9JHl+COCUgmo0yel33loDFmwS/7aRTjFszpewkKN8NjFuw84MzBIx68VE7l7qwo5uA+F8VSpH5mfoTlNRBq5ILhsyxFHOfb9lyxy6MkNZlNa+9xz0zaR7GLm+fN+HarDVlVfWMzosfdT3qt34get9Yl1WqCAtxalfPdJ6ZTcLuF8O06M65cdWW3gS8vW5p4dDeAHOnrdiDSKYBjt+IU1xcOm+GT1oLzHTuO349TrK/RVV7Enl3ONLW3cveWB0WtUJ2RwffbzLh+w4td31sTVdgMDSVM/uM5LBSfzYPjBXP01jkoFv2XcxI97h4ddPUrwK0rZbWTrgC3dnQcNanoEtxSIXMScnBwSaW2XbrrJCamgOpmufj1lTXkKLfHyssuo1J6C9nWTFx8ibxXYnsrWZlVtHW0U1xS0wviqoJi7O0SySrt2a+yk+TEIuqUk1LqyqtfWWnwXfW4u7shOxru271a5e/7UElrLVw+AJMmwaErUNuz4tSrUmjFRQyVaJZRgFuzNmPSR9fgHpoo2v/wpif/dwXulAD45T/D3EM9lvT9vu/gdrgCSzZDQjx8swBuu/eVXRdXAtyaVRXg1qzNmPTRJriDV60i/f59jTrkWlnhv3ChRn/Pr7+myM1No//beLwrcLc2gp8N7Lr0qvXvE7inqflysiAWtm4FU0s4fxHSVFaJfVWNt3cR4NasoQC3Zm3GpM80ryWE18kvCN+mAOUhIZj97/+N5+TJdHeoXyjKZ/p0TP/X/6I+O/uVrEp8fTH60Y+Q4K+L40bGY3ZGHRtS0traAacgCvZffTXrXnAnyHPZ2+rg1hmYOxc274MY+R0skR7wzTJY+i24K2c4xnrAtqP07iH53BZ27JfzeHoB5s+DVRsgpG/FAYVnVwPcvwVViqErObylMaTnwek9MG8ufLsN4vNlP2cTWLhAtmnufEgrBNPbsGCe7Ka/BirbYN7sVz95jwmGeyZgbwf79oB/3wq/cuJa/vdI3Hn2xZzWcqrvR3IC3O9HPSpK0V5WxuE9HxHn+XabiHZ3duL+l79Q6OZGyJo1ZD5+/IpK+Y6OBCxcSPTBg8QcPfqKv/e0aeRaWuI7Zw6lAQGv+L+tg/Xd3dw6s5DuNsUut4NKboHdAvLq5K8yBxVBQ6CkANh5ATr6JrkoQra1tyvWKklKSVQQeMtiWHsQbGzA6C64BUGkG3z1NTy1BuunMHkS+KWDvxn88gNwlWDYBduXwUdfSCuaw6ZpcOkp2BnDlLmQpdiGRmlcFxzeCKYh8n1dFqzbCGVFMGc6mDqD6Q2Ypy+9kYBj22HnJQgMhMAgqGuCb5bDRSPZzS8Amjth1szpxMT2J/OpzXDKRM7n9j7YoeaPl9Iqrfw8vLKGuxeWa+w4aCWTMZqIAPcYrbiBZrcVFZH0q1+RMGECMX/zt9RYWQ0MMuj7pEuXeodAykNDFRDvbO3/JkrqiZd4edFYUID7Z5/R0ax8QwkUODnhKb3Bkl5mmpriN2/eoPMeTMCi/fuJmTCBuAkTyF606FWCakhkof1CCuvfbuW+tOfwwQfwi9/CxjP9M+ro6mL+ggVk5iaSHwJL1vf3l+72rgUrlbWbIixg1ylwc4aLt+DmLbCzhju3Ye9maOiGffoQkgNlGRJQIVk5i6cn9Sh72Gkg37negbPPgEb4di0UNUFuCEg9aQnc5/fDoo1gaAiGl6C4CrathQ37ZDcf5TaS0qyS2AHLuhYkwJKZ8OlfYP4mSOs/G7THHK38FmzbRuyECYozd+VKAe8BqgpwDxBkrN5W3r9P2IQJRE2YoIC33S9+zDLPVeg7L0ffSV/tudx5OQsdF3DgyHQ89JfjvHw5dosX8/RnP6M+M7NXCn8JRk/6dpQucHTE86uvev0lMOdJ3UrlIY1t59vaKu662trw+OILyqQunvJoKivDYd48HJYtw0V/OY7LlrHukh5LXJa81t5l7itYa7YI/x/JD7QE7/AJE9h5fTrLvFaqLaNU9uVOsgY/vfNTZtvMZqXzq2GXu65ggcVMrm6djaf+Cpz09dWeNnP1uf0Xfe5/qc+DKX1hXJcvx2bxYj79138lKy+BRDfYfqqnxH2/m76BYJUdv/KD4fvdYGMNpkHg+wCmfAMlBbB1NYrlAbbPhN/+EaZIPWi/vrR6rrpqYct6KK+D4zvhhbSLWTN8+QH893/Dv/0WwpX/0TizF6Ytg/37Yf9ByC+H7WtgyTrYtw+slC8cp349mYuTJ+O5cmWvDh5r9XFaqM+tz/SxX6GP1+q+8qvq5aq/HLNvFrPk/lSWuapve5ra5DL3lWwwWkCwEtqREyYgnS1pA8aIego/Tn8FuN+Tiq/z9CRCCe3oCROIXjobtzwP3HM88NB05nrgkuVMSIgdee4e5Hh4kOnkRHFYWD9VyoKDFb3uLuVYt9Tbzre37w2TbWxMwOLFivsCFxcF1Lu7+sYRsp49w2/+/N7wYVu24L1smSI/Kc8cd3e8I21xzXHTbGuOB+65HvikuRLz//1SUVapvDE//jsCIm0UZdVYTmX5/2z8Z54mPlWfR64nzqkOxPg6kq/UQmGbZJ/KmevlQbG/fBb69PnleniQ6uiI3mefkZqRQEshfP0l+KfIxW6tg7JKeGAAG0+C4q1BOxxfD5dtwMMSbrlCex2k5EBbKaxdJve49yyFwHToeM0knSfnQRqxOnJSMdJCRxF8sw5KauHeCTivfMdscABsB6w6u34TRFX0Vo/iYtrUqThcv06eStklHfK95bLne/WVXVUf6TrX3YN0T1dc421xz3VXr7eGNinVsW+yMzE/+2dFb1v64xz/D/9AR2VlfwPH+Z0A9/vSALq7Kb9yFfv/+Hvil86jq1S7r/ylXrcE67KgIDyk3rY0oVl5dDQ04P755zTk5OA7ezb5dv0nOXe1t+P+xRe8jI2lJikJ148/pqupb0f4nnQG+9sUEUGanh6pEydS4+Q02GgsdlhMeZN2dVHNXFJkwaJFvetxe5qCJNXnn8OsuWDuDRLAd62ELyfJ86FX7YKGTnB8AjdVitKQCxtWyuDevwKiVHrpqnn2XJfFw7//v/DUR3ZpLYR1G6BKuu2AQ+vBwhuuHYNf/l626fMvIC4D9u4B3/SelORfaagk4R32chuDgvD506/w+uO/Uefh0d84cYcA93vWCKSZE5G1A7pUWiijNNYtjVt7fPklhc7y6n2qycadOIHzBx8QII05qzmyTUzwnz9fMd49EOxqguvESfqvfpAAACAASURBVFuzSjQZ1zurRGUjhcZKiIyE7L5lVhTRk+MgTtkblxzqa6Gm5/sj6f1kO5SXyr3nylJoUT+xp58pOdnQrAzX3QFl5X299M4myMmH6iqIj5VtioyC+iaoqoKmAe94R8OXk6ciznIs9ES/MoobWQEB7vesJcxxmE94qby9mLaLJoHb8Xe/U5tsbWoqDydMUMxEURdAGjqx/fd/x2/2bHXeI+L2LsA9IgXTQSajAdwnnp/kcMirM5Z0UNwxl6QA95irstcbrM0PcAbmVJOczEsN21lJYC7x8aFnHHxgXOm+KiqKhlyV1QLVBdKhmwD34MUdDeAWH+Bori8Bbs3ajEkfXYJ7TAqiYrQAt4oYb7gU4H6DQO/YW4D7HVeAtrMX4NasqAC3Zm0G+ghwD1RkdN0LcI+u+nhrawS4NUsowK1Zm4E+AtwDFRld9wLco6s+3toaAW7NEgpwa9ZmoI8A90BFRte9APfoqo+3tkaAW7OE2gJ3cyM0Dpg+J+WqbjqgZmtGt486cLe3Ql2dfDY2Qrv0Db0OD/FyUrO4AtyatRmTPgLcmqvtrcHdDVb34YvP4aOJ8NClf17vO7i978OHH8KHf4I//BYMTPuXX9t3AtyaFRXg1qzNmPQR4NZcbdoAtzQbMrcEMn1h0nyo6fuA9L3vcUtrkVdUQE0VHNwAlqGatdaGjwC3ZhUFuDVrMyZ95trPI6IkYkzarmuj3xrcKgbGuoDBZVBZBrsfuFV4rhJrBC41ZKyydMygjFA3VNITMf85bDusXG+lx1EHvwLcmkUdKXB3d3XT2NhOk7TWr+rR1dU7VNbZ0UVraxetbXLj09AEVWOrvZ6g1nWcOM7wXEJEo8q31OOk3IMpprbAHeMLpy9AXd86Worse4ZKcnMT8beEJ659VkW5w1NHcHkAH30Mn34Kn84DF39YPEm+/3omWPr2xRnOVWctGByBYuV+ndLa3pfPQG4jpIfDmuVyXqvWQ6K0wm0rXDsKX38GX86EK5YoNnaeOePVjRQU9nTBvk3g/vZ7dbyxeALcmiXaHXWCR3nDX7pZc8p9PmVJqaxcYcIxA08O7bXhyDk/atq6yY9L4ugeK3busiU4sYo433A2bTRh51Zzpsw1Iaas/xLQfSm+/mrcgrve15e7M35BwtlD0DmAKq/XbFz4SutxFzUMWDRkiCW3vg8rdkJEOuQV9e9xd3R3K9bjzshOpCwWVm/p29HmzA7wToFbO+GGuTzkUFICkS6waoV8H2oBKze8fU/2zE54ovwDUBwJm/dCRR7MmAhGLpCaCgEekFIAN/bAqh2QmArJMWDnI6/bLYE7TmXNlR6ZntvB+hH6Cv3089McDznek/Wo+K22tSV3yxYqHz58Z/a0ZmZiteQTfNfPp0Mau9LRkewZwvcG/srUOzDcacw9x1RMrjgTkFJDXXYaa3faUtXSQm19A6F2nnxv4EPT65axfI2t7wzcL1teKhbqL6ovYiTPwqZiikK8if7bvyVRuSZ3zpEDFDYWK0A1kraM5rymWU0jrDiM4obiV+unoZj86lyqivJoLCqmvqhI7bl5ahG//XkRf/jXIv7z10VERMvhGoqKqMzOZta0aSQmy4t87VoPocXQWQzrlRC/sxs+mwzSjm4nLaA0AT7+jXw/Ywpcs3xNyx6kV5I7bFXC1eQcGPmCzxPYe3NAApUwfxGUDnCWbqdNm0aQmxuNxSpa5BVxYn0RbgFFNBar10fSTdKitrCAgopsChuG9yxIdbTbbzc7fHaor68Rf8ZKKLS3UKx3L617Ly0pnHfrqvyMjZAt0vNcXJRG0m9+o9hERFq+OXP69CHtAqWmqjU6ZQVFsGq9E0FB+YQ/z2L/ZjPcXlTSoewUpniFsOOEj7zdXns9h3eaE1+mZrqVxhz6e7wTcOfW5vLxs4+ZZDaJyeaTR/T80mkq+1f/nHhpHe4JExTwtvznv2GG81xm2s5ips3McX3OspE1+Mdb/8gk80nMsZ3zih6z7Ocw+ennnF49EeeZs7GZOVPtaTdnJnazXvWzmzUL02nT+PgnPyFBuXOMy124ZgVh1nD2gdxIr+6AzQfAxAQ8oiEnDOZOB2nDIjtb+HYl+L3tSFcTbNsAecVwYDuUtILTTTistKH3cSmD+cuUS7/2OsoXepMnc/qTT3CeM6efDtazZuI479Xyq+rlMHMWjxfoMenqH5hk9dWwnoWpVlP5+d2f87MffoZ0PdLPlCI/i8lMVp5fuEzn7PR/JFnZMZJ+73zwY750nCqHGfjM98RVdVfnNlh/i8lMstdj5bkPCVVuMvFCet5/9COkLQt1ceSGRjJ7oRF3bnoz9c+XuW7ft7dsvHcEW7baki1tUAokuAex71zwW5nxTsD9ouQFn5t8ruhxlzSUKHoJUq9hRM6mUoojAoj5n/9TsQuO1BvIP21ARUsVFc2VVDRVjOuzsknWYIb1DKLKoqhUo4nkVlZXQm1FCc0VlTRVVKg9W6oqaH3ZdzZXyuGaKyupLipi9owZvetxN+TBtnXw3XqIUG7We24DWKu072RPWLsOpD0qpE0U1s8Dc+X+kW/zFFhehzWrwEC5G31pNHz5GbhGgLQnQXIU5JTCqfWw6QSUVkJZAQRGykvJzpg+jVBvb1qqqvp0qKxAKn9PmTVpJOnXWFFO8cv8Ybf/0sZS9vjtUfS4pesReY4GPK/Sc9zzLBc1l1LkYkv0X/0PkpQdpIL7tyiWnr0B8aR71bg9/urcevw0xenxV9jRVEppaSbJ//WfvZ20rLlz6W5XfUX+Nq2mf9wUzxD2nZWnDpUmJrJ8lRlF9R3EuoeybosNWZXSmvryq8g7Jyww8Xu7te7fCbijSqOYajm1f8lH+K4hJIT8PXuouHt3hHMeG9lpY8/J15W0Z8/JRJWx4fPrYNbGvlj3joF9UN99eRJ89jv4059g4iQ4fgtahvtavi9ZqjPgT78Bl5g+x0AbuXcv5bX0G4jOhc5KeR/Mv3wEX02Dk0/7Xk7GJozAG8g+8165Oh16muPBo2uMu9zJnhuz/53sR7dfsXekHNry8jBf+Rk+25bQWVOjs2yzQ2M4e6NviWj7Wy5cvh/Krm8eMGelOXu/N+fUD9IMti5uXHIhsrBv39nhGPXOwK1nqUdn94BpM8MpgYijEwW0NatEk3E9s0pUwd3d1beZgRSvswP6Tc3rhpZm+WvEhuFvCqTWpDZ1HbEuOa+Bfxsa6qCxZyYK8LrpgGoz04HjaJxVIu11McVjAdldb9e7fFu5dkWf4FG+9dsm89r43Sq7XPUEbG2T+dbZ2klFRRN12uhlKBMX4O5RWfz2U+BdgLufAWPoRoBbfWXVt9UrNpzOqslSH2CEXEdqHnd+Ug7m5rHkVMi96bbalzhZx/E8Qf7DVVtcjq1NPLZ2yVjbJlL4UuWvf3M9Bfm1vYqUZVfR0tJGtH8SNi7pin1X89OKKayQpw8KcPdKJS5UFRDgVlXj9dcC3Or1GU/gTvaPYMM2S+7d9WfnfhdSMwo5vcuEuz8EcHiPOc5RFXjcc0V/ox0OTrE8uuXOqg12FDd3U11QyJqpV9h3KU4Wsr0B4yf+PLvrxX4Ddx5ec8LwfgyOD1w5/zRNEUaAW32bG/euAtyDbwIC3Oq1Gk/gTo1KIyFfHr87t9ccU/dkQiPk7yAiHXw4aZyA52Nfnjgr37zTxkb9R0QXthDsEsi2zcacfSBPjX2ZmY6JRTzuDkFcfZZIlEs4xy+/oCAllYMXA+lsa0CAW32bG/euAtyDbwIC3Oq1Gk/g7lEg2NqHnce8qFe+vqvOzGbHBlOSy1rxfeLBjEWmHN7nyLcrjLlhHEtTp/wGJT0wAoPbsYpkIl1DcX5RTFrwC9avM2XbemMumaZAew2GZ30I9o8R4O4RXPz2V0CAu78er7sT4FavzvgCdxe+lv4cPuuP9FJWOspS0jmwy5bIbLknbnPdhVO3I8lMyWXryofYhvS9tI11D8HgjjxU8uyhDzmlLzm3w5zkBimlNnZuMiGvsQvbZ+7s220lwC1LLP4dqIAA90BFNN8LcKvXZjyBO9jck//68DLm9lG4e6SSl5bFlE/Osv9SIO4u0aQV1WF12YlLz+Qx6rrsdKZNv0e4tDAOEOnoz6HrcXQ1VXLjWgBd3V2YXbbn5M3nOFsHsOOAm2K9nzQ7T37/h1sC3OqbnHDVBrhzo+HgDli/G+IHbFivbjrgWFVdE7jrCuH8IdhwDKp1PPN1NE4HHE/gfuETz5Vrwdy4Hsi1W1Ekxedy63owt26FcPmSP6FpLylILiA2tbq3mUf5JRAc91JxX55bRETiS9oaaohKVS6s0NGIg3EIt+6FU1Qjf3XZUFqGlXu6AHeviuKinwLaALe7MVy/Cw8vwlfzoUoFXu87uOvyYNVcMLwNz5ygUcfrmAlw92u+/W5Gajpgv0x1fCNeTupY4LGavDbALZW9Kg/uGsKVe9Cq8iXL+w5u2yuwdD1YWkBMuu5bgQC3Zo21Ce7qxERK/XtWAXw1z86WFvLt7elsU7+AVFlwMJURb78HgAD3q9oLF0Bb4I72gpXL4OIjaFLT405KSqSrHUpL5bOl4x3I3wEFBdCkkndTA3Qoe8ldndDcBNVVcriycigugoIikD6OU7ce9/k9MHc5rF8HX00GIz/dlkuAW7O+2gS351dfYf3Tn9KlYc2TQhcXHkyYgAR4dYfj73+P+1/+os5rSG4C3EOSSwuB+33DrYX0dJTEW4O7C2rr+oyb8wUkysN5CseeHnd6ViLSAlMf/Qf88r8gQtqwYASPpABYMAM++gj0ZoK9couxI+sgXGlLWRIcOQSnDsvh/u1f4Hd/gI++goQyWDz/1Y0UHhnABQu5IB4/wPqzui2UALdmfbUF7hwLC/xmzyZgyRIyHgxcPlJaQ6qbwCVLcP3zn4k9/uq6MYXOznhPm4aXnh6lAQGaDR6EjwD3IETSVpCXZmYkf/QRqZMm0RT+9v9d0pZd6tJZ4rBEsTKgOr/Buj28CYtWwYIlsO+2vJJeT1xp1GTBokXy6oDdYHsNzt2Hrm5IDoHVC+GbrSB9BdxaA0d2yD3YIOmlfBvcuQmH9sLiFZAszapqg3tnYPYcuKnc7CTBF5Yvhm3HoEbl6+IeGzpewvIZYOwr7ToPCX4wfTYUvIT9+hCUJ4csjoE1G6ChXQ63ZzE4xsjXkr0zZkwnMb3/eEhDubzi4AJ9WLAGXqhbyLvHEC38ng87z6nQU1pISbtJSB2AsibdLKU6WEuPBR3DIkX5V3SwkQaE62puxvmPf6Q6IYGa5GRcP/kEaVhE9ZCGSPzmz6chLw/3iRNpr1PpuQDeenpIQyVSr9xvzhzVqEO+HrPglpZwtE+3xzLVctSf5hlWuPndV6wHLC0jK60NHPWbX2KbaIFF2ui0/09Gf+Jm9E2sUq1e1TfNCrMEEyLdrMi2cyDD3l7tGfvYnvub7Hlw0J4sV3uyVMIlWloy5dNPSVSuqud6D26Yye13yWQ4/whszSE7D87sg72GYP4IVm6B/EKYPRnumMOtI7D/GoQ7w5fzwNYRbD1BmtGyajEYW8LxzXDyzqvPRqYfrN3f3/3kTjALgFNrILRA9iuNg/Wb+3boOboKvORZXYoAU/X0sL1woV/5clztib1vz7Xv7PG+b0++q3qNMu3sSXa0wTbaFLtMe+wzhn46ZDiw1HEpixwWIV0PJw1dxDFLMeNDow/5IfaHd2aTpIe0Kfg2722D0kaqA4cUW144mJJpa9fbrj0XLSJ869bexhKwaBHp9+713ksXXlOmUOgq78EXtHw5WUZGvf4Fjo6K3rbCobsbjy++oNSv//hZ0fPnpFpaKvKUnis/PzOs06yxz3y1TscsuC+GX+TX937NSueVLHNcNqrPJV4r2GU4RQHsmAkTFDty+P1fE1httYSlLvqKh0568EbDKWkp2fHT2z9F2lRhudPyV+1y1meh5Rx+2LYIz+UrcV6xQu3p9s0K/DetwH/DClxX9oVxXbkS26VL+fPPf06CEtxej+G2slPkbw9Hj4HhHcjOhcV/hKlzQOqkfL4YEpLhkHLooTYFdhhAXRXcvgInjoBLEERbw69/CXPnwPSvYa1yre3eJwkoDIMVW1RdYN934BQFJzdDhLKjKOWxbmMfuA+vBI/kvnjSRgqGU6bgtXp1Px3c16wgcPMKvNb0lX2gVm4rVmCxZin6j2ey3HUFK5yHfn7r+i2/f/x7fvvot0jXw0lD23FWuqxkieMSfnL7J4rNOFa7rH4ndq1xW8NvHv6GT4w/Qbp+YzldV7DaTp8f1szCTX+5oj6dli/HceFCmlW2PqsIC8P100/plP6rBooXkt7Tp/c2CmlYxG/u3N5776lTKXRy6r3PNjXt51+fkYHRv/wL9kuX4rxypeK5OnhiNkucFrHCZeUrdo9ZcEtrDxuEGvQKMeovOrrJXriQ2AkTiPmrv6bswoVRbfIi+0WUNJbozEbpPeX8hQtJTkmisxkubIeNh6G2HgLcIdAHNi6E68Zw4RAcuAS2tnDXAgrSYfN+kNZgKwiHzUchJx08fMHRGKbPhRB/WK0PxtZgaQJO6jZcaIUdS2DnOQgNhYfnYaY+NHTAveOwYrfsfnQT7DDsk2L3AnBRWX5bmscdn5TUF+AdXJ15foYTISfeQc6as2zvamee7by33rtUcw6D8zkceBjTZNPBBR5CKP+FC3vHuhW9bReX3tjSy0uPSZMUwyYlPj5I4JbGwHuOro4ORa+7LDBQ4eS/aBHJl9T0LnoiDPgds+AejS9jBmj7yq20+8bFc/OwNx39f3CkscncugFfzbxSouE7tLW1MW/ePNIzE2nMh5mTYNIMSCgCi8sw5WvYdQKklS/ry+DQFpDa/ulnUF8Fd5/KPeDKdLhvCcXZsG4JTJ8HVsr3Pi/cYek8mKcP/vHqba0rgeM7YNIk+O57yFD2spur4cwu2V3ak7JcZf3vx+chUjn+LaUqgTsmRmUXBvVZ6dT1ZMhJjgaN0M7EgyxJQ3uDYlnX7Nq+bbwGGVWrwQ74H+BpwlOtpiklVv78uQLIUu/Zd/bsV9JPOH+eqH37FC8zpR74wEOKF7xyJUUeHoox8e5OlWlXAwMPuBfgHiCIrm83hu3lQba5rrN56/TfelbJGyzomVWiupHCG6KMWm9NX06OpMGjsSMzHr6cDPn2W5781V9RpmaWSHNpKWY//jE+M2aobQoSqKUXlqY//jHlIer+S6g2msJRgFuzNjrx2e69nScJT3SStjYTFeAevJoC3Oq1Gg/gLg0M7DdWPVCJ5xs2kO/gMNC59z7L2BgJ/kM9BLiHqthbhhfglgUUPe63bEgDoose9wBBVG61NY9bJcl3finAPcJVIMAtCy7Ard2GJ8CtWU8Bbs3aDMlH2uX9bTcLHo0NdTAiCHDLKglwD6a1DD7MaHwexsNQyeBrSLshRY9bu3q+MTUBblkiAe43NpUhBRDg1iyX6HFr1mZIPqLHLV5OCnAP6ZF5Y2ABbs0SCXBr1mZIPgLc4wvc5w/DXd/+TeR9B3ddPsyZBl99JZ/u8naC/UXQ4p0At2YxBbg1azMkHwHu8QNuD3OY/QUcf9a/ibzv4M4IgkXrITkZYqKgrLZ/+bV9J8CtWVEBbs3aDMlHgHscgLsbglzBNhRe2ME1y/5N5H0Hd144/P6/Yc8ecAvrX3Zd3Alwa1ZVgFuzNkPyEeAe/eCe6baYnCbl8nhDql05cE0m/PM/wawl8OUH8OtPIU5lre0ecEsbKUhHSgR4ekCYckihLA08PCAgEAL85Os85dKoZang6NZnVHQoePhARQ1kJcthA4PBzwc8vKFCsVN2X3jVq4p8OXxIJLRIGyd0QWwEVNTLoeqrobgKOpogNFAOG9d/BVfFJ+/R0dGqydLZBMaP4MplmDkVTOQlKfqF0eaNALdmNQW4NWszJB8B7tENbmlNlY2XJ5FflDKkelUN3FoP7q5gbQn7v4WFm6FUZXniHnCnpCdCI0z7OUzSg2l6cOopBDwGPT345b/Cv/1OvrYPknOwuAZGPtBWA9tXwfSZoDcD1n0Pxw7KYX/2D/B75eYIERqWXLG7C1OluHowZy4cugF1lTDxj/DdGTmvEGs48QRyguAX/yKHnT0TVu0B5f6tasFdXd63o86ZTXBWx6scCHCrtr7+1wLc/fUY9p0A9+gFd3tZGWmffUbYX/8PEn7zG7pSMoZdzz0R47zgoZoe58IlS1CAuxzWr1GGLoWvZ0PPkPADQ7guL3GsCNDdAAZHoL4bHp+AdQZ9GzTUvISeZXrOrQeP1B4LXv3Ni4BpsyCjos+vvQWqMuHgKdi1C8JyIcENThlBvDMcVK4N1tUIh9bBCeUmKDNmzCA5J6cvIaAkExYvgy9mwdZzir9N/fy1fSPArVlRAW7N2gzJR4B79IK77OJFwqSlZydMIH7CBKym/JrvvDewwXMDGzyUp+cGvvNcz9Pj6/H9bgMeG15/Oq3agN3qvjCeGzbgtGYNn//iFzK4m2Def8Lq7+DbpXDbGHoWwLx1Bi7a9DWvFB84c1u+360PIfl9fqpXBmvAPkrVpf+18y34/obsFuML6zfBTXOozoODlyEpHPadgVBPOPcMElxhz+G+NErCYd1O+X76lK+5Nm8e3io6eG/egOWCDfygtwGvbRvw3dxXflW9vNZvwGnLdxyx3c7R58c5FnyMI4FHeBj/kI4ulU0w+7JWeyXArVYWhaMAt2ZthuQjwD16wV1+44YC3Ip1wydMwHXBZ5yOvsDp56c5Hao8n5/mZLABjndO8uLUaUJPv/4MP3eaiHN9YcLPnMH/xAm+/N3vSMlIhHpY8hmcPQ+TJ0KoypKpA8F9/xx4KNfCPr4O7niob3pvAvcLG1is3EThpbQT/Tn4dCnk58Cuk3Kad0/Btl1ww1bucR8+3ZeX10PYqRxOmTZlCg82bSLq/PleLZ6fPs2Li6eJNjxN+Nm+sg/UKuz0aQLOn+KO/yVux97mdsxtLoRd4Ff3fzWkdawFuPvqZuCVAPdARYZ5L8A9esHdWVND9oIFBP7ff03Snz+hO0dDl3aYda8abcHixTK4y2DZfHnIozAaFiyDF8olnA0PwwnlGvgtpXD0ONQpu+PJAfDpZ3DuOty7DwYXIbdazmH/IrAIV82t/7W0ecMOfVi+A54YwbPrMGsDFGTB+n0g9XXrsuD3/wf2P4Y0T5g4EaTdqi4ehy9nQbTy3e30GTNIyszsn8Fb3HXTzVcWX5FXq/IX7A3pCXBrFkiAW7M2Q/IR4B694O6pyNX3p5Jf3X/ctsdPG789LyeTU+SXk+bP+oAc5QXGyl2egr3AN07O0d8Srin3peyxISsaDmyBVevhmVPfC0EPM0h4w6QYaebH01uwahUcPA0phfILT1t3aFdmYHMbHIOgvgi2b5DDHjeELGmDYuWh7WVdX7a85EvzL8mXvuIZ5CHArVkoAW7N2gzJR4B79IN7tssicqStaXR09IA7MUGeDjiYbIxvQKzKlMLBxBmJMALc6lUWi0yp10UbrmKRKW2oOIQ0xCJTsli94E4cPLiH8K5uCDXy9kEFuNVrKMCtXhdtuApwa0PFIaQhwC2LNRxwD0HmEQ0qwK1ebgFu9bpow1WAWxsqDiENAW5ZLAFuzY1GjHFr1mY4PmKMeziqqYkjxrhH/xi32HNSTcPV4CR63OqFET1u9bpow1X0uLWh4hDSED1uWSzR49bcaESPW7M2w/ERPe7hqKYmjuhxix63ALeaB0PpJMCtWZvh+AhwD0c1NXEEuAW4BbjVPBhKJwFuzdoMx0eAeziqqYkjwC3ALcCt5sFQOglwa9ZmOD4C3MNRTU0cAW4BbgFuNQ+G0kmAW7M2w/ER4B6OamriCHALcAtwq3kwlE4C3Jq1GY6PAPdwVFMTR4BbgLsH3ElJSWpayNhyEtMB1deXmA6oXhdtuIrpgNpQcQhpiOmAslgSuOfMmUNaWtoQ1BudQadNm0ZU1GsW/x6i2aLHPUTB3hBc9LjfINBgvUWPW/S4Ozs70dPTY+LEicydO5dZs2aNuXP27NmKPz4/+9nPtPoHSIB7sCQZXDgB7sHp9MZQAtwC3FIjyc3NJSIiYkyf4eHhJCcn09bW9sZ2P9gAAtyDVWpw4QS4B6fTG0MJcAtwv7GRjOMAAtzarXwBbi3pKcAtwK2lpvReJiPArd1qFeDWkp4C3ALcWmpK72UyAtzarVYBbi3pKcAtwK2lpvReJiPArd1qFeDWkp4C3ALcWmpK72UyAtzarVYBbi3pOa7B7buTJ0lPtaSk7pKZ77CQnLpc3WUgUtaowLDA/fwkR0KOaUzzXXjUtzcwx24uWbXZ7yL73jz3BxzgSeLof+Z6DR7EhfgAZxAiaTPIetd13I++q80ktZ5Wd3c306ymkVWdqfW0RYJvVmA44D7of5A9PrvfnPgIhqhtruEr00mkV77bj6x2eO/gfuy9ESy57rMS4Na9xv1yuGuwFm+rH/q5jbabzrY2Dq3+iKLs5NFm2riwZzjgNrl/hEfXdo4qfRprqzm08S8U5aS8U7vu39yDi9Xtd2qDtjMX4Na2om9IL3DLTlIeju4x7s7WViw/+JSXKalvKI3w1oUCwwF37PnLRBw+oQtzhp1me30DztPnUpf1bodKgo+dIubeo2GXYzRGFOAe4Vrx3r6dhMePRzjXoWUngdv400+pShXgHppy2gk9HHBHGBoSfGx0jXG31ddjM3s2NVlZ2hFmmKn4GRgQ+fDhMGOPzmgC3CNcLwLcIyz4GMxOgFu7lSbArSU9x/OsEgFuLTWi9zgZAW7tVq4At5b0FOAWQyVaakrvZTIC3NqtVgFuLek5rsG9Y4cY49ZSO3pfk3mvwD1njhjj1kFDFWPcOhD1dUl6btlC/Ch/USK9nHz2ySfi5eTrKlKHfsMBd/iFCwQeOaJDq4aedFtdHVYzZlCdkTH07b0M6wAAHxdJREFUyFqMIXrcWhJzPPe43ZcvJ/baNS0pqZtkOpqbMf3gA14mi3nculH49akOB9yhhw8TsG3b6xMeYd+WqiosPv6Yl+94ezoBbi1V/HgGd8S2bWSO8umAXa2tuH76KbViOqCWWvzQkhkOuJMuXiT26NGhZaTj0O319fjOmkX9CEwHbKqqIi8oSG2JBLjVyjJ0x3EN7u3bBbiH3mTGVYxhgdvQkNhRNo9bAe7Zs0cE3MVRUVgsWaK2nQhwq5Vl6I4C3KN7VonocQ+9TWszhgD34NXs6ujA//RpzBYs4M4HH2C3Zg15wcH9EhDg7ifH8G8EuAW4h9963v+YAtyDr+Puri4KX7wg/PZtns2YQaaXF9KwieoRcPYsMc+eqTqN+Wsxq2SEqzBy715yzM0HlWtRdjEhoXlUNXb0hs9JLiQm9WXvfUdDPc9Dc6mob+9108aF2+ef01RUNIikOkiKyed5ZDGdPaG724gJzyW/okXhkpdWQkhIHmERRcQlV9HW3RNQ/KpTYDjgTr15k4SzZ9Ul94pbTUkFISG55Fc29/q9LCrvV4cdjfWEhuRS0fB27cp/wQJayst789F80U5idB5h0SV97UgZuLKqgS66yE0qJiQkn/CIIuITq+ixrLaggOjHj3kyZQqlcXEUhIcret1Sz7sgIgKbb77Bfe/efu6SX8+Z7e9PZZrqCoaSLfmERRbT1WOw1KbD+tq05JydVEBMSmVPiBH9FeDWgdwtlZVk3L9P2p07pP3wQ++Z8fAhLn/6EwFLliBdq/ql3r6tAHp3hwTpbuweerDvqCNXDF3YtNGciJwaIlwC+X6/LccPWWHqUUBLYxXnDWy4ctWTvYddya7uacqDK1RVTAwpt2/3syP97l0kCJj//d8Tc+SIXA6VMkjhS3x8FBl01FdjeNQag/PunD5hzbajnpRV1PHwnC1HjjlycJ8D4WnV+Fr6cfiIPTu/vctfZllS3Uv4wdk53kJpAndHUxNZRkakDmhXmQ8f4jN9Op5ffol03a9d3bmjeKcijTdLR7BjCLv22XLlqjubv3uGU1g5xUkpbNthjsEpO84/jKa2tobT+8wwMHBm935H0spfv4P9y9jYV9vRvXskX7mCzb/+K7EnTpAuPQ8D2lG5ckijre4l549actbQg1PHrfn+kCfl9XIjyQ54zif65tTRgfszbw4fdWDbyjv8ZZY1cokg6MIFTOfNw3rlSqz09RWnpb4+0mm1fDlWK1bI5/LlCrcev55fk7lzeXFXXmq5vf4lhketOHnBXWHL9mNeijb94KwtR447cmCvHfH5DYQ7BvDdVmtOH7fF2DmTke6LCHDrgAoNubmEbdpE6Lp1PF+/vvcM27BB7bUUJmTtWmIOH0YCd2F0PGs32tGg/HOfEhqHa2gGPq5RZFa2E2njx5V7cTx3DOLEeX/cHWNxC8yirnVoRCz28CDom296bVJrq4rNkr8UPvOJvLqh4w0nDlyO6lXQ1Tac6OhsHG1jaWlv5baBNSaeBb3+jwztcQgfTO+rN8q4vNAE7raaGiJ371a0FbV1tX49qm1MCiO1wYjt22mtrKK5tJBV35qSVSs3rIq0DOw80okJTiAwrpKyzHR2GXiSn5PP3kNOVFQ3cG6nJe7xta+thyI3N43t6Pl338ntS007yjYxUaRrcd2eQ3fie/NwtgwmsaiNxqoSrh42ZvlhZ4pV/nbcP2eLa3T/4ZDeyG95YX/NkYNXX23TTnZSm27h1glbHH0zOXHMkiTFfyhr2bPNmvyGkUW3APdbVrQuonvcdcfgRqzapMtiklgy5RYm3nkYXbJm+kY7bC1C2LHDltRyeWhCbUStO3ZwcocprnE9/Z7+GXhbejFt1gNC0+WHPj8ikk0HvOgb9OkfXtz1KaAJ3H0hhneV4hXC9qP+6iPXV7Dn2x/YeTaMjpYGzn5vxIatxqzaZEehsverPuLbunZxbJsRnolN/RPqbuLJLU/isoq59MCHEmXDyQqKYOtR774hjP6xXrmTxsDbm5roaGlB2iDk9Uc7BttNcYtvUBvM09yTabMfEZtfj/VdV45dCcLVyZ8li43JqH5T2mqTHLajAPewpdMcsautjYa8PKSe9ytnTs6rblK4nJzeMeVIW3/2nA7tzaC+IA971yTKK5SQrC9h3/fWHD5kyR2XEkU44/O2PHDP740zmAvpv8/12dmv2qPJ9txcRfhWxcufLm4dseCpb2lvVonBCfhH5FH5Un4I0z2CWX8wQOH/8KQVRj6yrb0RxIVaBTSBu7uzk8aCAkVb6deuVOtL9VrZrhrz85HilsXGseF7t748GypxsI2jsKKOFgV3OjA8YM25k05cuSd3HJwfuHDB+PXL+7bV1qpvR8r8+9mqfCakdie3o26uHTDFLKivB50UkojZA3dWLDPB8II3E6fe4r5bnsLu2waWmAWW9ZVhwFVrfT0ZHh74Hj+O/bp1OGzYgPGsWZjNn6+4ltykWSg5/v4KmPeP3sXNIxY88+9LPz44Hv+IfKqq5Tad6hbE1hPBVJaWY2Meia9vFEe22ZFbL8DdX0sNdwYhBhwJGl2f+PaYKn244jNrFt7TpuEzY0bv6Tt7Nvb/8R84f/ABvnPm9LpLYTynTiV07Vqkz83b66rYufYJ5m4ZpCbmcmjTUx45JvDgrA0PndOJ8gljl4E3Id4v2LbHhcioTHZtNScsR33vt8eugb951ta4T5nSzw7JFu/p07H66U/x+PJLxQcUqmXwmDKFxAsXFEllh8WwarU5ITH5xDyP55vVpngEpLL3ezNCY/Mwu2LP2XuJ0NXC9q0mJFT1vuoZaIq4V1FAE7hbKysJ1NfHa+rUfnUmtSXH//xPHH7721falde0aUgvCJuLi6GzFYNdxhgax5Gels/No2acfhCLl4UPR648Jz42g33f22NnGcreg27EJ+Zz+bA5D1xf3yHIsbDAQ0+vn00+M2fiPXUqNj/7GZ5ffaW2HSUrvyBOC45kxXeWhMcVEBMUwzerjAhKqqS8rIqs+BRWbnvGi6JGaKli9wZzMutebUdNlZUKIJvMmYP1ihU8v36dHD8/xctKpy1b8DUwoCQ2lixfX4INDbFcuhTT+fMJvXqVtsbGXvWznkezarUFobEFxITGKdq0p9Smd5nxPDYP08v23DJJxOq+K0/ccohwC2LX2QBURnJ609Llhehx60BdqXcj9UKkMUnVs72uTjHmmHLjBtK1ql9bdTU9L5Akk6qLC7l90Y3jR10xd5f3fmwsL+HGORdOGvqR9VJ6EdmFv20QBw854RI6mBkg/Qsr/ZGQ8u1nR00NLWVlOP3xj1SGh79ajupqpJdkPUdqaBxnTrly/Iw74anVCueM6CROHHXkzrNo/v/2zvypjTPN49qp+WX+gKn5Ybdqaremtmqz+8NcmcRxJslUZTKTjDf2ZnNu4jiX4/iSMTe2uY0x4NvG+AIMGCxAHALEJXMjDnHfmMOAOMwtBAIkEHy3usVhbA5JbgSNHlfJiD7e4/M8+tD96u3uSeYUd0qFyOgqjFn2oGSxibz7uZa4MT//Yt6oVOyyag8Pdvx71bxSq8EMGTD/tGOjCA7MgId7Cu49rIGWXajBwzsynHZPhbzeMGNJnlKE06ckCE9s2HAWEHOG+UIejY2xZweZf/0rhisqVs0j/dTyrJbagiqc9ZbC2ycdZQvDa4bAaSGR1UHN/KIegkhUjcnn8qgpORnhe/Ygx9sbQ48fG3Z75v9cHx9UhIU9s8Tw9mltLdKdnNgvNjsLC5fWNxZWw8crBe7n0lDabMjpx+X1cGdyOqKSZTY9NoTAcynwupCLvnHLDwCSuJfCZZk3ChsbdmaAZWozs5a5OUh374a6lR4WbCbBl9ptTXGvUyozg4OR93b6p5+eRvbevdB0GoY5NqttVeHh7Fzutcrf6AIcZu53Q1zcWrtvy+UkbguHhfmG35h7lYz1P8Wd6+nskVF4fCM7Z7VQUozjJ+Lh4pQA/8BiqHVz6K5pxgmhGC4uEpz2zkTb4DNHMYU1EBcoAZ0alzwS4eQihe1xMW6IFu7WNj+J+NAyDEyuPPU05crJ1ooG+PumwtVdiqwqZk6rDsFn02DnIIGdTTwiUwzyT47Mg9AmgZ1OdemeAszUdO3YMO5cTMWpM6lQtDJfYs4hW5yP0y4SRKQYjpwGHrfC300C74BcdKtMm+5o4dByVp054q434ZL3pvwa5JYYxnE1w/244iPB2Sv5GNIs50GuuBgFG8wm2ajDJl3yrp9AYmQ5htlTgHmUpJfCySkBkvzlWUkzg30ID63A1HNH3Bu1YyNxv7D/nAZxCRUYXKioNq+C/cyJMgy5PNLRCR+3BFy6o8D4KhclzAz344xDPBwck+FgH4egqEbMadW45JjE9snvtmHWSrmM6WMiUop6Mdnbg/tRtUtNmdeoEBZehrE1DuZJ3EuoLPPGGHHPjPTD/lAYRGktaGnqxDmHCETmd+K2WwwuPahBd2cvfO3v46KkC8WSbAj9ZOjufoqkW0k45CRjO6Id7ceBvwdAeLsCmNehsboN9dXNOPRZIMIe9UI7Oopzwrv4z/+6g47nzj2NFXd7URW++yGGHQ+sKavH4aMiVNW2wenbCOTVP0V7Uxu+/zYUFd2j8HUMR1BiO5QdPfA6HI47qU8guZ2Ei5G1qC2vhdAxBblMIp9KQ129Em6O0UgpasLlU9FILelEtkiGk+fzLD5f1jJZsbKWzRP3HAqS8/HH//CGb8QT9nqBG+7RCJE+RlKwFGeuKdiGDLQ04v0/+SA87eWmbhor7omhAbgfDsLvdoVicB4YrK2D0C4RCkUr7IRRKFEyNtfjvk8IPvgwGqbOvDNF3JNDA/A6fBu/fycUT/XAZFcbbE6IUapog6dDNOTVSlx2jIGkoBXh/mLcFDWjt3MIT1U6YH4Gj5sH0Vlegy++jkR1fSfqatrR1jWKlsJyHD2eAHnRY7T1jKK/ugFCIdPHNpy2iYGiugPCgw9QN2QwdV1aHk565mJ2jT9SJO6Vn5lN/01x4sTSPOi1KiuNyYKd1/KYG+a0GB6bwm33GBx2foTQkFIcPhaJ/BY1KlPy8OmPcQgNLYOTXTSCJMxRgRbRYdm4F5GDm0nL0wpb80rh6G+YraLu6UNuViU8nJPQOLxy/jcr7t27N7g74ByuOkbh/qPlWSXaCQ3Gh3tx8vP7CAgqQ/DtbAhtkzE4pYO/8wPYeBQiNKQEx38QoahhFMOD7MglMKTEkWOxaOpWYZw94gL8TkUhpkCJwSHDF0ctWYUQ+uSQuNdImoYLF1Dt7r7G2oXFczMoKazD3etS3BB3APNq2LrGgx3VHu6Ei0MGVGoVIkOzEHY5BWk5g+uXt8FaRtzZ+/axM07W23S4qxsymQIuZ1LQPw/kxMhwMd4wkyXpRhKiHvXjcWklwkNluHU+d+nCm/XKfHadKeIeUSqRmV6Oq85p6J8DapOzcTbQcCRcEF8AV68kuPkZDo40DfU4652D2xekiJUPA3OjcHFMRaWiHifs0zA4rMXwiI6duvjoQQa+OPgAPu4JiMnqRn5CHi5GGm6bnHpDioiMHshCpLgmbmebftktBtJKw/j6s31ZfE/iXiRhoZ/ygwfBXJ243r+MO+nwem4et3Zah5uuIghd0yAWFeKUjQh3xS0okRbgq6PRiBMXI8AjEZ5XCxEbkg6vSwpIY+UQnnuE4UlGzFp42UYis3H5G3RgBt4OCWh4TtzM2KT0tdcw1ti4TjNncdb2+XncekyrenHy/0JwLbQID4JzcfjHhyiqG8Qlt4ew98lBbFQBHI49xM1YwyXG2r5eOB4LR7y8d6EuPcL94+B9tWRpzndrSRWOHIpGY/fyMNA6DeP9KnOOuGu8vVHu4GBU34vjs3FJ1A7MjcD+fApYPYx2w8c+HqfOiHErsRlRfokIuNmIqZk1DvmMqIn50puZUTK24nLytXbU4LRzIp7OAZmxMlxPNwxLZN/PhKtzImxcklFQ2Aing2LUKJ/N4bXKW15uirgNe03iun0ye8RdGp8F3+B6dnFxfBFsbWLhGZzH/j7R2AyXMzLcvpIOSSlDcQzeHploqm/B39+5giPHRTh6NAaKtjH0tXahsmEIE+pRuAhjcconGSEyw5BlalA6AqKfQNvbBnv3HKiHnsLJORmq5ZGr5c4svCNxv4BkcxfIDhxA7fXr61bSU1aJ7w7FYzE9C0UZuBBagXu+ychaEK+mrhbfH0lBsqQAQdLFJ4yM4uD+u7gSmodr1/NgfzQc730ZiaYRHTTd7RDaJWGF+uY18LSLR/1z4mYepBDDPEhhXXEDyTeT4HSpbKEv87jiJkZsSjn8T0uxOO9Eei0OfncrcN0/EcULE1965XJ8bSODur8PrrYiZNUuzOHVTSE4IBGXw5bPEuryy2HrIEGXao3BvnVJ8nOlOeIudXNDgY2NUR3OEclwIcpwZuZkG4VWLaB70gx7+ziEhRTgemAufvzfIHxzJAMjU+vYY4PapkdGEPfmm8Y9kEM3CmfHBPTogWppHs7cMAzbhAXEwf9qPm5cycYlHwk+eCcQMdndG9S8crXJ4tarcNU2Cd0zgLKgGE7ehrPf2FupuBFeCDe7RPaz2Z1XBP8rpQi9nIzoYhUwM4iTR5NRVdYA+1Pp0LN3XdFjfn4OmQklKOs0nE76OovhezYJ565VsA0N847Fwyzm7EaPIL8keHsmICRx8TO9si+Lv5G4F0lY6KfMxga1C5eMr13lLKKDkmHrmAh/n2T8dDweLUNTCPOOxr4vI+DlHocDX4VAlNWLytR8vLv3Nry8EnHs+xB4Xlu+XLeltBIBsYbf6zJL4HBl+aIetm5G3PbxLx5xM48u2717w0eXMfPNfeyi4HpWCi/3GLj4yaGaUOHEviAcdUzAGYdo7D8oQn33GC44R+CTb6Ph5SrGga8jkCrvgt/xu9j1/j2c90nC9TtlyIrJwm9e8YOHrxRuXhmoqW/HR2/54eODsfBhklliHU/kMUvcFy6gYKOhkoWEyxU9woUHhi9/C2JzYXNSDLuTUYgrWDzrAfLvp0Hy6OXGuHXj4xDv2wdVu+H0f+18Z77THmW/AGzXAHr1IHwcouHiIoa9RwZGFv92TPfhmnvGpg6VsG1kxG2XjHbmsgidGhc9YnDKJQ4Op5MxqNEhMzQDtk5i2J6IRnGrGs35xfjhp2gEXojFNz+lob6yAQ6nM1cM61VlluC7Hx/A1VMMn8AyaMZV8HeJhrNLHJzc0tE/behkgzQHu94OQtsqc9Wf5UfifpaGBd7LhEKjHxasbO6BvEjJzh5hmjY6oIKiVAm5vAvNSsP4sG5cg8qybnZZVePKMUnt5DSGxgyXwU+qNBgYWRhAXurnHAb7x6HVrzwdZuZ3R7zxxobiNhSjQ015FxQ1i1ebzUP5eADFRV2Qy5VLdy0c6B2BosTQ9vY+wyXFT1oGUFnRy7a9soa54EKFqqo+FBcpIS/pxcDIBFoa+1Gu6IFc3on6J+vfM2OpWzx/Y5a4AwJQYOSDFCbVGgyPLV8y0lanRF27agU1jWoC6omXO8thxf3hh8Y9LHhej4GBcegWvm5h7k5YUtIF9bOzNvSzGB6YeOHugSsavsovJh9xz+sx0r/cFmgnUVrSiWH2ogSmAj17R8zWnuVL4zsae9DcPgKVehrTU1r0D2hWiJvZa7Czn7374eLfodnJhT5qF5cw8wh06OzZOM9J3KsEejMXmSLuzWzHemWbJu71SqJ15hDYbHGb0yZz9jFJ3OZUYOQ+JovbyHK3cjMSt4Xpk7gtDJyH1ZG4uQ0aiZsjntb8BBwSN0dJtIOLIXFzG1wSN0c8rVncWceFqAve3o8uY4ZKIl83doybo6SgYpYImCNuhX8A5K5uS2VshzfMUEn8f+81box7Exuc4+GF8rv3NrEGyxdNQyUWZp4uPIbqkGAL12padYy4w958A0NN69/O07RSaWtjCZgj7qIAP+S6ba+7ZerUaoj27sHoFt/z5pGnOxT37hqLnxfbkbgtHCa7u18hXHbVwrWaVp1WO4U9vn9Aa591TL8zjc7mb22OuC/Hn4Z35PHNb5wJNajHh/HJudfRqjRcwGLCrpxu6iY6johHNzgtc6sLI3FbOAJHso7hbt32PuLW6rV4VbQLjSN0xG3h9GCrM0fc58v8capwex1xq3XjeD9hD1pUhqsgt4IlU6ddngOC6w2P29uqNnBdL4mba6IblCeUCRFSu73HuBlxvxHxBpqGSdwbhHNTVpsj7oDSALgVbK8x7nHdOD4Uf4g2VdumcDK2UKccJ4TWkriN5bXmdtb85SSJe820oBULBEjc3KYCiZsjniRuOuLmKJV2ZDEkbm7DSuLmiCeJm8TNUSrtyGJI3NyGlcTNEU8SN4mbo1TakcWQuLkNK4mbI54kbhI3R6m0I4shcXMbVhI3RzxJ3CRujlJpRxZD4uY2rCRujniSuEncHKXSjiyGxM1tWEncHPEkcZO4OUqlHVkMiZvbsJK4OeJJ4iZxc5RKO7IYEje3YSVxc8STxE3i5iiVdmQxJG5uw0ri5ogniZvEzVEq7chiSNzchpXEzRFPEjeJm6NU2pHFkLi5DSuJmyOeJG4SN0eptCOLIXFzG1YSN0c8Sdwkbo5SaUcWQ+LmNqwkbo54krhJ3Byl0o4shsTNbVhJ3BzxJHFvb3HPAPhd/Ftomu3hKOJUjCkEVJjFrqT3oMSo0bv5NgbCpdrX6O0tsaEGwHvpH6N9fsAS1a1Zh225O4I7Y9Zcz8cV9CAFC0eNuR93eH24hWs1rbrBqAcI2vVLtPi6A7Nzpu1MW780gZ5bgbi9+1fouHHRqLJ0XV1I+/QdSPb+CdPb6DmhT8PvI/jP/4I2f29AvzV5NFVXh8Q9f0Du/n9gprfXKJ582IjEbeEoHUo/BJ8iHyjVSnSMdWyv16QSHfEPUCEQoEEgQLlAgDZfD3RMdG2vdm43bly1R6PEk5CbKFvgz8Thya2r6GDislod453oHGxB4+uvoUogQLVAgLpXXkFXTwM6xrcwZpPd6IgOY/OobiGP2i+eQ4dmjX6s1reXXTbRha7OWtT+27+iRiBApUCAxrffQudQKzrGO1fn+bJ1WnB/EreFxe0l98JfIv6C/cn78YXki231+jT7AC5//O+oXfiwMT/D/vhLfJaxH18kba+2bjd2XLTnM9nXuPm3Xy/xZ6R39+1/BhOX1cr/PO1LHAzdh3yBgBU3I6cigQBHAz/AZ+lfrbrPauVwvYxp79V9v8GitJmfoa//Ckz/LJVHTM4KL/+N5cFwYf6w5f2TAN+H/w8+T/1yy9hwxZrEbWFxz87NQjOjwdTs1LZ7TeqnoSrMR8UvfoFigQAKgQAD4fcxNTu97dq6Hfm9dJv00xiWJqPsZz9j+TNH3kMJcWDisnrZ05iankDLPz5gt2di1vzWnzE5odrSmDHtHc2WofznP2fbVSoQYDAyAlNr9mMTPgv6aUyqhtC0ezcrb4ZN26efsLx2Qj6TuC0sbj5UNyGXo8fDA6rERD40d8e1US2TodvDA+r0dKP6ph8ZQf/Fi3jq74/Z/n6j9rHERhN5eejx9IRKIrFEdavWMTMwgL7z59F/+TL0avWq2/BxIYmbj1GjNhMBImDVBEjcVh1+6jwRIAJ8JEDi5mPUqM1EgAhYNQESt1WHnzpPBIgAHwmQuPkYNWozESACVk2AxG3V4afOEwEiwEcCJG4+Ro3aTASIgFUTIHFbdfip80SACPCRAImbj1GjNhMBImDVBEjcVh1+6jwRIAJ8JEDi5mPUqM1EgAhYNQESt1WHnzpPBIgAHwmQuPkYNWozESACVk2AxG3V4afOEwEiwEcCJG4+Ro3aTASIgFUTIHFbdfip80SACPCRAImbj1GjNhMBImDVBEjcVh1+6jwRIAJ8JEDi5mPUqM1EgAhYNQESt1WHnzpPBIgAHwmQuPkYNWozESACVk2AxG3V4afOEwEiwEcCJG4+Ro3aTASIgFUTIHFbdfip80SACPCRAImbj1GjNhMBImDVBHgrbtd8V3gWelp18KjzRIAIWCcB3or7StkV/Pbeb/GN9Bt6EQPKAcoBq8oB3op7TDuG4t5i5Cpz6UUMKAcoB6wqB3grbus8QaJeEwEiQAQAEjdlAREgAkSAZwRI3DwLGDWXCBABIkDiphwgAkSACPCMAImbZwGj5hIBIkAESNyUA0SACBABnhEgcfMsYNRcIkAEiACJm3KACBABIsAzAiRungWMmksEiAARIHFTDhABIkAEeEaAxM2zgFFziQARIAIkbsoBIkAEiADPCJC4eRYwai4RIAJEgMRNOUAEiAAR4BkBEjfPAkbNJQJEgAiQuCkHiAARIAI8I0Di5lnAqLlEgAgQgS0V9zzmKQJEgAgQASJgIoEtEbeiT4F3H76LOcyZ2FzanAgQASJABLZE3G2qNrwa9io+ivsIH8XTixhQDlAOUA6YkgNbIm7m72W/ph8tIy1oGaUXMaAcoBygHDAlB7ZM3HSyQwSIABEgAuYRIHGbx432IgJEgAhsGQES95ahp4qJABEgAuYRIHGbx432IgJEgAhsGQES95ahp4qJABEgAuYRIHGbx432IgJEgAhsGQES95ahp4qJABEgAuYR+H8sS6S5T2SusAAAAABJRU5ErkJggg==;" vertex="1" parent="1">
          <mxGeometry x="350" y="1945" width="220.15" height="160" as="geometry" />
        </mxCell>
      </root>
    </mxGraphModel>
  </diagram>
</mxfile>
